<svg id="svg" version="1.1" xmlns="http://www.w3.org/2000/svg" xmlns:xlink="http://www.w3.org/1999/xlink" width="400" height="21.136063408190225" viewBox="0, 0, 400,21.136063408190225"><g id="svgg"><path id="path0" d="M231.427 1.208 C 225.155 8.697,218.390 11.445,210.000 9.911 C 209.129 9.752,208.079 9.592,207.667 9.556 L 206.917 9.491 206.011 10.871 C 203.427 14.808,199.141 17.918,195.093 18.793 C 192.528 19.347,186.971 19.097,185.083 18.343 C 184.900 18.270,184.225 18.036,183.583 17.824 C 182.942 17.611,181.456 17.007,180.282 16.481 L 178.147 15.524 176.198 16.329 C 169.102 19.258,161.899 17.414,156.180 11.203 L 154.862 9.772 153.723 10.127 C 153.096 10.323,152.283 10.557,151.917 10.648 C 151.550 10.738,150.875 10.910,150.417 11.030 C 149.136 11.364,143.843 11.317,142.667 10.962 C 142.162 10.809,141.452 10.597,141.087 10.491 C 139.292 9.965,136.713 8.142,135.250 6.364 C 134.213 5.103,134.446 5.067,132.444 6.798 C 130.249 8.696,128.895 9.648,127.250 10.450 C 120.692 13.645,112.874 11.777,106.006 5.375 C 105.455 4.861,105.405 4.873,103.376 5.963 C 101.761 6.830,100.783 7.239,99.000 7.793 C 95.807 8.786,89.198 8.335,85.892 6.899 C 83.973 6.065,82.355 5.259,81.886 4.903 C 81.594 4.681,81.317 4.500,81.270 4.500 C 81.223 4.500,80.737 4.238,80.189 3.917 C 78.990 3.214,78.874 3.205,78.615 3.792 C 77.251 6.883,73.906 9.534,70.450 10.260 C 68.320 10.709,61.589 10.484,60.136 9.916 C 59.946 9.841,59.730 9.956,59.469 10.270 C 49.676 22.039,39.446 23.263,29.167 13.897 L 28.583 13.365 27.634 13.831 C 27.111 14.087,26.361 14.410,25.967 14.549 C 25.573 14.689,24.725 14.997,24.083 15.235 C 15.138 18.553,5.417 15.699,0.718 8.375 C 0.409 7.894,0.121 7.500,0.078 7.500 C 0.035 7.500,0.000 10.537,0.000 14.250 L 0.000 21.000 1.250 21.000 C 1.978 21.000,2.500 20.930,2.500 20.832 C 2.500 20.720,48.484 20.679,142.000 20.707 C 218.725 20.731,281.500 20.691,281.500 20.620 C 281.500 20.473,281.444 20.455,280.167 20.174 C 276.193 19.301,271.683 16.931,268.802 14.202 L 268.188 13.620 267.386 14.000 C 266.944 14.210,265.954 14.676,265.184 15.037 C 254.204 20.183,241.114 15.097,233.000 2.531 C 231.780 0.642,231.851 0.701,231.427 1.208 M318.439 4.226 C 316.024 8.348,311.335 10.833,305.974 10.833 C 304.777 10.833,300.792 10.257,299.558 9.905 C 299.264 9.821,299.072 9.977,298.486 10.777 C 296.831 13.033,293.710 16.268,291.788 17.719 C 290.251 18.880,288.204 19.720,285.445 20.321 C 285.094 20.398,284.741 20.525,284.662 20.605 C 284.579 20.687,304.013 20.750,329.508 20.750 C 372.033 20.750,376.793 20.703,373.570 20.319 C 372.413 20.181,369.912 19.295,367.833 18.287 C 366.744 17.758,364.757 16.340,363.216 14.990 C 361.264 13.280,361.486 13.348,359.985 14.007 C 353.453 16.873,346.269 17.336,341.621 15.188 C 341.000 14.901,340.459 14.667,340.418 14.667 C 339.283 14.667,334.580 10.318,333.078 7.880 L 332.739 7.330 329.245 7.280 C 325.761 7.230,325.492 7.193,323.750 6.521 C 322.556 6.062,321.067 5.198,320.116 4.413 C 318.792 3.321,318.959 3.340,318.439 4.226 M390.612 12.147 C 387.636 16.203,383.327 19.362,379.667 20.172 C 378.386 20.456,378.333 20.474,378.333 20.620 C 378.333 20.691,382.279 20.725,387.102 20.694 C 393.253 20.655,395.926 20.692,396.053 20.819 C 396.161 20.928,396.985 21.000,398.117 21.000 L 400.000 21.000 400.000 16.615 L 400.000 12.230 398.625 12.228 C 397.869 12.226,396.688 12.101,396.000 11.948 C 394.749 11.671,392.543 11.119,391.917 10.926 C 391.645 10.842,391.403 11.069,390.612 12.147 M282.960 20.951 C 283.168 20.991,283.468 20.990,283.627 20.948 C 283.786 20.906,283.617 20.874,283.250 20.875 C 282.883 20.877,282.753 20.911,282.960 20.951 M375.713 20.956 C 376.152 20.990,376.827 20.990,377.213 20.955 C 377.600 20.920,377.242 20.892,376.417 20.892 C 375.592 20.893,375.275 20.922,375.713 20.956 " stroke="none" fill="#0f9dbc" fill-rule="evenodd"></path><path id="path1" d="M230.406 2.042 L 229.917 2.583 230.458 2.094 C 230.963 1.638,231.077 1.500,230.948 1.500 C 230.919 1.500,230.675 1.744,230.406 2.042 M229.324 3.292 L 228.750 3.917 229.375 3.342 C 229.957 2.808,230.077 2.667,229.949 2.667 C 229.922 2.667,229.640 2.948,229.324 3.292 M318.833 3.284 C 318.971 3.334,319.308 3.572,319.583 3.812 L 320.083 4.250 319.594 3.708 C 319.325 3.410,318.987 3.173,318.844 3.180 C 318.619 3.191,318.618 3.206,318.833 3.284 M104.942 4.792 C 104.900 4.860,105.076 4.917,105.333 4.917 C 105.591 4.917,105.767 4.860,105.724 4.792 C 105.682 4.723,105.506 4.667,105.333 4.667 C 105.161 4.667,104.985 4.723,104.942 4.792 M133.573 5.542 L 133.083 6.083 133.631 5.588 C 134.128 5.139,134.212 5.115,134.547 5.324 C 134.885 5.534,134.897 5.530,134.688 5.277 C 134.357 4.876,134.124 4.932,133.573 5.542 M83.500 5.582 C 83.500 5.695,84.854 6.368,84.929 6.293 C 84.964 6.258,84.657 6.066,84.246 5.867 C 83.836 5.668,83.500 5.539,83.500 5.582 M134.833 5.719 C 134.833 5.748,135.077 5.991,135.375 6.260 L 135.917 6.750 135.427 6.208 C 134.971 5.703,134.833 5.590,134.833 5.719 M236.250 6.667 C 236.701 7.125,237.108 7.500,237.154 7.500 C 237.200 7.500,236.868 7.125,236.417 6.667 C 235.965 6.208,235.558 5.833,235.513 5.833 C 235.467 5.833,235.799 6.208,236.250 6.667 M132.406 6.542 L 131.917 7.083 132.458 6.594 C 132.756 6.325,133.000 6.081,133.000 6.052 C 133.000 5.923,132.862 6.037,132.406 6.542 M136.333 7.417 C 136.644 7.737,136.936 8.000,136.982 8.000 C 137.028 8.000,136.811 7.737,136.500 7.417 C 136.189 7.096,135.897 6.833,135.851 6.833 C 135.805 6.833,136.022 7.096,136.333 7.417 M325.708 6.948 C 325.869 6.990,326.131 6.990,326.292 6.948 C 326.452 6.906,326.321 6.872,326.000 6.872 C 325.679 6.872,325.548 6.906,325.708 6.948 M131.240 7.542 L 130.750 8.083 131.292 7.594 C 131.590 7.325,131.833 7.081,131.833 7.052 C 131.833 6.923,131.696 7.037,131.240 7.542 M224.292 7.262 C 223.669 7.600,223.707 7.741,224.333 7.417 C 224.608 7.274,224.833 7.123,224.833 7.079 C 224.833 6.972,224.815 6.978,224.292 7.262 M328.375 7.286 C 328.627 7.324,329.040 7.324,329.292 7.286 C 329.544 7.248,329.337 7.217,328.833 7.217 C 328.329 7.217,328.123 7.248,328.375 7.286 M237.167 7.719 C 237.167 7.748,237.410 7.991,237.708 8.260 L 238.250 8.750 237.760 8.208 C 237.304 7.703,237.167 7.590,237.167 7.719 M91.877 8.120 C 92.131 8.158,92.506 8.157,92.711 8.117 C 92.916 8.078,92.708 8.046,92.250 8.048 C 91.792 8.049,91.624 8.081,91.877 8.120 M94.875 8.119 C 95.127 8.158,95.540 8.158,95.792 8.119 C 96.044 8.081,95.837 8.050,95.333 8.050 C 94.829 8.050,94.623 8.081,94.875 8.119 M129.994 8.512 L 129.417 9.024 130.042 8.576 C 130.594 8.179,130.774 8.000,130.619 8.000 C 130.592 8.000,130.311 8.230,129.994 8.512 M110.322 8.468 C 110.545 8.649,110.958 8.924,111.239 9.079 L 111.750 9.361 111.344 9.032 C 111.121 8.851,110.709 8.576,110.428 8.421 L 109.917 8.139 110.322 8.468 M222.000 8.417 C 221.771 8.548,221.658 8.655,221.750 8.655 C 221.842 8.655,222.104 8.548,222.333 8.417 C 222.563 8.286,222.675 8.178,222.583 8.178 C 222.492 8.178,222.229 8.286,222.000 8.417 M239.583 10.000 C 239.941 10.367,240.272 10.667,240.318 10.667 C 240.363 10.667,240.108 10.367,239.750 10.000 C 239.392 9.633,239.062 9.333,239.016 9.333 C 238.970 9.333,239.225 9.633,239.583 10.000 M60.417 9.833 C 60.600 9.912,60.900 9.974,61.083 9.972 C 61.351 9.968,61.335 9.941,61.000 9.833 C 60.430 9.651,59.992 9.651,60.417 9.833 M155.660 10.375 C 156.068 10.810,156.425 11.167,156.451 11.167 C 156.577 11.167,156.444 11.017,155.708 10.326 L 154.917 9.583 155.660 10.375 M299.917 9.833 C 300.100 9.912,300.362 9.977,300.500 9.977 C 300.658 9.977,300.627 9.924,300.417 9.833 C 300.233 9.755,299.971 9.690,299.833 9.690 C 299.676 9.690,299.707 9.743,299.917 9.833 M216.208 9.948 C 216.369 9.990,216.631 9.990,216.792 9.948 C 216.952 9.906,216.821 9.872,216.500 9.872 C 216.179 9.872,216.048 9.906,216.208 9.948 M213.625 10.118 C 213.831 10.157,214.169 10.157,214.375 10.118 C 214.581 10.078,214.412 10.045,214.000 10.045 C 213.588 10.045,213.419 10.078,213.625 10.118 M64.708 10.291 C 65.602 10.321,67.065 10.321,67.958 10.291 C 68.852 10.261,68.121 10.236,66.333 10.236 C 64.546 10.236,63.815 10.261,64.708 10.291 M303.542 10.448 C 303.702 10.490,303.965 10.490,304.125 10.448 C 304.285 10.406,304.154 10.372,303.833 10.372 C 303.512 10.372,303.381 10.406,303.542 10.448 M307.958 10.451 C 308.165 10.491,308.502 10.491,308.708 10.451 C 308.915 10.411,308.746 10.379,308.333 10.379 C 307.921 10.379,307.752 10.411,307.958 10.451 M3.583 11.500 C 4.128 12.050,4.610 12.500,4.656 12.500 C 4.702 12.500,4.294 12.050,3.750 11.500 C 3.206 10.950,2.723 10.500,2.677 10.500 C 2.631 10.500,3.039 10.950,3.583 11.500 M57.909 11.708 L 57.250 12.417 57.958 11.758 C 58.348 11.395,58.667 11.077,58.667 11.050 C 58.667 10.923,58.522 11.050,57.909 11.708 M145.382 11.124 C 146.004 11.156,146.979 11.156,147.549 11.123 C 148.118 11.091,147.608 11.064,146.417 11.065 C 145.225 11.065,144.759 11.092,145.382 11.124 M336.333 11.583 C 336.644 11.904,336.936 12.167,336.982 12.167 C 337.028 12.167,336.811 11.904,336.500 11.583 C 336.189 11.262,335.897 11.000,335.851 11.000 C 335.805 11.000,336.022 11.262,336.333 11.583 M118.708 11.786 C 118.960 11.824,119.373 11.824,119.625 11.786 C 119.877 11.748,119.671 11.717,119.167 11.717 C 118.662 11.717,118.456 11.748,118.708 11.786 M121.708 11.786 C 121.960 11.824,122.373 11.824,122.625 11.786 C 122.877 11.748,122.671 11.717,122.167 11.717 C 121.662 11.717,121.456 11.748,121.708 11.786 M398.125 12.118 C 398.331 12.157,398.669 12.157,398.875 12.118 C 399.081 12.078,398.912 12.045,398.500 12.045 C 398.087 12.045,397.919 12.078,398.125 12.118 M56.244 13.542 L 55.417 14.417 56.292 13.590 C 56.773 13.135,57.167 12.741,57.167 12.715 C 57.167 12.590,57.012 12.729,56.244 13.542 M203.162 13.958 L 202.083 15.083 203.208 14.005 C 204.253 13.003,204.410 12.833,204.287 12.833 C 204.261 12.833,203.755 13.340,203.162 13.958 M295.833 13.583 C 295.428 13.996,295.135 14.333,295.181 14.333 C 295.226 14.333,295.595 13.996,296.000 13.583 C 296.405 13.171,296.699 12.833,296.653 12.833 C 296.607 12.833,296.238 13.171,295.833 13.583 M387.913 14.875 L 386.417 16.417 387.958 14.920 C 389.390 13.530,389.576 13.333,389.455 13.333 C 389.430 13.333,388.736 14.027,387.913 14.875 M268.833 14.083 C 269.144 14.404,269.436 14.667,269.482 14.667 C 269.528 14.667,269.311 14.404,269.000 14.083 C 268.689 13.762,268.397 13.500,268.351 13.500 C 268.305 13.500,268.522 13.762,268.833 14.083 M6.500 13.743 C 6.500 13.857,8.005 14.717,8.077 14.645 C 8.112 14.610,7.771 14.376,7.320 14.125 C 6.869 13.873,6.500 13.701,6.500 13.743 M362.833 14.385 C 362.833 14.414,363.077 14.658,363.375 14.927 L 363.917 15.417 363.427 14.875 C 362.971 14.370,362.833 14.257,362.833 14.385 M293.910 15.542 L 293.083 16.417 293.958 15.590 C 294.440 15.135,294.833 14.741,294.833 14.715 C 294.833 14.590,294.679 14.729,293.910 15.542 M177.333 15.583 C 177.104 15.714,176.992 15.822,177.083 15.822 C 177.175 15.822,177.438 15.714,177.667 15.583 C 177.896 15.452,178.008 15.345,177.917 15.345 C 177.825 15.345,177.563 15.452,177.333 15.583 M178.500 15.415 C 178.500 15.529,179.520 16.035,179.597 15.959 C 179.633 15.923,179.401 15.768,179.081 15.616 C 178.762 15.463,178.500 15.373,178.500 15.415 M364.000 15.385 C 364.000 15.414,364.244 15.658,364.542 15.927 L 365.083 16.417 364.594 15.875 C 364.138 15.370,364.000 15.257,364.000 15.385 M346.211 16.286 C 346.464 16.325,346.839 16.324,347.044 16.284 C 347.249 16.244,347.042 16.213,346.583 16.214 C 346.125 16.216,345.957 16.248,346.211 16.286 M350.625 16.284 C 350.831 16.324,351.169 16.324,351.375 16.284 C 351.581 16.245,351.412 16.212,351.000 16.212 C 350.587 16.212,350.419 16.245,350.625 16.284 M15.131 16.456 C 15.615 16.490,16.365 16.490,16.797 16.456 C 17.230 16.421,16.833 16.394,15.917 16.394 C 15.000 16.395,14.646 16.423,15.131 16.456 M199.458 16.762 C 198.835 17.100,198.873 17.241,199.500 16.917 C 199.775 16.774,200.000 16.623,200.000 16.579 C 200.000 16.472,199.982 16.478,199.458 16.762 M254.296 16.789 C 254.688 16.824,255.288 16.824,255.629 16.788 C 255.971 16.752,255.650 16.723,254.917 16.724 C 254.183 16.724,253.904 16.754,254.296 16.789 M256.960 16.785 C 257.168 16.824,257.468 16.823,257.627 16.781 C 257.786 16.739,257.617 16.707,257.250 16.709 C 256.883 16.711,256.753 16.745,256.960 16.785 M167.877 17.453 C 168.131 17.491,168.506 17.490,168.711 17.451 C 168.916 17.411,168.708 17.380,168.250 17.381 C 167.792 17.382,167.624 17.415,167.877 17.453 M170.792 17.451 C 170.998 17.491,171.335 17.491,171.542 17.451 C 171.748 17.411,171.579 17.379,171.167 17.379 C 170.754 17.379,170.585 17.411,170.792 17.451 M383.208 18.519 C 382.640 18.883,382.456 19.127,382.958 18.851 C 383.341 18.641,383.940 18.178,383.833 18.175 C 383.787 18.173,383.506 18.328,383.208 18.519 M189.544 18.953 C 189.797 18.991,190.172 18.990,190.377 18.951 C 190.582 18.911,190.375 18.880,189.917 18.881 C 189.458 18.882,189.291 18.915,189.544 18.953 M191.877 18.953 C 192.131 18.991,192.506 18.990,192.711 18.951 C 192.916 18.911,192.708 18.880,192.250 18.881 C 191.792 18.882,191.624 18.915,191.877 18.953 M41.208 19.786 C 41.460 19.824,41.873 19.824,42.125 19.786 C 42.377 19.748,42.171 19.717,41.667 19.717 C 41.162 19.717,40.956 19.748,41.208 19.786 M44.708 19.782 C 44.869 19.823,45.131 19.823,45.292 19.782 C 45.452 19.740,45.321 19.705,45.000 19.705 C 44.679 19.705,44.548 19.740,44.708 19.782 M282.297 20.290 C 282.782 20.324,283.532 20.323,283.964 20.289 C 284.396 20.255,284.000 20.227,283.083 20.228 C 282.167 20.228,281.813 20.256,282.297 20.290 M375.465 20.290 C 376.041 20.323,376.941 20.323,377.465 20.290 C 377.988 20.257,377.517 20.230,376.417 20.230 C 375.317 20.231,374.888 20.258,375.465 20.290 " stroke="none" fill="#98d6e3" fill-rule="evenodd"></path><path id="path2" d="M0.000 3.500 C 0.000 5.425,0.056 7.001,0.125 7.001 C 0.194 7.002,0.435 7.283,0.661 7.626 C 2.579 10.535,5.860 13.494,8.319 14.532 C 8.739 14.710,9.233 14.922,9.417 15.004 C 11.390 15.887,13.573 16.218,16.750 16.115 C 20.851 15.983,23.143 15.419,27.460 13.478 L 28.669 12.935 29.293 13.524 C 31.990 16.072,36.125 18.414,39.090 19.073 C 39.820 19.235,40.634 19.435,40.900 19.517 C 43.858 20.433,49.375 18.906,52.886 16.199 C 53.636 15.621,54.457 15.013,54.711 14.849 C 55.097 14.599,57.921 11.574,59.306 9.927 C 59.633 9.539,59.781 9.481,60.223 9.571 C 62.541 10.040,68.625 10.200,70.478 9.841 C 72.401 9.469,75.192 7.876,76.307 6.515 C 77.243 5.372,78.071 4.150,78.317 3.547 C 78.696 2.620,79.173 2.733,81.667 4.337 C 88.406 8.674,96.528 9.122,103.349 5.535 L 105.448 4.431 107.099 5.808 C 113.504 11.150,120.095 12.958,125.417 10.833 C 128.038 9.787,129.550 8.818,132.374 6.380 C 134.517 4.529,134.195 4.558,135.491 6.099 C 136.713 7.552,137.729 8.363,139.500 9.301 C 143.229 11.277,147.573 11.504,152.794 9.995 C 155.091 9.331,154.949 9.295,156.434 10.930 C 161.264 16.250,168.916 18.685,174.417 16.651 C 175.570 16.225,177.428 15.433,177.575 15.305 C 177.874 15.044,178.446 15.167,179.640 15.748 C 182.354 17.069,184.929 17.991,186.917 18.353 C 195.254 19.872,201.992 16.903,206.302 9.811 C 206.738 9.093,207.009 8.999,208.099 9.184 C 218.000 10.869,224.033 9.001,229.888 2.439 C 231.549 0.578,232.167 0.045,232.167 0.474 C 232.167 0.648,234.344 3.926,235.242 5.105 C 236.262 6.444,238.187 8.461,239.792 9.873 C 242.971 12.669,244.124 13.408,247.979 15.119 C 250.650 16.305,256.608 16.955,259.292 16.353 C 259.727 16.256,260.458 16.096,260.917 15.997 C 262.618 15.633,264.134 15.103,265.971 14.230 C 268.081 13.228,268.313 13.183,268.766 13.686 C 269.053 14.005,272.275 16.500,272.400 16.500 C 272.429 16.500,273.119 16.885,273.934 17.355 C 275.377 18.188,278.132 19.331,278.698 19.333 C 278.854 19.333,279.022 19.400,279.072 19.482 C 279.398 20.009,284.159 20.232,286.000 19.808 C 290.289 18.819,293.516 16.462,297.534 11.384 C 299.161 9.327,298.951 9.414,301.226 9.865 C 308.829 11.370,314.893 9.309,318.003 4.161 C 318.839 2.778,318.781 2.788,319.971 3.817 C 321.226 4.902,322.305 5.515,324.279 6.267 L 325.917 6.891 329.404 6.922 L 332.891 6.953 333.654 8.032 C 336.359 11.857,340.347 14.818,343.750 15.528 C 348.044 16.424,351.532 16.361,354.833 15.328 C 355.063 15.257,356.037 14.960,357.000 14.669 C 358.695 14.156,359.184 13.970,360.573 13.311 C 361.465 12.888,361.305 12.816,363.300 14.555 C 368.851 19.393,376.035 21.429,380.750 19.501 C 380.933 19.426,381.421 19.239,381.833 19.086 C 384.184 18.214,388.581 14.458,390.583 11.611 C 391.352 10.519,391.652 10.391,392.674 10.719 C 393.440 10.965,395.839 11.503,397.566 11.815 C 398.270 11.942,398.754 11.941,399.274 11.810 L 400.000 11.627 400.000 5.814 L 400.000 0.000 200.000 0.000 L 0.000 0.000 0.000 3.500 " stroke="none" fill="#fbfcfc" fill-rule="evenodd"></path><path id="path3" d="M230.756 1.792 C 228.121 4.911,225.984 6.627,222.790 8.187 C 221.852 8.646,221.271 8.969,221.500 8.905 C 224.021 8.203,227.681 5.573,230.177 2.668 C 231.686 0.913,231.824 0.765,231.879 0.845 C 231.906 0.885,232.447 1.704,233.083 2.667 C 237.255 8.987,244.397 14.898,249.092 15.917 C 249.362 15.976,248.868 15.728,247.993 15.365 C 242.135 12.941,237.276 8.709,233.081 2.375 C 231.738 0.348,231.933 0.397,230.756 1.792 M78.601 3.430 C 78.445 3.837,78.491 3.950,78.680 3.625 C 78.914 3.223,79.051 3.249,80.201 3.924 C 80.755 4.248,81.240 4.482,81.279 4.443 C 81.383 4.339,79.241 3.167,78.949 3.167 C 78.813 3.167,78.657 3.285,78.601 3.430 M318.057 4.460 C 316.345 7.236,313.361 9.383,310.101 10.184 C 309.450 10.344,309.067 10.480,309.250 10.486 C 311.788 10.564,316.416 7.504,318.240 4.542 C 319.007 3.295,318.781 3.312,320.100 4.400 C 321.202 5.309,322.940 6.338,323.357 6.328 C 323.481 6.325,323.042 6.044,322.380 5.703 C 321.718 5.362,320.685 4.690,320.084 4.208 C 318.739 3.132,318.888 3.113,318.057 4.460 M77.877 4.783 C 76.153 7.566,73.360 9.517,70.253 10.110 C 68.101 10.520,61.008 10.270,60.173 9.754 C 60.079 9.696,59.874 9.721,59.716 9.809 C 59.473 9.945,59.491 9.968,59.840 9.965 C 60.065 9.963,60.993 10.082,61.902 10.230 C 68.411 11.293,73.799 10.007,76.609 6.720 C 77.546 5.624,78.552 4.163,78.444 4.055 C 78.404 4.016,78.149 4.343,77.877 4.783 M81.833 4.836 C 82.278 5.229,84.492 6.397,84.596 6.293 C 84.630 6.259,84.191 5.990,83.621 5.695 C 83.050 5.401,82.321 5.004,82.000 4.814 L 81.417 4.467 81.833 4.836 M103.500 5.708 C 102.629 6.184,101.279 6.817,100.500 7.115 C 99.721 7.412,99.188 7.658,99.316 7.661 C 99.785 7.672,101.628 6.901,103.376 5.963 C 105.267 4.947,105.480 4.880,105.800 5.200 C 105.934 5.334,106.000 5.340,106.000 5.218 C 106.000 5.030,105.621 4.830,105.278 4.837 C 105.171 4.840,104.371 5.231,103.500 5.708 M132.750 6.355 C 130.693 8.164,129.104 9.324,127.613 10.108 C 126.046 10.931,125.994 11.092,127.546 10.314 C 128.933 9.619,130.400 8.566,132.444 6.798 C 134.446 5.067,134.213 5.103,135.250 6.364 C 136.683 8.105,139.531 10.132,140.938 10.412 C 141.416 10.507,141.416 10.507,141.000 10.312 C 138.248 9.025,136.888 8.072,135.540 6.485 C 134.195 4.903,134.391 4.912,132.750 6.355 M106.191 5.471 C 106.443 6.150,113.296 10.760,113.601 10.455 C 113.642 10.413,113.130 10.094,112.463 9.746 C 110.917 8.938,109.169 7.764,107.470 6.393 C 106.734 5.798,106.158 5.384,106.191 5.471 M84.892 6.448 C 85.147 6.703,88.319 7.737,88.449 7.607 C 88.495 7.560,88.207 7.438,87.808 7.336 C 87.410 7.233,86.614 6.966,86.040 6.741 C 84.961 6.319,84.696 6.252,84.892 6.448 M323.758 6.474 C 324.067 6.748,325.766 7.161,326.917 7.242 L 328.083 7.324 326.632 7.099 C 325.833 6.976,324.876 6.753,324.503 6.604 C 323.751 6.303,323.521 6.263,323.758 6.474 M330.917 7.173 L 329.583 7.287 331.142 7.276 L 332.700 7.265 333.058 7.847 C 334.737 10.575,338.133 13.656,340.716 14.795 C 341.580 15.175,341.424 14.996,340.417 14.451 C 337.732 12.996,335.217 10.743,333.576 8.324 C 333.114 7.643,332.626 7.079,332.493 7.072 C 332.359 7.064,331.650 7.110,330.917 7.173 M0.009 7.197 C -0.047 7.925,4.235 12.504,6.125 13.737 C 9.562 15.979,14.184 17.051,18.250 16.549 C 19.206 16.431,18.860 16.404,16.333 16.404 C 9.403 16.402,4.597 13.730,0.300 7.494 C 0.145 7.268,0.014 7.134,0.009 7.197 M88.851 7.729 C 89.514 8.459,98.278 8.481,98.959 7.755 C 99.027 7.682,98.783 7.678,98.417 7.745 C 95.292 8.319,92.177 8.316,89.333 7.737 C 89.013 7.672,88.795 7.669,88.851 7.729 M220.167 9.250 C 219.785 9.397,219.698 9.477,219.917 9.481 C 220.100 9.485,220.438 9.381,220.667 9.250 C 221.186 8.953,220.938 8.953,220.167 9.250 M206.579 9.792 C 203.715 14.281,199.786 17.412,195.667 18.488 C 194.979 18.668,194.567 18.818,194.750 18.822 C 197.682 18.885,203.355 14.888,206.011 10.886 C 206.863 9.603,206.956 9.519,207.583 9.457 L 208.250 9.392 207.561 9.362 C 206.975 9.338,206.828 9.402,206.579 9.792 M208.365 9.588 C 209.068 10.290,216.083 10.386,219.145 9.734 C 220.187 9.513,219.222 9.537,217.989 9.763 C 216.111 10.108,211.882 10.107,210.000 9.761 C 208.464 9.479,208.232 9.454,208.365 9.588 M154.284 9.772 C 154.226 9.830,153.707 10.012,153.131 10.177 C 152.555 10.341,152.233 10.482,152.417 10.490 C 152.600 10.497,153.224 10.337,153.802 10.134 L 154.855 9.764 156.177 11.200 C 157.611 12.757,159.015 13.925,160.583 14.864 C 161.890 15.647,164.269 16.833,164.533 16.833 C 164.647 16.833,163.800 16.363,162.652 15.788 C 159.933 14.425,158.643 13.487,156.608 11.388 C 155.088 9.821,154.585 9.471,154.284 9.772 M298.736 10.214 C 298.469 10.529,297.817 11.348,297.289 12.034 C 295.154 14.806,291.889 17.674,289.655 18.742 C 288.791 19.155,288.177 19.495,288.291 19.497 C 290.098 19.526,295.384 15.005,298.485 10.778 C 299.125 9.905,299.243 9.817,299.641 9.921 C 300.893 10.249,302.314 10.498,302.833 10.479 C 303.338 10.461,303.304 10.440,302.583 10.323 C 301.317 10.118,299.957 9.856,299.570 9.743 C 299.310 9.668,299.100 9.786,298.736 10.214 M57.526 12.258 C 56.489 13.408,54.951 14.889,54.109 15.549 C 50.627 18.280,48.233 19.410,45.083 19.810 C 44.144 19.929,44.056 19.962,44.632 19.979 C 48.618 20.096,55.012 15.982,59.169 10.625 C 59.884 9.703,59.370 10.214,57.526 12.258 M113.889 10.611 C 114.052 10.774,116.180 11.500,116.487 11.498 C 116.632 11.497,116.112 11.273,115.333 11.000 C 113.806 10.466,113.721 10.443,113.889 10.611 M141.667 10.667 C 141.804 10.756,142.067 10.824,142.250 10.819 L 142.583 10.810 142.250 10.667 C 141.752 10.453,141.335 10.453,141.667 10.667 M151.167 10.667 L 150.750 10.800 151.167 10.814 C 151.396 10.822,151.696 10.756,151.833 10.667 C 152.152 10.461,151.809 10.461,151.167 10.667 M304.083 10.672 C 304.776 10.841,307.111 10.843,307.917 10.676 C 308.379 10.580,307.819 10.539,306.083 10.544 C 304.674 10.548,303.801 10.604,304.083 10.672 M391.898 10.860 C 392.265 11.073,393.802 11.499,394.167 11.489 C 394.378 11.483,391.909 10.682,391.667 10.678 C 391.621 10.677,391.725 10.759,391.898 10.860 M125.500 11.036 C 125.271 11.135,124.596 11.349,124.000 11.510 C 123.404 11.672,123.084 11.811,123.288 11.819 C 123.704 11.835,125.829 11.190,126.075 10.973 C 126.293 10.781,126.017 10.811,125.500 11.036 M143.000 11.039 C 143.543 11.302,149.735 11.299,150.333 11.036 C 150.663 10.891,150.523 10.877,149.667 10.968 C 148.238 11.120,144.468 11.116,143.417 10.960 C 142.699 10.854,142.641 10.865,143.000 11.039 M390.586 11.958 C 388.135 15.279,384.217 18.488,381.351 19.523 C 380.654 19.775,380.194 19.986,380.330 19.991 C 382.502 20.073,388.889 14.983,391.246 11.292 C 391.771 10.469,391.435 10.809,390.586 11.958 M117.167 11.667 C 117.396 11.740,117.771 11.800,118.000 11.800 L 118.417 11.800 118.000 11.667 C 117.771 11.593,117.396 11.533,117.167 11.533 L 116.750 11.533 117.167 11.667 M394.750 11.667 C 394.933 11.745,395.233 11.810,395.417 11.810 L 395.750 11.810 395.417 11.667 C 395.233 11.588,394.933 11.523,394.750 11.523 L 394.417 11.523 394.750 11.667 M119.958 11.956 C 120.440 11.990,121.227 11.990,121.708 11.956 C 122.190 11.923,121.796 11.895,120.833 11.895 C 119.871 11.895,119.477 11.923,119.958 11.956 M396.382 11.991 C 397.139 12.236,398.872 12.347,399.500 12.191 C 399.987 12.070,399.891 12.049,398.917 12.065 C 398.275 12.075,397.337 12.029,396.833 11.962 C 396.211 11.879,396.066 11.889,396.382 11.991 M28.000 13.437 C 27.771 13.568,27.096 13.901,26.500 14.176 C 25.904 14.451,25.604 14.628,25.833 14.570 C 26.063 14.512,26.775 14.218,27.417 13.918 L 28.583 13.373 29.167 13.901 C 30.713 15.300,33.229 17.087,34.784 17.891 C 35.921 18.479,35.465 18.119,33.769 17.091 C 32.202 16.141,29.002 13.741,28.743 13.321 C 28.621 13.125,28.513 13.142,28.000 13.437 M360.917 13.433 C 360.596 13.679,360.601 13.684,361.032 13.579 C 361.424 13.483,361.695 13.657,363.198 14.974 C 364.755 16.338,366.740 17.757,367.833 18.287 C 369.465 19.078,372.133 20.089,372.259 19.963 C 372.297 19.925,371.824 19.718,371.206 19.504 C 368.030 18.403,365.908 17.147,363.197 14.762 C 361.221 13.024,361.351 13.100,360.917 13.433 M266.083 14.423 C 263.696 15.587,260.771 16.452,258.333 16.717 C 257.822 16.772,257.842 16.783,258.503 16.807 C 259.602 16.846,263.564 15.796,265.184 15.037 C 265.954 14.676,266.944 14.210,267.386 14.000 L 268.188 13.620 268.802 14.202 C 271.683 16.931,276.193 19.301,280.167 20.174 C 281.444 20.455,281.500 20.473,281.500 20.620 C 281.500 20.691,218.725 20.731,142.000 20.707 C 47.854 20.678,2.500 20.719,2.500 20.833 C 2.500 20.947,66.496 21.001,199.364 20.998 C 338.844 20.995,396.176 20.942,396.050 20.816 C 395.927 20.693,393.164 20.656,387.102 20.694 C 378.766 20.747,377.038 20.661,379.161 20.299 C 379.556 20.231,379.925 20.130,379.981 20.073 C 380.037 20.015,379.708 20.032,379.250 20.109 C 378.231 20.281,374.580 20.294,373.352 20.130 C 372.859 20.064,372.507 20.063,372.571 20.127 C 372.635 20.190,373.070 20.282,373.539 20.330 C 377.144 20.698,371.693 20.750,329.497 20.750 C 293.454 20.750,284.551 20.709,284.779 20.542 C 284.936 20.427,285.256 20.332,285.490 20.331 C 285.725 20.329,286.029 20.248,286.167 20.150 C 286.362 20.010,286.325 19.994,286.000 20.074 C 281.359 21.217,272.282 17.973,268.599 13.855 C 268.184 13.391,268.213 13.385,266.083 14.423 M359.573 14.007 C 358.508 14.497,354.814 15.631,353.123 15.986 C 352.276 16.164,351.753 16.315,351.960 16.321 C 353.007 16.354,358.579 14.741,359.984 13.998 C 360.752 13.592,360.459 13.598,359.573 14.007 M24.333 15.000 C 23.921 15.173,23.696 15.313,23.833 15.312 C 24.113 15.308,25.511 14.693,25.250 14.688 C 25.158 14.687,24.746 14.827,24.333 15.000 M341.500 15.076 C 341.500 15.240,343.004 15.803,343.689 15.895 L 344.417 15.992 343.667 15.770 C 343.254 15.648,342.626 15.425,342.271 15.274 C 341.577 14.979,341.500 14.959,341.500 15.076 M22.500 15.583 C 22.121 15.729,22.034 15.810,22.250 15.813 C 22.433 15.816,22.808 15.715,23.083 15.589 C 23.728 15.294,23.264 15.289,22.500 15.583 M177.667 15.583 C 177.202 15.849,177.347 15.927,177.828 15.670 C 178.061 15.545,178.472 15.662,179.570 16.170 C 181.499 17.061,181.626 16.996,179.750 16.077 C 178.029 15.234,178.205 15.276,177.667 15.583 M20.511 16.023 C 20.013 16.105,19.563 16.217,19.511 16.272 C 19.386 16.403,21.157 16.162,21.583 15.989 C 22.004 15.819,21.678 15.829,20.511 16.023 M176.500 16.083 C 176.271 16.214,176.158 16.322,176.250 16.322 C 176.342 16.322,176.604 16.214,176.833 16.083 C 177.063 15.952,177.175 15.845,177.083 15.845 C 176.992 15.845,176.729 15.952,176.500 16.083 M249.917 16.167 C 250.100 16.245,250.362 16.310,250.500 16.310 C 250.658 16.310,250.627 16.257,250.417 16.167 C 250.233 16.088,249.971 16.023,249.833 16.023 C 249.676 16.023,249.707 16.076,249.917 16.167 M345.250 16.266 C 346.083 16.502,351.239 16.650,351.445 16.443 C 351.499 16.390,350.304 16.344,348.790 16.343 C 347.276 16.341,345.837 16.263,345.591 16.170 C 345.346 16.076,344.981 16.007,344.781 16.015 C 344.581 16.023,344.792 16.136,345.250 16.266 M174.387 16.846 C 172.084 17.629,168.009 17.745,165.805 17.090 C 165.331 16.950,164.914 16.863,164.879 16.899 C 164.179 17.599,171.355 17.942,173.583 17.315 C 174.434 17.076,176.000 16.481,176.000 16.397 C 176.000 16.305,175.892 16.335,174.387 16.846 M251.167 16.507 C 251.396 16.606,252.071 16.717,252.667 16.753 C 253.708 16.817,253.718 16.814,252.917 16.679 C 250.805 16.323,250.722 16.315,251.167 16.507 M181.583 17.019 C 182.048 17.314,184.363 18.167,184.667 18.156 C 184.804 18.151,184.242 17.901,183.417 17.600 C 182.592 17.299,181.767 16.997,181.583 16.930 L 181.250 16.808 181.583 17.019 M254.881 16.957 C 255.412 16.990,256.237 16.990,256.714 16.956 C 257.192 16.922,256.758 16.895,255.750 16.896 C 254.742 16.896,254.351 16.924,254.881 16.957 M35.758 18.305 C 35.969 18.490,37.661 19.168,37.897 19.162 C 38.068 19.158,35.860 18.167,35.680 18.167 C 35.636 18.167,35.671 18.229,35.758 18.305 M185.083 18.286 C 185.277 18.469,187.477 18.912,187.597 18.792 C 187.641 18.748,187.206 18.623,186.630 18.513 C 186.054 18.404,185.433 18.273,185.250 18.222 C 185.038 18.163,184.977 18.186,185.083 18.286 M188.434 19.032 C 188.791 19.096,189.983 19.147,191.083 19.147 C 192.183 19.147,193.376 19.096,193.733 19.032 C 194.090 18.969,192.898 18.917,191.083 18.917 C 189.269 18.917,188.077 18.969,188.434 19.032 M38.417 19.333 C 38.600 19.412,38.900 19.477,39.083 19.477 L 39.417 19.477 39.083 19.333 C 38.900 19.255,38.600 19.190,38.417 19.190 L 38.083 19.190 38.417 19.333 M40.167 19.744 C 40.634 19.900,41.451 19.986,42.333 19.970 L 43.750 19.945 42.167 19.830 C 41.296 19.766,40.321 19.665,40.000 19.604 C 39.536 19.516,39.570 19.544,40.167 19.744 M287.083 19.755 C 286.562 19.927,286.507 19.976,286.833 19.981 C 287.063 19.985,287.438 19.881,287.667 19.750 C 288.174 19.460,287.972 19.462,287.083 19.755 " stroke="none" fill="#5cbdd2" fill-rule="evenodd"></path><path id="path4" d="M230.167 2.118 C 228.467 4.027,227.934 4.667,228.047 4.667 C 228.086 4.667,228.590 4.123,229.166 3.458 C 229.742 2.794,230.586 1.842,231.041 1.343 L 231.867 0.436 232.188 0.843 L 232.509 1.250 232.311 0.792 C 232.016 0.108,231.887 0.188,230.167 2.118 M233.244 2.458 C 233.501 2.848,233.743 3.167,233.782 3.167 C 233.902 3.167,233.264 2.152,233.013 1.946 C 232.883 1.838,232.987 2.069,233.244 2.458 M78.733 2.961 C 78.532 3.096,78.166 3.732,78.167 3.947 C 78.168 4.022,78.317 3.840,78.498 3.542 C 78.888 2.903,78.963 2.891,79.740 3.350 C 80.067 3.542,80.333 3.662,80.333 3.616 C 80.333 3.515,79.195 2.832,79.032 2.836 C 78.969 2.837,78.834 2.894,78.733 2.961 M318.497 3.375 C 318.333 3.713,318.338 3.722,318.551 3.458 C 318.841 3.099,319.062 3.089,319.339 3.423 C 319.456 3.564,319.858 3.911,320.234 4.195 C 320.740 4.577,320.679 4.491,320.000 3.863 C 318.968 2.908,318.756 2.839,318.497 3.375 M234.327 4.075 C 234.608 4.483,234.917 4.865,235.014 4.926 C 235.112 4.986,234.916 4.652,234.580 4.184 C 233.829 3.139,233.622 3.050,234.327 4.075 M318.064 4.042 C 317.490 5.015,317.452 5.098,317.745 4.750 C 318.083 4.347,318.375 3.833,318.266 3.833 C 318.222 3.833,318.131 3.927,318.064 4.042 M77.483 4.958 C 77.190 5.394,76.792 5.935,76.600 6.162 C 76.323 6.487,76.315 6.523,76.559 6.335 C 76.879 6.089,78.242 4.167,78.098 4.167 C 78.053 4.167,77.776 4.523,77.483 4.958 M105.333 4.621 C 105.471 4.673,106.033 5.094,106.583 5.557 C 107.133 6.020,107.715 6.508,107.875 6.642 C 108.035 6.776,108.167 6.842,108.167 6.790 C 108.167 6.602,105.529 4.500,105.309 4.513 C 105.143 4.523,105.149 4.551,105.333 4.621 M82.167 4.746 C 82.167 4.792,82.692 5.094,83.333 5.417 C 83.975 5.740,84.500 5.967,84.500 5.921 C 84.500 5.875,83.975 5.573,83.333 5.250 C 82.692 4.927,82.167 4.700,82.167 4.746 M104.125 5.094 C 103.690 5.321,103.333 5.544,103.333 5.589 C 103.333 5.635,103.708 5.482,104.167 5.250 C 104.625 5.018,105.000 4.791,105.000 4.747 C 105.000 4.637,105.015 4.631,104.125 5.094 M227.000 5.356 L 226.250 6.035 226.956 5.505 C 227.570 5.045,227.964 4.656,227.802 4.672 C 227.773 4.674,227.412 4.982,227.000 5.356 M133.491 5.458 L 132.917 6.083 133.546 5.504 C 134.124 4.974,134.207 4.945,134.546 5.156 C 134.885 5.367,134.897 5.363,134.688 5.110 C 134.350 4.701,134.128 4.766,133.491 5.458 M321.500 5.075 C 321.500 5.121,321.725 5.274,322.000 5.417 C 322.275 5.559,322.500 5.638,322.500 5.592 C 322.500 5.546,322.275 5.392,322.000 5.250 C 321.725 5.108,321.500 5.029,321.500 5.075 M235.459 5.583 C 235.649 5.858,236.090 6.346,236.439 6.667 C 236.946 7.133,236.910 7.066,236.259 6.333 C 235.165 5.102,235.053 4.996,235.459 5.583 M134.833 5.552 C 134.833 5.581,135.077 5.825,135.375 6.094 L 135.917 6.583 135.427 6.042 C 134.971 5.537,134.833 5.423,134.833 5.552 M316.167 6.583 C 315.762 6.996,315.468 7.333,315.514 7.333 C 315.560 7.333,315.928 6.996,316.333 6.583 C 316.738 6.171,317.032 5.833,316.986 5.833 C 316.940 5.833,316.572 6.171,316.167 6.583 M101.667 6.417 C 101.254 6.638,100.976 6.822,101.048 6.826 C 101.225 6.836,102.500 6.181,102.500 6.080 C 102.500 5.970,102.507 5.967,101.667 6.417 M132.240 6.542 L 131.750 7.083 132.292 6.594 C 132.590 6.325,132.833 6.081,132.833 6.052 C 132.833 5.923,132.696 6.037,132.240 6.542 M225.191 6.577 C 224.088 7.280,223.858 7.510,224.750 7.018 C 225.423 6.646,226.320 6.007,226.167 6.008 C 226.121 6.008,225.682 6.264,225.191 6.577 M323.833 6.250 C 324.063 6.381,324.362 6.488,324.500 6.488 C 324.637 6.487,324.498 6.377,324.189 6.243 C 323.479 5.935,323.289 5.939,323.833 6.250 M85.833 6.583 C 86.063 6.714,86.325 6.822,86.417 6.822 C 86.508 6.822,86.396 6.714,86.167 6.583 C 85.938 6.452,85.675 6.345,85.583 6.345 C 85.492 6.345,85.604 6.452,85.833 6.583 M75.738 7.130 C 75.457 7.379,75.007 7.755,74.738 7.966 C 74.470 8.176,74.587 8.128,75.000 7.860 C 75.650 7.437,76.515 6.657,76.317 6.672 C 76.280 6.674,76.020 6.880,75.738 7.130 M136.691 7.527 C 137.208 8.017,137.939 8.592,138.316 8.803 C 139.229 9.316,139.197 9.147,138.279 8.609 C 137.883 8.377,137.152 7.838,136.654 7.411 L 135.750 6.635 136.691 7.527 M99.917 7.089 C 99.500 7.290,99.486 7.313,99.833 7.228 C 100.306 7.113,100.836 6.842,100.583 6.846 C 100.492 6.847,100.192 6.957,99.917 7.089 M327.083 7.020 C 327.723 7.142,331.760 7.201,331.417 7.083 C 331.325 7.052,330.162 6.996,328.833 6.960 C 327.460 6.922,326.705 6.948,327.083 7.020 M87.833 7.250 C 88.154 7.374,88.567 7.475,88.750 7.476 C 88.933 7.477,88.746 7.371,88.333 7.241 C 87.391 6.945,87.055 6.950,87.833 7.250 M130.833 7.695 C 130.397 8.092,130.292 8.236,130.583 8.039 C 131.044 7.729,131.808 6.991,131.651 7.007 C 131.614 7.011,131.246 7.321,130.833 7.695 M0.685 7.881 C 0.880 8.228,1.374 8.865,1.782 9.298 L 2.524 10.083 1.720 9.052 C 1.278 8.485,0.785 7.848,0.624 7.636 C 0.440 7.395,0.464 7.487,0.685 7.881 M237.167 7.476 C 237.167 7.600,238.369 8.771,239.673 9.918 C 240.341 10.505,240.331 10.487,239.590 9.769 C 239.128 9.321,238.394 8.595,237.958 8.156 C 237.523 7.717,237.167 7.411,237.167 7.476 M314.667 7.854 C 314.086 8.363,314.086 8.364,314.620 8.008 C 314.915 7.812,315.201 7.580,315.255 7.492 C 315.416 7.232,315.282 7.314,314.667 7.854 M89.500 7.667 C 90.070 7.849,90.508 7.849,90.083 7.667 C 89.900 7.588,89.600 7.526,89.417 7.528 C 89.149 7.532,89.165 7.559,89.500 7.667 M97.583 7.674 C 97.351 7.780,97.452 7.795,97.917 7.724 C 98.283 7.668,98.615 7.595,98.653 7.561 C 98.796 7.435,97.903 7.529,97.583 7.674 M333.259 7.667 C 333.429 7.970,334.538 9.550,334.662 9.667 C 334.711 9.712,334.994 10.034,335.292 10.381 C 335.590 10.728,335.833 10.943,335.833 10.860 C 335.833 10.776,335.720 10.614,335.582 10.499 C 335.443 10.384,334.906 9.718,334.389 9.020 C 333.415 7.707,333.004 7.215,333.259 7.667 M92.321 8.026 C 93.094 8.094,94.406 8.093,95.238 8.025 C 96.544 7.917,96.352 7.900,93.833 7.902 C 91.412 7.903,91.155 7.924,92.321 8.026 M129.013 9.014 C 128.516 9.373,128.165 9.667,128.233 9.667 C 128.402 9.667,129.792 8.702,129.918 8.498 C 130.063 8.263,130.017 8.289,129.013 9.014 M220.917 8.689 C 220.009 9.057,219.669 9.284,220.333 9.080 C 220.945 8.891,222.110 8.357,221.917 8.354 C 221.825 8.353,221.375 8.503,220.917 8.689 M313.292 8.678 C 312.948 8.859,312.667 9.045,312.667 9.091 C 312.667 9.136,312.967 9.020,313.333 8.833 C 313.700 8.646,314.000 8.457,314.000 8.413 C 314.000 8.304,313.999 8.305,313.292 8.678 M111.250 8.926 C 111.631 9.232,113.671 10.285,113.417 10.044 C 113.325 9.957,112.725 9.610,112.083 9.272 C 111.442 8.934,111.067 8.778,111.250 8.926 M72.667 9.083 C 72.438 9.214,72.325 9.322,72.417 9.322 C 72.508 9.322,72.771 9.214,73.000 9.083 C 73.229 8.952,73.342 8.845,73.250 8.845 C 73.158 8.845,72.896 8.952,72.667 9.083 M139.167 9.249 C 139.167 9.362,140.520 10.035,140.596 9.960 C 140.631 9.925,140.323 9.733,139.913 9.534 C 139.503 9.334,139.167 9.206,139.167 9.249 M206.564 9.375 C 206.496 9.490,206.328 9.771,206.190 10.000 C 205.928 10.435,205.992 10.384,206.657 9.625 C 206.877 9.373,206.974 9.167,206.872 9.167 C 206.770 9.167,206.631 9.260,206.564 9.375 M208.667 9.410 C 209.171 9.543,209.808 9.646,210.083 9.639 C 210.631 9.624,210.066 9.493,208.500 9.273 C 207.797 9.174,207.807 9.182,208.667 9.410 M219.134 9.255 C 219.086 9.303,218.717 9.407,218.315 9.487 C 217.879 9.572,217.752 9.637,218.000 9.646 C 218.229 9.655,218.754 9.555,219.167 9.425 C 219.579 9.295,219.760 9.184,219.569 9.178 C 219.378 9.172,219.183 9.206,219.134 9.255 M311.667 9.417 C 311.122 9.728,311.313 9.731,312.023 9.423 C 312.331 9.289,312.471 9.179,312.333 9.179 C 312.196 9.179,311.896 9.286,311.667 9.417 M59.583 9.628 C 59.492 9.695,59.268 9.938,59.086 10.167 C 58.761 10.576,58.763 10.576,59.253 10.141 C 59.526 9.898,59.900 9.663,60.083 9.619 L 60.417 9.539 60.083 9.522 C 59.900 9.513,59.675 9.560,59.583 9.628 M154.583 9.620 C 154.871 9.661,155.402 9.987,155.833 10.387 L 156.583 11.083 155.840 10.292 C 155.246 9.659,154.996 9.505,154.590 9.525 L 154.083 9.550 154.583 9.620 M211.417 9.854 C 212.058 9.976,216.258 10.034,215.917 9.916 C 215.825 9.885,214.625 9.830,213.250 9.794 C 211.850 9.757,211.043 9.784,211.417 9.854 M216.375 9.782 C 216.535 9.823,216.798 9.823,216.958 9.782 C 217.119 9.740,216.987 9.705,216.667 9.705 C 216.346 9.705,216.215 9.740,216.375 9.782 M300.417 9.826 C 300.737 9.971,301.629 10.065,301.486 9.939 C 301.448 9.905,301.117 9.832,300.750 9.776 C 300.285 9.705,300.184 9.720,300.417 9.826 M310.500 9.833 C 310.157 9.943,310.142 9.969,310.417 9.981 C 310.600 9.989,310.862 9.922,311.000 9.833 C 311.292 9.645,311.089 9.645,310.500 9.833 M61.627 9.951 C 61.834 9.991,62.134 9.990,62.294 9.948 C 62.453 9.906,62.283 9.874,61.917 9.875 C 61.550 9.877,61.420 9.911,61.627 9.951 M63.542 10.123 C 63.977 10.157,64.690 10.157,65.125 10.123 C 65.560 10.088,65.204 10.060,64.333 10.060 C 63.462 10.060,63.106 10.088,63.542 10.123 M67.375 10.123 C 67.810 10.157,68.523 10.157,68.958 10.123 C 69.394 10.088,69.037 10.060,68.167 10.060 C 67.296 10.060,66.940 10.088,67.375 10.123 M140.833 10.061 C 140.833 10.155,142.432 10.668,142.698 10.659 C 142.818 10.655,142.628 10.549,142.275 10.423 C 141.455 10.131,140.833 9.975,140.833 10.061 M151.917 10.256 C 151.259 10.484,151.258 10.486,151.833 10.388 C 152.513 10.274,153.208 10.020,152.833 10.023 C 152.696 10.025,152.283 10.129,151.917 10.256 M3.489 11.206 C 4.079 11.819,4.904 12.554,5.322 12.838 C 5.981 13.285,6.005 13.292,5.500 12.888 C 5.179 12.631,4.354 11.896,3.667 11.256 L 2.417 10.092 3.489 11.206 M303.667 10.359 C 304.830 10.496,307.121 10.495,308.417 10.357 C 308.989 10.296,307.992 10.250,306.083 10.250 C 304.224 10.250,303.155 10.298,303.667 10.359 M125.708 10.672 C 125.150 10.896,125.255 11.010,125.833 10.808 C 126.108 10.712,126.333 10.604,126.333 10.567 C 126.333 10.468,126.130 10.502,125.708 10.672 M204.772 11.895 C 204.173 12.662,203.061 13.876,202.300 14.592 C 201.539 15.309,201.217 15.662,201.583 15.377 C 202.836 14.403,206.322 10.500,205.940 10.500 C 205.897 10.500,205.371 11.128,204.772 11.895 M391.412 10.628 C 391.318 10.695,390.991 11.088,390.684 11.500 L 390.127 12.250 390.855 11.468 C 391.256 11.038,391.733 10.653,391.917 10.612 L 392.250 10.539 391.917 10.522 C 391.733 10.513,391.506 10.560,391.412 10.628 M58.000 11.417 C 57.595 11.829,57.301 12.167,57.347 12.167 C 57.393 12.167,57.762 11.829,58.167 11.417 C 58.572 11.004,58.865 10.667,58.819 10.667 C 58.774 10.667,58.405 11.004,58.000 11.417 M143.500 10.833 C 144.070 11.016,144.508 11.016,144.083 10.833 C 143.900 10.755,143.600 10.692,143.417 10.695 C 143.149 10.699,143.165 10.726,143.500 10.833 M148.833 10.842 C 148.552 10.937,148.688 10.952,149.250 10.887 C 149.708 10.834,150.115 10.763,150.153 10.729 C 150.284 10.612,149.250 10.700,148.833 10.842 M116.083 11.167 C 116.267 11.245,116.567 11.308,116.750 11.305 C 117.018 11.301,117.002 11.274,116.667 11.167 C 116.097 10.984,115.659 10.984,116.083 11.167 M297.566 11.375 C 296.856 12.194,296.593 12.552,296.779 12.443 C 296.887 12.380,297.212 12.030,297.502 11.664 C 298.063 10.956,298.109 10.749,297.566 11.375 M336.725 11.739 C 337.170 12.158,337.770 12.663,338.058 12.861 C 338.784 13.358,338.460 13.048,337.083 11.927 C 336.113 11.137,336.053 11.105,336.725 11.739 M393.833 11.167 C 394.403 11.349,394.841 11.349,394.417 11.167 C 394.233 11.088,393.933 11.026,393.750 11.028 C 393.482 11.032,393.498 11.059,393.833 11.167 M118.458 11.618 C 118.665 11.657,119.002 11.657,119.208 11.618 C 119.415 11.578,119.246 11.545,118.833 11.545 C 118.421 11.545,118.252 11.578,118.458 11.618 M242.167 11.988 C 242.487 12.274,242.900 12.586,243.083 12.682 C 243.481 12.889,242.850 12.341,242.083 11.813 C 241.660 11.521,241.673 11.548,242.167 11.988 M120.292 11.784 C 120.498 11.824,120.835 11.824,121.042 11.784 C 121.248 11.745,121.079 11.712,120.667 11.712 C 120.254 11.712,120.085 11.745,120.292 11.784 M157.988 12.638 C 158.577 13.184,159.290 13.756,159.571 13.910 L 160.083 14.190 159.583 13.804 C 159.308 13.592,158.596 13.019,158.000 12.532 L 156.917 11.646 157.988 12.638 M396.347 11.727 C 396.385 11.761,396.829 11.831,397.333 11.883 C 397.925 11.944,398.102 11.929,397.833 11.839 C 397.420 11.701,396.214 11.611,396.347 11.727 M399.167 11.833 C 398.832 11.941,398.815 11.968,399.083 11.972 C 399.267 11.974,399.567 11.912,399.750 11.833 C 400.175 11.651,399.737 11.651,399.167 11.833 M56.410 13.208 L 55.583 14.083 56.458 13.256 C 56.940 12.801,57.333 12.408,57.333 12.381 C 57.333 12.257,57.179 12.395,56.410 13.208 M295.909 13.375 L 295.250 14.083 295.958 13.425 C 296.348 13.062,296.667 12.743,296.667 12.716 C 296.667 12.590,296.522 12.716,295.909 13.375 M243.500 12.875 C 243.500 12.981,244.790 13.833,244.950 13.833 C 245.018 13.833,244.926 13.732,244.745 13.609 C 243.950 13.066,243.500 12.801,243.500 12.875 M27.250 13.589 C 25.871 14.270,25.995 14.274,27.556 13.598 L 28.678 13.112 29.297 13.681 L 29.917 14.250 29.342 13.625 C 28.650 12.871,28.701 12.872,27.250 13.589 M360.926 13.151 C 360.875 13.234,360.978 13.264,361.156 13.218 C 361.390 13.157,361.975 13.566,363.281 14.705 C 365.132 16.318,366.552 17.349,367.785 17.977 C 368.888 18.538,368.861 18.386,367.750 17.785 C 366.226 16.960,365.249 16.251,363.300 14.553 C 361.609 13.080,361.141 12.804,360.926 13.151 M388.167 14.375 C 387.125 15.486,385.072 17.223,383.730 18.128 C 383.466 18.307,383.482 18.310,383.833 18.146 C 384.907 17.646,390.180 12.943,389.580 13.021 C 389.490 13.033,388.854 13.642,388.167 14.375 M338.667 13.229 C 338.667 13.349,340.894 14.667,341.093 14.665 C 341.179 14.664,340.912 14.470,340.500 14.235 C 340.087 14.000,339.506 13.657,339.208 13.473 C 338.910 13.290,338.667 13.180,338.667 13.229 M267.000 13.750 C 266.587 13.971,266.325 14.152,266.417 14.152 C 266.508 14.152,266.921 13.971,267.333 13.750 C 267.746 13.529,268.008 13.348,267.917 13.348 C 267.825 13.348,267.412 13.529,267.000 13.750 M268.879 13.964 C 269.266 14.311,270.033 14.926,270.583 15.331 C 271.133 15.736,271.715 16.176,271.875 16.309 C 272.035 16.443,272.167 16.505,272.167 16.449 C 272.167 16.393,271.473 15.828,270.625 15.195 C 269.777 14.561,268.940 13.884,268.766 13.688 C 268.591 13.493,268.387 13.333,268.311 13.333 C 268.236 13.333,268.491 13.617,268.879 13.964 M360.000 13.583 C 359.771 13.714,359.658 13.822,359.750 13.822 C 359.842 13.822,360.104 13.714,360.333 13.583 C 360.563 13.452,360.675 13.345,360.583 13.345 C 360.492 13.345,360.229 13.452,360.000 13.583 M30.000 14.229 C 30.000 14.328,31.952 15.856,32.583 16.252 C 32.858 16.425,33.046 16.522,33.000 16.469 C 32.829 16.270,30.000 14.158,30.000 14.229 M160.257 14.345 C 160.365 14.520,161.667 15.218,161.667 15.101 C 161.667 15.061,161.327 14.839,160.913 14.607 C 160.498 14.375,160.203 14.258,160.257 14.345 M8.500 14.722 C 8.500 14.766,8.742 14.885,9.038 14.988 C 9.334 15.091,9.502 15.107,9.413 15.023 C 9.223 14.846,8.500 14.607,8.500 14.722 M53.564 15.690 C 52.156 16.787,51.750 17.141,52.167 16.910 C 52.678 16.625,55.128 14.667,54.973 14.667 C 54.921 14.667,54.287 15.127,53.564 15.690 M246.833 14.722 C 246.833 14.766,247.075 14.885,247.371 14.988 C 247.667 15.091,247.836 15.107,247.746 15.023 C 247.556 14.846,246.833 14.607,246.833 14.722 M341.667 14.917 C 341.896 15.048,342.158 15.155,342.250 15.155 C 342.342 15.155,342.229 15.048,342.000 14.917 C 341.771 14.786,341.508 14.678,341.417 14.678 C 341.325 14.678,341.438 14.786,341.667 14.917 M356.250 14.911 C 355.606 15.205,355.906 15.210,356.667 14.917 C 356.988 14.793,357.137 14.690,357.000 14.687 C 356.863 14.684,356.525 14.785,356.250 14.911 M161.833 15.249 C 161.833 15.362,163.187 16.035,163.262 15.960 C 163.297 15.925,162.990 15.733,162.580 15.534 C 162.169 15.334,161.833 15.206,161.833 15.249 M263.333 15.341 C 263.151 15.464,263.218 15.480,263.583 15.398 C 264.196 15.261,264.329 15.166,263.903 15.169 C 263.727 15.171,263.471 15.248,263.333 15.341 M354.833 15.333 C 354.502 15.547,354.918 15.547,355.417 15.333 L 355.750 15.190 355.417 15.181 C 355.233 15.176,354.971 15.244,354.833 15.333 M10.917 15.667 C 11.100 15.745,11.362 15.810,11.500 15.810 C 11.658 15.810,11.627 15.757,11.417 15.667 C 11.233 15.588,10.971 15.523,10.833 15.523 C 10.676 15.523,10.707 15.576,10.917 15.667 M176.667 15.750 C 176.438 15.881,176.325 15.988,176.417 15.988 C 176.508 15.988,176.771 15.881,177.000 15.750 C 177.229 15.619,177.342 15.512,177.250 15.512 C 177.158 15.512,176.896 15.619,176.667 15.750 M179.833 16.000 C 180.338 16.266,180.825 16.484,180.917 16.484 C 181.008 16.484,180.671 16.266,180.167 16.000 C 179.662 15.734,179.175 15.516,179.083 15.516 C 178.992 15.516,179.329 15.734,179.833 16.000 M249.083 15.667 C 249.267 15.745,249.529 15.810,249.667 15.810 C 249.824 15.810,249.793 15.757,249.583 15.667 C 249.400 15.588,249.137 15.523,249.000 15.523 C 248.842 15.523,248.873 15.576,249.083 15.667 M261.917 15.755 C 261.550 15.876,261.400 15.974,261.583 15.975 C 261.767 15.975,262.179 15.874,262.500 15.750 C 263.248 15.462,262.794 15.466,261.917 15.755 M293.075 16.208 L 292.417 16.917 293.125 16.258 C 293.515 15.895,293.833 15.577,293.833 15.550 C 293.833 15.423,293.688 15.550,293.075 16.208 M343.347 15.561 C 343.385 15.595,343.717 15.668,344.083 15.724 C 344.548 15.795,344.649 15.780,344.417 15.674 C 344.097 15.529,343.204 15.435,343.347 15.561 M353.417 15.667 C 352.992 15.849,353.430 15.849,354.000 15.667 C 354.335 15.559,354.351 15.532,354.083 15.528 C 353.900 15.526,353.600 15.588,353.417 15.667 M19.333 16.006 C 19.064 16.095,19.242 16.111,19.833 16.050 C 20.337 15.998,20.781 15.928,20.819 15.894 C 20.953 15.777,19.746 15.868,19.333 16.006 M345.250 16.000 C 345.525 16.070,345.975 16.127,346.250 16.128 C 346.670 16.128,346.644 16.106,346.083 15.990 C 345.239 15.816,344.557 15.824,345.250 16.000 M250.833 16.153 C 250.971 16.229,251.458 16.336,251.917 16.390 C 252.433 16.451,252.592 16.437,252.333 16.354 C 251.690 16.148,250.548 15.995,250.833 16.153 M351.127 16.118 C 351.334 16.158,351.634 16.156,351.794 16.115 C 351.953 16.073,351.783 16.040,351.417 16.042 C 351.050 16.044,350.920 16.078,351.127 16.118 M14.792 16.291 C 15.548 16.322,16.785 16.322,17.542 16.291 C 18.298 16.260,17.679 16.235,16.167 16.235 C 14.654 16.235,14.035 16.260,14.792 16.291 M259.250 16.338 C 259.027 16.436,259.166 16.452,259.667 16.386 C 260.079 16.332,260.448 16.260,260.486 16.227 C 260.631 16.101,259.568 16.197,259.250 16.338 M348.042 16.289 C 348.477 16.324,349.190 16.324,349.625 16.289 C 350.060 16.255,349.704 16.227,348.833 16.227 C 347.962 16.227,347.606 16.255,348.042 16.289 M165.000 16.750 C 165.321 16.874,165.696 16.975,165.833 16.975 C 165.971 16.975,165.821 16.874,165.500 16.750 C 165.179 16.626,164.804 16.525,164.667 16.525 C 164.529 16.525,164.679 16.626,165.000 16.750 M181.500 16.750 C 181.729 16.881,181.992 16.988,182.083 16.988 C 182.175 16.988,182.063 16.881,181.833 16.750 C 181.604 16.619,181.342 16.512,181.250 16.512 C 181.158 16.512,181.271 16.619,181.500 16.750 M254.793 16.655 C 255.734 16.707,256.971 16.709,257.543 16.658 C 258.116 16.608,257.347 16.565,255.833 16.563 C 253.517 16.560,253.353 16.574,254.793 16.655 M272.500 16.675 C 272.934 16.971,273.667 17.345,273.667 17.271 C 273.667 17.178,272.516 16.499,272.365 16.503 C 272.302 16.504,272.362 16.582,272.500 16.675 M197.917 17.419 C 197.275 17.726,196.808 17.982,196.879 17.989 C 197.074 18.006,199.167 17.035,199.167 16.927 C 199.167 16.811,199.291 16.762,197.917 17.419 M34.000 17.065 C 34.000 17.180,35.176 17.880,35.248 17.808 C 35.282 17.773,35.016 17.575,34.655 17.367 C 34.295 17.160,34.000 17.024,34.000 17.065 M166.500 17.158 C 166.916 17.300,167.951 17.388,167.819 17.271 C 167.781 17.237,167.375 17.166,166.917 17.113 C 166.355 17.048,166.219 17.063,166.500 17.158 M172.167 17.167 C 171.601 17.286,171.599 17.290,172.083 17.295 C 172.358 17.298,172.771 17.240,173.000 17.167 C 173.546 16.992,172.998 16.992,172.167 17.167 M50.458 17.761 C 50.023 17.988,49.667 18.210,49.667 18.256 C 49.667 18.302,50.042 18.149,50.500 17.917 C 50.958 17.684,51.333 17.458,51.333 17.414 C 51.333 17.304,51.348 17.298,50.458 17.761 M169.377 17.453 C 169.631 17.491,170.006 17.490,170.211 17.451 C 170.416 17.411,170.208 17.380,169.750 17.381 C 169.292 17.382,169.124 17.415,169.377 17.453 M273.833 17.392 C 273.833 17.504,275.371 18.351,275.443 18.279 C 275.475 18.247,275.126 18.016,274.668 17.767 C 274.209 17.517,273.833 17.348,273.833 17.392 M290.957 17.819 C 290.272 18.258,290.177 18.413,290.781 18.106 C 291.073 17.957,291.359 17.760,291.416 17.668 C 291.550 17.452,291.510 17.465,290.957 17.819 M35.833 18.083 C 36.063 18.214,36.325 18.322,36.417 18.322 C 36.508 18.322,36.396 18.214,36.167 18.083 C 35.938 17.952,35.675 17.845,35.583 17.845 C 35.492 17.845,35.604 17.952,35.833 18.083 M184.917 17.974 C 185.432 18.195,186.296 18.365,186.000 18.188 C 185.862 18.106,185.487 17.992,185.167 17.935 C 184.773 17.865,184.692 17.878,184.917 17.974 M48.833 18.583 C 48.604 18.714,48.492 18.822,48.583 18.822 C 48.675 18.822,48.938 18.714,49.167 18.583 C 49.396 18.452,49.508 18.345,49.417 18.345 C 49.325 18.345,49.063 18.452,48.833 18.583 M187.167 18.500 C 187.737 18.683,188.175 18.683,187.750 18.500 C 187.567 18.421,187.267 18.359,187.083 18.362 C 186.815 18.366,186.832 18.393,187.167 18.500 M194.583 18.500 C 194.159 18.683,194.597 18.683,195.167 18.500 C 195.502 18.393,195.518 18.366,195.250 18.362 C 195.067 18.359,194.767 18.421,194.583 18.500 M289.083 18.766 C 288.625 18.988,288.438 19.123,288.667 19.064 C 289.142 18.943,290.336 18.345,290.083 18.355 C 289.992 18.358,289.542 18.543,289.083 18.766 M369.167 18.583 C 369.396 18.714,369.658 18.822,369.750 18.822 C 369.842 18.822,369.729 18.714,369.500 18.583 C 369.271 18.452,369.008 18.345,368.917 18.345 C 368.825 18.345,368.938 18.452,369.167 18.583 M188.795 18.787 C 189.094 18.825,189.544 18.824,189.795 18.786 C 190.045 18.748,189.800 18.717,189.250 18.718 C 188.700 18.719,188.495 18.750,188.795 18.787 M192.461 18.787 C 192.761 18.825,193.211 18.824,193.461 18.786 C 193.712 18.748,193.467 18.717,192.917 18.718 C 192.367 18.719,192.162 18.750,192.461 18.787 M276.917 18.898 C 277.192 19.023,277.604 19.171,277.833 19.228 C 278.168 19.310,278.152 19.285,277.750 19.102 C 277.475 18.977,277.063 18.829,276.833 18.772 C 276.499 18.690,276.515 18.715,276.917 18.898 M382.083 19.000 C 381.717 19.170,381.475 19.314,381.547 19.321 C 381.744 19.340,382.833 18.864,382.833 18.759 C 382.833 18.646,382.885 18.629,382.083 19.000 M47.583 19.089 C 47.167 19.290,47.153 19.313,47.500 19.228 C 47.972 19.113,48.503 18.842,48.250 18.846 C 48.158 18.847,47.858 18.957,47.583 19.089 M370.167 18.972 C 370.304 19.057,370.604 19.176,370.833 19.238 C 371.123 19.315,371.174 19.302,371.000 19.195 C 370.863 19.110,370.563 18.990,370.333 18.929 C 370.044 18.851,369.993 18.865,370.167 18.972 M38.833 19.167 C 39.403 19.349,39.841 19.349,39.417 19.167 C 39.233 19.088,38.933 19.026,38.750 19.028 C 38.482 19.032,38.498 19.059,38.833 19.167 M39.847 19.395 C 39.885 19.428,40.217 19.501,40.583 19.557 C 41.048 19.628,41.149 19.613,40.917 19.508 C 40.597 19.363,39.704 19.268,39.847 19.395 M45.500 19.506 C 45.231 19.595,45.408 19.611,46.000 19.550 C 46.504 19.498,46.948 19.428,46.986 19.394 C 47.120 19.277,45.913 19.368,45.500 19.506 M42.958 19.787 C 43.256 19.824,43.744 19.824,44.042 19.787 C 44.340 19.750,44.096 19.720,43.500 19.720 C 42.904 19.720,42.660 19.750,42.958 19.787 M279.514 19.728 C 279.552 19.762,279.883 19.835,280.250 19.891 C 280.715 19.961,280.816 19.946,280.583 19.841 C 280.263 19.696,279.371 19.602,279.514 19.728 M285.917 19.833 C 285.707 19.924,285.676 19.977,285.833 19.977 C 285.971 19.977,286.233 19.912,286.417 19.833 C 286.627 19.743,286.658 19.690,286.500 19.690 C 286.362 19.690,286.100 19.755,285.917 19.833 M379.333 19.833 C 379.003 19.939,378.986 19.967,379.250 19.967 C 379.433 19.967,379.771 19.907,380.000 19.833 C 380.330 19.728,380.347 19.700,380.083 19.700 C 379.900 19.700,379.563 19.760,379.333 19.833 M281.375 20.119 C 281.627 20.158,282.040 20.158,282.292 20.119 C 282.544 20.081,282.337 20.050,281.833 20.050 C 281.329 20.050,281.123 20.081,281.375 20.119 M284.208 20.119 C 284.460 20.158,284.873 20.158,285.125 20.119 C 285.377 20.081,285.171 20.050,284.667 20.050 C 284.162 20.050,283.956 20.081,284.208 20.119 M373.958 20.118 C 374.165 20.157,374.502 20.157,374.708 20.118 C 374.915 20.078,374.746 20.045,374.333 20.045 C 373.921 20.045,373.752 20.078,373.958 20.118 M378.042 20.115 C 378.202 20.157,378.465 20.157,378.625 20.115 C 378.785 20.073,378.654 20.039,378.333 20.039 C 378.012 20.039,377.881 20.073,378.042 20.115 " stroke="none" fill="#bee4ec" fill-rule="evenodd"></path></g></svg>