<svg id="svg" version="1.1" xmlns="http://www.w3.org/2000/svg" xmlns:xlink="http://www.w3.org/1999/xlink" width="400" height="21.095334685598377" viewBox="0, 0, 400,21.095334685598377"><g id="svgg"><path id="path0" d="M0.000 0.157 C 0.000 0.243,0.281 0.343,0.625 0.379 L 1.250 0.444 0.625 0.472 L 0.000 0.500 -0.000 4.738 L -0.000 8.976 0.875 9.143 C 3.058 9.558,3.903 9.756,5.119 10.137 L 6.155 10.461 7.110 9.194 C 9.374 6.185,12.332 3.557,15.346 1.875 C 15.842 1.599,18.109 0.907,19.561 0.588 C 20.687 0.342,19.368 0.303,10.679 0.325 C 4.394 0.341,1.500 0.293,1.500 0.174 C 1.500 0.078,1.163 0.000,0.750 0.000 C 0.337 0.000,0.000 0.070,0.000 0.157 M21.047 0.123 C 21.485 0.157,22.160 0.157,22.547 0.122 C 22.934 0.087,22.575 0.059,21.750 0.059 C 20.925 0.060,20.609 0.088,21.047 0.123 M23.618 0.364 C 23.431 0.479,23.687 0.556,24.917 0.755 C 25.966 0.925,27.425 1.427,29.213 2.233 C 29.742 2.471,30.232 2.667,30.301 2.667 C 30.802 2.667,34.793 5.626,36.254 7.081 C 36.938 7.762,37.128 7.859,37.445 7.691 C 38.896 6.920,42.134 5.792,44.417 5.261 C 45.058 5.111,45.883 4.907,46.250 4.807 C 47.301 4.520,52.357 4.577,53.833 4.892 C 58.910 5.976,63.409 9.127,66.105 13.484 L 66.460 14.058 69.272 14.020 C 73.960 13.958,76.222 14.637,79.458 17.078 C 79.940 17.441,80.333 17.797,80.333 17.869 C 80.333 18.239,80.686 17.892,81.258 16.958 C 82.782 14.470,85.118 12.590,88.250 11.332 C 89.994 10.630,93.917 10.299,96.236 10.656 C 96.794 10.742,97.850 10.903,98.583 11.014 C 99.317 11.125,100.054 11.285,100.222 11.371 C 100.624 11.575,100.908 11.312,102.369 9.378 C 104.384 6.714,108.184 3.239,110.046 2.360 C 111.951 1.460,112.291 1.336,114.086 0.881 C 115.068 0.633,115.803 0.407,115.720 0.379 C 115.398 0.272,23.791 0.256,23.618 0.364 M118.933 0.307 C 118.867 0.414,119.107 0.558,119.537 0.669 C 122.382 1.406,123.066 1.616,124.242 2.109 C 126.684 3.132,130.917 5.857,132.067 7.145 C 132.487 7.614,132.423 7.627,134.469 6.643 C 140.407 3.788,146.934 3.334,152.594 5.385 C 158.492 7.521,164.106 12.300,168.567 18.982 L 169.732 20.727 170.657 19.655 C 176.921 12.406,183.801 9.876,192.833 11.502 C 195.157 11.921,195.079 11.926,195.504 11.311 C 202.337 1.418,210.816 -0.661,222.564 4.675 L 224.711 5.651 225.314 5.349 C 232.797 1.597,240.399 3.176,246.916 9.834 L 248.582 11.536 249.333 11.269 C 257.008 8.534,264.187 9.873,268.437 14.833 C 269.718 16.328,269.665 16.297,270.099 15.814 C 277.897 7.142,288.688 7.132,298.201 15.786 C 298.989 16.503,299.298 16.628,299.592 16.351 C 301.423 14.624,306.878 13.017,310.946 13.005 C 315.185 12.993,320.157 14.409,323.152 16.481 C 325.320 17.981,326.667 18.360,326.667 17.472 C 326.667 17.235,328.114 15.178,328.820 14.412 C 330.217 12.897,332.838 11.454,334.917 11.057 C 337.128 10.634,344.256 10.865,345.511 11.401 C 345.694 11.479,345.989 11.251,346.504 10.631 C 346.908 10.146,347.626 9.337,348.101 8.833 C 348.575 8.329,349.171 7.667,349.425 7.362 C 349.893 6.798,352.234 4.886,353.750 3.829 C 357.715 1.064,362.963 0.260,367.667 1.696 C 368.581 1.975,371.556 3.199,371.833 3.410 C 371.971 3.515,372.571 3.892,373.167 4.248 C 374.300 4.927,376.165 6.338,377.177 7.285 L 377.772 7.841 379.177 7.189 C 382.501 5.649,384.918 4.984,388.522 4.615 C 392.485 4.209,395.030 4.640,398.799 6.356 C 399.376 6.618,399.882 6.833,399.924 6.833 C 399.966 6.833,400.000 5.371,400.000 3.583 L 400.000 0.333 260.125 0.331 C 183.194 0.330,119.978 0.285,119.646 0.230 C 119.291 0.171,118.997 0.203,118.933 0.307 " stroke="none" fill="#0f9dbc" fill-rule="evenodd"></path><path id="path1" d="M18.833 1.178 C 16.369 1.708,14.593 2.587,12.311 4.406 C 10.381 5.945,8.682 7.681,7.362 9.461 C 6.530 10.583,6.028 10.973,5.687 10.763 C 5.418 10.597,1.731 9.687,0.856 9.571 L 0.000 9.457 0.000 15.229 L 0.000 21.000 84.667 21.000 C 131.233 21.000,169.333 20.960,169.333 20.912 C 169.333 20.863,168.736 19.932,168.006 18.842 C 160.296 7.334,149.359 2.321,138.750 5.432 C 136.706 6.031,136.310 6.189,133.964 7.342 C 132.634 7.996,132.494 7.993,131.658 7.291 C 129.631 5.588,128.944 5.099,126.940 3.937 C 121.867 0.996,115.971 0.145,112.250 1.817 C 110.160 2.756,109.223 3.227,108.626 3.639 C 107.447 4.453,103.778 8.152,102.565 9.750 C 100.836 12.029,100.935 11.969,99.493 11.602 C 91.873 9.662,85.085 11.753,81.632 17.105 C 80.721 18.518,80.536 18.662,80.181 18.233 C 77.929 15.512,70.934 13.498,67.269 14.515 C 66.510 14.726,66.436 14.671,65.303 13.062 C 63.569 10.602,62.389 9.445,60.025 7.885 C 58.697 7.009,58.025 6.673,55.958 5.851 C 53.992 5.069,47.801 4.787,45.583 5.377 C 45.033 5.524,44.208 5.734,43.750 5.846 C 42.598 6.125,39.450 7.213,38.287 7.735 C 37.114 8.261,37.021 8.264,36.498 7.792 C 36.270 7.585,35.559 6.966,34.918 6.417 C 34.278 5.867,33.643 5.312,33.507 5.184 C 30.463 2.308,23.024 0.278,18.833 1.178 M360.750 1.500 C 360.475 1.570,359.936 1.636,359.552 1.647 C 359.167 1.658,358.807 1.742,358.750 1.833 C 358.693 1.925,358.520 2.001,358.365 2.002 C 357.679 2.007,353.812 4.103,352.561 5.147 C 352.274 5.387,351.786 5.768,351.478 5.994 C 350.578 6.653,347.303 10.094,346.533 11.189 C 346.112 11.787,345.744 11.859,344.545 11.575 C 342.941 11.195,335.642 11.178,334.390 11.551 C 331.213 12.496,328.860 14.408,327.139 17.445 C 326.341 18.852,326.465 18.855,323.884 17.372 C 320.303 15.315,318.156 14.433,314.863 13.669 C 313.732 13.406,308.310 13.401,307.126 13.661 C 305.226 14.079,301.804 15.362,301.333 15.833 C 301.217 15.950,299.227 17.000,299.122 17.000 C 299.075 17.000,298.380 16.437,297.576 15.749 C 295.058 13.592,290.324 10.667,289.350 10.667 C 289.194 10.667,288.995 10.605,288.908 10.529 C 288.108 9.833,282.660 9.387,280.711 9.859 C 277.088 10.735,274.126 12.495,270.532 15.910 L 269.648 16.750 269.032 16.067 C 268.694 15.691,268.122 15.028,267.762 14.594 C 266.664 13.269,263.968 11.626,261.917 11.032 C 258.507 10.045,255.836 10.045,251.667 11.033 C 250.887 11.217,249.967 11.473,249.622 11.601 C 248.553 11.996,248.414 11.927,246.703 10.150 C 241.383 4.621,234.352 2.458,228.417 4.526 C 227.467 4.857,225.416 5.724,225.258 5.862 C 224.953 6.128,224.388 5.994,223.041 5.333 C 222.292 4.967,221.642 4.667,221.595 4.667 C 221.548 4.667,221.113 4.490,220.630 4.275 C 215.607 2.038,208.897 1.719,204.786 3.521 C 201.584 4.925,199.315 6.830,196.702 10.309 L 195.280 12.202 194.265 12.113 C 193.707 12.063,192.275 11.869,191.083 11.682 C 187.899 11.181,183.695 11.474,181.583 12.345 C 181.400 12.421,180.650 12.725,179.917 13.021 C 177.567 13.971,175.220 15.503,173.403 17.272 C 171.945 18.691,170.167 20.670,170.167 20.874 C 170.167 20.943,221.879 21.000,285.083 21.000 L 400.000 21.000 400.000 14.196 L 400.000 7.392 399.292 7.044 C 394.579 4.729,389.858 4.262,384.833 5.615 C 384.329 5.751,383.692 5.920,383.417 5.992 C 382.719 6.172,380.287 7.118,379.049 7.689 C 377.715 8.305,377.842 8.331,376.449 7.152 C 373.775 4.888,370.496 2.988,368.000 2.254 C 367.496 2.106,366.858 1.918,366.583 1.836 C 365.144 1.405,361.863 1.217,360.750 1.500 " stroke="none" fill="#fbfcfc" fill-rule="evenodd"></path><path id="path2" d="M20.881 0.790 C 21.412 0.823,22.237 0.823,22.714 0.789 C 23.192 0.756,22.758 0.729,21.750 0.729 C 20.742 0.729,20.351 0.757,20.881 0.790 M116.625 0.789 C 117.015 0.824,117.652 0.824,118.042 0.789 C 118.431 0.754,118.112 0.725,117.333 0.725 C 116.554 0.725,116.235 0.754,116.625 0.789 M361.127 1.285 C 361.334 1.324,361.634 1.323,361.794 1.281 C 361.953 1.239,361.783 1.207,361.417 1.209 C 361.050 1.211,360.920 1.245,361.127 1.285 M363.042 1.288 C 363.385 1.324,363.948 1.324,364.292 1.288 C 364.635 1.252,364.354 1.223,363.667 1.223 C 362.979 1.223,362.698 1.252,363.042 1.288 M27.500 1.805 C 27.637 1.890,27.938 2.010,28.167 2.071 C 28.456 2.149,28.507 2.135,28.333 2.028 C 28.196 1.943,27.896 1.824,27.667 1.762 C 27.377 1.685,27.326 1.698,27.500 1.805 M210.796 2.122 C 211.188 2.157,211.788 2.157,212.129 2.121 C 212.471 2.085,212.150 2.057,211.417 2.057 C 210.683 2.058,210.404 2.087,210.796 2.122 M356.833 2.333 C 356.512 2.509,356.325 2.653,356.417 2.653 C 356.508 2.653,356.846 2.509,357.167 2.333 C 357.488 2.158,357.675 2.014,357.583 2.014 C 357.492 2.014,357.154 2.158,356.833 2.333 M208.794 2.285 C 209.001 2.324,209.301 2.323,209.460 2.281 C 209.620 2.239,209.450 2.207,209.083 2.209 C 208.717 2.211,208.586 2.245,208.794 2.285 M213.458 2.284 C 213.665 2.324,214.002 2.324,214.208 2.284 C 214.415 2.245,214.246 2.212,213.833 2.212 C 213.421 2.212,213.252 2.245,213.458 2.284 M125.500 2.908 C 125.500 2.954,125.725 3.108,126.000 3.250 C 126.275 3.392,126.500 3.471,126.500 3.425 C 126.500 3.379,126.275 3.226,126.000 3.083 C 125.725 2.941,125.500 2.862,125.500 2.908 M12.660 3.845 L 12.083 4.357 12.708 3.909 C 13.261 3.513,13.440 3.333,13.285 3.333 C 13.259 3.333,12.978 3.564,12.660 3.845 M204.000 3.583 C 203.771 3.714,203.658 3.822,203.750 3.822 C 203.842 3.822,204.104 3.714,204.333 3.583 C 204.563 3.452,204.675 3.345,204.583 3.345 C 204.492 3.345,204.229 3.452,204.000 3.583 M232.795 3.621 C 233.094 3.658,233.544 3.657,233.795 3.619 C 234.045 3.581,233.800 3.551,233.250 3.552 C 232.700 3.553,232.495 3.584,232.795 3.621 M230.708 3.782 C 230.869 3.823,231.131 3.823,231.292 3.782 C 231.452 3.740,231.321 3.705,231.000 3.705 C 230.679 3.705,230.548 3.740,230.708 3.782 M235.208 3.782 C 235.369 3.823,235.631 3.823,235.792 3.782 C 235.952 3.740,235.821 3.705,235.500 3.705 C 235.179 3.705,235.048 3.740,235.208 3.782 M353.417 4.265 L 352.917 4.694 353.458 4.336 C 353.756 4.139,354.000 3.945,354.000 3.905 C 354.000 3.781,353.929 3.824,353.417 4.265 M107.158 4.625 L 106.583 5.250 107.208 4.676 C 107.790 4.141,107.910 4.000,107.783 4.000 C 107.755 4.000,107.474 4.281,107.158 4.625 M143.127 4.451 C 143.334 4.491,143.634 4.490,143.794 4.448 C 143.953 4.406,143.783 4.374,143.417 4.375 C 143.050 4.377,142.920 4.411,143.127 4.451 M146.295 4.454 C 146.594 4.491,147.044 4.490,147.295 4.452 C 147.545 4.414,147.300 4.384,146.750 4.385 C 146.200 4.386,145.995 4.417,146.295 4.454 M221.667 4.583 C 221.896 4.714,222.158 4.822,222.250 4.822 C 222.342 4.822,222.229 4.714,222.000 4.583 C 221.771 4.452,221.508 4.345,221.417 4.345 C 221.325 4.345,221.438 4.452,221.667 4.583 M49.460 4.785 C 49.668 4.824,49.968 4.823,50.127 4.781 C 50.286 4.739,50.117 4.707,49.750 4.709 C 49.383 4.711,49.253 4.745,49.460 4.785 M389.042 4.786 C 389.294 4.824,389.706 4.824,389.958 4.786 C 390.210 4.748,390.004 4.717,389.500 4.717 C 388.996 4.717,388.790 4.748,389.042 4.786 M391.544 4.786 C 391.797 4.825,392.172 4.824,392.377 4.784 C 392.582 4.744,392.375 4.713,391.917 4.714 C 391.458 4.716,391.291 4.748,391.544 4.786 M9.913 6.208 L 8.583 7.583 9.958 6.254 C 11.235 5.019,11.409 4.833,11.288 4.833 C 11.263 4.833,10.644 5.452,9.913 6.208 M46.958 4.951 C 47.165 4.991,47.502 4.991,47.708 4.951 C 47.915 4.911,47.746 4.879,47.333 4.879 C 46.921 4.879,46.752 4.911,46.958 4.951 M52.750 5.000 C 53.455 5.179,54.060 5.179,53.500 5.000 C 53.271 4.927,52.896 4.868,52.667 4.870 C 52.292 4.872,52.301 4.886,52.750 5.000 M139.333 5.000 C 138.998 5.107,138.982 5.134,139.250 5.138 C 139.433 5.141,139.733 5.079,139.917 5.000 C 140.341 4.817,139.903 4.817,139.333 5.000 M222.514 4.895 C 222.685 5.049,223.667 5.500,223.667 5.425 C 223.667 5.329,222.743 4.833,222.564 4.833 C 222.498 4.833,222.476 4.861,222.514 4.895 M44.750 5.333 C 44.540 5.424,44.509 5.477,44.667 5.477 C 44.804 5.477,45.067 5.412,45.250 5.333 C 45.460 5.243,45.491 5.190,45.333 5.190 C 45.196 5.190,44.933 5.255,44.750 5.333 M54.417 5.333 C 54.600 5.412,54.900 5.474,55.083 5.472 C 55.351 5.468,55.335 5.441,55.000 5.333 C 54.430 5.151,53.992 5.151,54.417 5.333 M104.912 6.708 L 103.750 7.917 104.958 6.754 C 106.081 5.675,106.243 5.500,106.121 5.500 C 106.095 5.500,105.551 6.044,104.912 6.708 M199.578 6.708 L 198.583 7.750 199.625 6.755 C 200.198 6.208,200.667 5.739,200.667 5.714 C 200.667 5.590,200.502 5.741,199.578 6.708 M135.833 6.167 C 135.512 6.342,135.325 6.486,135.417 6.486 C 135.508 6.486,135.846 6.342,136.167 6.167 C 136.487 5.991,136.675 5.847,136.583 5.847 C 136.492 5.847,136.154 5.991,135.833 6.167 M375.333 6.052 C 375.333 6.093,375.609 6.337,375.945 6.594 C 376.282 6.850,376.504 6.975,376.440 6.871 C 376.308 6.658,375.333 5.936,375.333 6.052 M35.500 6.750 C 35.811 7.071,36.103 7.333,36.149 7.333 C 36.195 7.333,35.978 7.071,35.667 6.750 C 35.356 6.429,35.064 6.167,35.018 6.167 C 34.972 6.167,35.189 6.429,35.500 6.750 M154.333 6.417 C 154.563 6.548,154.825 6.655,154.917 6.655 C 155.008 6.655,154.896 6.548,154.667 6.417 C 154.438 6.286,154.175 6.178,154.083 6.178 C 153.992 6.178,154.104 6.286,154.333 6.417 M350.073 6.875 L 349.583 7.417 350.125 6.927 C 350.630 6.471,350.743 6.333,350.615 6.333 C 350.586 6.333,350.342 6.577,350.073 6.875 M131.742 7.125 C 132.466 7.904,132.615 7.954,133.093 7.581 C 133.393 7.347,133.382 7.343,132.953 7.526 C 132.524 7.710,132.438 7.676,131.787 7.071 L 131.083 6.417 131.742 7.125 M58.906 6.983 C 58.957 7.066,59.266 7.291,59.593 7.484 C 59.919 7.676,60.145 7.766,60.094 7.684 C 60.043 7.601,59.734 7.376,59.407 7.183 C 59.081 6.990,58.855 6.900,58.906 6.983 M378.833 7.500 C 378.512 7.676,378.325 7.819,378.417 7.819 C 378.508 7.819,378.846 7.676,379.167 7.500 C 379.488 7.324,379.675 7.181,379.583 7.181 C 379.492 7.181,379.154 7.324,378.833 7.500 M244.833 8.046 C 244.833 8.071,245.415 8.652,246.125 9.338 L 247.417 10.583 246.171 9.292 C 245.014 8.092,244.833 7.924,244.833 8.046 M348.409 8.708 L 347.750 9.417 348.458 8.758 C 349.117 8.145,349.243 8.000,349.117 8.000 C 349.090 8.000,348.771 8.319,348.409 8.708 M102.563 9.375 C 102.071 9.937,101.783 10.333,101.868 10.333 C 101.910 10.333,102.185 10.033,102.480 9.667 C 103.052 8.955,103.110 8.751,102.563 9.375 M62.667 9.750 C 62.978 10.071,63.270 10.333,63.315 10.333 C 63.361 10.333,63.144 10.071,62.833 9.750 C 62.522 9.429,62.230 9.167,62.185 9.167 C 62.139 9.167,62.356 9.429,62.667 9.750 M283.042 9.453 C 283.294 9.491,283.706 9.491,283.958 9.453 C 284.210 9.415,284.004 9.383,283.500 9.383 C 282.996 9.383,282.790 9.415,283.042 9.453 M196.542 10.125 C 196.030 10.784,195.659 11.379,195.946 11.083 C 196.279 10.739,197.191 9.500,197.111 9.500 C 197.066 9.500,196.809 9.781,196.542 10.125 M347.158 10.125 L 346.583 10.750 347.208 10.176 C 347.790 9.641,347.910 9.500,347.783 9.500 C 347.755 9.500,347.474 9.781,347.158 10.125 M254.375 10.282 C 254.535 10.323,254.798 10.323,254.958 10.282 C 255.119 10.240,254.987 10.205,254.667 10.205 C 254.346 10.205,254.215 10.240,254.375 10.282 M93.042 10.789 C 93.477 10.824,94.190 10.824,94.625 10.789 C 95.060 10.755,94.704 10.727,93.833 10.727 C 92.962 10.727,92.606 10.755,93.042 10.789 M90.794 10.951 C 91.001 10.991,91.301 10.990,91.460 10.948 C 91.620 10.906,91.450 10.874,91.083 10.875 C 90.717 10.877,90.586 10.911,90.794 10.951 M96.042 10.948 C 96.202 10.990,96.465 10.990,96.625 10.948 C 96.785 10.906,96.654 10.872,96.333 10.872 C 96.013 10.872,95.881 10.906,96.042 10.948 M336.375 11.123 C 336.810 11.157,337.523 11.157,337.958 11.123 C 338.394 11.088,338.037 11.060,337.167 11.060 C 336.296 11.060,335.940 11.088,336.375 11.123 M340.375 11.123 C 340.810 11.157,341.523 11.157,341.958 11.123 C 342.394 11.088,342.037 11.060,341.167 11.060 C 340.296 11.060,339.940 11.088,340.375 11.123 M346.175 11.240 C 346.065 11.372,345.775 11.511,345.529 11.548 L 345.083 11.617 345.516 11.642 C 345.762 11.656,346.078 11.523,346.250 11.333 C 346.416 11.150,346.512 11.000,346.463 11.000 C 346.414 11.000,346.284 11.108,346.175 11.240 M187.292 11.289 C 187.681 11.324,188.319 11.324,188.708 11.289 C 189.098 11.254,188.779 11.225,188.000 11.225 C 187.221 11.225,186.902 11.254,187.292 11.289 M163.167 12.750 C 163.942 13.529,164.613 14.167,164.659 14.167 C 164.705 14.167,164.108 13.529,163.333 12.750 C 162.558 11.971,161.887 11.333,161.841 11.333 C 161.795 11.333,162.392 11.971,163.167 12.750 M291.500 11.411 C 291.500 11.457,291.875 11.684,292.333 11.917 C 292.792 12.149,293.167 12.301,293.167 12.256 C 293.167 12.210,292.792 11.982,292.333 11.750 C 291.875 11.518,291.500 11.365,291.500 11.411 M86.792 12.095 C 86.145 12.446,86.219 12.567,86.875 12.233 C 87.503 11.914,87.614 11.831,87.403 11.840 C 87.319 11.844,87.044 11.959,86.792 12.095 M194.750 12.000 L 194.250 12.127 194.698 12.147 C 194.945 12.158,195.193 12.092,195.250 12.000 C 195.307 11.908,195.330 11.842,195.302 11.853 C 195.273 11.864,195.025 11.930,194.750 12.000 M331.834 12.344 C 331.330 12.622,330.842 12.928,330.750 13.023 C 330.617 13.162,332.732 12.089,332.986 11.888 C 333.282 11.655,332.581 11.933,331.834 12.344 M272.658 13.792 L 272.083 14.417 272.708 13.842 C 273.290 13.308,273.410 13.167,273.283 13.167 C 273.255 13.167,272.974 13.448,272.658 13.792 M309.208 13.286 C 309.460 13.324,309.873 13.324,310.125 13.286 C 310.377 13.248,310.171 13.217,309.667 13.217 C 309.162 13.217,308.956 13.248,309.208 13.286 M311.875 13.286 C 312.127 13.324,312.540 13.324,312.792 13.286 C 313.044 13.248,312.837 13.217,312.333 13.217 C 311.829 13.217,311.623 13.248,311.875 13.286 M307.542 13.448 C 307.702 13.490,307.965 13.490,308.125 13.448 C 308.285 13.406,308.154 13.372,307.833 13.372 C 307.512 13.372,307.381 13.406,307.542 13.448 M329.324 14.125 L 328.750 14.750 329.375 14.176 C 329.957 13.641,330.077 13.500,329.949 13.500 C 329.922 13.500,329.640 13.781,329.324 14.125 M83.245 14.708 L 82.250 15.750 83.292 14.755 C 84.259 13.831,84.410 13.667,84.286 13.667 C 84.261 13.667,83.792 14.135,83.245 14.708 M295.393 13.795 C 295.525 14.009,296.500 14.730,296.500 14.614 C 296.500 14.573,296.225 14.330,295.888 14.073 C 295.552 13.816,295.329 13.691,295.393 13.795 M66.234 14.125 C 66.409 14.331,66.671 14.494,66.817 14.487 C 67.043 14.476,67.046 14.460,66.833 14.382 C 66.696 14.331,66.433 14.168,66.250 14.020 C 65.920 13.752,65.919 13.753,66.234 14.125 M67.792 14.287 C 68.090 14.324,68.577 14.324,68.875 14.287 C 69.173 14.250,68.929 14.220,68.333 14.220 C 67.737 14.220,67.494 14.250,67.792 14.287 M302.625 14.845 C 302.281 15.026,302.000 15.212,302.000 15.257 C 302.000 15.332,303.316 14.716,303.486 14.563 C 303.678 14.389,303.177 14.553,302.625 14.845 M165.826 15.625 C 166.136 16.015,166.419 16.333,166.456 16.333 C 166.574 16.333,165.859 15.396,165.556 15.152 C 165.395 15.023,165.517 15.235,165.826 15.625 M270.294 15.784 L 269.677 16.401 269.213 15.997 L 268.750 15.593 269.209 16.085 L 269.668 16.577 270.373 15.872 C 270.761 15.484,271.041 15.167,270.995 15.167 C 270.949 15.167,270.633 15.444,270.294 15.784 M298.083 16.000 C 298.441 16.367,298.772 16.667,298.818 16.667 C 298.863 16.667,298.608 16.367,298.250 16.000 C 297.892 15.633,297.562 15.333,297.516 15.333 C 297.470 15.333,297.725 15.633,298.083 16.000 M77.000 15.741 C 77.000 15.787,77.225 15.941,77.500 16.083 C 77.775 16.226,78.000 16.304,78.000 16.259 C 78.000 16.213,77.775 16.059,77.500 15.917 C 77.225 15.774,77.000 15.696,77.000 15.741 M173.414 16.930 L 172.083 18.193 173.458 16.981 C 174.709 15.880,174.924 15.667,174.789 15.667 C 174.764 15.667,174.145 16.235,173.414 16.930 M321.333 15.743 C 321.333 15.789,321.633 15.980,322.000 16.167 C 322.367 16.354,322.667 16.469,322.667 16.423 C 322.667 16.378,322.367 16.187,322.000 16.000 C 321.633 15.813,321.333 15.697,321.333 15.743 M300.292 16.095 C 299.669 16.433,299.707 16.574,300.333 16.250 C 300.608 16.108,300.833 15.956,300.833 15.912 C 300.833 15.805,300.815 15.811,300.292 16.095 M78.250 16.449 C 78.342 16.534,78.829 16.926,79.333 17.318 L 80.250 18.032 79.500 17.340 C 79.087 16.960,78.600 16.569,78.417 16.471 C 78.233 16.373,78.158 16.363,78.250 16.449 M170.336 20.248 C 170.026 20.567,169.805 20.854,169.845 20.885 C 169.884 20.917,170.169 20.655,170.478 20.304 C 171.179 19.507,171.088 19.471,170.336 20.248 " stroke="none" fill="#98d6e2" fill-rule="evenodd"></path><path id="path3" d="M1.500 0.177 C 1.500 0.292,4.483 0.341,10.679 0.325 C 19.368 0.303,20.687 0.342,19.561 0.588 C 18.109 0.907,15.842 1.599,15.346 1.875 C 12.073 3.701,9.022 6.500,6.578 9.917 C 5.843 10.945,6.325 10.419,7.799 8.583 C 9.089 6.978,10.778 5.233,11.685 4.569 C 11.924 4.393,12.538 3.933,13.049 3.545 C 16.645 0.814,22.081 -0.105,26.326 1.299 C 27.193 1.586,27.935 1.787,27.975 1.747 C 28.015 1.707,27.943 1.641,27.816 1.600 C 27.688 1.559,27.133 1.377,26.583 1.195 C 26.033 1.012,25.283 0.815,24.917 0.755 C 23.805 0.575,23.457 0.487,23.537 0.407 C 23.624 0.320,115.687 0.298,115.773 0.384 C 115.804 0.415,115.061 0.635,114.123 0.873 C 112.226 1.355,111.412 1.634,111.537 1.759 C 111.583 1.805,111.837 1.758,112.102 1.654 C 117.817 -0.582,126.087 1.710,131.860 7.132 C 132.195 7.447,132.570 7.664,132.693 7.615 C 132.856 7.550,132.845 7.523,132.651 7.513 C 132.505 7.506,132.242 7.340,132.067 7.145 C 130.917 5.857,126.684 3.132,124.242 2.109 C 123.065 1.615,122.392 1.409,119.525 0.666 C 119.126 0.563,118.833 0.445,118.873 0.405 C 118.914 0.364,182.184 0.332,259.473 0.333 C 353.983 0.334,400.000 0.279,400.000 0.166 C 400.000 0.053,334.801 -0.001,200.750 0.002 C 64.296 0.004,1.500 0.059,1.500 0.177 M0.294 0.451 C 0.501 0.491,0.801 0.490,0.960 0.448 C 1.120 0.406,0.950 0.374,0.583 0.375 C 0.217 0.377,0.086 0.411,0.294 0.451 M359.995 1.176 C 358.344 1.420,355.514 2.623,353.740 3.837 C 352.340 4.795,349.909 6.778,349.420 7.362 C 349.164 7.667,348.477 8.431,347.894 9.059 C 347.311 9.688,346.600 10.513,346.315 10.893 L 345.797 11.583 346.340 11.000 C 346.638 10.679,347.710 9.498,348.721 8.375 C 349.733 7.252,350.603 6.332,350.655 6.330 C 350.707 6.329,351.462 5.761,352.333 5.069 C 356.558 1.712,361.368 0.463,366.070 1.503 C 367.370 1.790,368.242 1.859,367.388 1.607 C 365.469 1.042,362.203 0.851,359.995 1.176 M28.167 1.887 C 28.167 1.916,28.748 2.194,29.458 2.504 C 31.206 3.269,33.138 4.549,34.906 6.115 C 37.177 8.126,37.072 8.062,37.618 7.766 C 37.930 7.596,37.991 7.511,37.802 7.507 C 37.646 7.503,37.473 7.575,37.417 7.667 C 37.252 7.933,37.087 7.867,36.482 7.292 C 34.136 5.058,31.595 3.224,29.833 2.493 C 29.329 2.283,28.845 2.049,28.758 1.973 C 28.607 1.839,28.167 1.775,28.167 1.887 M109.851 2.429 C 108.024 3.406,104.298 6.834,102.586 9.112 C 102.046 9.830,101.379 10.660,101.103 10.958 C 100.827 11.256,100.685 11.500,100.786 11.500 C 100.888 11.500,101.257 11.106,101.605 10.625 C 103.993 7.329,107.679 3.798,109.996 2.587 C 110.778 2.178,111.304 1.848,111.167 1.852 C 111.029 1.856,110.437 2.116,109.851 2.429 M208.417 2.083 C 203.314 2.890,199.376 5.705,195.507 11.307 C 195.163 11.805,195.058 11.855,194.519 11.778 C 192.657 11.513,192.279 11.509,193.460 11.769 C 194.929 12.092,195.324 12.011,195.741 11.299 C 199.227 5.350,204.890 2.095,211.750 2.099 C 213.394 2.099,214.161 2.053,213.750 1.976 C 212.741 1.789,209.916 1.845,208.417 2.083 M368.583 2.149 C 370.062 2.687,371.550 3.423,373.000 4.331 C 374.425 5.225,374.806 5.510,376.751 7.134 L 377.809 8.018 378.613 7.617 C 379.055 7.397,379.961 7.006,380.626 6.748 C 381.291 6.491,381.800 6.245,381.757 6.201 C 381.660 6.105,380.083 6.724,378.770 7.374 L 377.791 7.860 377.187 7.295 C 376.167 6.340,374.305 4.930,373.167 4.248 C 372.571 3.892,371.971 3.515,371.833 3.411 C 371.439 3.113,368.340 1.833,368.030 1.839 C 367.876 1.843,368.125 1.982,368.583 2.149 M215.583 2.450 C 218.090 2.990,220.520 3.851,223.097 5.113 L 224.611 5.854 225.597 5.402 C 226.140 5.153,227.146 4.739,227.833 4.483 C 228.521 4.226,228.962 4.013,228.813 4.008 C 228.538 4.000,226.052 4.959,225.185 5.407 C 224.734 5.641,224.617 5.608,222.565 4.675 C 219.427 3.249,215.851 2.116,214.697 2.183 C 214.543 2.192,214.942 2.312,215.583 2.450 M231.167 3.513 C 230.782 3.603,231.067 3.622,232.000 3.570 C 235.187 3.393,237.639 3.906,240.554 5.359 C 241.455 5.808,242.149 6.106,242.096 6.021 C 241.958 5.797,239.085 4.433,237.917 4.037 C 236.073 3.412,232.717 3.152,231.167 3.513 M229.333 3.842 C 229.154 3.964,229.272 3.981,229.750 3.901 C 230.577 3.762,230.710 3.666,230.069 3.669 C 229.802 3.671,229.471 3.748,229.333 3.842 M143.500 4.162 C 143.162 4.230,143.899 4.280,145.250 4.280 C 147.101 4.281,147.359 4.257,146.500 4.160 C 145.151 4.009,144.253 4.010,143.500 4.162 M140.333 4.607 C 138.075 5.088,133.000 7.027,133.000 7.409 C 133.000 7.533,133.649 7.263,135.107 6.532 C 136.983 5.592,140.078 4.701,142.333 4.451 C 142.813 4.398,142.783 4.386,142.167 4.382 C 141.754 4.379,140.929 4.480,140.333 4.607 M148.578 4.519 C 149.771 4.693,152.153 5.363,153.253 5.834 C 153.690 6.022,154.084 6.138,154.130 6.092 C 154.211 6.011,153.944 5.889,152.583 5.386 C 151.277 4.903,148.906 4.340,148.250 4.357 C 147.680 4.371,147.728 4.395,148.578 4.519 M388.583 4.588 C 386.473 4.805,385.832 4.907,384.750 5.196 C 383.521 5.525,381.978 6.034,382.036 6.092 C 382.068 6.123,382.729 5.959,383.505 5.727 C 387.121 4.644,392.374 4.379,395.074 5.144 C 396.485 5.544,399.004 6.534,399.625 6.933 C 399.831 7.066,400.000 7.111,400.000 7.033 C 400.000 6.847,397.494 5.708,396.083 5.253 C 394.894 4.870,393.943 4.688,392.583 4.583 C 391.850 4.526,391.100 4.458,390.917 4.431 C 390.733 4.404,389.683 4.475,388.583 4.588 M47.667 4.669 C 46.887 4.739,46.100 4.839,45.917 4.891 C 45.733 4.942,45.058 5.107,44.417 5.256 C 42.982 5.591,41.630 6.019,41.721 6.110 C 41.759 6.148,42.455 5.985,43.270 5.749 C 47.950 4.392,53.209 4.431,56.558 5.848 C 57.002 6.036,57.400 6.156,57.441 6.114 C 57.513 6.043,57.311 5.955,55.796 5.399 C 54.037 4.754,50.377 4.425,47.667 4.669 M40.167 6.515 C 39.041 6.912,38.167 7.318,38.167 7.442 C 38.167 7.494,38.298 7.479,38.458 7.410 C 38.619 7.341,39.387 7.035,40.167 6.731 C 41.686 6.138,41.686 5.978,40.167 6.515 M58.250 6.531 C 61.005 7.975,63.911 10.541,65.591 13.013 L 66.433 14.250 68.929 14.191 C 73.621 14.081,76.756 14.999,79.428 17.266 C 80.686 18.333,80.592 18.358,81.677 16.667 C 82.703 15.067,84.236 13.602,85.958 12.574 C 86.669 12.150,87.100 11.851,86.917 11.910 C 85.412 12.390,82.591 14.871,81.384 16.775 C 80.688 17.875,80.333 18.244,80.333 17.869 C 80.333 17.797,79.940 17.441,79.458 17.078 C 76.222 14.637,73.960 13.958,69.272 14.020 L 66.460 14.058 66.105 13.487 C 64.250 10.505,59.186 6.092,57.715 6.174 C 57.643 6.178,57.883 6.339,58.250 6.531 M155.871 7.030 C 160.287 9.360,165.044 13.944,168.572 19.270 L 169.689 20.957 170.415 20.188 C 170.815 19.765,171.117 19.395,171.087 19.365 C 171.057 19.335,170.738 19.627,170.378 20.013 L 169.724 20.715 168.563 18.976 C 164.964 13.586,160.029 8.894,155.713 6.762 C 153.911 5.871,154.018 6.053,155.871 7.030 M242.333 6.226 C 242.333 6.259,242.802 6.571,243.375 6.920 C 243.974 7.284,245.249 8.396,246.375 9.535 C 247.452 10.625,248.333 11.450,248.333 11.369 C 248.333 11.096,244.426 7.413,243.472 6.787 C 242.588 6.207,242.333 6.081,242.333 6.226 M0.167 9.135 C 0.304 9.221,0.792 9.345,1.250 9.410 C 1.708 9.475,2.940 9.747,3.987 10.013 C 5.034 10.280,5.917 10.472,5.949 10.440 C 5.981 10.408,5.387 10.216,4.629 10.013 C 2.501 9.444,2.133 9.356,1.417 9.246 C 1.050 9.190,0.563 9.107,0.333 9.061 C 0.028 9.001,-0.017 9.021,0.167 9.135 M283.750 9.326 C 285.436 9.547,287.102 9.650,286.750 9.511 C 286.567 9.439,285.592 9.338,284.583 9.287 C 283.339 9.225,283.071 9.237,283.750 9.326 M280.417 9.497 C 280.220 9.579,280.595 9.599,281.333 9.545 C 282.021 9.495,282.615 9.427,282.653 9.394 C 282.797 9.268,280.735 9.363,280.417 9.497 M278.250 10.166 C 275.596 11.232,271.943 13.763,270.099 15.814 C 269.665 16.297,269.718 16.328,268.437 14.833 C 265.282 11.151,260.258 9.316,255.167 9.987 C 254.493 10.076,254.930 10.115,256.818 10.134 C 262.214 10.189,265.469 11.611,268.689 15.320 L 269.618 16.391 271.434 14.812 C 274.415 12.222,276.062 11.184,278.833 10.149 C 279.521 9.893,279.933 9.686,279.750 9.690 C 279.567 9.694,278.892 9.909,278.250 10.166 M287.417 9.779 C 290.472 10.457,296.264 13.832,298.487 16.231 C 299.032 16.818,299.039 16.816,301.283 15.607 C 302.365 15.025,303.755 14.374,304.373 14.161 C 304.990 13.948,305.465 13.742,305.427 13.705 C 305.215 13.493,300.220 15.758,299.592 16.351 C 299.298 16.628,298.989 16.503,298.201 15.786 C 294.974 12.851,289.260 9.599,287.480 9.686 C 287.144 9.702,287.134 9.717,287.417 9.779 M251.270 10.684 C 250.273 10.954,249.336 11.253,249.187 11.350 C 248.951 11.503,248.956 11.513,249.222 11.429 C 249.762 11.260,253.402 10.354,253.833 10.282 C 254.133 10.232,254.086 10.210,253.667 10.203 C 253.346 10.198,252.267 10.415,251.270 10.684 M91.333 10.650 C 90.921 10.705,91.963 10.750,93.648 10.750 C 95.334 10.750,96.422 10.698,96.065 10.635 C 95.299 10.498,92.401 10.508,91.333 10.650 M89.054 11.065 C 88.260 11.279,87.822 11.593,88.584 11.402 C 90.015 11.044,90.551 10.864,90.167 10.870 C 89.938 10.874,89.437 10.961,89.054 11.065 M97.250 10.948 C 97.525 10.983,98.305 11.122,98.984 11.258 C 99.663 11.393,100.253 11.469,100.296 11.426 C 100.338 11.384,100.195 11.312,99.978 11.266 C 98.468 10.945,97.748 10.837,97.283 10.858 L 96.750 10.883 97.250 10.948 M334.750 11.081 C 333.598 11.322,332.746 11.634,332.879 11.768 C 332.930 11.819,333.123 11.779,333.308 11.680 C 334.590 10.994,340.555 10.748,343.827 11.246 C 345.238 11.461,346.150 11.476,345.145 11.268 C 342.888 10.801,336.634 10.689,334.750 11.081 M187.375 11.121 C 187.719 11.157,188.281 11.157,188.625 11.121 C 188.969 11.085,188.688 11.056,188.000 11.056 C 187.313 11.056,187.031 11.085,187.375 11.121 M184.167 11.337 C 183.922 11.418,184.335 11.436,185.167 11.381 C 185.946 11.330,186.615 11.260,186.653 11.227 C 186.792 11.106,184.571 11.204,184.167 11.337 M189.347 11.227 C 189.385 11.260,190.054 11.330,190.833 11.381 C 191.665 11.436,192.078 11.418,191.833 11.337 C 191.429 11.204,189.208 11.106,189.347 11.227 M182.500 11.675 C 182.321 11.797,182.439 11.814,182.917 11.734 C 183.743 11.596,183.877 11.499,183.236 11.503 C 182.969 11.504,182.637 11.582,182.500 11.675 M180.485 12.315 C 176.772 13.866,173.428 16.223,171.649 18.545 C 171.352 18.933,171.741 18.604,172.513 17.815 C 175.098 15.172,177.805 13.445,181.369 12.162 C 181.854 11.988,182.100 11.848,181.917 11.851 C 181.733 11.854,181.089 12.063,180.485 12.315 M331.500 12.360 C 329.544 13.478,326.667 16.521,326.667 17.472 C 326.667 18.358,325.325 17.982,323.167 16.491 C 321.865 15.592,317.260 13.648,316.501 13.676 C 316.363 13.681,317.078 13.967,318.090 14.312 C 319.904 14.929,321.654 15.787,324.565 17.486 C 326.322 18.512,326.232 18.530,327.155 16.978 C 328.484 14.747,329.767 13.486,331.917 12.299 C 332.375 12.046,332.675 11.839,332.583 11.838 C 332.492 11.837,332.004 12.072,331.500 12.360 M308.083 13.162 C 307.717 13.225,308.504 13.243,309.833 13.201 C 312.000 13.133,313.988 13.269,315.667 13.600 C 315.987 13.663,316.199 13.659,316.137 13.592 C 315.735 13.153,309.933 12.844,308.083 13.162 M305.917 13.508 C 305.692 13.611,305.856 13.627,306.417 13.559 C 306.875 13.503,307.281 13.429,307.319 13.395 C 307.466 13.265,306.234 13.364,305.917 13.508 " stroke="none" fill="#5bbdd2" fill-rule="evenodd"></path><path id="path4" d="M18.750 1.094 C 18.292 1.219,18.179 1.275,18.500 1.218 C 18.821 1.161,20.246 1.065,21.667 1.004 L 24.250 0.894 21.917 0.879 C 20.415 0.870,19.286 0.947,18.750 1.094 M114.417 1.093 C 114.050 1.222,113.938 1.282,114.167 1.227 C 114.396 1.171,115.633 1.073,116.917 1.009 L 119.250 0.892 117.167 0.875 C 115.765 0.864,114.865 0.936,114.417 1.093 M119.667 1.167 C 119.896 1.240,120.233 1.300,120.417 1.300 C 120.681 1.300,120.663 1.272,120.333 1.167 C 120.104 1.093,119.767 1.033,119.583 1.033 C 119.319 1.033,119.337 1.061,119.667 1.167 M359.833 1.500 C 359.271 1.618,359.268 1.623,359.750 1.625 C 360.025 1.626,360.475 1.570,360.750 1.500 C 361.442 1.324,360.670 1.324,359.833 1.500 M364.014 1.393 C 364.052 1.426,364.496 1.495,365.000 1.547 C 365.570 1.605,365.791 1.587,365.583 1.498 C 365.264 1.363,363.870 1.269,364.014 1.393 M111.665 1.906 C 110.703 2.261,109.111 3.105,108.666 3.496 L 108.250 3.862 108.771 3.518 C 109.453 3.067,111.683 2.000,111.944 2.000 C 112.056 2.000,112.193 1.925,112.250 1.833 C 112.371 1.637,112.405 1.633,111.665 1.906 M122.181 1.733 C 122.219 1.770,122.888 2.044,123.667 2.342 C 124.446 2.640,125.477 3.105,125.958 3.375 C 126.440 3.644,126.833 3.828,126.833 3.782 C 126.833 3.614,125.046 2.703,123.714 2.192 C 122.429 1.699,122.017 1.576,122.181 1.733 M366.500 1.833 C 366.637 1.922,366.900 1.991,367.083 1.986 L 367.417 1.977 367.083 1.833 C 366.585 1.619,366.169 1.619,366.500 1.833 M368.083 2.255 C 368.947 2.566,369.247 2.558,368.523 2.243 C 368.214 2.110,367.839 2.003,367.689 2.007 C 367.539 2.011,367.717 2.123,368.083 2.255 M208.833 2.319 C 208.329 2.373,209.492 2.417,211.417 2.417 C 213.374 2.417,214.476 2.370,213.917 2.310 C 212.705 2.180,210.088 2.185,208.833 2.319 M29.176 2.565 C 29.352 2.741,31.475 3.761,31.395 3.631 C 31.348 3.556,31.013 3.343,30.650 3.158 C 29.914 2.783,29.044 2.432,29.176 2.565 M215.250 2.650 C 215.433 2.725,215.958 2.832,216.417 2.888 C 216.930 2.949,217.090 2.936,216.833 2.854 C 216.233 2.661,214.843 2.482,215.250 2.650 M369.250 2.630 C 369.342 2.714,369.754 2.913,370.167 3.071 C 370.947 3.369,372.813 4.465,374.250 5.468 C 374.723 5.798,374.950 5.899,374.776 5.703 C 374.341 5.212,371.095 3.263,370.000 2.835 C 369.496 2.637,369.158 2.545,369.250 2.630 M205.887 2.888 C 205.059 3.193,205.028 3.359,205.848 3.092 C 206.253 2.961,206.733 2.820,206.917 2.779 C 207.177 2.721,207.159 2.704,206.833 2.699 C 206.604 2.695,206.178 2.780,205.887 2.888 M355.051 3.336 C 354.392 3.702,353.796 4.094,353.728 4.209 C 353.631 4.369,353.657 4.373,353.843 4.224 C 353.975 4.118,354.646 3.725,355.333 3.351 C 356.021 2.977,356.508 2.671,356.417 2.671 C 356.325 2.671,355.711 2.970,355.051 3.336 M217.811 3.257 C 218.119 3.390,218.457 3.497,218.561 3.493 C 218.665 3.490,218.498 3.377,218.189 3.243 C 217.881 3.110,217.543 3.003,217.439 3.007 C 217.335 3.010,217.502 3.123,217.811 3.257 M204.333 3.583 C 204.104 3.714,203.992 3.822,204.083 3.822 C 204.175 3.822,204.438 3.714,204.667 3.583 C 204.896 3.452,205.008 3.345,204.917 3.345 C 204.825 3.345,204.563 3.452,204.333 3.583 M232.381 3.790 C 232.912 3.823,233.737 3.823,234.214 3.789 C 234.692 3.756,234.258 3.729,233.250 3.729 C 232.242 3.729,231.851 3.757,232.381 3.790 M12.000 4.435 C 11.055 5.172,9.087 7.095,8.624 7.736 C 8.430 8.003,8.979 7.514,9.844 6.649 C 10.709 5.785,11.754 4.802,12.167 4.464 C 13.122 3.683,12.993 3.661,12.000 4.435 M107.409 4.542 L 106.750 5.250 107.458 4.591 C 108.117 3.978,108.243 3.833,108.117 3.833 C 108.090 3.833,107.771 4.152,107.409 4.542 M127.000 3.881 C 127.000 3.925,127.469 4.238,128.042 4.577 C 128.615 4.915,128.971 5.084,128.833 4.951 C 128.535 4.663,127.000 3.767,127.000 3.881 M203.124 4.152 C 202.457 4.579,202.335 4.753,202.917 4.444 C 203.615 4.074,203.946 3.837,203.750 3.848 C 203.658 3.853,203.377 3.990,203.124 4.152 M229.833 4.000 C 229.498 4.107,229.482 4.134,229.750 4.138 C 229.933 4.141,230.233 4.079,230.417 4.000 C 230.841 3.817,230.403 3.817,229.833 4.000 M236.250 4.000 C 236.433 4.079,236.733 4.141,236.917 4.138 C 237.185 4.134,237.168 4.107,236.833 4.000 C 236.263 3.817,235.825 3.817,236.250 4.000 M221.000 4.417 C 221.229 4.548,221.492 4.655,221.583 4.655 C 221.675 4.655,221.563 4.548,221.333 4.417 C 221.104 4.286,220.842 4.178,220.750 4.178 C 220.658 4.178,220.771 4.286,221.000 4.417 M32.500 4.379 C 32.500 4.411,32.744 4.616,33.042 4.834 C 33.377 5.079,33.493 5.119,33.347 4.939 C 33.125 4.666,32.500 4.253,32.500 4.379 M143.000 4.500 L 141.917 4.609 142.833 4.618 C 143.337 4.624,144.237 4.573,144.833 4.506 L 145.917 4.384 145.000 4.388 C 144.496 4.389,143.596 4.440,143.000 4.500 M146.455 4.620 C 146.750 4.657,147.275 4.658,147.621 4.622 C 147.967 4.586,147.725 4.555,147.083 4.555 C 146.442 4.554,146.159 4.583,146.455 4.620 M352.518 5.010 C 352.299 5.192,352.155 5.377,352.198 5.420 C 352.241 5.463,352.452 5.311,352.667 5.083 C 353.135 4.585,353.068 4.552,352.518 5.010 M49.042 4.957 C 49.660 4.989,50.673 4.989,51.292 4.957 C 51.910 4.925,51.404 4.899,50.167 4.899 C 48.929 4.899,48.423 4.925,49.042 4.957 M139.917 5.008 C 139.684 5.113,139.785 5.128,140.250 5.057 C 140.617 5.001,140.948 4.928,140.986 4.895 C 141.129 4.768,140.237 4.863,139.917 5.008 M239.181 4.897 C 239.350 5.052,241.333 5.996,241.333 5.921 C 241.333 5.828,239.408 4.833,239.227 4.833 C 239.163 4.833,239.142 4.862,239.181 4.897 M387.167 4.993 C 386.938 5.063,387.387 5.083,388.167 5.038 C 388.946 4.992,389.615 4.928,389.653 4.894 C 389.784 4.779,387.583 4.867,387.167 4.993 M391.847 4.894 C 391.885 4.927,392.479 4.994,393.167 5.043 C 393.899 5.095,394.210 5.078,393.917 5.002 C 393.411 4.871,391.719 4.782,391.847 4.894 M46.792 5.118 C 46.998 5.157,47.335 5.157,47.542 5.118 C 47.748 5.078,47.579 5.045,47.167 5.045 C 46.754 5.045,46.585 5.078,46.792 5.118 M33.680 5.275 C 33.687 5.353,34.231 5.864,34.888 6.411 C 35.545 6.958,35.979 7.275,35.851 7.115 C 35.488 6.662,33.665 5.117,33.680 5.275 M44.917 5.421 C 44.550 5.542,44.362 5.646,44.500 5.651 C 44.637 5.657,45.087 5.555,45.500 5.425 C 45.913 5.295,46.100 5.192,45.917 5.195 C 45.733 5.199,45.283 5.300,44.917 5.421 M53.833 5.333 C 54.403 5.516,54.841 5.516,54.417 5.333 C 54.233 5.255,53.933 5.192,53.750 5.195 C 53.482 5.199,53.498 5.226,53.833 5.333 M105.078 6.672 C 104.260 7.494,103.631 8.167,103.681 8.167 C 103.804 8.167,106.676 5.287,106.615 5.226 C 106.588 5.199,105.896 5.850,105.078 6.672 M138.250 5.423 C 137.608 5.717,138.067 5.712,138.833 5.417 C 139.198 5.276,139.292 5.192,139.083 5.193 C 138.900 5.193,138.525 5.297,138.250 5.423 M151.333 5.417 C 151.654 5.540,152.029 5.641,152.167 5.641 C 152.304 5.641,152.154 5.540,151.833 5.417 C 151.512 5.293,151.137 5.192,151.000 5.192 C 150.862 5.192,151.012 5.293,151.333 5.417 M199.906 6.529 C 198.482 7.852,197.815 8.561,197.350 9.250 C 197.139 9.562,197.566 9.123,198.402 8.167 C 198.602 7.938,199.399 7.169,200.173 6.458 C 200.947 5.748,201.533 5.167,201.476 5.167 C 201.419 5.167,200.713 5.780,199.906 6.529 M225.833 5.417 C 225.604 5.548,225.492 5.655,225.583 5.655 C 225.675 5.655,225.938 5.548,226.167 5.417 C 226.396 5.286,226.508 5.178,226.417 5.178 C 226.325 5.178,226.063 5.286,225.833 5.417 M384.917 5.436 C 384.263 5.666,384.261 5.668,384.833 5.566 C 386.263 5.312,386.631 5.205,386.083 5.203 C 385.808 5.202,385.283 5.307,384.917 5.436 M394.750 5.333 C 395.248 5.547,395.665 5.547,395.333 5.333 C 395.196 5.244,394.933 5.176,394.750 5.181 L 394.417 5.190 394.750 5.333 M43.250 5.833 C 43.040 5.924,43.009 5.977,43.167 5.977 C 43.304 5.977,43.567 5.912,43.750 5.833 C 43.960 5.743,43.991 5.690,43.833 5.690 C 43.696 5.690,43.433 5.755,43.250 5.833 M130.282 6.115 C 131.948 7.582,132.607 8.088,132.000 7.436 C 131.679 7.091,131.042 6.548,130.583 6.228 C 129.945 5.783,129.875 5.757,130.282 6.115 M350.825 6.328 C 350.110 6.913,347.749 9.504,347.945 9.490 C 348.021 9.484,348.533 8.947,349.083 8.297 C 349.633 7.647,350.446 6.827,350.890 6.474 C 351.334 6.122,351.634 5.836,351.557 5.839 C 351.480 5.842,351.150 6.062,350.825 6.328 M56.667 6.096 C 56.667 6.209,57.532 6.523,57.615 6.441 C 57.653 6.403,57.455 6.292,57.175 6.195 C 56.895 6.097,56.667 6.053,56.667 6.096 M153.667 6.250 C 153.896 6.381,154.158 6.488,154.250 6.488 C 154.342 6.488,154.229 6.381,154.000 6.250 C 153.771 6.119,153.508 6.012,153.417 6.012 C 153.325 6.012,153.438 6.119,153.667 6.250 M382.250 6.256 C 381.833 6.457,381.819 6.480,382.167 6.395 C 382.639 6.279,383.170 6.009,382.917 6.013 C 382.825 6.014,382.525 6.123,382.250 6.256 M397.417 6.167 C 397.473 6.259,397.594 6.333,397.686 6.333 C 397.777 6.333,398.309 6.560,398.867 6.837 C 399.425 7.114,399.909 7.314,399.941 7.281 C 400.004 7.218,398.489 6.448,397.750 6.167 C 397.461 6.057,397.349 6.057,397.417 6.167 M40.698 6.614 C 40.303 6.754,40.009 6.898,40.045 6.933 C 40.081 6.969,40.517 6.855,41.013 6.678 C 41.510 6.502,41.804 6.358,41.667 6.359 C 41.529 6.359,41.093 6.474,40.698 6.614 M57.847 6.553 C 58.112 6.756,59.167 7.307,59.167 7.242 C 59.167 7.130,58.118 6.501,57.931 6.501 C 57.847 6.500,57.809 6.524,57.847 6.553 M134.500 6.917 C 134.087 7.138,133.825 7.318,133.917 7.318 C 134.008 7.318,134.421 7.138,134.833 6.917 C 135.246 6.696,135.508 6.515,135.417 6.515 C 135.325 6.515,134.912 6.696,134.500 6.917 M376.741 7.370 C 377.603 8.175,377.895 8.289,378.333 7.992 C 378.518 7.868,378.460 7.852,378.113 7.933 C 377.737 8.020,377.536 7.945,377.113 7.558 C 376.822 7.291,376.429 6.963,376.241 6.828 C 376.053 6.694,376.278 6.937,376.741 7.370 M380.584 6.856 C 379.676 7.224,379.336 7.451,379.999 7.246 C 380.612 7.058,381.777 6.524,381.583 6.521 C 381.492 6.519,381.042 6.670,380.584 6.856 M243.000 6.893 C 243.000 6.936,243.469 7.305,244.042 7.714 C 244.615 8.123,245.707 9.113,246.468 9.913 C 247.230 10.714,247.888 11.334,247.931 11.291 C 248.048 11.175,244.132 7.462,243.526 7.116 C 243.237 6.950,243.000 6.850,243.000 6.893 M36.167 7.403 C 36.167 7.881,37.220 8.295,37.667 7.992 C 37.851 7.867,37.794 7.852,37.449 7.932 C 37.093 8.015,36.884 7.950,36.574 7.658 C 36.350 7.447,36.167 7.333,36.167 7.403 M38.333 7.583 C 38.104 7.714,37.992 7.822,38.083 7.822 C 38.175 7.822,38.438 7.714,38.667 7.583 C 38.896 7.452,39.008 7.345,38.917 7.345 C 38.825 7.345,38.563 7.452,38.333 7.583 M133.093 7.589 C 132.915 7.723,132.845 7.833,132.936 7.833 C 133.028 7.833,133.249 7.723,133.426 7.589 C 133.604 7.454,133.675 7.344,133.583 7.344 C 133.492 7.344,133.271 7.454,133.093 7.589 M156.917 7.858 C 157.375 8.143,158.122 8.647,158.576 8.977 C 159.030 9.308,159.346 9.489,159.278 9.379 C 159.128 9.136,156.438 7.332,156.231 7.337 C 156.150 7.338,156.458 7.573,156.917 7.858 M60.250 7.947 C 60.762 8.440,61.888 9.199,61.552 8.824 C 61.351 8.600,60.938 8.275,60.635 8.101 C 60.332 7.928,60.158 7.858,60.250 7.947 M102.444 9.708 C 101.228 11.265,100.891 11.598,100.417 11.713 C 100.096 11.791,100.097 11.795,100.433 11.814 C 100.625 11.825,100.927 11.702,101.105 11.542 C 101.498 11.185,103.718 8.333,103.601 8.333 C 103.556 8.333,103.035 8.952,102.444 9.708 M7.051 9.667 C 6.350 10.606,6.072 10.749,5.428 10.504 C 5.181 10.410,4.889 10.339,4.781 10.345 C 4.672 10.352,4.878 10.465,5.238 10.597 C 5.599 10.729,6.023 10.796,6.182 10.745 C 6.446 10.661,7.954 8.833,7.759 8.833 C 7.712 8.833,7.393 9.208,7.051 9.667 M62.500 9.750 C 62.811 10.071,63.103 10.333,63.149 10.333 C 63.195 10.333,62.978 10.071,62.667 9.750 C 62.356 9.429,62.064 9.167,62.018 9.167 C 61.972 9.167,62.189 9.429,62.500 9.750 M1.500 9.667 C 2.949 9.987,3.278 10.016,2.500 9.756 C 2.087 9.618,1.563 9.513,1.333 9.522 C 1.006 9.535,1.041 9.566,1.500 9.667 M160.333 10.261 C 160.837 10.696,162.336 12.147,163.663 13.485 C 164.991 14.822,165.766 15.542,165.387 15.083 C 164.481 13.989,161.493 11.094,160.333 10.186 L 159.417 9.469 160.333 10.261 M282.375 9.624 C 282.994 9.656,284.006 9.656,284.625 9.624 C 285.244 9.592,284.737 9.565,283.500 9.565 C 282.262 9.565,281.756 9.592,282.375 9.624 M280.167 9.830 C 279.846 9.899,279.396 10.043,279.167 10.149 L 278.750 10.343 279.167 10.242 C 279.396 10.187,279.915 10.072,280.320 9.987 C 280.725 9.902,281.093 9.796,281.139 9.750 C 281.245 9.643,280.905 9.672,280.167 9.830 M286.167 9.825 C 286.583 9.967,287.617 10.055,287.486 9.938 C 287.448 9.904,287.042 9.833,286.583 9.780 C 286.021 9.715,285.886 9.730,286.167 9.825 M347.153 10.292 C 346.378 11.126,345.932 11.667,346.020 11.667 C 346.060 11.667,346.489 11.217,346.973 10.667 C 347.945 9.562,348.067 9.308,347.153 10.292 M3.583 10.167 C 3.767 10.245,4.067 10.308,4.250 10.305 C 4.518 10.301,4.502 10.274,4.167 10.167 C 3.597 9.984,3.159 9.984,3.583 10.167 M256.125 10.290 C 256.698 10.323,257.635 10.323,258.208 10.290 C 258.781 10.258,258.313 10.231,257.167 10.231 C 256.021 10.231,255.552 10.258,256.125 10.290 M63.335 10.436 C 63.336 10.517,63.692 11.003,64.126 11.517 C 64.561 12.030,65.089 12.668,65.299 12.934 C 65.509 13.199,65.460 13.079,65.190 12.667 C 64.919 12.254,64.559 11.767,64.388 11.583 C 64.218 11.400,63.911 11.034,63.706 10.769 C 63.501 10.505,63.334 10.355,63.335 10.436 M253.417 10.500 L 252.750 10.619 253.333 10.626 C 253.654 10.630,254.104 10.573,254.333 10.500 C 254.869 10.328,254.375 10.328,253.417 10.500 M259.750 10.496 C 260.068 10.637,261.131 10.732,260.986 10.607 C 260.948 10.573,260.579 10.502,260.167 10.447 C 259.666 10.381,259.527 10.397,259.750 10.496 M276.417 11.297 C 275.004 12.050,273.234 13.300,272.668 13.944 C 272.269 14.399,272.275 14.397,272.835 13.903 C 273.828 13.027,275.185 12.113,276.578 11.380 C 277.314 10.993,277.842 10.676,277.750 10.676 C 277.658 10.676,277.058 10.955,276.417 11.297 M92.715 10.957 C 93.338 10.989,94.313 10.989,94.882 10.957 C 95.451 10.924,94.942 10.898,93.750 10.898 C 92.558 10.898,92.093 10.925,92.715 10.957 M250.917 11.090 C 250.259 11.317,250.258 11.319,250.833 11.222 C 251.513 11.107,252.208 10.853,251.833 10.857 C 251.696 10.858,251.283 10.963,250.917 11.090 M290.181 10.896 C 290.351 11.050,291.667 11.665,291.667 11.590 C 291.667 11.495,290.409 10.833,290.229 10.833 C 290.164 10.833,290.142 10.862,290.181 10.896 M89.917 11.168 C 89.702 11.261,89.881 11.278,90.417 11.216 C 90.875 11.163,91.281 11.093,91.319 11.060 C 91.464 10.935,90.235 11.030,89.917 11.168 M96.292 11.118 C 96.498 11.157,96.835 11.157,97.042 11.118 C 97.248 11.078,97.079 11.045,96.667 11.045 C 96.254 11.045,96.085 11.078,96.292 11.118 M338.875 11.115 C 339.035 11.157,339.298 11.157,339.458 11.115 C 339.619 11.073,339.487 11.039,339.167 11.039 C 338.846 11.039,338.715 11.073,338.875 11.115 M336.213 11.289 C 336.652 11.324,337.327 11.323,337.713 11.288 C 338.100 11.254,337.742 11.225,336.917 11.226 C 336.092 11.226,335.775 11.255,336.213 11.289 M340.880 11.289 C 341.318 11.324,341.993 11.323,342.380 11.288 C 342.767 11.254,342.408 11.225,341.583 11.226 C 340.758 11.226,340.442 11.255,340.880 11.289 M88.417 11.589 C 88.000 11.790,87.986 11.813,88.333 11.728 C 88.806 11.613,89.336 11.342,89.083 11.346 C 88.992 11.347,88.692 11.457,88.417 11.589 M99.083 11.500 C 99.267 11.579,99.567 11.641,99.750 11.638 C 100.018 11.634,100.002 11.607,99.667 11.500 C 99.097 11.317,98.659 11.317,99.083 11.500 M185.000 11.500 C 184.167 11.675,185.022 11.683,186.000 11.509 C 186.677 11.388,186.693 11.375,186.167 11.376 C 185.846 11.377,185.321 11.432,185.000 11.500 M190.000 11.509 C 191.006 11.687,191.794 11.672,190.917 11.490 C 190.550 11.415,190.025 11.358,189.750 11.364 C 189.375 11.372,189.438 11.408,190.000 11.509 M334.083 11.500 C 333.873 11.590,333.842 11.643,334.000 11.643 C 334.137 11.643,334.400 11.579,334.583 11.500 C 334.793 11.410,334.824 11.357,334.667 11.357 C 334.529 11.357,334.267 11.421,334.083 11.500 M344.167 11.500 C 344.396 11.573,344.733 11.633,344.917 11.633 C 345.181 11.633,345.163 11.606,344.833 11.500 C 344.604 11.427,344.267 11.367,344.083 11.367 C 343.819 11.367,343.837 11.394,344.167 11.500 M248.167 11.664 C 248.304 11.754,248.598 11.829,248.819 11.831 C 249.354 11.834,249.219 11.739,248.500 11.608 C 248.090 11.532,247.991 11.549,248.167 11.664 M182.583 11.936 C 181.929 12.166,181.928 12.168,182.500 12.066 C 183.930 11.812,184.298 11.705,183.750 11.703 C 183.475 11.702,182.950 11.807,182.583 11.936 M192.750 11.920 C 194.058 12.215,194.687 12.206,193.500 11.910 C 192.996 11.784,192.396 11.684,192.167 11.688 C 191.938 11.691,192.200 11.796,192.750 11.920 M333.000 11.917 C 332.771 12.048,332.658 12.155,332.750 12.155 C 332.842 12.155,333.104 12.048,333.333 11.917 C 333.563 11.786,333.675 11.678,333.583 11.678 C 333.492 11.678,333.229 11.786,333.000 11.917 M181.083 12.423 C 180.665 12.624,180.651 12.647,181.000 12.563 C 181.229 12.508,181.488 12.396,181.575 12.315 C 181.791 12.113,181.672 12.139,181.083 12.423 M264.833 12.217 C 264.833 12.255,265.265 12.563,265.792 12.901 C 266.319 13.240,266.545 13.342,266.294 13.129 C 265.799 12.708,264.833 12.105,264.833 12.217 M292.917 12.290 C 293.195 12.578,295.849 14.327,295.740 14.151 C 295.684 14.061,295.100 13.630,294.442 13.194 C 292.993 12.235,292.688 12.054,292.917 12.290 M85.424 13.012 C 84.505 13.595,82.802 15.171,82.284 15.917 C 82.093 16.192,82.435 15.885,83.043 15.235 C 83.651 14.585,84.584 13.762,85.116 13.407 C 86.187 12.692,86.441 12.500,86.316 12.500 C 86.270 12.500,85.868 12.731,85.424 13.012 M179.000 13.250 C 178.771 13.381,178.658 13.488,178.750 13.488 C 178.842 13.488,179.104 13.381,179.333 13.250 C 179.563 13.119,179.675 13.012,179.583 13.012 C 179.492 13.012,179.229 13.119,179.000 13.250 M330.233 13.479 C 329.876 13.742,329.358 14.208,329.083 14.515 C 328.644 15.006,328.674 14.994,329.333 14.410 C 329.746 14.045,330.308 13.581,330.583 13.379 C 330.858 13.176,331.038 13.008,330.983 13.005 C 330.928 13.002,330.591 13.215,330.233 13.479 M309.417 13.333 L 308.250 13.441 309.250 13.461 C 309.800 13.472,310.550 13.419,310.917 13.343 C 311.737 13.173,311.187 13.170,309.417 13.333 M312.121 13.454 C 312.417 13.490,312.942 13.491,313.288 13.455 C 313.634 13.419,313.392 13.389,312.750 13.388 C 312.108 13.387,311.825 13.417,312.121 13.454 M65.804 13.752 C 66.154 14.464,66.585 14.700,67.190 14.511 L 67.750 14.337 67.141 14.423 C 66.605 14.499,66.478 14.444,66.085 13.963 C 65.840 13.662,65.714 13.568,65.804 13.752 M177.000 14.342 C 176.221 14.804,175.471 15.300,175.333 15.444 C 175.196 15.588,175.383 15.512,175.750 15.276 C 176.117 15.040,176.885 14.578,177.458 14.249 C 178.336 13.744,178.663 13.500,178.458 13.500 C 178.435 13.500,177.779 13.879,177.000 14.342 M267.250 13.999 C 267.525 14.320,267.769 14.613,267.792 14.652 C 267.815 14.691,267.870 14.686,267.914 14.641 C 267.959 14.597,267.715 14.303,267.373 13.989 L 266.751 13.417 267.250 13.999 M306.583 13.667 C 306.130 13.782,306.122 13.795,306.500 13.802 C 306.729 13.806,307.067 13.745,307.250 13.667 C 307.661 13.490,307.277 13.490,306.583 13.667 M314.750 13.667 C 314.933 13.745,315.233 13.808,315.417 13.805 C 315.685 13.801,315.668 13.774,315.333 13.667 C 314.763 13.484,314.325 13.484,314.750 13.667 M304.917 14.089 C 304.244 14.398,304.646 14.398,305.356 14.090 C 305.664 13.956,305.804 13.850,305.667 13.853 C 305.529 13.857,305.192 13.963,304.917 14.089 M316.500 14.083 C 316.821 14.207,317.196 14.308,317.333 14.308 C 317.471 14.308,317.321 14.207,317.000 14.083 C 316.679 13.960,316.304 13.859,316.167 13.859 C 316.029 13.859,316.179 13.960,316.500 14.083 M69.792 14.287 C 70.090 14.324,70.577 14.324,70.875 14.287 C 71.173 14.250,70.929 14.220,70.333 14.220 C 69.737 14.220,69.494 14.250,69.792 14.287 M270.846 15.439 L 269.652 16.545 269.201 16.152 L 268.750 15.759 269.202 16.245 L 269.654 16.730 270.702 15.752 C 271.278 15.215,271.860 14.675,271.994 14.554 C 272.128 14.433,272.194 14.333,272.139 14.333 C 272.085 14.333,271.503 14.831,270.846 15.439 M296.083 14.449 C 296.383 14.755,298.745 16.764,298.953 16.890 C 299.139 17.003,300.500 16.434,300.500 16.243 C 300.500 16.197,300.203 16.311,299.840 16.497 C 299.001 16.925,299.178 16.981,297.965 15.899 C 297.046 15.078,295.634 13.991,296.083 14.449 M303.583 14.589 C 303.167 14.790,303.153 14.813,303.500 14.728 C 303.972 14.613,304.503 14.342,304.250 14.346 C 304.158 14.347,303.858 14.457,303.583 14.589 M319.214 14.989 C 320.111 15.345,320.957 15.728,321.093 15.842 C 321.230 15.955,321.384 16.005,321.436 15.953 C 321.601 15.788,318.300 14.327,317.787 14.338 C 317.675 14.340,318.317 14.633,319.214 14.989 M72.958 14.618 C 73.165 14.657,73.502 14.657,73.708 14.618 C 73.915 14.578,73.746 14.545,73.333 14.545 C 72.921 14.545,72.752 14.578,72.958 14.618 M74.333 14.805 C 74.471 14.890,74.771 15.010,75.000 15.071 C 75.290 15.149,75.340 15.135,75.167 15.028 C 75.029 14.943,74.729 14.824,74.500 14.762 C 74.210 14.685,74.160 14.698,74.333 14.805 M268.284 15.245 C 268.449 15.471,268.653 15.659,268.737 15.661 C 268.822 15.664,268.715 15.479,268.500 15.250 C 268.000 14.718,267.899 14.716,268.284 15.245 M302.167 15.250 C 301.754 15.471,301.476 15.655,301.548 15.659 C 301.725 15.669,303.000 15.014,303.000 14.913 C 303.000 14.803,303.007 14.800,302.167 15.250 M75.833 15.417 C 76.063 15.548,76.362 15.655,76.500 15.654 C 76.637 15.654,76.498 15.544,76.189 15.410 C 75.479 15.102,75.289 15.106,75.833 15.417 M327.732 16.208 C 327.358 16.781,326.928 17.489,326.777 17.781 C 326.424 18.464,326.258 18.557,325.795 18.332 C 325.432 18.156,325.430 18.159,325.740 18.407 C 326.284 18.843,326.147 18.972,327.734 16.542 C 328.228 15.785,328.583 15.167,328.522 15.167 C 328.461 15.167,328.105 15.635,327.732 16.208 M173.552 16.960 C 172.802 17.669,171.939 18.557,171.636 18.933 C 171.332 19.309,171.504 19.167,172.018 18.618 C 172.532 18.069,173.432 17.183,174.018 16.650 C 174.604 16.117,175.046 15.678,175.000 15.675 C 174.954 15.672,174.303 16.250,173.552 16.960 M77.667 16.206 C 77.760 16.307,79.280 17.453,79.667 17.714 C 79.804 17.806,79.617 17.615,79.250 17.288 C 78.700 16.798,77.386 15.900,77.667 16.206 M322.083 16.288 C 322.175 16.374,322.625 16.650,323.083 16.900 C 323.542 17.150,323.767 17.231,323.583 17.081 C 323.210 16.775,321.822 16.041,322.083 16.288 M81.730 16.708 C 81.157 17.682,81.119 17.765,81.411 17.417 C 81.750 17.013,82.042 16.500,81.932 16.500 C 81.889 16.500,81.798 16.594,81.730 16.708 M166.833 17.125 C 167.051 17.423,167.255 17.667,167.287 17.667 C 167.414 17.667,167.001 17.042,166.727 16.820 C 166.547 16.673,166.587 16.790,166.833 17.125 M324.000 17.410 C 324.000 17.456,324.300 17.646,324.667 17.833 C 325.033 18.020,325.333 18.136,325.333 18.090 C 325.333 18.044,325.033 17.854,324.667 17.667 C 324.300 17.480,324.000 17.364,324.000 17.410 M80.766 18.125 C 80.542 18.339,80.439 18.361,80.383 18.208 C 80.340 18.094,80.221 18.000,80.117 18.000 C 80.013 18.000,80.057 18.129,80.215 18.286 C 80.486 18.557,80.522 18.553,80.871 18.203 C 81.306 17.768,81.213 17.699,80.766 18.125 M168.184 19.125 C 168.999 20.346,169.561 21.075,169.245 20.500 C 168.941 19.946,167.484 17.833,167.407 17.833 C 167.361 17.833,167.711 18.415,168.184 19.125 " stroke="none" fill="#bee4ec" fill-rule="evenodd"></path></g></svg>