<svg id="svg" version="1.1" xmlns="http://www.w3.org/2000/svg" xmlns:xlink="http://www.w3.org/1999/xlink" width="400" height="19.841269841269842" viewBox="0, 0, 400,19.841269841269842"><g id="svgg"><path id="path0" d="M209.331 4.864 C 207.089 8.735,201.717 11.147,196.774 10.500 C 194.784 10.240,193.627 9.997,193.250 9.760 C 193.067 9.645,192.641 9.460,192.304 9.350 C 191.506 9.088,189.750 7.961,188.965 7.206 L 188.346 6.611 188.185 7.036 C 187.832 7.963,186.444 9.889,185.377 10.932 C 177.636 18.495,162.485 18.018,155.617 9.994 L 155.015 9.290 154.572 9.817 C 149.566 15.766,135.638 15.729,130.713 9.753 L 130.236 9.175 129.494 10.193 C 122.035 20.437,100.454 18.432,96.914 7.167 C 96.508 5.875,96.483 5.869,95.267 6.772 C 91.970 9.219,84.752 12.081,80.667 12.560 C 80.254 12.608,79.467 12.729,78.917 12.828 C 73.783 13.753,66.418 12.629,63.723 10.509 C 63.153 10.060,63.216 10.040,62.177 11.005 C 57.876 15.002,50.720 16.174,45.982 13.658 C 45.383 13.340,45.379 13.340,45.065 13.689 C 41.299 17.873,32.410 17.597,28.267 13.167 L 27.466 12.311 26.858 12.721 C 23.746 14.820,20.194 15.968,16.333 16.123 C 10.144 16.372,3.735 13.533,0.478 9.100 L -0.000 8.450 -0.000 14.142 L 0.000 19.833 200.000 19.833 L 400.000 19.833 399.996 12.375 C 399.993 5.023,399.988 4.926,399.689 5.583 C 398.753 7.637,396.604 10.068,394.555 11.391 C 393.315 12.192,391.149 13.333,390.869 13.333 C 390.773 13.333,390.340 13.485,389.907 13.671 C 383.400 16.460,373.076 14.672,367.789 9.840 L 366.852 8.983 366.557 9.450 C 365.976 10.369,364.817 11.633,364.123 12.104 C 363.734 12.368,363.329 12.666,363.222 12.766 C 362.138 13.784,358.739 14.580,356.015 14.455 C 354.260 14.374,353.559 14.246,352.583 13.830 C 352.400 13.752,351.892 13.537,351.453 13.351 C 350.319 12.872,348.871 11.811,348.012 10.831 L 347.274 9.990 346.515 10.857 C 340.663 17.547,329.076 17.604,322.678 10.976 L 321.440 9.692 320.714 10.191 C 315.119 14.041,304.182 15.098,296.250 12.557 C 294.329 11.941,291.215 10.381,290.357 9.604 C 290.030 9.308,290.014 9.325,289.426 10.597 C 286.343 17.271,275.924 18.565,270.857 12.904 C 270.465 12.466,270.033 11.891,269.895 11.626 L 269.646 11.143 268.347 12.383 C 258.771 21.532,239.278 18.108,236.653 6.817 L 236.437 5.888 235.514 6.796 C 229.062 13.146,215.102 12.071,210.552 4.874 L 209.911 3.861 209.331 4.864 " stroke="none" fill="#FFFFFF" fill-rule="evenodd"></path><path id="path1" d="M0.000 4.093 L 0.000 8.186 0.542 8.880 C 6.439 16.435,18.282 18.229,26.367 12.792 L 27.483 12.041 28.203 12.834 C 30.006 14.822,31.627 15.678,34.833 16.338 C 36.795 16.741,37.039 16.741,39.000 16.338 C 41.664 15.790,42.508 15.418,44.461 13.933 C 45.428 13.198,45.511 13.166,45.869 13.398 C 50.014 16.077,57.969 14.762,62.194 10.697 L 63.137 9.790 63.658 10.161 C 64.591 10.825,66.010 11.514,67.142 11.853 C 67.751 12.036,68.362 12.228,68.500 12.281 C 68.637 12.334,68.900 12.399,69.083 12.426 C 75.805 13.397,81.649 12.682,88.583 10.040 C 89.408 9.726,90.209 9.403,90.363 9.324 C 93.440 7.731,95.060 6.742,96.040 5.854 C 96.291 5.627,96.518 5.473,96.545 5.512 C 96.571 5.551,96.778 6.141,97.005 6.822 C 98.491 11.290,103.009 14.921,108.521 16.078 C 109.197 16.220,110.087 16.407,110.500 16.495 C 117.227 17.925,126.386 14.675,129.589 9.721 L 130.146 8.860 131.365 10.059 C 134.737 13.376,140.617 14.846,146.437 13.825 C 147.545 13.630,150.620 12.568,151.000 12.249 C 151.137 12.133,151.556 11.885,151.929 11.698 C 152.303 11.510,153.184 10.819,153.887 10.162 C 154.591 9.505,155.167 9.035,155.167 9.119 C 155.167 9.274,157.163 11.361,157.795 11.865 C 164.230 17.006,174.865 17.551,182.250 13.118 C 184.723 11.633,186.805 9.449,187.802 7.292 C 188.207 6.415,188.489 6.313,188.950 6.875 C 193.637 12.582,206.207 10.997,209.378 4.298 C 209.721 3.574,210.167 3.234,210.167 3.697 C 210.167 4.128,211.610 6.071,212.612 6.989 C 218.425 12.316,230.582 11.945,235.789 6.281 L 236.495 5.513 236.759 6.465 C 240.002 18.139,258.943 21.522,268.329 12.105 L 269.574 10.855 270.094 11.587 C 274.842 18.264,285.207 17.833,289.133 10.794 C 289.427 10.268,289.668 9.743,289.669 9.628 C 289.677 8.988,289.972 8.941,290.611 9.476 C 291.544 10.258,291.492 10.224,292.753 10.881 C 296.986 13.084,303.057 14.160,308.617 13.691 C 310.560 13.527,315.400 12.610,315.750 12.340 C 315.842 12.269,316.329 12.079,316.833 11.918 C 317.966 11.557,319.501 10.780,320.522 10.051 C 321.513 9.344,321.424 9.322,322.533 10.562 C 328.612 17.360,341.114 17.374,346.500 10.589 C 347.235 9.662,347.051 9.616,348.612 11.125 C 353.566 15.915,362.640 15.163,366.164 9.671 C 366.816 8.655,366.753 8.658,367.763 9.595 C 368.214 10.013,369.108 10.700,369.750 11.120 C 370.392 11.541,371.104 12.011,371.333 12.165 C 371.563 12.320,372.187 12.610,372.722 12.809 C 373.256 13.009,373.894 13.275,374.139 13.402 C 375.815 14.267,381.497 14.988,384.250 14.686 C 393.522 13.667,400.000 8.541,400.000 2.222 L 400.000 0.000 200.000 0.000 L 0.000 0.000 0.000 4.093 " stroke="none" fill="transparent" fill-rule="evenodd"></path><path id="path2" d="M209.580 4.208 C 209.348 4.687,209.347 4.712,209.575 4.426 C 209.717 4.249,209.833 4.028,209.833 3.936 C 209.833 3.845,209.942 3.915,210.075 4.093 C 210.308 4.406,210.314 4.404,210.222 4.042 C 210.091 3.520,209.887 3.573,209.580 4.208 M95.979 6.125 C 95.773 6.388,95.778 6.395,96.034 6.194 C 96.191 6.072,96.397 6.020,96.493 6.079 C 96.588 6.138,96.667 6.107,96.667 6.010 C 96.667 5.731,96.230 5.804,95.979 6.125 M211.500 6.219 C 211.500 6.248,211.744 6.491,212.042 6.760 L 212.583 7.250 212.094 6.708 C 211.638 6.203,211.500 6.090,211.500 6.219 M94.464 7.137 C 93.849 7.557,93.374 7.930,93.410 7.965 C 93.490 8.045,95.441 6.731,95.583 6.501 C 95.721 6.277,95.742 6.265,94.464 7.137 M188.233 6.708 C 188.167 6.823,188.177 6.859,188.254 6.788 C 188.332 6.718,188.700 6.943,189.073 7.288 L 189.750 7.917 189.091 7.208 C 188.342 6.403,188.392 6.432,188.233 6.708 M398.166 7.875 C 397.921 8.210,397.881 8.327,398.061 8.180 C 398.334 7.958,398.747 7.333,398.621 7.333 C 398.589 7.333,398.384 7.577,398.166 7.875 M236.845 7.583 C 236.845 7.675,236.952 7.938,237.083 8.167 C 237.214 8.396,237.322 8.508,237.322 8.417 C 237.322 8.325,237.214 8.063,237.083 7.833 C 236.952 7.604,236.845 7.492,236.845 7.583 M97.417 8.500 C 97.559 8.775,97.713 9.000,97.759 9.000 C 97.804 9.000,97.726 8.775,97.583 8.500 C 97.441 8.225,97.287 8.000,97.241 8.000 C 97.196 8.000,97.274 8.225,97.417 8.500 M396.833 9.417 C 396.428 9.829,396.135 10.167,396.181 10.167 C 396.226 10.167,396.595 9.829,397.000 9.417 C 397.405 9.004,397.699 8.667,397.653 8.667 C 397.607 8.667,397.238 9.004,396.833 9.417 M186.573 9.445 C 186.316 9.782,186.191 10.004,186.295 9.940 C 186.509 9.808,187.230 8.833,187.114 8.833 C 187.073 8.833,186.830 9.109,186.573 9.445 M289.833 9.343 C 289.833 9.440,289.900 9.479,289.981 9.428 C 290.062 9.378,290.225 9.453,290.342 9.594 C 290.460 9.736,290.712 9.931,290.903 10.027 C 291.094 10.124,290.987 9.973,290.667 9.692 C 290.046 9.147,289.833 9.058,289.833 9.343 M367.667 9.750 C 367.978 10.071,368.270 10.333,368.315 10.333 C 368.361 10.333,368.144 10.071,367.833 9.750 C 367.522 9.429,367.230 9.167,367.185 9.167 C 367.139 9.167,367.356 9.429,367.667 9.750 M89.667 9.750 C 89.438 9.881,89.325 9.988,89.417 9.988 C 89.508 9.988,89.771 9.881,90.000 9.750 C 90.229 9.619,90.342 9.512,90.250 9.512 C 90.158 9.512,89.896 9.619,89.667 9.750 M131.083 10.167 C 131.441 10.533,131.772 10.833,131.818 10.833 C 131.863 10.833,131.608 10.533,131.250 10.167 C 130.892 9.800,130.562 9.500,130.516 9.500 C 130.470 9.500,130.725 9.800,131.083 10.167 M154.075 10.208 L 153.417 10.917 154.125 10.258 C 154.784 9.645,154.910 9.500,154.784 9.500 C 154.757 9.500,154.438 9.819,154.075 10.208 M202.917 9.756 C 202.500 9.957,202.486 9.980,202.833 9.895 C 203.306 9.779,203.836 9.509,203.583 9.513 C 203.492 9.514,203.192 9.623,202.917 9.756 M216.500 9.596 C 216.500 9.709,217.366 10.023,217.448 9.941 C 217.486 9.903,217.288 9.792,217.009 9.695 C 216.729 9.597,216.500 9.553,216.500 9.596 M321.153 9.792 C 320.966 10.039,320.968 10.052,321.164 9.877 C 321.350 9.712,321.460 9.728,321.721 9.961 C 322.038 10.242,322.041 10.239,321.817 9.875 C 321.540 9.424,321.441 9.411,321.153 9.792 M319.708 10.665 C 319.410 10.846,319.167 11.031,319.167 11.075 C 319.167 11.119,319.429 11.001,319.750 10.811 C 320.071 10.622,320.333 10.437,320.333 10.400 C 320.333 10.294,320.281 10.316,319.708 10.665 M197.792 10.618 C 197.998 10.657,198.335 10.657,198.542 10.618 C 198.748 10.578,198.579 10.545,198.167 10.545 C 197.754 10.545,197.585 10.578,197.792 10.618 M345.910 11.375 L 345.083 12.250 345.958 11.423 C 346.440 10.968,346.833 10.574,346.833 10.548 C 346.833 10.424,346.679 10.562,345.910 11.375 M86.333 11.000 C 85.339 11.417,85.685 11.423,86.750 11.008 C 87.208 10.829,87.471 10.683,87.333 10.684 C 87.196 10.685,86.746 10.827,86.333 11.000 M220.708 10.782 C 220.869 10.823,221.131 10.823,221.292 10.782 C 221.452 10.740,221.321 10.705,221.000 10.705 C 220.679 10.705,220.548 10.740,220.708 10.782 M225.167 10.833 C 224.250 10.946,224.250 10.946,225.000 10.960 C 225.412 10.969,226.088 10.915,226.500 10.842 C 227.477 10.668,226.564 10.662,225.167 10.833 M99.750 11.667 C 100.201 12.125,100.608 12.500,100.654 12.500 C 100.700 12.500,100.368 12.125,99.917 11.667 C 99.465 11.208,99.058 10.833,99.013 10.833 C 98.967 10.833,99.299 11.208,99.750 11.667 M128.077 11.708 L 127.250 12.583 128.125 11.756 C 128.938 10.988,129.076 10.833,128.952 10.833 C 128.926 10.833,128.532 11.227,128.077 11.708 M156.350 10.875 C 156.389 10.898,156.758 11.217,157.169 11.583 L 157.917 12.250 157.258 11.542 C 156.895 11.152,156.527 10.833,156.438 10.833 C 156.350 10.833,156.310 10.852,156.350 10.875 M222.211 10.953 C 222.464 10.991,222.839 10.990,223.044 10.951 C 223.249 10.911,223.042 10.880,222.583 10.881 C 222.125 10.882,221.957 10.915,222.211 10.953 M364.906 11.375 L 364.417 11.917 364.958 11.427 C 365.463 10.971,365.577 10.833,365.448 10.833 C 365.419 10.833,365.175 11.077,364.906 11.375 M268.412 12.208 L 267.250 13.417 268.458 12.254 C 269.581 11.175,269.743 11.000,269.621 11.000 C 269.595 11.000,269.051 11.544,268.412 12.208 M2.916 11.640 C 3.098 11.855,3.397 12.108,3.581 12.203 C 3.935 12.384,3.884 12.328,3.085 11.664 C 2.603 11.265,2.597 11.264,2.916 11.640 M184.240 11.875 L 183.750 12.417 184.292 11.927 C 184.797 11.471,184.910 11.333,184.781 11.333 C 184.752 11.333,184.509 11.577,184.240 11.875 M239.917 12.333 C 240.461 12.883,240.944 13.333,240.990 13.333 C 241.035 13.333,240.628 12.883,240.083 12.333 C 239.539 11.783,239.056 11.333,239.010 11.333 C 238.965 11.333,239.372 11.783,239.917 12.333 M293.906 11.649 C 293.957 11.732,294.242 11.885,294.538 11.988 C 295.162 12.206,294.973 11.991,294.281 11.697 C 294.023 11.587,293.854 11.566,293.906 11.649 M370.667 11.985 C 370.896 12.173,371.158 12.326,371.250 12.327 C 371.428 12.328,371.127 12.098,370.583 11.817 C 370.362 11.702,370.390 11.759,370.667 11.985 M4.167 12.561 C 4.167 12.606,4.392 12.804,4.667 13.000 C 4.942 13.196,5.167 13.319,5.167 13.273 C 5.167 13.227,4.942 13.029,4.667 12.833 C 4.392 12.638,4.167 12.515,4.167 12.561 M59.417 12.921 C 59.050 13.147,58.816 13.332,58.897 13.332 C 59.068 13.333,60.167 12.673,60.167 12.570 C 60.167 12.464,60.134 12.479,59.417 12.921 M371.833 12.582 C 371.833 12.696,372.854 13.202,372.930 13.125 C 372.966 13.089,372.734 12.935,372.415 12.783 C 372.095 12.630,371.833 12.540,371.833 12.582 M78.708 12.782 C 78.869 12.823,79.131 12.823,79.292 12.782 C 79.452 12.740,79.321 12.705,79.000 12.705 C 78.679 12.705,78.548 12.740,78.708 12.782 M271.250 13.333 C 271.608 13.700,271.938 14.000,271.984 14.000 C 272.030 14.000,271.775 13.700,271.417 13.333 C 271.059 12.967,270.728 12.667,270.682 12.667 C 270.637 12.667,270.892 12.967,271.250 13.333 M297.083 12.833 C 297.267 12.912,297.567 12.974,297.750 12.972 C 298.018 12.968,298.002 12.941,297.667 12.833 C 297.097 12.651,296.659 12.651,297.083 12.833 M71.500 13.009 C 72.438 13.137,75.945 13.215,75.819 13.106 C 75.781 13.073,74.587 13.010,73.167 12.966 C 71.708 12.920,70.982 12.939,71.500 13.009 M76.333 12.999 C 76.091 13.076,76.405 13.094,77.083 13.042 C 77.725 12.993,78.281 12.926,78.319 12.893 C 78.454 12.777,76.745 12.868,76.333 12.999 M28.500 13.385 C 28.500 13.414,28.744 13.658,29.042 13.927 L 29.583 14.417 29.094 13.875 C 28.638 13.370,28.500 13.257,28.500 13.385 M44.740 13.875 L 44.250 14.417 44.792 13.927 C 45.297 13.471,45.410 13.333,45.281 13.333 C 45.252 13.333,45.009 13.577,44.740 13.875 M181.125 13.845 C 180.781 14.026,180.500 14.212,180.500 14.257 C 180.500 14.303,180.800 14.187,181.167 14.000 C 181.533 13.813,181.833 13.624,181.833 13.580 C 181.833 13.471,181.832 13.471,181.125 13.845 M146.750 13.833 C 146.289 13.951,146.282 13.962,146.667 13.978 C 146.896 13.987,147.196 13.922,147.333 13.833 C 147.617 13.650,147.470 13.650,146.750 13.833 M302.375 13.782 C 302.535 13.823,302.798 13.823,302.958 13.782 C 303.119 13.740,302.987 13.705,302.667 13.705 C 302.346 13.705,302.215 13.740,302.375 13.782 M308.960 13.785 C 309.168 13.824,309.468 13.823,309.627 13.781 C 309.786 13.739,309.617 13.707,309.250 13.709 C 308.883 13.711,308.753 13.745,308.960 13.785 M326.167 13.748 C 326.167 13.862,327.187 14.368,327.263 14.292 C 327.300 14.256,327.068 14.102,326.748 13.949 C 326.428 13.797,326.167 13.706,326.167 13.748 M360.333 13.917 C 360.012 14.040,359.863 14.144,360.000 14.146 C 360.137 14.149,360.475 14.049,360.750 13.923 C 361.394 13.628,361.094 13.624,360.333 13.917 M374.833 13.805 C 374.971 13.890,375.271 14.010,375.500 14.071 C 375.790 14.149,375.840 14.135,375.667 14.028 C 375.529 13.943,375.229 13.824,375.000 13.762 C 374.710 13.685,374.660 13.698,374.833 13.805 M304.716 13.957 C 305.431 13.989,306.556 13.988,307.216 13.957 C 307.876 13.925,307.292 13.900,305.917 13.900 C 304.542 13.900,304.001 13.926,304.716 13.957 M30.251 14.834 C 30.362 15.015,31.333 15.556,31.333 15.437 C 31.333 15.398,31.066 15.209,30.740 15.016 C 30.414 14.824,30.193 14.742,30.251 14.834 M379.208 14.782 C 379.369 14.823,379.631 14.823,379.792 14.782 C 379.952 14.740,379.821 14.705,379.500 14.705 C 379.179 14.705,379.048 14.740,379.208 14.782 M51.297 14.956 C 51.782 14.990,52.532 14.990,52.964 14.956 C 53.396 14.921,53.000 14.894,52.083 14.894 C 51.167 14.895,50.813 14.923,51.297 14.956 M273.333 14.915 C 273.333 15.029,274.354 15.535,274.430 15.459 C 274.466 15.423,274.234 15.268,273.915 15.116 C 273.595 14.963,273.333 14.873,273.333 14.915 M381.132 14.957 C 381.708 14.990,382.608 14.989,383.132 14.956 C 383.655 14.923,383.183 14.897,382.083 14.897 C 380.983 14.897,380.555 14.924,381.132 14.957 M120.500 15.917 C 120.179 16.040,120.029 16.144,120.167 16.146 C 120.304 16.149,120.642 16.049,120.917 15.923 C 121.560 15.628,121.261 15.624,120.500 15.917 M245.072 15.816 C 245.124 15.899,245.408 16.052,245.704 16.155 C 246.328 16.372,246.139 16.158,245.448 15.864 C 245.190 15.754,245.021 15.732,245.072 15.816 M282.833 15.917 C 282.512 16.040,282.362 16.144,282.500 16.146 C 282.637 16.149,282.975 16.049,283.250 15.923 C 283.894 15.628,283.594 15.624,282.833 15.917 M12.542 15.948 C 12.702 15.990,12.965 15.990,13.125 15.948 C 13.285 15.906,13.154 15.872,12.833 15.872 C 12.512 15.872,12.381 15.906,12.542 15.948 M15.583 16.000 L 13.417 16.099 15.417 16.120 C 16.517 16.132,17.754 16.082,18.167 16.009 C 19.059 15.850,18.898 15.849,15.583 16.000 M32.500 15.972 C 32.637 16.057,32.938 16.176,33.167 16.238 C 33.456 16.315,33.507 16.302,33.333 16.195 C 33.196 16.110,32.896 15.990,32.667 15.929 C 32.377 15.851,32.326 15.865,32.500 15.972 M107.250 16.000 C 107.433 16.079,107.696 16.143,107.833 16.143 C 107.991 16.143,107.960 16.090,107.750 16.000 C 107.567 15.921,107.304 15.857,107.167 15.857 C 107.009 15.857,107.040 15.910,107.250 16.000 M166.750 15.991 C 167.264 16.131,168.443 16.216,168.319 16.104 C 168.281 16.070,167.800 16.000,167.250 15.949 C 166.592 15.888,166.421 15.902,166.750 15.991 M262.417 16.089 C 262.000 16.290,261.986 16.313,262.333 16.228 C 262.806 16.113,263.336 15.842,263.083 15.846 C 262.992 15.847,262.692 15.957,262.417 16.089 M333.708 15.956 C 334.144 15.990,334.856 15.990,335.292 15.956 C 335.727 15.922,335.371 15.893,334.500 15.893 C 333.629 15.893,333.273 15.922,333.708 15.956 M173.794 16.118 C 174.001 16.158,174.301 16.156,174.460 16.115 C 174.620 16.073,174.450 16.040,174.083 16.042 C 173.717 16.044,173.586 16.078,173.794 16.118 M113.125 16.956 C 113.606 16.990,114.394 16.990,114.875 16.956 C 115.356 16.923,114.962 16.895,114.000 16.895 C 113.037 16.895,112.644 16.923,113.125 16.956 M259.500 17.000 C 259.165 17.107,259.149 17.134,259.417 17.138 C 259.600 17.141,259.900 17.079,260.083 17.000 C 260.508 16.817,260.070 16.817,259.500 17.000 " stroke="none" fill="#FFFFFF" fill-rule="evenodd"></path><path id="path3" d="M185.409 10.708 L 184.750 11.417 185.458 10.758 C 185.848 10.395,186.167 10.077,186.167 10.050 C 186.167 9.923,186.022 10.050,185.409 10.708 M348.167 10.917 C 348.478 11.237,348.770 11.500,348.815 11.500 C 348.861 11.500,348.644 11.237,348.333 10.917 C 348.022 10.596,347.730 10.333,347.685 10.333 C 347.639 10.333,347.856 10.596,348.167 10.917 M365.158 10.958 L 364.583 11.583 365.208 11.009 C 365.790 10.474,365.910 10.333,365.783 10.333 C 365.755 10.333,365.474 10.615,365.158 10.958 M223.542 10.948 C 223.702 10.990,223.965 10.990,224.125 10.948 C 224.285 10.906,224.154 10.872,223.833 10.872 C 223.512 10.872,223.381 10.906,223.542 10.948 M75.295 12.954 C 75.594 12.991,76.044 12.990,76.295 12.952 C 76.545 12.914,76.300 12.884,75.750 12.885 C 75.200 12.886,74.995 12.917,75.295 12.954 M141.875 14.289 C 142.310 14.324,143.023 14.324,143.458 14.289 C 143.894 14.255,143.537 14.227,142.667 14.227 C 141.796 14.227,141.440 14.255,141.875 14.289 M170.131 16.290 C 170.615 16.324,171.365 16.323,171.797 16.289 C 172.230 16.255,171.833 16.227,170.917 16.228 C 170.000 16.228,169.646 16.256,170.131 16.290 " stroke="none" fill="#FFFFFF" fill-rule="evenodd"></path><path id="path4" d="M212.083 6.667 C 212.441 7.033,212.772 7.333,212.818 7.333 C 212.863 7.333,212.608 7.033,212.250 6.667 C 211.892 6.300,211.562 6.000,211.516 6.000 C 211.470 6.000,211.725 6.300,212.083 6.667 M239.667 11.885 C 239.667 11.914,239.910 12.158,240.208 12.427 L 240.750 12.917 240.260 12.375 C 239.804 11.870,239.667 11.757,239.667 11.885 M267.991 12.458 L 267.417 13.083 268.042 12.509 C 268.623 11.974,268.743 11.833,268.616 11.833 C 268.588 11.833,268.307 12.115,267.991 12.458 M270.667 12.552 C 270.667 12.581,270.910 12.825,271.208 13.094 L 271.750 13.583 271.260 13.042 C 270.804 12.537,270.667 12.423,270.667 12.552 M356.292 14.454 C 356.590 14.491,357.077 14.491,357.375 14.454 C 357.673 14.417,357.429 14.387,356.833 14.387 C 356.238 14.387,355.994 14.417,356.292 14.454 M278.875 16.453 C 279.127 16.491,279.540 16.491,279.792 16.453 C 280.044 16.415,279.837 16.383,279.333 16.383 C 278.829 16.383,278.623 16.415,278.875 16.453 M251.542 17.448 C 251.702 17.490,251.965 17.490,252.125 17.448 C 252.285 17.406,252.154 17.372,251.833 17.372 C 251.512 17.372,251.381 17.406,251.542 17.448 M256.208 17.448 C 256.369 17.490,256.631 17.490,256.792 17.448 C 256.952 17.406,256.821 17.372,256.500 17.372 C 256.179 17.372,256.048 17.406,256.208 17.448 M252.875 17.615 C 253.035 17.657,253.298 17.657,253.458 17.615 C 253.619 17.573,253.487 17.539,253.167 17.539 C 252.846 17.539,252.715 17.573,252.875 17.615 M254.960 17.618 C 255.168 17.658,255.468 17.656,255.627 17.615 C 255.786 17.573,255.617 17.540,255.250 17.542 C 254.883 17.544,254.753 17.578,254.960 17.618 " stroke="none" fill="#FFFFFF" fill-rule="evenodd"></path></g></svg>