<svg id="svg" version="1.1" xmlns="http://www.w3.org/2000/svg" xmlns:xlink="http://www.w3.org/1999/xlink" width="400" height="143.20000000000002" viewBox="0, 0, 400,143.20000000000002"><g id="svgg"><path id="path0" d="M231.333 18.342 C 230.463 18.408,228.737 18.472,227.500 18.483 C 224.224 18.512,223.500 18.621,223.500 19.084 C 223.500 19.288,223.345 19.651,223.157 19.892 C 222.968 20.132,222.770 20.611,222.718 20.956 C 222.665 21.301,222.490 21.733,222.329 21.917 C 222.167 22.100,221.982 22.645,221.918 23.128 C 221.837 23.739,221.705 24.057,221.484 24.175 C 221.264 24.293,221.167 24.525,221.167 24.931 C 221.167 25.557,220.764 26.500,220.496 26.500 C 220.406 26.500,220.333 26.833,220.333 27.241 C 220.333 27.801,220.249 28.040,219.988 28.223 C 219.742 28.395,219.605 28.741,219.512 29.425 C 219.434 30.002,219.272 30.466,219.108 30.586 C 218.956 30.697,218.784 31.143,218.724 31.586 C 218.663 32.026,218.486 32.514,218.329 32.671 C 218.173 32.827,217.992 33.305,217.928 33.733 C 217.853 34.231,217.695 34.583,217.489 34.712 C 217.283 34.841,217.167 35.100,217.167 35.432 C 217.167 36.159,216.845 37.000,216.567 37.000 C 216.405 37.000,216.333 37.207,216.333 37.678 C 216.333 38.361,216.135 38.889,215.724 39.300 C 215.601 39.423,215.500 39.781,215.500 40.095 C 215.500 40.434,215.371 40.795,215.184 40.983 C 215.010 41.157,214.817 41.527,214.756 41.805 C 214.559 42.702,213.823 42.951,213.435 42.251 C 213.333 42.069,213.081 41.707,212.875 41.447 C 212.645 41.157,212.500 40.745,212.500 40.381 C 212.500 39.963,212.377 39.675,212.083 39.402 C 211.779 39.120,211.667 38.844,211.667 38.381 C 211.667 37.931,211.572 37.687,211.339 37.542 C 211.117 37.403,210.976 37.069,210.900 36.496 C 210.828 35.953,210.687 35.600,210.501 35.500 C 210.331 35.410,210.175 35.070,210.123 34.679 C 210.074 34.312,209.876 33.811,209.683 33.567 C 209.488 33.318,209.333 32.878,209.333 32.569 C 209.333 32.211,209.187 31.859,208.917 31.568 C 208.640 31.269,208.500 30.925,208.500 30.544 C 208.500 30.162,208.383 29.875,208.150 29.687 C 207.918 29.498,207.770 29.138,207.711 28.612 C 207.655 28.112,207.510 27.743,207.318 27.608 C 207.145 27.487,206.964 27.077,206.897 26.656 C 206.830 26.233,206.649 25.823,206.473 25.699 C 206.283 25.564,206.167 25.275,206.167 24.940 C 206.167 24.624,205.993 24.163,205.750 23.833 C 205.496 23.489,205.333 23.045,205.333 22.695 C 205.333 22.297,205.206 22.003,204.917 21.735 C 204.628 21.468,204.500 21.173,204.500 20.777 C 204.500 20.352,204.394 20.135,204.087 19.934 C 203.626 19.633,203.651 19.592,203.422 21.026 C 203.368 21.360,203.219 21.675,203.090 21.724 C 202.962 21.774,202.805 22.157,202.742 22.576 C 202.680 22.994,202.494 23.508,202.330 23.717 C 202.165 23.926,201.978 24.452,201.913 24.886 C 201.839 25.378,201.684 25.735,201.502 25.832 C 201.302 25.940,201.184 26.261,201.127 26.859 C 201.067 27.477,200.940 27.812,200.688 28.016 C 200.432 28.224,200.333 28.491,200.333 28.979 C 200.333 29.443,200.227 29.752,199.994 29.970 C 199.789 30.161,199.599 30.636,199.515 31.166 C 199.436 31.663,199.265 32.109,199.120 32.189 C 198.973 32.272,198.815 32.693,198.748 33.184 C 198.683 33.653,198.499 34.168,198.337 34.329 C 198.176 34.490,197.994 34.961,197.932 35.375 C 197.869 35.793,197.673 36.260,197.493 36.423 C 197.295 36.603,197.167 36.934,197.167 37.268 C 197.167 37.931,196.856 38.667,196.577 38.667 C 196.451 38.667,196.345 39.025,196.296 39.616 C 196.235 40.348,196.135 40.619,195.859 40.803 C 195.612 40.966,195.500 41.213,195.500 41.590 C 195.500 43.323,193.599 43.106,193.320 41.341 C 193.226 40.751,193.067 40.378,192.840 40.219 C 192.596 40.049,192.500 39.796,192.500 39.330 C 192.500 38.856,192.412 38.631,192.177 38.505 C 191.959 38.389,191.817 38.075,191.740 37.541 C 191.678 37.106,191.483 36.592,191.307 36.399 C 191.131 36.206,190.943 35.756,190.890 35.399 C 190.836 35.042,190.681 34.660,190.543 34.550 C 190.406 34.441,190.227 33.995,190.146 33.560 C 190.065 33.125,189.849 32.610,189.666 32.416 C 189.443 32.179,189.333 31.832,189.333 31.364 C 189.333 30.850,189.266 30.667,189.079 30.667 C 188.790 30.667,188.500 30.021,188.500 29.375 C 188.500 29.135,188.341 28.769,188.147 28.563 C 187.939 28.341,187.760 27.877,187.709 27.427 C 187.657 26.968,187.539 26.667,187.411 26.667 C 187.179 26.667,186.833 25.826,186.833 25.262 C 186.833 25.067,186.691 24.786,186.518 24.637 C 186.327 24.474,186.156 24.031,186.086 23.517 C 186.013 22.991,185.886 22.667,185.752 22.667 C 185.477 22.667,185.333 22.293,185.333 21.578 C 185.333 21.269,185.232 20.957,185.108 20.883 C 184.754 20.674,184.500 20.075,184.500 19.448 C 184.500 18.643,181.499 18.415,175.628 18.774 L 173.872 18.882 173.956 19.566 C 174.003 19.942,174.172 20.362,174.333 20.500 C 174.493 20.637,174.668 21.041,174.722 21.396 C 174.775 21.751,174.944 22.179,175.097 22.348 C 175.249 22.517,175.440 23.008,175.521 23.440 C 175.602 23.873,175.817 24.366,176.001 24.536 C 176.212 24.734,176.333 25.061,176.333 25.438 C 176.333 25.835,176.447 26.122,176.677 26.308 C 176.891 26.482,177.058 26.869,177.120 27.335 C 177.174 27.747,177.354 28.202,177.520 28.347 C 177.685 28.493,177.873 28.943,177.937 29.347 C 178.001 29.752,178.181 30.174,178.337 30.285 C 178.493 30.396,178.661 30.787,178.711 31.154 C 178.760 31.521,178.958 32.022,179.150 32.267 C 179.354 32.526,179.500 32.955,179.500 33.295 C 179.500 33.703,179.625 33.994,179.917 34.265 C 180.196 34.523,180.333 34.829,180.333 35.190 C 180.333 35.509,180.477 35.881,180.686 36.104 C 180.896 36.327,181.074 36.790,181.125 37.246 C 181.181 37.745,181.314 38.067,181.507 38.171 C 181.681 38.264,181.853 38.622,181.923 39.039 C 181.989 39.430,182.177 39.921,182.341 40.130 C 182.505 40.339,182.691 40.826,182.755 41.213 C 182.819 41.600,183.013 42.051,183.186 42.215 C 183.361 42.381,183.500 42.740,183.500 43.024 C 183.500 43.326,183.670 43.738,183.917 44.030 C 184.201 44.369,184.333 44.726,184.333 45.159 C 184.333 45.614,184.430 45.857,184.677 46.021 C 184.905 46.173,185.054 46.504,185.120 47.000 C 185.177 47.434,185.342 47.837,185.511 47.957 C 185.672 48.071,185.856 48.484,185.919 48.874 C 185.983 49.264,186.168 49.733,186.330 49.917 C 186.493 50.100,186.678 50.546,186.743 50.908 C 186.808 51.270,187.005 51.748,187.180 51.972 C 187.356 52.195,187.500 52.579,187.500 52.823 C 187.500 53.068,187.688 53.523,187.917 53.833 C 188.168 54.175,188.333 54.622,188.333 54.964 C 188.333 55.331,188.452 55.627,188.672 55.807 C 188.859 55.960,189.056 56.380,189.112 56.750 C 189.168 57.117,189.348 57.546,189.513 57.705 C 189.677 57.863,189.865 58.351,189.930 58.788 C 189.998 59.244,190.172 59.670,190.338 59.787 C 190.500 59.901,190.677 60.324,190.740 60.743 C 190.802 61.156,190.960 61.554,191.091 61.627 C 191.221 61.700,191.402 62.149,191.492 62.625 C 191.582 63.100,191.808 63.642,191.995 63.828 C 192.207 64.041,192.333 64.386,192.333 64.755 C 192.333 65.112,192.427 65.380,192.572 65.435 C 192.857 65.545,193.167 66.368,193.167 67.019 C 193.167 67.310,193.287 67.553,193.485 67.659 C 193.684 67.765,193.847 68.096,193.921 68.539 C 193.985 68.930,194.179 69.384,194.352 69.548 C 194.525 69.712,194.675 70.087,194.684 70.381 L 194.702 70.917 194.901 70.272 C 195.011 69.917,195.216 69.542,195.357 69.438 C 195.503 69.331,195.657 68.858,195.718 68.333 C 195.794 67.678,195.920 67.352,196.162 67.188 C 196.414 67.018,196.500 66.777,196.500 66.242 C 196.500 65.721,196.614 65.391,196.917 65.030 C 197.212 64.680,197.333 64.337,197.333 63.857 C 197.333 63.405,197.439 63.080,197.652 62.881 C 197.827 62.718,198.019 62.283,198.078 61.917 C 198.278 60.678,198.339 60.500,198.563 60.500 C 198.713 60.500,198.819 60.183,198.885 59.542 C 198.953 58.888,199.085 58.502,199.301 58.326 C 199.512 58.155,199.646 57.778,199.702 57.196 C 199.757 56.618,199.907 56.194,200.143 55.942 C 200.388 55.681,200.500 55.348,200.500 54.877 C 200.500 54.390,200.620 54.049,200.917 53.697 C 201.197 53.364,201.333 53.000,201.333 52.585 C 201.333 52.222,201.480 51.762,201.689 51.469 C 201.884 51.194,202.082 50.636,202.128 50.229 C 202.176 49.798,202.330 49.403,202.496 49.285 C 202.672 49.160,202.819 48.751,202.882 48.208 C 203.122 46.155,205.167 45.420,205.167 47.387 C 205.167 47.589,205.311 47.843,205.487 47.953 C 205.711 48.093,205.843 48.432,205.924 49.081 C 206.002 49.707,206.134 50.060,206.330 50.165 C 206.509 50.261,206.659 50.607,206.723 51.073 C 206.780 51.492,206.975 51.975,207.163 52.163 C 207.385 52.385,207.500 52.720,207.500 53.142 C 207.500 53.596,207.622 53.916,207.917 54.234 C 208.213 54.554,208.333 54.872,208.333 55.334 C 208.333 55.703,208.431 56.041,208.559 56.117 C 208.909 56.324,209.167 56.923,209.167 57.532 C 209.167 57.900,209.275 58.154,209.489 58.288 C 209.699 58.419,209.851 58.767,209.925 59.286 C 209.988 59.725,210.172 60.233,210.333 60.417 C 210.494 60.600,210.679 61.050,210.744 61.417 C 210.808 61.783,210.979 62.214,211.122 62.374 C 211.265 62.533,211.444 63.049,211.518 63.520 C 211.607 64.085,211.769 64.457,211.993 64.614 C 212.239 64.786,212.333 65.037,212.333 65.515 C 212.333 65.935,212.420 66.211,212.572 66.269 C 212.869 66.383,213.167 67.210,213.167 67.922 C 213.167 68.310,213.255 68.484,213.482 68.543 C 213.716 68.605,213.826 68.841,213.912 69.469 C 214.080 70.691,214.688 70.489,214.876 69.148 C 214.952 68.603,215.122 68.150,215.307 67.995 C 215.475 67.855,215.656 67.416,215.709 67.020 C 215.763 66.624,215.962 66.134,216.153 65.931 C 216.344 65.728,216.501 65.342,216.502 65.073 C 216.506 64.308,216.676 63.853,216.998 63.751 C 217.220 63.680,217.312 63.427,217.371 62.720 C 217.421 62.111,217.545 61.713,217.724 61.582 C 217.876 61.471,218.048 61.029,218.107 60.600 C 218.173 60.116,218.322 59.762,218.500 59.667 C 218.689 59.565,218.820 59.218,218.888 58.632 C 218.954 58.067,219.103 57.658,219.303 57.494 C 219.496 57.336,219.650 56.933,219.705 56.442 C 219.760 55.958,219.933 55.499,220.147 55.271 C 220.369 55.034,220.500 54.677,220.500 54.305 C 220.500 53.907,220.635 53.569,220.917 53.266 C 221.215 52.944,221.333 52.629,221.333 52.158 C 221.333 51.720,221.446 51.387,221.670 51.163 C 221.861 50.972,222.053 50.490,222.113 50.053 C 222.172 49.628,222.346 49.154,222.501 48.999 C 222.656 48.844,222.827 48.388,222.881 47.985 C 222.938 47.562,223.112 47.145,223.295 46.997 C 223.503 46.829,223.648 46.428,223.718 45.829 C 223.793 45.178,223.920 44.851,224.162 44.688 C 224.402 44.525,224.500 44.276,224.500 43.826 C 224.500 43.393,224.632 43.035,224.917 42.697 C 225.211 42.347,225.333 42.004,225.333 41.527 C 225.333 41.052,225.428 40.786,225.651 40.630 C 225.847 40.493,226.014 40.105,226.087 39.618 C 226.152 39.184,226.335 38.662,226.494 38.456 C 226.652 38.251,226.828 37.791,226.885 37.434 C 226.941 37.078,227.140 36.623,227.327 36.424 C 227.514 36.225,227.667 35.907,227.667 35.718 C 227.667 34.967,227.896 34.286,228.172 34.213 C 228.390 34.157,228.480 33.908,228.538 33.208 C 228.595 32.518,228.708 32.203,228.974 31.987 C 229.234 31.777,229.333 31.511,229.333 31.024 C 229.333 30.548,229.428 30.286,229.657 30.126 C 229.872 29.975,230.019 29.607,230.097 29.018 C 230.161 28.533,230.343 28.012,230.500 27.860 C 230.658 27.708,230.839 27.247,230.902 26.835 C 230.965 26.424,231.153 25.936,231.320 25.752 C 231.487 25.568,231.666 25.079,231.718 24.667 C 231.781 24.166,231.927 23.841,232.156 23.688 C 232.417 23.514,232.500 23.282,232.500 22.722 C 232.500 22.158,232.598 21.887,232.917 21.568 C 233.209 21.276,233.334 20.967,233.337 20.534 C 233.339 20.179,233.479 19.739,233.667 19.500 C 233.846 19.271,233.994 18.877,233.996 18.625 C 234.000 18.107,234.170 18.125,231.333 18.342 M244.290 22.219 C 244.228 23.477,244.100 24.323,243.906 24.761 C 243.668 25.298,243.594 26.153,243.501 29.500 C 243.410 32.732,243.330 33.705,243.116 34.167 C 242.905 34.621,242.816 35.635,242.709 38.765 C 242.601 41.952,242.519 42.864,242.312 43.182 C 242.104 43.503,242.029 44.379,241.938 47.569 C 241.840 51.016,241.780 51.656,241.496 52.299 C 241.212 52.941,241.166 53.421,241.164 55.813 C 241.160 59.112,240.945 61.432,240.607 61.811 C 240.414 62.028,240.352 62.889,240.299 66.083 C 240.244 69.378,240.182 70.197,239.950 70.729 C 239.552 71.636,239.537 71.620,240.875 71.753 C 241.540 71.819,242.442 72.014,242.881 72.187 C 243.550 72.449,244.133 72.500,246.491 72.500 L 249.302 72.500 249.420 71.625 C 249.484 71.144,249.639 70.563,249.763 70.333 C 249.922 70.039,250.030 68.709,250.131 65.808 C 250.249 62.408,250.321 61.626,250.553 61.272 C 250.783 60.922,250.835 60.400,250.841 58.381 C 250.850 55.121,251.065 52.655,251.398 51.988 C 251.611 51.560,251.668 50.894,251.671 48.766 C 251.677 45.502,251.886 43.166,252.220 42.641 C 252.418 42.331,252.483 41.444,252.532 38.333 C 252.588 34.858,252.631 34.351,252.915 33.833 C 253.197 33.318,253.245 32.773,253.326 29.159 C 253.404 25.644,253.458 25.005,253.708 24.623 C 253.931 24.284,254.000 23.827,254.000 22.695 L 254.000 21.212 253.227 21.106 C 252.801 21.048,252.180 21.000,251.845 21.000 C 251.511 21.000,250.943 20.850,250.583 20.667 C 250.007 20.373,249.600 20.333,247.156 20.333 L 244.383 20.333 244.290 22.219 M264.256 22.621 C 264.193 22.875,264.015 23.222,263.862 23.392 C 263.646 23.632,263.565 24.156,263.500 25.750 C 263.436 27.310,263.351 27.873,263.146 28.108 C 262.947 28.335,262.835 29.003,262.718 30.647 C 262.600 32.312,262.496 32.924,262.307 33.064 C 262.116 33.204,262.026 33.761,261.939 35.333 C 261.850 36.960,261.758 37.508,261.520 37.835 C 261.278 38.167,261.198 38.674,261.131 40.299 C 261.058 42.093,261.003 42.392,260.690 42.725 C 260.370 43.065,260.333 43.294,260.333 44.930 C 260.333 46.506,260.283 46.845,259.963 47.419 C 259.657 47.967,259.575 48.439,259.498 50.114 C 259.427 51.659,259.339 52.218,259.132 52.448 C 258.930 52.673,258.831 53.258,258.746 54.750 C 258.664 56.172,258.547 56.896,258.342 57.256 C 258.137 57.615,258.020 58.341,257.938 59.756 C 257.849 61.286,257.752 61.847,257.520 62.168 C 257.283 62.495,257.198 63.014,257.130 64.556 C 257.056 66.220,256.988 66.602,256.688 67.007 C 256.380 67.424,256.333 67.713,256.333 69.218 C 256.333 70.755,256.285 71.041,255.908 71.750 C 255.319 72.858,255.402 73.226,256.270 73.342 C 256.648 73.392,257.135 73.549,257.353 73.691 C 257.619 73.863,258.373 73.983,259.638 74.054 C 261.033 74.133,261.687 74.245,262.138 74.485 C 262.598 74.728,263.206 74.829,264.587 74.891 C 266.277 74.966,267.333 75.204,267.333 75.510 C 267.333 75.577,268.265 75.659,269.403 75.691 C 271.208 75.742,271.535 75.796,271.960 76.110 C 272.383 76.424,272.711 76.478,274.457 76.527 C 276.090 76.573,276.527 76.638,276.791 76.878 C 277.038 77.101,277.512 77.194,278.766 77.262 C 280.899 77.377,281.440 77.464,281.711 77.734 C 281.863 77.887,282.577 77.976,284.008 78.020 L 286.083 78.083 286.187 77.120 C 286.244 76.591,286.403 76.028,286.540 75.870 C 286.718 75.666,286.816 75.028,286.880 73.667 C 286.963 71.874,287.201 70.833,287.527 70.833 C 287.980 70.833,287.657 69.040,287.187 68.946 C 286.923 68.893,286.600 68.743,286.470 68.613 C 286.302 68.444,285.659 68.356,284.222 68.305 C 282.582 68.247,282.121 68.173,281.730 67.908 C 281.343 67.646,280.857 67.566,279.219 67.494 C 277.559 67.420,277.125 67.348,276.847 67.095 C 276.567 66.842,276.113 66.767,274.317 66.678 C 272.530 66.589,272.091 66.517,271.921 66.285 C 271.765 66.071,271.449 65.997,270.648 65.986 C 267.598 65.946,266.943 65.616,266.975 64.140 C 266.995 63.257,267.261 62.333,267.496 62.333 C 267.563 62.333,267.659 61.387,267.709 60.230 C 267.784 58.486,267.856 58.051,268.131 57.679 C 268.406 57.308,268.472 56.903,268.523 55.295 C 268.576 53.632,268.636 53.291,268.945 52.873 C 269.257 52.450,269.312 52.121,269.360 50.377 C 269.405 48.777,269.474 48.304,269.699 48.056 C 269.916 47.816,270.007 47.280,270.090 45.747 C 270.176 44.176,270.267 43.654,270.516 43.298 C 270.759 42.953,270.836 42.541,270.846 41.548 C 270.862 39.764,271.065 38.487,271.365 38.267 C 271.558 38.126,271.637 37.598,271.702 36.031 C 271.772 34.322,271.843 33.903,272.121 33.526 C 272.401 33.147,272.468 32.743,272.528 31.075 C 272.588 29.374,272.651 29.005,272.954 28.581 C 273.266 28.143,273.316 27.812,273.363 25.833 L 273.417 23.583 271.583 23.480 C 270.575 23.422,269.737 23.366,269.720 23.355 C 269.704 23.343,269.567 23.210,269.416 23.059 C 269.204 22.846,268.664 22.761,267.007 22.679 C 265.696 22.614,264.776 22.493,264.622 22.365 C 264.412 22.191,264.353 22.232,264.256 22.621 M124.501 26.285 C 124.277 26.442,123.654 26.622,123.117 26.685 C 122.444 26.764,122.037 26.909,121.813 27.150 C 121.606 27.373,121.281 27.500,120.921 27.500 C 120.506 27.500,120.328 27.587,120.252 27.828 C 120.186 28.034,119.938 28.194,119.582 28.261 C 119.250 28.324,118.908 28.533,118.754 28.767 C 118.610 28.987,118.384 29.167,118.252 29.167 C 118.120 29.167,117.931 29.317,117.833 29.500 C 117.735 29.683,117.557 29.833,117.438 29.833 C 117.318 29.833,117.135 30.021,117.030 30.250 C 116.926 30.479,116.735 30.667,116.606 30.667 C 116.478 30.667,116.332 30.822,116.282 31.012 C 116.232 31.203,116.036 31.399,115.846 31.448 C 115.656 31.498,115.500 31.651,115.500 31.787 C 115.500 31.924,115.313 32.258,115.083 32.530 C 114.854 32.803,114.667 33.128,114.667 33.253 C 114.667 33.379,114.523 33.582,114.348 33.705 C 114.172 33.827,113.976 34.209,113.912 34.552 C 113.846 34.903,113.657 35.249,113.481 35.344 C 113.280 35.451,113.167 35.693,113.167 36.011 C 113.167 36.619,112.750 37.667,112.509 37.667 C 112.210 37.667,112.272 45.320,112.572 45.435 C 112.866 45.548,113.167 46.374,113.167 47.068 C 113.167 47.402,113.283 47.659,113.492 47.789 C 113.671 47.901,113.866 48.254,113.926 48.574 C 113.994 48.935,114.155 49.193,114.351 49.256 C 114.525 49.311,114.667 49.508,114.667 49.694 C 114.667 49.889,114.805 50.067,114.994 50.117 C 115.175 50.164,115.369 50.349,115.425 50.528 C 115.482 50.706,115.710 50.921,115.931 51.005 C 116.152 51.090,116.333 51.264,116.333 51.393 C 116.333 51.522,116.489 51.668,116.679 51.718 C 116.869 51.768,117.065 51.964,117.115 52.154 C 117.165 52.344,117.341 52.500,117.507 52.500 C 117.672 52.500,118.031 52.688,118.303 52.917 C 118.575 53.146,118.916 53.333,119.060 53.333 C 119.204 53.333,119.402 53.483,119.499 53.666 C 119.611 53.873,119.923 54.037,120.334 54.103 C 120.770 54.173,121.024 54.313,121.090 54.521 C 121.158 54.734,121.346 54.833,121.683 54.833 C 122.260 54.833,123.333 55.247,123.333 55.470 C 123.333 55.554,123.900 55.659,124.593 55.704 C 125.506 55.762,125.978 55.878,126.312 56.125 C 126.708 56.418,127.076 56.473,128.952 56.524 C 130.728 56.572,131.191 56.637,131.450 56.872 C 131.675 57.075,132.201 57.193,133.236 57.273 C 134.386 57.361,134.798 57.464,135.143 57.748 C 135.385 57.947,135.716 58.158,135.879 58.218 C 136.041 58.277,136.225 58.459,136.287 58.621 C 136.350 58.784,136.547 59.035,136.726 59.181 C 136.956 59.367,137.074 59.720,137.129 60.385 C 137.172 60.903,137.311 61.412,137.437 61.517 C 137.750 61.777,137.735 63.069,137.417 63.333 C 137.263 63.461,137.167 63.826,137.167 64.278 C 137.167 64.820,137.067 65.114,136.792 65.390 C 136.585 65.597,136.325 65.969,136.212 66.216 C 136.099 66.464,135.920 66.667,135.814 66.667 C 135.708 66.667,135.448 66.854,135.235 67.083 C 135.012 67.325,134.664 67.500,134.410 67.500 C 134.155 67.500,133.842 67.658,133.666 67.875 C 133.390 68.216,133.220 68.250,131.778 68.250 C 130.364 68.250,130.151 68.210,129.794 67.875 C 129.575 67.669,129.234 67.500,129.037 67.500 C 128.840 67.500,128.601 67.355,128.506 67.178 C 128.411 67.001,128.184 66.808,128.000 66.750 C 127.817 66.692,127.667 66.539,127.667 66.411 C 127.667 66.283,127.525 66.102,127.351 66.009 C 127.177 65.916,126.956 65.633,126.859 65.379 C 126.467 64.353,126.326 64.288,124.561 64.321 C 123.338 64.344,122.896 64.412,122.757 64.601 C 122.504 64.948,121.477 65.158,120.018 65.163 C 119.117 65.166,118.737 65.234,118.602 65.418 C 118.500 65.557,117.929 65.759,117.333 65.867 C 116.737 65.976,116.379 66.093,116.537 66.127 C 116.853 66.196,117.164 67.101,117.166 67.952 C 117.166 68.306,117.273 68.545,117.481 68.656 C 117.657 68.751,117.846 69.097,117.912 69.448 C 117.976 69.791,118.166 70.168,118.334 70.286 C 118.503 70.404,118.690 70.726,118.750 71.002 C 118.811 71.277,119.004 71.580,119.180 71.674 C 119.356 71.768,119.500 71.984,119.500 72.153 C 119.500 72.325,119.653 72.501,119.846 72.552 C 120.036 72.601,120.232 72.797,120.282 72.988 C 120.332 73.178,120.474 73.333,120.599 73.333 C 120.724 73.333,120.949 73.521,121.099 73.750 C 121.249 73.979,121.470 74.167,121.591 74.167 C 121.712 74.167,121.858 74.317,121.917 74.500 C 121.975 74.683,122.124 74.833,122.248 74.833 C 122.373 74.833,122.686 75.005,122.946 75.215 C 123.205 75.425,123.623 75.686,123.875 75.795 C 124.127 75.904,124.333 76.107,124.333 76.246 C 124.333 76.425,124.505 76.500,124.910 76.500 C 125.275 76.500,125.603 76.624,125.802 76.838 C 126.006 77.057,126.429 77.213,127.002 77.281 C 127.523 77.343,128.012 77.512,128.193 77.693 C 128.522 78.022,135.167 78.181,135.167 77.860 C 135.167 77.624,135.981 77.333,136.642 77.333 C 137.049 77.333,137.467 77.187,137.833 76.917 C 138.144 76.687,138.595 76.500,138.836 76.500 C 139.095 76.500,139.421 76.330,139.636 76.083 C 139.835 75.854,140.107 75.667,140.241 75.667 C 140.375 75.667,140.672 75.498,140.901 75.292 C 141.733 74.542,142.466 74.000,142.648 74.000 C 142.750 74.000,142.833 73.889,142.833 73.754 C 142.833 73.618,143.021 73.385,143.250 73.235 C 143.479 73.085,143.667 72.868,143.667 72.754 C 143.667 72.639,143.844 72.366,144.061 72.148 C 144.278 71.929,144.505 71.589,144.566 71.393 C 144.628 71.197,144.825 70.997,145.006 70.950 C 145.223 70.893,145.333 70.722,145.333 70.441 C 145.333 70.208,145.521 69.815,145.750 69.568 C 145.979 69.320,146.167 68.941,146.167 68.726 C 146.167 68.510,146.306 68.194,146.476 68.024 C 146.675 67.825,146.827 67.340,146.904 66.658 C 146.973 66.050,147.160 65.409,147.345 65.150 C 147.828 64.472,147.823 60.702,147.339 60.035 C 147.128 59.745,146.969 59.165,146.896 58.417 C 146.816 57.602,146.695 57.189,146.496 57.048 C 146.339 56.937,146.166 56.562,146.110 56.214 C 146.050 55.841,145.871 55.498,145.671 55.374 C 145.485 55.258,145.333 55.058,145.333 54.929 C 145.333 54.411,143.094 52.167,142.577 52.167 C 142.456 52.167,142.308 52.017,142.250 51.833 C 142.192 51.650,142.004 51.500,141.832 51.500 C 141.660 51.500,141.414 51.351,141.286 51.168 C 141.158 50.985,140.814 50.788,140.521 50.729 C 140.228 50.671,139.897 50.492,139.785 50.333 C 139.674 50.174,139.270 49.991,138.889 49.926 C 138.508 49.862,138.066 49.665,137.906 49.488 C 137.738 49.303,137.396 49.166,137.099 49.166 C 136.376 49.164,135.367 48.862,135.213 48.600 C 135.118 48.439,134.368 48.356,132.401 48.290 C 130.119 48.213,129.616 48.148,129.033 47.850 C 128.637 47.648,128.030 47.500,127.599 47.500 C 127.032 47.500,126.742 47.399,126.401 47.083 C 126.105 46.809,125.758 46.667,125.387 46.667 C 125.033 46.667,124.786 46.571,124.725 46.411 C 124.671 46.270,124.410 46.043,124.146 45.906 C 123.883 45.770,123.667 45.548,123.667 45.412 C 123.667 45.277,123.557 45.167,123.423 45.167 C 123.153 45.167,122.833 44.672,122.833 44.254 C 122.833 44.107,122.683 43.825,122.500 43.628 C 122.015 43.108,122.007 40.192,122.489 39.516 C 122.666 39.267,122.861 38.864,122.922 38.621 C 122.983 38.378,123.176 38.133,123.350 38.078 C 123.524 38.023,123.667 37.868,123.667 37.735 C 123.667 37.602,123.854 37.407,124.083 37.303 C 124.313 37.199,124.500 37.021,124.500 36.908 C 124.500 36.678,124.867 36.500,125.340 36.500 C 125.513 36.500,125.811 36.331,126.003 36.125 C 126.316 35.790,126.511 35.750,127.858 35.750 C 129.217 35.750,129.392 35.786,129.666 36.125 C 129.833 36.331,130.108 36.501,130.277 36.502 C 130.868 36.507,131.323 36.705,131.417 37.000 C 131.469 37.164,131.658 37.336,131.838 37.383 C 132.018 37.430,132.217 37.607,132.280 37.776 C 132.343 37.945,132.531 38.181,132.697 38.301 C 132.863 38.420,133.044 38.801,133.100 39.148 L 133.200 39.777 134.972 39.698 C 136.382 39.636,136.834 39.553,137.182 39.295 C 137.526 39.042,137.998 38.951,139.352 38.880 C 140.746 38.806,141.142 38.728,141.381 38.478 C 141.560 38.291,141.911 38.167,142.256 38.167 L 142.833 38.167 142.833 37.333 C 142.833 36.722,142.744 36.411,142.500 36.167 C 142.317 35.983,142.167 35.619,142.167 35.358 C 142.167 35.081,141.992 34.694,141.750 34.432 C 141.521 34.185,141.333 33.804,141.333 33.586 C 141.333 33.339,141.211 33.150,141.009 33.086 C 140.830 33.029,140.636 32.833,140.578 32.651 C 140.464 32.291,140.246 32.027,139.006 30.750 C 137.963 29.675,137.148 29.000,136.892 29.000 C 136.780 29.000,136.642 28.850,136.583 28.667 C 136.525 28.483,136.338 28.333,136.168 28.333 C 135.998 28.333,135.636 28.146,135.364 27.917 C 135.091 27.688,134.716 27.500,134.530 27.500 C 134.344 27.500,133.969 27.313,133.697 27.083 C 133.330 26.775,133.008 26.667,132.457 26.667 C 131.964 26.667,131.568 26.554,131.288 26.333 C 130.690 25.863,125.160 25.823,124.501 26.285 M93.583 33.953 C 93.308 33.995,92.949 34.173,92.785 34.348 C 92.576 34.572,92.260 34.667,91.726 34.667 C 91.157 34.667,90.840 34.772,90.470 35.083 C 90.101 35.393,89.781 35.500,89.222 35.500 C 88.653 35.500,88.399 35.587,88.179 35.859 C 87.962 36.127,87.648 36.238,86.939 36.297 C 86.235 36.355,85.946 36.456,85.823 36.687 C 85.724 36.870,85.392 37.040,85.012 37.101 L 84.367 37.204 84.308 38.502 C 84.263 39.500,84.174 39.883,83.923 40.160 C 83.659 40.451,83.577 40.855,83.500 42.250 C 83.430 43.506,83.330 44.062,83.133 44.281 C 82.942 44.495,82.828 45.084,82.743 46.297 C 82.657 47.521,82.541 48.116,82.336 48.380 C 82.132 48.644,82.018 49.228,81.938 50.417 C 81.853 51.689,81.748 52.190,81.496 52.535 C 81.246 52.878,81.166 53.258,81.163 54.118 C 81.158 55.497,80.939 56.510,80.592 56.764 C 80.423 56.888,80.333 57.219,80.333 57.721 C 80.333 58.876,79.192 59.287,78.926 58.227 C 78.867 57.992,78.679 57.601,78.509 57.358 C 78.339 57.115,78.152 56.588,78.094 56.186 C 78.036 55.784,77.841 55.268,77.661 55.038 C 77.458 54.780,77.333 54.366,77.333 53.947 C 77.333 53.486,77.220 53.151,76.976 52.891 C 76.740 52.640,76.590 52.215,76.535 51.637 C 76.479 51.061,76.344 50.676,76.138 50.507 C 75.931 50.337,75.790 49.938,75.725 49.333 C 75.658 48.722,75.520 48.332,75.309 48.163 C 75.100 47.996,74.958 47.601,74.890 46.997 C 74.830 46.469,74.666 45.967,74.502 45.809 C 74.343 45.655,74.171 45.148,74.113 44.659 C 74.047 44.095,73.890 43.672,73.672 43.469 C 73.440 43.253,73.333 42.942,73.333 42.483 C 73.333 41.252,72.717 40.783,72.018 41.482 C 71.838 41.662,71.331 41.848,70.833 41.917 C 70.336 41.985,69.829 42.171,69.649 42.351 C 69.433 42.567,69.097 42.667,68.583 42.667 C 68.037 42.667,67.736 42.764,67.473 43.027 C 67.229 43.271,66.838 43.412,66.265 43.464 C 65.762 43.509,65.279 43.666,65.078 43.848 C 64.891 44.018,64.457 44.215,64.113 44.287 L 63.487 44.417 63.910 44.991 C 64.210 45.398,64.333 45.775,64.333 46.288 C 64.333 46.761,64.416 47.042,64.572 47.102 C 64.868 47.216,65.167 48.042,65.167 48.749 C 65.167 49.065,65.298 49.401,65.490 49.574 C 65.699 49.763,65.855 50.202,65.931 50.809 C 66.005 51.405,66.152 51.824,66.333 51.951 C 66.515 52.079,66.659 52.489,66.728 53.078 C 66.797 53.667,66.957 54.124,67.168 54.335 C 67.398 54.565,67.500 54.890,67.500 55.392 C 67.500 55.935,67.605 56.231,67.917 56.568 C 68.241 56.918,68.333 57.195,68.333 57.822 C 68.333 58.460,68.407 58.675,68.692 58.864 C 68.969 59.048,69.069 59.319,69.130 60.057 C 69.187 60.745,69.291 61.055,69.505 61.169 C 69.702 61.275,69.841 61.623,69.921 62.206 C 69.987 62.688,70.170 63.271,70.329 63.500 C 70.488 63.729,70.669 64.246,70.731 64.647 C 70.794 65.049,70.992 65.566,71.172 65.795 C 71.373 66.050,71.500 66.468,71.500 66.873 C 71.500 67.336,71.625 67.684,71.917 68.030 C 72.226 68.399,72.333 68.719,72.333 69.278 C 72.333 69.844,72.421 70.101,72.688 70.317 C 72.944 70.524,73.067 70.857,73.129 71.511 C 73.187 72.117,73.314 72.486,73.513 72.626 C 73.708 72.764,73.849 73.163,73.926 73.793 C 73.995 74.361,74.160 74.863,74.333 75.029 C 74.500 75.188,74.673 75.692,74.737 76.207 C 74.810 76.788,74.965 77.205,75.175 77.385 C 75.407 77.584,75.500 77.876,75.500 78.406 C 75.500 78.968,75.602 79.259,75.917 79.599 C 76.242 79.950,76.333 80.226,76.333 80.858 C 76.333 81.303,76.392 81.667,76.464 81.667 C 76.738 81.667,77.167 82.663,77.167 83.300 C 77.167 83.724,77.253 83.998,77.406 84.056 C 77.657 84.153,77.997 85.149,77.999 85.792 C 78.000 85.998,78.139 86.306,78.309 86.475 C 78.483 86.650,78.667 87.158,78.732 87.649 C 78.800 88.161,78.980 88.646,79.173 88.840 C 79.408 89.075,79.500 89.394,79.500 89.980 C 79.500 90.627,79.573 90.841,79.859 91.031 C 80.134 91.214,80.235 91.485,80.295 92.205 C 80.395 93.417,81.340 93.714,82.215 92.809 C 82.413 92.603,82.750 92.500,83.224 92.500 C 83.721 92.500,84.105 92.374,84.500 92.083 C 84.880 91.803,85.282 91.667,85.730 91.667 C 86.181 91.667,86.518 91.551,86.775 91.309 C 87.022 91.078,87.450 90.924,87.995 90.872 C 88.456 90.827,88.833 90.734,88.833 90.664 C 88.833 90.595,89.103 90.410,89.432 90.254 L 90.031 89.970 89.682 89.645 C 89.420 89.401,89.333 89.118,89.333 88.501 C 89.333 87.849,89.248 87.597,88.917 87.265 C 88.592 86.941,88.500 86.678,88.500 86.076 C 88.500 85.489,88.415 85.234,88.145 85.016 C 87.890 84.810,87.766 84.476,87.704 83.830 C 87.647 83.236,87.512 82.843,87.308 82.674 C 87.120 82.517,86.958 82.091,86.894 81.583 C 86.837 81.125,86.659 80.600,86.500 80.417 C 86.341 80.233,86.164 79.721,86.107 79.278 C 86.049 78.835,85.852 78.281,85.668 78.047 C 85.450 77.770,85.333 77.370,85.333 76.902 C 85.333 76.474,85.242 76.129,85.108 76.050 C 84.745 75.836,84.500 75.236,84.500 74.563 C 84.500 74.159,84.377 73.807,84.152 73.567 L 83.803 73.197 84.152 72.848 C 84.669 72.331,85.625 72.369,85.833 72.917 C 85.924 73.156,86.124 73.333,86.303 73.333 C 86.475 73.333,86.745 73.476,86.903 73.651 C 87.061 73.826,87.410 74.060,87.679 74.172 C 87.947 74.283,88.167 74.438,88.167 74.516 C 88.167 74.594,88.392 74.774,88.667 74.917 C 88.942 75.059,89.167 75.286,89.167 75.421 C 89.167 75.556,89.306 75.667,89.476 75.667 C 89.646 75.667,89.987 75.854,90.234 76.083 C 90.482 76.313,90.790 76.500,90.919 76.500 C 91.049 76.500,91.237 76.654,91.338 76.841 C 91.438 77.029,91.703 77.252,91.927 77.337 C 92.150 77.422,92.333 77.597,92.333 77.725 C 92.333 77.853,92.553 78.002,92.821 78.056 C 93.089 78.109,93.445 78.296,93.612 78.471 C 93.780 78.645,94.085 78.876,94.292 78.983 C 94.498 79.091,94.667 79.288,94.667 79.423 C 94.667 79.557,94.804 79.667,94.971 79.667 C 95.138 79.667,95.445 79.848,95.653 80.069 C 95.861 80.291,96.210 80.517,96.428 80.571 C 96.645 80.626,96.904 80.820,97.001 81.002 C 97.099 81.184,97.288 81.333,97.421 81.333 C 97.555 81.333,97.758 81.483,97.872 81.667 C 97.987 81.850,98.164 82.000,98.267 82.000 C 98.370 82.000,98.737 82.225,99.083 82.500 C 99.429 82.775,99.810 83.000,99.928 83.000 C 100.047 83.000,100.189 83.143,100.245 83.317 C 100.300 83.491,100.530 83.680,100.756 83.737 C 100.982 83.793,101.167 83.945,101.167 84.074 C 101.167 84.202,101.430 84.394,101.751 84.500 C 102.073 84.607,102.418 84.847,102.518 85.035 C 102.780 85.524,104.848 85.393,105.349 84.855 C 105.587 84.600,105.880 84.500,106.391 84.500 C 106.888 84.500,107.272 84.374,107.667 84.083 C 108.063 83.791,108.445 83.667,108.949 83.667 C 109.344 83.667,109.667 83.588,109.667 83.491 C 109.667 83.249,110.716 82.833,111.328 82.833 C 111.608 82.833,111.979 82.687,112.160 82.507 C 112.351 82.316,112.836 82.134,113.327 82.068 C 114.144 81.960,114.675 81.167,113.929 81.167 C 113.799 81.167,113.480 80.995,113.221 80.785 C 112.962 80.575,112.544 80.314,112.292 80.205 C 112.040 80.096,111.833 79.893,111.833 79.754 C 111.833 79.614,111.697 79.500,111.530 79.500 C 111.363 79.500,111.064 79.313,110.864 79.083 C 110.665 78.854,110.402 78.667,110.280 78.667 C 110.158 78.667,109.882 78.479,109.667 78.250 C 109.451 78.021,109.189 77.833,109.084 77.833 C 108.979 77.833,108.730 77.646,108.531 77.417 C 108.332 77.188,108.065 77.000,107.937 77.000 C 107.810 77.000,107.666 76.850,107.618 76.667 C 107.565 76.464,107.391 76.333,107.174 76.333 C 106.978 76.333,106.652 76.156,106.450 75.940 C 106.249 75.723,105.923 75.496,105.726 75.434 C 105.530 75.373,105.331 75.175,105.284 74.994 C 105.236 74.814,105.071 74.667,104.917 74.667 C 104.630 74.667,104.046 74.272,103.132 73.458 C 102.849 73.206,102.521 73.000,102.403 73.000 C 102.285 73.000,102.142 72.850,102.083 72.667 C 102.025 72.481,101.831 72.333,101.648 72.333 C 101.467 72.333,101.131 72.146,100.902 71.917 C 100.672 71.688,100.374 71.500,100.239 71.500 C 100.104 71.500,99.907 71.313,99.803 71.083 C 99.699 70.854,99.473 70.667,99.301 70.667 C 99.130 70.667,98.945 70.550,98.890 70.407 C 98.835 70.264,98.500 70.030,98.145 69.889 C 97.790 69.747,97.500 69.566,97.500 69.486 C 97.500 69.407,97.275 69.226,97.000 69.083 C 96.725 68.941,96.500 68.714,96.500 68.579 C 96.500 68.444,96.376 68.333,96.224 68.333 C 96.072 68.333,95.702 68.146,95.402 67.917 C 95.101 67.688,94.777 67.500,94.682 67.500 C 94.586 67.500,94.385 67.313,94.235 67.083 C 94.085 66.854,93.820 66.667,93.647 66.667 C 93.475 66.667,93.333 66.555,93.333 66.419 C 93.333 66.283,93.056 66.055,92.717 65.914 C 92.124 65.666,91.934 65.525,91.097 64.708 C 90.885 64.502,90.630 64.333,90.531 64.333 C 89.600 64.333,88.971 62.172,89.650 61.308 C 89.887 61.008,90.008 60.449,90.126 59.118 C 90.229 57.954,90.372 57.230,90.536 57.040 C 90.707 56.844,90.823 56.209,90.893 55.085 C 90.970 53.846,91.075 53.313,91.305 53.002 C 91.535 52.690,91.638 52.165,91.711 50.940 C 91.789 49.622,91.874 49.227,92.139 48.940 C 92.412 48.647,92.480 48.298,92.527 46.972 C 92.574 45.640,92.646 45.276,92.942 44.876 C 93.242 44.470,93.310 44.113,93.358 42.682 C 93.405 41.321,93.474 40.931,93.696 40.769 C 93.909 40.613,94.001 40.175,94.086 38.907 C 94.167 37.705,94.282 37.130,94.504 36.815 C 94.721 36.505,94.821 36.022,94.850 35.148 C 94.896 33.785,94.866 33.757,93.583 33.953 M319.750 34.811 C 319.475 34.878,318.971 35.060,318.630 35.216 C 318.229 35.400,317.587 35.500,316.808 35.500 C 315.807 35.500,315.541 35.560,315.225 35.857 C 314.972 36.095,314.549 36.243,313.964 36.298 C 313.366 36.355,313.014 36.481,312.866 36.691 C 312.746 36.860,312.354 37.046,311.994 37.104 C 311.634 37.161,311.257 37.308,311.156 37.429 C 311.056 37.550,310.702 37.739,310.371 37.848 C 310.040 37.958,309.619 38.187,309.436 38.357 C 309.253 38.527,308.936 38.667,308.730 38.667 C 308.504 38.667,308.314 38.797,308.251 38.996 C 308.188 39.196,307.903 39.392,307.532 39.492 C 307.193 39.583,306.822 39.810,306.707 39.996 C 306.592 40.181,306.348 40.333,306.165 40.333 C 305.983 40.333,305.833 40.443,305.833 40.577 C 305.833 40.712,305.682 40.903,305.497 41.001 C 305.019 41.258,301.833 44.437,301.833 44.659 C 301.833 44.761,301.715 44.889,301.571 44.945 C 301.426 45.000,301.238 45.230,301.152 45.456 C 301.066 45.681,300.847 45.905,300.665 45.952 C 300.449 46.009,300.333 46.180,300.333 46.444 C 300.333 46.667,300.146 47.023,299.917 47.235 C 299.688 47.448,299.500 47.730,299.500 47.862 C 299.500 47.994,299.313 48.356,299.083 48.667 C 298.854 48.977,298.667 49.357,298.667 49.510 C 298.667 49.663,298.519 49.976,298.339 50.205 C 298.159 50.434,297.961 50.935,297.900 51.317 C 297.836 51.716,297.667 52.078,297.502 52.166 C 297.295 52.276,297.188 52.613,297.120 53.358 C 297.051 54.115,296.937 54.466,296.697 54.656 C 296.414 54.880,296.358 55.175,296.296 56.750 C 296.241 58.145,296.147 58.723,295.904 59.167 C 295.443 60.006,295.442 62.825,295.903 63.667 C 296.139 64.099,296.243 64.702,296.301 65.992 C 296.367 67.437,296.434 67.778,296.695 67.992 C 296.902 68.162,297.044 68.563,297.111 69.167 C 297.171 69.705,297.333 70.198,297.502 70.362 C 297.661 70.515,297.844 70.928,297.909 71.279 C 297.974 71.630,298.163 72.067,298.329 72.250 C 298.495 72.433,298.681 72.819,298.741 73.108 C 298.802 73.396,298.998 73.764,299.176 73.925 C 299.354 74.086,299.500 74.356,299.500 74.524 C 299.500 74.693,299.652 74.925,299.838 75.040 C 300.036 75.164,300.216 75.507,300.276 75.875 C 300.349 76.329,300.458 76.500,300.677 76.500 C 300.842 76.500,301.026 76.652,301.085 76.839 C 301.144 77.025,301.355 77.353,301.555 77.567 C 301.754 77.782,302.094 78.173,302.310 78.437 C 302.969 79.241,304.265 80.559,304.830 81.000 C 305.124 81.229,305.526 81.572,305.724 81.762 C 305.922 81.953,306.215 82.156,306.375 82.216 C 306.535 82.275,306.667 82.438,306.667 82.578 C 306.667 82.719,306.810 82.833,306.987 82.833 C 307.164 82.833,307.531 83.021,307.803 83.250 C 308.075 83.479,308.417 83.667,308.562 83.667 C 308.707 83.667,308.949 83.854,309.099 84.083 C 309.300 84.391,309.518 84.500,309.930 84.500 C 310.312 84.500,310.543 84.602,310.661 84.823 C 310.776 85.038,311.094 85.185,311.606 85.262 C 312.031 85.326,312.507 85.507,312.664 85.664 C 312.822 85.822,313.355 86.004,313.850 86.069 C 314.345 86.135,314.900 86.324,315.083 86.490 C 315.332 86.715,315.819 86.819,317.000 86.901 C 318.185 86.983,318.697 87.093,319.035 87.339 C 319.723 87.839,324.786 87.835,325.465 87.334 C 325.807 87.082,326.303 86.974,327.500 86.891 C 328.731 86.805,329.129 86.715,329.290 86.489 C 329.417 86.310,329.833 86.154,330.373 86.082 C 330.856 86.018,331.400 85.833,331.583 85.671 C 331.767 85.510,332.207 85.333,332.563 85.279 C 332.941 85.222,333.308 85.040,333.447 84.840 C 333.607 84.612,333.871 84.500,334.248 84.500 C 334.664 84.500,334.838 84.413,334.917 84.167 C 334.975 83.984,335.223 83.785,335.469 83.725 C 335.715 83.665,336.129 83.440,336.388 83.225 C 336.647 83.009,336.926 82.833,337.007 82.833 C 337.088 82.833,337.326 82.677,337.536 82.485 C 338.223 81.856,339.208 81.167,339.420 81.167 C 339.534 81.167,339.667 81.017,339.715 80.833 C 339.766 80.639,339.942 80.500,340.139 80.500 C 340.362 80.500,340.495 80.373,340.530 80.125 C 340.564 79.884,340.717 79.731,340.958 79.697 C 341.206 79.662,341.333 79.529,341.333 79.306 C 341.333 79.109,341.472 78.933,341.667 78.882 C 341.850 78.834,342.000 78.704,342.000 78.593 C 342.000 78.482,342.181 78.221,342.403 78.013 C 342.625 77.804,342.897 77.416,343.007 77.150 C 343.117 76.884,343.271 76.667,343.349 76.667 C 343.427 76.667,343.608 76.442,343.750 76.167 C 343.892 75.892,344.110 75.667,344.233 75.667 C 344.367 75.667,344.501 75.391,344.567 74.983 C 344.644 74.498,344.771 74.275,345.005 74.214 C 345.234 74.154,345.333 73.985,345.333 73.656 C 345.333 73.383,345.509 72.994,345.750 72.734 C 346.020 72.442,346.167 72.091,346.167 71.732 C 346.167 71.362,346.270 71.123,346.478 71.012 C 346.705 70.891,346.820 70.574,346.902 69.843 C 346.979 69.165,347.112 68.773,347.315 68.629 C 347.544 68.466,347.638 68.091,347.719 67.026 C 347.793 66.066,347.930 65.467,348.163 65.090 C 348.602 64.379,348.608 64.393,347.839 64.270 C 347.424 64.204,347.111 64.041,346.999 63.832 C 346.855 63.563,346.650 63.500,345.911 63.500 C 345.216 63.500,344.919 63.419,344.659 63.159 C 344.427 62.927,343.978 62.778,343.248 62.690 C 342.659 62.619,342.043 62.442,341.880 62.296 C 341.717 62.150,341.142 61.976,340.603 61.910 C 339.997 61.836,339.504 61.670,339.311 61.478 C 339.113 61.279,338.762 61.167,338.344 61.167 C 337.596 61.167,336.861 60.926,336.597 60.594 C 336.498 60.469,335.985 60.335,335.455 60.295 C 334.746 60.241,334.405 60.127,334.157 59.861 C 333.901 59.587,333.626 59.500,333.016 59.500 C 332.442 59.500,332.079 59.396,331.750 59.137 C 331.441 58.894,330.978 58.750,330.352 58.701 C 329.771 58.656,329.290 58.515,329.083 58.329 C 328.892 58.157,328.332 57.978,327.770 57.909 C 327.172 57.836,326.670 57.670,326.484 57.484 C 326.172 57.172,324.000 56.945,323.747 57.198 C 323.684 57.260,323.580 57.764,323.514 58.316 C 323.449 58.869,323.274 59.456,323.126 59.620 C 322.977 59.784,322.806 60.330,322.745 60.834 C 322.684 61.338,322.503 61.939,322.341 62.169 C 322.180 62.399,321.994 63.024,321.927 63.558 C 321.851 64.163,321.686 64.647,321.486 64.847 C 320.949 65.384,321.056 66.167,321.667 66.167 C 321.942 66.167,322.305 66.305,322.474 66.474 C 322.670 66.670,323.139 66.818,323.766 66.883 C 324.473 66.956,324.828 67.080,325.027 67.325 C 325.237 67.585,325.498 67.667,326.119 67.667 C 326.728 67.667,327.079 67.773,327.500 68.083 C 327.900 68.378,328.278 68.500,328.793 68.500 C 329.494 68.500,330.144 68.722,330.346 69.029 C 330.399 69.110,330.849 69.220,331.346 69.274 C 331.843 69.329,332.438 69.495,332.667 69.645 C 332.896 69.794,333.458 69.993,333.917 70.086 C 334.713 70.248,334.752 70.282,334.800 70.845 C 334.861 71.576,334.589 72.333,334.265 72.333 C 334.132 72.333,333.976 72.479,333.919 72.658 C 333.863 72.837,333.674 73.028,333.500 73.083 C 333.326 73.139,333.137 73.330,333.081 73.509 C 333.024 73.687,332.879 73.833,332.758 73.833 C 332.637 73.833,332.415 74.021,332.265 74.250 C 332.115 74.479,331.857 74.667,331.692 74.667 C 331.527 74.667,331.215 74.854,331.000 75.083 C 330.785 75.313,330.465 75.500,330.289 75.500 C 330.114 75.500,329.846 75.652,329.693 75.838 C 329.539 76.027,329.121 76.221,328.750 76.277 C 328.383 76.332,327.920 76.526,327.720 76.707 C 327.462 76.941,327.027 77.062,326.220 77.126 C 325.477 77.184,324.946 77.322,324.686 77.524 C 324.097 77.982,320.404 77.983,319.814 77.525 C 319.547 77.318,319.005 77.183,318.167 77.115 C 317.188 77.036,316.857 76.940,316.640 76.673 C 316.453 76.444,316.166 76.333,315.757 76.333 C 315.333 76.333,315.026 76.208,314.735 75.917 C 314.506 75.688,314.127 75.500,313.893 75.500 C 313.612 75.500,313.440 75.390,313.383 75.174 C 313.336 74.993,313.057 74.768,312.757 74.669 C 312.460 74.571,311.866 74.155,311.439 73.745 C 311.011 73.335,310.587 73.000,310.497 73.000 C 310.407 73.000,310.333 72.928,310.333 72.840 C 310.333 72.752,310.146 72.471,309.916 72.215 C 308.893 71.073,308.500 70.516,308.500 70.206 C 308.500 70.016,308.361 69.836,308.178 69.788 C 307.959 69.731,307.819 69.497,307.742 69.060 C 307.679 68.706,307.481 68.300,307.302 68.157 C 307.110 68.004,306.937 67.602,306.880 67.174 C 306.826 66.775,306.652 66.318,306.492 66.159 C 305.842 65.508,305.822 57.318,306.469 56.604 C 306.647 56.408,306.836 55.879,306.894 55.417 C 306.958 54.909,307.120 54.483,307.308 54.327 C 307.477 54.186,307.668 53.793,307.732 53.454 C 307.796 53.115,307.986 52.763,308.155 52.673 C 308.324 52.583,308.509 52.319,308.567 52.088 C 308.625 51.856,308.777 51.667,308.904 51.667 C 309.030 51.667,309.207 51.460,309.296 51.208 C 309.512 50.598,311.642 48.500,312.046 48.500 C 312.221 48.500,312.403 48.355,312.449 48.177 C 312.495 48.000,312.751 47.778,313.017 47.686 C 313.283 47.593,313.500 47.450,313.500 47.369 C 313.500 47.177,314.254 46.833,314.675 46.833 C 314.854 46.833,315.000 46.722,315.000 46.587 C 315.000 46.451,315.206 46.296,315.458 46.243 C 315.710 46.189,316.092 46.110,316.306 46.066 C 316.520 46.022,316.842 45.850,317.021 45.683 C 317.255 45.465,317.711 45.355,318.647 45.291 C 319.363 45.242,320.182 45.081,320.466 44.934 C 321.154 44.578,323.285 44.568,323.784 44.918 C 324.002 45.070,324.738 45.211,325.663 45.277 C 326.840 45.360,327.230 45.451,327.388 45.676 C 327.505 45.843,327.924 46.018,328.366 46.085 C 328.792 46.148,329.293 46.343,329.480 46.517 C 329.667 46.691,329.929 46.833,330.064 46.833 C 330.198 46.833,330.531 47.021,330.803 47.250 C 331.075 47.479,331.384 47.667,331.490 47.667 C 331.595 47.667,331.858 47.843,332.074 48.059 C 332.290 48.275,332.594 48.500,332.749 48.560 C 332.905 48.620,333.071 48.818,333.119 49.001 C 333.166 49.184,333.339 49.333,333.501 49.333 C 333.674 49.333,333.839 49.499,333.897 49.730 C 333.952 49.948,334.147 50.166,334.332 50.214 C 334.516 50.263,334.667 50.413,334.667 50.549 C 334.667 50.684,334.854 50.918,335.083 51.068 C 335.313 51.218,335.500 51.446,335.500 51.574 C 335.500 51.703,335.688 52.031,335.917 52.303 C 336.146 52.575,336.333 52.924,336.333 53.077 C 336.333 53.428,336.941 53.275,337.381 52.813 C 337.545 52.641,337.851 52.500,338.061 52.500 C 338.270 52.500,338.618 52.313,338.833 52.083 C 339.049 51.854,339.370 51.667,339.547 51.667 C 339.724 51.667,340.091 51.479,340.364 51.250 C 340.636 51.021,340.992 50.833,341.154 50.833 C 341.316 50.833,341.584 50.683,341.750 50.500 C 341.916 50.317,342.217 50.167,342.418 50.167 C 342.620 50.167,342.987 49.979,343.234 49.750 C 343.482 49.521,343.836 49.333,344.021 49.333 C 344.547 49.333,345.425 48.396,345.002 48.286 C 344.826 48.240,344.631 48.000,344.569 47.754 C 344.507 47.507,344.279 47.128,344.062 46.910 C 343.844 46.693,343.667 46.362,343.667 46.174 C 343.667 45.986,343.557 45.833,343.423 45.833 C 343.288 45.833,343.108 45.702,343.021 45.542 C 342.432 44.450,338.423 40.490,337.663 40.249 C 337.501 40.198,337.331 40.008,337.284 39.828 C 337.234 39.637,337.056 39.500,336.858 39.500 C 336.670 39.500,336.315 39.313,336.068 39.083 C 335.820 38.854,335.472 38.667,335.293 38.667 C 335.115 38.667,334.932 38.525,334.887 38.352 C 334.831 38.138,334.596 38.005,334.152 37.934 C 333.765 37.872,333.416 37.695,333.293 37.498 C 333.155 37.276,332.905 37.167,332.535 37.167 C 331.960 37.167,331.000 36.761,331.000 36.517 C 331.000 36.440,330.655 36.338,330.233 36.290 C 329.811 36.243,329.265 36.055,329.019 35.874 C 328.675 35.620,328.227 35.528,327.058 35.472 C 325.948 35.419,325.414 35.316,325.064 35.086 C 324.549 34.748,320.808 34.555,319.750 34.811 M47.250 51.708 C 47.067 51.811,46.818 51.994,46.696 52.114 C 46.575 52.235,46.372 52.333,46.246 52.333 C 46.119 52.333,45.828 52.521,45.598 52.750 C 45.369 52.979,44.991 53.167,44.758 53.167 C 44.493 53.167,44.333 53.260,44.333 53.414 C 44.333 53.551,44.090 53.764,43.792 53.889 C 43.494 54.013,43.147 54.239,43.021 54.391 C 42.895 54.543,42.623 54.667,42.415 54.667 C 42.202 54.667,41.925 54.839,41.779 55.063 C 41.623 55.301,41.282 55.504,40.926 55.571 C 40.564 55.638,40.333 55.778,40.333 55.928 C 40.333 56.071,40.115 56.219,39.818 56.278 C 39.142 56.413,39.246 58.167,39.931 58.167 C 40.068 58.167,40.218 58.381,40.273 58.655 C 40.326 58.924,40.550 59.312,40.768 59.517 C 40.987 59.723,41.167 60.026,41.167 60.190 C 41.167 60.354,41.313 60.567,41.493 60.663 C 41.674 60.760,41.867 61.094,41.927 61.413 C 41.994 61.769,42.155 62.027,42.351 62.089 C 42.525 62.144,42.667 62.323,42.667 62.487 C 42.667 62.651,42.854 62.987,43.083 63.234 C 43.313 63.482,43.500 63.859,43.500 64.072 C 43.500 64.321,43.620 64.493,43.834 64.549 C 44.041 64.603,44.207 64.828,44.270 65.140 C 44.325 65.417,44.550 65.812,44.768 66.017 C 44.987 66.223,45.167 66.510,45.167 66.656 C 45.167 66.801,45.313 67.011,45.492 67.123 C 45.671 67.234,45.866 67.590,45.927 67.913 C 45.991 68.256,46.135 68.500,46.273 68.500 C 46.402 68.500,46.583 68.696,46.674 68.936 C 46.765 69.176,46.988 69.561,47.170 69.792 C 47.351 70.023,47.500 70.343,47.500 70.503 C 47.500 70.664,47.688 70.918,47.917 71.068 C 48.161 71.228,48.333 71.499,48.333 71.724 C 48.333 71.934,48.521 72.270,48.750 72.469 C 48.979 72.668,49.167 72.941,49.167 73.076 C 49.167 73.211,49.307 73.397,49.478 73.488 C 49.649 73.580,49.837 73.895,49.896 74.188 C 49.954 74.481,50.152 74.825,50.335 74.953 C 50.517 75.081,50.667 75.282,50.667 75.400 C 50.667 75.518,50.854 75.833,51.083 76.099 C 51.312 76.365,51.500 76.752,51.500 76.958 C 51.500 77.176,51.602 77.333,51.744 77.333 C 52.028 77.333,52.333 77.835,52.333 78.303 C 52.333 78.482,52.521 78.751,52.750 78.901 C 52.979 79.051,53.167 79.305,53.167 79.464 C 53.167 79.623,53.313 79.845,53.492 79.956 C 53.671 80.068,53.865 80.416,53.924 80.731 C 53.989 81.076,54.148 81.333,54.325 81.380 C 54.487 81.422,54.671 81.660,54.733 81.909 C 54.796 82.158,54.994 82.519,55.173 82.712 C 55.353 82.905,55.500 83.171,55.500 83.304 C 55.500 83.437,55.688 83.719,55.917 83.931 C 56.196 84.190,56.333 84.496,56.333 84.856 C 56.333 85.186,56.479 85.550,56.708 85.794 C 57.383 86.512,57.361 91.640,56.681 92.292 C 56.503 92.464,56.341 92.925,56.288 93.413 C 56.225 94.006,56.099 94.310,55.849 94.475 C 55.657 94.603,55.500 94.846,55.500 95.014 C 55.500 95.183,55.350 95.402,55.167 95.500 C 54.983 95.598,54.833 95.785,54.833 95.916 C 54.833 96.234,53.179 97.818,52.724 97.935 C 52.526 97.986,52.327 98.172,52.281 98.347 C 52.235 98.523,52.055 98.667,51.881 98.667 C 51.707 98.667,51.311 98.854,51.000 99.083 C 50.609 99.372,50.220 99.500,49.735 99.500 C 49.278 99.500,49.004 99.584,48.943 99.741 C 48.669 100.455,44.512 100.549,43.777 99.858 C 43.491 99.590,43.185 99.500,42.561 99.500 C 41.879 99.500,41.661 99.424,41.364 99.083 C 41.165 98.854,40.833 98.666,40.626 98.664 C 40.165 98.661,39.926 98.507,39.785 98.125 C 39.726 97.965,39.530 97.833,39.350 97.833 C 39.170 97.833,38.976 97.687,38.919 97.509 C 38.863 97.330,38.670 97.137,38.491 97.081 C 38.313 97.024,38.167 96.879,38.167 96.758 C 38.167 96.637,37.979 96.415,37.750 96.265 C 37.521 96.115,37.333 95.909,37.333 95.807 C 37.333 95.705,37.146 95.448,36.917 95.235 C 36.688 95.023,36.500 94.663,36.500 94.436 C 36.500 94.174,36.382 93.985,36.178 93.920 C 35.998 93.863,35.809 93.602,35.748 93.326 C 35.689 93.055,35.570 92.833,35.484 92.833 C 35.398 92.833,35.198 92.552,35.039 92.208 C 34.880 91.865,34.627 91.491,34.478 91.379 C 34.328 91.267,34.156 90.915,34.097 90.597 C 34.028 90.229,33.869 89.981,33.661 89.915 C 33.481 89.858,33.333 89.669,33.333 89.496 C 33.333 89.323,33.146 88.994,32.917 88.765 C 32.688 88.536,32.500 88.166,32.500 87.944 C 32.500 87.682,32.385 87.509,32.174 87.454 C 31.991 87.406,31.797 87.161,31.731 86.893 C 31.666 86.631,31.486 86.304,31.331 86.167 C 31.175 86.029,30.989 85.729,30.917 85.500 C 30.845 85.271,30.649 84.987,30.483 84.870 C 30.316 84.753,30.132 84.404,30.074 84.094 C 30.007 83.736,29.853 83.500,29.651 83.448 C 29.476 83.402,29.333 83.224,29.333 83.053 C 29.333 82.881,29.181 82.611,28.995 82.451 C 28.809 82.292,28.611 81.928,28.553 81.642 C 28.493 81.342,28.323 81.089,28.151 81.044 C 27.987 81.001,27.808 80.765,27.754 80.519 C 27.700 80.273,27.471 79.857,27.245 79.594 C 27.018 79.330,26.833 79.012,26.833 78.886 C 26.833 78.759,26.724 78.614,26.591 78.563 C 26.458 78.512,26.259 78.196,26.149 77.860 C 26.039 77.525,25.810 77.152,25.641 77.032 C 25.472 76.912,25.332 76.687,25.330 76.532 C 25.329 76.377,25.141 76.073,24.914 75.858 C 24.686 75.642,24.500 75.294,24.500 75.085 C 24.500 74.855,24.378 74.674,24.190 74.625 C 24.020 74.580,23.827 74.333,23.763 74.075 C 23.698 73.817,23.462 73.389,23.239 73.123 C 23.016 72.858,22.833 72.542,22.833 72.422 C 22.833 72.301,22.725 72.161,22.593 72.110 C 22.460 72.059,22.263 71.720,22.154 71.356 C 22.035 70.959,21.831 70.661,21.644 70.613 C 21.473 70.568,21.333 70.407,21.333 70.254 C 21.333 70.102,21.146 69.732,20.917 69.431 C 20.687 69.131,20.500 68.761,20.500 68.609 C 20.500 68.219,20.211 68.266,19.636 68.750 C 19.364 68.979,19.052 69.167,18.944 69.167 C 18.836 69.167,18.655 69.313,18.544 69.492 C 18.432 69.671,18.084 69.865,17.769 69.924 C 17.404 69.993,17.167 70.146,17.114 70.349 C 17.069 70.524,16.904 70.667,16.748 70.667 C 16.592 70.667,16.242 70.854,15.970 71.083 C 15.697 71.313,15.301 71.500,15.090 71.500 C 14.845 71.500,14.674 71.622,14.618 71.834 C 14.563 72.045,14.337 72.208,14.009 72.273 C 13.723 72.330,13.394 72.512,13.278 72.677 C 13.163 72.842,12.884 73.023,12.659 73.079 C 12.080 73.225,12.155 74.512,12.766 74.912 C 12.986 75.056,13.167 75.305,13.167 75.464 C 13.167 75.623,13.313 75.845,13.492 75.956 C 13.671 76.068,13.865 76.416,13.924 76.731 C 13.989 77.076,14.148 77.333,14.325 77.380 C 14.487 77.422,14.671 77.660,14.733 77.909 C 14.796 78.158,14.994 78.519,15.173 78.712 C 15.353 78.905,15.500 79.171,15.500 79.304 C 15.500 79.437,15.687 79.719,15.917 79.931 C 16.146 80.144,16.333 80.503,16.333 80.731 C 16.333 80.994,16.451 81.182,16.658 81.247 C 16.837 81.304,17.033 81.515,17.094 81.717 C 17.155 81.918,17.338 82.233,17.500 82.417 C 17.662 82.600,17.852 82.938,17.921 83.167 C 17.991 83.396,18.187 83.681,18.357 83.801 C 18.527 83.921,18.667 84.121,18.667 84.247 C 18.667 84.372,18.854 84.697,19.083 84.970 C 19.313 85.242,19.500 85.572,19.500 85.702 C 19.500 85.833,19.687 86.103,19.917 86.302 C 20.188 86.538,20.333 86.839,20.333 87.166 C 20.333 87.503,20.416 87.667,20.587 87.667 C 20.726 87.667,20.933 87.872,21.045 88.123 C 21.158 88.374,21.374 88.703,21.525 88.856 C 21.676 89.008,21.849 89.358,21.909 89.633 C 21.974 89.929,22.151 90.167,22.343 90.217 C 22.528 90.266,22.667 90.446,22.667 90.638 C 22.667 90.823,22.854 91.197,23.083 91.470 C 23.312 91.742,23.500 92.058,23.500 92.172 C 23.500 92.285,23.687 92.552,23.917 92.765 C 24.146 92.977,24.333 93.337,24.333 93.564 C 24.333 93.834,24.452 94.015,24.674 94.086 C 24.875 94.150,25.053 94.391,25.111 94.680 C 25.165 94.948,25.275 95.167,25.357 95.167 C 25.439 95.167,25.635 95.448,25.794 95.792 C 25.953 96.135,26.212 96.513,26.368 96.630 C 26.525 96.747,26.701 97.096,26.759 97.406 C 26.826 97.764,26.981 98.000,27.182 98.052 C 27.357 98.098,27.500 98.263,27.500 98.419 C 27.500 98.574,27.688 98.925,27.917 99.197 C 28.146 99.469,28.333 99.874,28.333 100.096 C 28.333 100.347,28.430 100.500,28.587 100.500 C 28.726 100.500,28.933 100.703,29.045 100.950 C 29.158 101.198,29.419 101.570,29.625 101.776 C 29.831 101.983,30.000 102.259,30.000 102.390 C 30.000 102.521,30.188 102.751,30.417 102.901 C 30.646 103.051,30.833 103.285,30.833 103.421 C 30.833 103.556,30.953 103.667,31.099 103.667 C 31.245 103.667,31.405 103.822,31.455 104.013 C 31.505 104.203,31.723 104.426,31.939 104.509 C 32.156 104.591,32.333 104.773,32.333 104.913 C 32.333 105.052,32.436 105.167,32.560 105.167 C 32.779 105.167,33.714 105.806,34.426 106.443 C 34.615 106.612,35.046 106.880,35.385 107.039 C 35.723 107.198,36.000 107.404,36.000 107.497 C 36.000 107.590,36.173 107.667,36.384 107.667 C 36.596 107.667,37.023 107.854,37.333 108.083 C 37.667 108.330,38.123 108.500,38.449 108.500 C 38.779 108.500,39.135 108.635,39.336 108.836 C 39.572 109.072,39.982 109.200,40.711 109.267 C 41.832 109.368,42.667 109.619,42.667 109.854 C 42.667 110.144,50.023 110.032,50.238 109.739 C 50.359 109.573,50.879 109.421,51.661 109.323 C 52.507 109.217,53.005 109.063,53.249 108.834 C 53.458 108.638,53.834 108.500,54.158 108.500 C 54.535 108.500,54.835 108.367,55.098 108.083 C 55.347 107.814,55.664 107.667,55.992 107.667 C 56.340 107.667,56.500 107.585,56.500 107.408 C 56.500 107.266,56.757 107.042,57.072 106.911 C 57.387 106.779,57.696 106.588,57.759 106.486 C 57.822 106.383,58.127 106.193,58.437 106.064 C 58.747 105.935,59.000 105.753,59.000 105.660 C 59.000 105.568,59.188 105.420,59.417 105.333 C 59.646 105.246,59.833 105.061,59.833 104.921 C 59.833 104.781,59.910 104.667,60.003 104.667 C 60.224 104.667,62.333 102.558,62.333 102.336 C 62.333 102.243,62.438 102.167,62.565 102.167 C 62.693 102.167,62.843 101.984,62.899 101.761 C 62.955 101.538,63.143 101.310,63.316 101.255 C 63.511 101.194,63.673 100.936,63.740 100.580 C 63.799 100.263,63.986 99.930,64.154 99.840 C 64.323 99.750,64.511 99.412,64.571 99.090 C 64.633 98.762,64.825 98.427,65.007 98.329 C 65.235 98.208,65.333 97.980,65.333 97.577 C 65.333 97.223,65.462 96.872,65.665 96.668 C 65.884 96.449,66.031 96.010,66.098 95.377 C 66.158 94.813,66.343 94.213,66.547 93.924 C 67.079 93.169,67.087 84.754,66.557 84.223 C 66.334 84.001,66.180 83.553,66.104 82.913 C 66.023 82.224,65.895 81.874,65.662 81.711 C 65.444 81.559,65.333 81.289,65.333 80.913 C 65.333 80.516,65.233 80.291,65.001 80.167 C 64.795 80.057,64.630 79.744,64.565 79.343 C 64.499 78.925,64.359 78.669,64.171 78.620 C 64.011 78.578,63.827 78.333,63.763 78.075 C 63.698 77.817,63.462 77.389,63.239 77.123 C 63.016 76.858,62.833 76.552,62.833 76.444 C 62.833 76.336,62.693 76.159,62.521 76.052 C 62.349 75.944,62.159 75.597,62.100 75.280 C 62.029 74.902,61.879 74.674,61.663 74.617 C 61.481 74.570,61.333 74.404,61.333 74.248 C 61.333 74.092,61.146 73.742,60.917 73.470 C 60.688 73.197,60.500 72.833,60.500 72.660 C 60.500 72.487,60.356 72.268,60.180 72.174 C 60.004 72.080,59.811 71.777,59.750 71.502 C 59.690 71.226,59.500 70.902,59.328 70.782 C 59.156 70.661,58.939 70.361,58.845 70.115 C 58.752 69.868,58.604 69.667,58.517 69.667 C 58.430 69.667,58.267 69.385,58.154 69.042 C 58.041 68.698,57.810 68.319,57.641 68.199 C 57.472 68.079,57.333 67.848,57.333 67.686 C 57.333 67.524,57.146 67.215,56.917 67.000 C 56.688 66.785,56.500 66.443,56.500 66.240 C 56.500 66.014,56.373 65.839,56.171 65.786 C 55.938 65.725,55.811 65.502,55.733 65.017 C 55.666 64.596,55.535 64.333,55.392 64.333 C 55.264 64.333,55.067 64.128,54.955 63.877 C 54.842 63.626,54.626 63.297,54.475 63.144 C 54.324 62.992,54.151 62.642,54.091 62.367 C 54.026 62.071,53.849 61.833,53.657 61.783 C 53.449 61.728,53.333 61.554,53.333 61.295 C 53.333 61.073,53.146 60.715,52.917 60.500 C 52.688 60.285,52.500 59.974,52.500 59.810 C 52.500 59.646,52.353 59.433,52.174 59.337 C 51.993 59.240,51.800 58.906,51.740 58.587 C 51.679 58.264,51.509 57.972,51.353 57.923 C 51.199 57.874,50.978 57.628,50.862 57.375 C 50.373 56.313,49.920 55.570,49.636 55.366 C 49.470 55.246,49.333 55.006,49.333 54.832 C 49.333 54.659,49.146 54.315,48.917 54.068 C 48.688 53.820,48.500 53.510,48.500 53.377 C 48.500 53.245,48.344 53.010,48.153 52.856 C 47.963 52.702,47.756 52.338,47.695 52.048 C 47.596 51.580,47.546 51.542,47.250 51.708 M385.476 61.855 C 385.233 61.944,384.996 62.163,384.950 62.341 C 384.902 62.523,384.722 62.667,384.542 62.667 C 384.364 62.667,384.001 62.854,383.734 63.083 C 383.468 63.312,383.119 63.500,382.958 63.500 C 382.798 63.500,382.667 63.614,382.667 63.754 C 382.667 63.893,382.460 64.096,382.208 64.205 C 381.956 64.314,381.538 64.575,381.279 64.785 C 381.020 64.995,380.719 65.167,380.611 65.167 C 380.502 65.167,380.320 65.317,380.205 65.500 C 380.091 65.683,379.915 65.833,379.814 65.833 C 379.714 65.833,379.409 66.021,379.136 66.250 C 378.864 66.479,378.490 66.667,378.305 66.667 C 378.111 66.667,377.933 66.805,377.883 66.994 C 377.836 67.175,377.637 67.372,377.440 67.432 C 377.244 67.492,376.946 67.685,376.779 67.861 C 376.611 68.036,376.255 68.224,375.987 68.278 C 375.719 68.331,375.500 68.480,375.500 68.608 C 375.500 68.736,375.294 68.931,375.042 69.042 C 374.790 69.152,374.529 69.328,374.462 69.433 C 374.396 69.537,374.096 69.723,373.796 69.845 C 373.496 69.967,373.152 70.202,373.032 70.367 C 372.912 70.532,372.736 70.667,372.640 70.667 C 372.543 70.667,372.242 70.854,371.970 71.083 C 371.697 71.313,371.335 71.500,371.165 71.500 C 370.995 71.500,370.809 71.646,370.753 71.825 C 370.696 72.003,370.485 72.202,370.283 72.265 C 370.082 72.329,369.821 72.517,369.704 72.684 C 369.586 72.850,369.230 73.036,368.912 73.095 C 368.570 73.159,368.333 73.302,368.333 73.444 C 368.333 73.576,368.108 73.762,367.833 73.858 C 367.558 73.954,367.333 74.104,367.333 74.191 C 367.333 74.279,367.053 74.467,366.711 74.610 C 366.369 74.753,365.990 75.012,365.868 75.185 C 365.747 75.358,365.511 75.500,365.343 75.500 C 365.176 75.500,365.001 75.645,364.955 75.822 C 364.899 76.034,364.665 76.183,364.274 76.256 C 363.900 76.327,363.641 76.486,363.578 76.684 C 363.523 76.858,363.370 77.000,363.238 77.000 C 363.106 77.000,362.838 77.184,362.643 77.408 C 362.447 77.633,362.072 77.864,361.809 77.922 C 361.546 77.980,361.254 78.171,361.159 78.347 C 361.065 78.523,360.846 78.667,360.672 78.667 C 360.498 78.667,360.307 78.820,360.248 79.007 C 360.185 79.206,359.943 79.386,359.665 79.442 C 359.404 79.494,359.022 79.716,358.816 79.935 C 358.610 80.154,358.305 80.333,358.138 80.333 C 357.970 80.333,357.833 80.439,357.833 80.568 C 357.833 80.698,357.496 80.967,357.083 81.167 C 356.671 81.366,356.333 81.598,356.333 81.682 C 356.333 81.765,356.220 81.833,356.082 81.833 C 355.944 81.833,355.668 82.021,355.469 82.250 C 355.270 82.479,355.019 82.667,354.913 82.667 C 354.806 82.667,354.501 82.854,354.234 83.083 C 353.968 83.312,353.624 83.500,353.470 83.500 C 353.315 83.500,353.143 83.646,353.086 83.825 C 353.029 84.003,352.818 84.201,352.616 84.264 C 352.415 84.327,352.038 84.556,351.779 84.773 C 351.520 84.989,351.164 85.167,350.987 85.167 C 350.811 85.167,350.667 85.281,350.667 85.421 C 350.667 85.561,350.482 85.745,350.257 85.831 C 350.031 85.917,349.694 86.140,349.507 86.327 C 349.320 86.514,349.025 86.667,348.853 86.667 C 348.680 86.667,348.415 86.854,348.265 87.083 C 348.115 87.313,347.885 87.500,347.754 87.500 C 347.623 87.500,347.328 87.688,347.098 87.917 C 346.869 88.146,346.533 88.333,346.352 88.333 C 346.169 88.333,345.975 88.481,345.917 88.667 C 345.858 88.850,345.714 89.000,345.596 89.000 C 345.479 89.000,345.176 89.191,344.924 89.424 C 344.673 89.657,344.256 89.891,343.998 89.942 C 343.730 89.996,343.494 90.171,343.447 90.351 C 343.402 90.525,343.248 90.667,343.107 90.667 C 342.965 90.667,342.661 90.854,342.432 91.083 C 342.203 91.313,341.833 91.500,341.610 91.500 C 341.347 91.500,341.175 91.615,341.119 91.831 C 341.071 92.014,340.837 92.237,340.599 92.327 C 340.361 92.418,340.167 92.570,340.167 92.667 C 340.167 92.763,339.961 92.920,339.710 93.015 L 339.254 93.189 339.669 93.522 C 339.897 93.705,340.327 93.963,340.625 94.096 C 340.923 94.229,341.167 94.441,341.167 94.567 C 341.167 94.697,341.420 94.844,341.754 94.906 C 342.077 94.967,342.432 95.163,342.544 95.342 C 342.655 95.520,342.866 95.667,343.011 95.667 C 343.156 95.667,343.451 95.854,343.667 96.083 C 343.882 96.313,344.224 96.500,344.427 96.500 C 344.636 96.500,344.913 96.680,345.068 96.917 C 345.218 97.146,345.489 97.333,345.671 97.333 C 345.852 97.333,346.143 97.476,346.317 97.650 C 346.491 97.824,346.791 98.017,346.984 98.078 C 347.176 98.139,347.411 98.334,347.506 98.511 C 347.711 98.895,348.500 98.956,348.500 98.588 C 348.500 98.452,348.725 98.226,349.000 98.083 C 349.275 97.941,349.500 97.755,349.500 97.669 C 349.500 97.583,349.799 97.424,350.164 97.315 C 350.543 97.201,350.869 96.984,350.925 96.808 C 350.983 96.625,351.179 96.500,351.408 96.500 C 351.650 96.500,351.826 96.379,351.879 96.178 C 351.934 95.966,352.168 95.817,352.559 95.744 C 352.926 95.675,353.193 95.514,353.253 95.324 C 353.306 95.155,353.511 94.966,353.708 94.904 C 353.904 94.841,354.181 94.649,354.324 94.476 C 354.763 93.945,356.333 94.022,356.333 94.575 C 356.333 94.697,356.598 94.846,356.920 94.906 C 357.243 94.967,357.599 95.163,357.711 95.342 C 357.822 95.520,358.032 95.667,358.178 95.667 C 358.323 95.667,358.618 95.854,358.833 96.083 C 359.049 96.313,359.397 96.500,359.609 96.500 C 359.834 96.500,360.105 96.672,360.265 96.917 C 360.415 97.146,360.665 97.333,360.820 97.333 C 360.975 97.333,361.356 97.521,361.667 97.750 C 361.977 97.979,362.324 98.167,362.438 98.167 C 362.551 98.167,362.689 98.309,362.744 98.483 C 362.806 98.678,363.064 98.840,363.420 98.906 C 363.739 98.966,364.074 99.160,364.171 99.341 C 364.267 99.520,364.479 99.667,364.643 99.667 C 364.808 99.667,365.118 99.854,365.333 100.083 C 365.549 100.313,365.906 100.500,366.128 100.500 C 366.381 100.500,366.561 100.616,366.613 100.811 C 366.661 100.998,366.959 101.201,367.356 101.320 C 367.720 101.429,368.059 101.627,368.110 101.759 C 368.161 101.892,368.307 102.000,368.434 102.000 C 368.562 102.000,368.834 102.169,369.038 102.375 C 369.242 102.581,369.668 102.826,369.985 102.919 C 370.770 103.149,370.870 103.600,370.747 106.333 C 370.647 108.564,370.450 109.667,370.154 109.667 C 370.069 109.667,370.000 110.304,370.000 111.083 C 370.000 112.380,370.028 112.500,370.327 112.500 C 370.508 112.500,370.732 112.644,370.826 112.820 C 370.920 112.996,371.223 113.189,371.498 113.250 C 371.774 113.310,372.093 113.485,372.208 113.638 C 372.323 113.791,372.698 114.047,373.042 114.206 C 373.385 114.365,373.667 114.561,373.667 114.643 C 373.667 114.725,373.886 114.835,374.153 114.889 C 374.442 114.947,374.684 115.125,374.748 115.326 C 374.818 115.548,374.999 115.667,375.269 115.667 C 375.497 115.667,375.856 115.854,376.069 116.083 C 376.281 116.313,376.548 116.500,376.662 116.500 C 376.775 116.500,377.091 116.688,377.364 116.917 C 377.636 117.146,378.010 117.333,378.195 117.333 C 378.402 117.333,378.571 117.478,378.634 117.708 C 378.695 117.930,378.815 117.350,378.926 116.292 C 379.046 115.153,379.207 114.395,379.370 114.209 C 379.566 113.984,379.645 113.330,379.710 111.384 C 379.782 109.233,379.845 108.769,380.131 108.301 C 380.418 107.830,380.476 107.397,380.527 105.324 C 380.578 103.238,380.633 102.829,380.918 102.407 C 381.202 101.988,381.262 101.551,381.333 99.392 C 381.400 97.360,381.471 96.807,381.693 96.559 C 381.910 96.316,381.993 95.734,382.080 93.833 C 382.191 91.444,382.381 90.333,382.680 90.333 C 382.764 90.333,382.836 89.602,382.839 88.708 C 382.846 86.622,383.071 84.884,383.381 84.529 C 383.563 84.321,383.647 83.602,383.711 81.691 C 383.785 79.478,383.842 79.071,384.129 78.681 C 384.420 78.289,384.470 77.910,384.524 75.712 C 384.579 73.450,384.622 73.143,384.943 72.708 C 385.265 72.273,385.308 71.968,385.359 69.737 C 385.405 67.741,385.472 67.168,385.699 66.833 C 386.015 66.368,386.351 61.655,386.066 61.680 C 385.984 61.687,385.718 61.766,385.476 61.855 M373.853 82.636 C 374.143 83.398,373.730 86.333,373.333 86.333 C 373.263 86.333,373.176 87.306,373.139 88.494 C 373.079 90.402,373.028 90.713,372.702 91.154 C 372.430 91.523,372.333 91.886,372.333 92.543 C 372.333 93.805,371.569 94.308,370.879 93.501 C 370.722 93.318,370.350 93.122,370.053 93.067 C 369.743 93.009,369.471 92.838,369.417 92.669 C 369.366 92.506,369.102 92.329,368.831 92.274 C 368.560 92.220,368.208 92.024,368.049 91.838 C 367.889 91.652,367.639 91.500,367.493 91.500 C 367.347 91.500,367.064 91.313,366.864 91.083 C 366.665 90.854,366.363 90.667,366.192 90.667 C 366.022 90.667,365.680 90.479,365.432 90.250 C 365.185 90.021,364.902 89.833,364.803 89.833 C 364.493 89.833,364.000 89.135,364.000 88.696 C 364.000 88.154,364.446 87.667,364.942 87.667 C 365.181 87.667,365.333 87.568,365.333 87.413 C 365.333 87.274,365.536 87.067,365.784 86.955 C 366.031 86.842,366.403 86.581,366.610 86.375 C 366.816 86.169,367.130 86.000,367.306 86.000 C 367.488 86.000,367.666 85.855,367.715 85.667 C 367.765 85.475,367.942 85.333,368.132 85.333 C 368.313 85.333,368.585 85.146,368.735 84.917 C 368.885 84.688,369.143 84.500,369.308 84.500 C 369.473 84.500,369.785 84.313,370.000 84.083 C 370.215 83.854,370.528 83.667,370.696 83.667 C 370.863 83.667,371.000 83.552,371.000 83.413 C 371.000 83.273,371.200 83.082,371.445 82.989 C 371.689 82.896,371.971 82.709,372.070 82.573 C 372.535 81.937,373.602 81.975,373.853 82.636 M232.833 101.313 C 232.833 101.531,232.036 101.798,231.001 101.928 C 230.419 102.001,230.011 102.148,229.882 102.333 C 229.770 102.492,229.452 102.668,229.175 102.723 C 228.898 102.779,228.541 102.976,228.382 103.162 C 228.223 103.348,227.959 103.500,227.796 103.500 C 227.633 103.500,227.500 103.614,227.500 103.754 C 227.500 103.893,227.313 104.093,227.083 104.197 C 226.854 104.301,226.667 104.489,226.667 104.614 C 226.667 104.739,226.479 104.913,226.250 105.000 C 226.021 105.087,225.833 105.270,225.833 105.407 C 225.833 105.543,225.683 105.735,225.500 105.833 C 225.317 105.931,225.167 106.116,225.167 106.243 C 225.167 106.370,224.990 106.686,224.774 106.946 C 224.558 107.205,224.330 107.696,224.267 108.037 C 224.205 108.378,224.025 108.729,223.868 108.817 C 223.228 109.174,223.307 116.641,223.958 117.292 C 224.208 117.541,224.333 117.867,224.333 118.266 C 224.333 118.719,224.412 118.885,224.657 118.949 C 224.841 118.997,225.025 119.234,225.082 119.496 C 225.138 119.750,225.368 120.131,225.592 120.341 C 225.816 120.552,226.000 120.819,226.000 120.934 C 226.000 121.050,226.146 121.191,226.325 121.247 C 226.503 121.304,226.696 121.497,226.753 121.675 C 226.809 121.854,226.955 122.000,227.075 122.000 C 227.196 122.000,227.414 122.181,227.559 122.402 C 227.703 122.623,228.059 122.856,228.348 122.920 C 228.645 122.985,228.907 123.164,228.951 123.331 C 229.004 123.533,229.249 123.656,229.723 123.720 C 230.166 123.779,230.499 123.937,230.645 124.156 C 230.865 124.486,231.022 124.500,234.538 124.500 L 238.202 124.500 238.697 124.083 C 239.041 123.794,239.392 123.667,239.846 123.667 C 240.320 123.667,240.500 123.597,240.500 123.413 C 240.500 123.274,240.706 123.068,240.958 122.956 C 241.210 122.844,241.603 122.583,241.832 122.376 C 242.060 122.169,242.370 122.000,242.521 122.000 C 242.671 122.000,242.835 121.844,242.885 121.654 C 242.935 121.464,243.131 121.268,243.321 121.218 C 243.511 121.168,243.667 121.014,243.667 120.875 C 243.667 120.735,243.854 120.448,244.083 120.235 C 244.313 120.023,244.500 119.735,244.500 119.595 C 244.500 119.455,244.688 119.218,244.917 119.068 C 245.223 118.867,245.333 118.648,245.333 118.240 C 245.333 117.862,245.447 117.606,245.690 117.436 C 246.405 116.935,246.406 109.653,245.692 108.744 C 245.495 108.493,245.333 108.103,245.333 107.877 C 245.333 107.650,245.146 107.242,244.917 106.970 C 244.688 106.697,244.500 106.330,244.500 106.154 C 244.500 105.978,244.390 105.833,244.256 105.833 C 244.122 105.833,243.933 105.685,243.836 105.504 C 243.606 105.075,242.029 103.500,241.829 103.500 C 241.744 103.500,241.551 103.313,241.401 103.083 C 241.236 102.832,240.971 102.667,240.731 102.667 C 240.512 102.667,240.191 102.525,240.018 102.351 C 239.844 102.177,239.375 101.985,238.976 101.924 C 238.083 101.787,237.333 101.509,237.333 101.313 C 237.333 101.233,236.321 101.167,235.083 101.167 C 233.846 101.167,232.833 101.233,232.833 101.313 M139.500 102.689 C 139.500 103.286,139.613 103.726,139.875 104.147 L 140.250 104.750 140.250 113.000 C 140.250 121.248,140.250 121.250,139.875 121.914 C 139.606 122.390,139.500 122.851,139.500 123.539 L 139.500 124.500 141.633 124.500 L 143.765 124.500 143.694 122.878 C 143.646 121.762,143.539 121.127,143.353 120.844 C 143.012 120.323,142.847 114.431,143.157 113.851 C 143.591 113.041,145.167 113.610,145.167 114.577 C 145.167 114.718,145.277 114.833,145.411 114.833 C 145.545 114.833,145.744 115.002,145.854 115.208 C 145.963 115.415,146.191 115.681,146.360 115.801 C 146.529 115.921,146.667 116.122,146.667 116.248 C 146.667 116.374,146.813 116.524,146.991 116.581 C 147.170 116.637,147.363 116.832,147.421 117.014 C 147.479 117.195,147.708 117.540,147.930 117.780 C 148.152 118.019,148.333 118.346,148.333 118.505 C 148.333 118.664,148.489 118.835,148.679 118.885 C 148.869 118.935,149.065 119.128,149.114 119.315 C 149.163 119.503,149.345 119.701,149.518 119.756 C 149.691 119.811,149.833 119.950,149.833 120.066 C 149.833 120.181,150.017 120.448,150.241 120.659 C 150.466 120.869,150.697 121.257,150.755 121.521 C 150.812 121.784,150.958 122.000,151.079 122.000 C 151.310 122.000,151.500 122.354,151.500 122.784 C 151.500 122.925,151.706 123.366,151.958 123.764 L 152.417 124.488 154.875 124.494 C 157.484 124.500,157.511 124.493,157.012 123.940 C 156.160 122.995,155.667 122.357,155.667 122.198 C 155.667 122.101,155.517 121.975,155.334 121.917 C 155.151 121.859,154.957 121.636,154.903 121.421 C 154.849 121.207,154.661 120.994,154.486 120.948 C 154.310 120.902,154.167 120.754,154.167 120.618 C 154.167 120.483,153.979 120.249,153.750 120.099 C 153.521 119.949,153.333 119.756,153.333 119.671 C 153.333 119.587,153.146 119.315,152.917 119.068 C 152.688 118.820,152.500 118.519,152.500 118.398 C 152.500 118.277,152.346 118.096,152.159 117.996 C 151.971 117.895,151.748 117.630,151.663 117.407 C 151.578 117.183,151.394 117.000,151.254 117.000 C 151.114 117.000,151.000 116.899,151.000 116.775 C 151.000 116.651,150.794 116.322,150.542 116.044 C 149.780 115.204,149.338 114.595,149.336 114.381 C 149.334 114.270,149.180 114.096,148.992 113.996 C 148.804 113.895,148.581 113.630,148.496 113.407 C 148.411 113.183,148.236 113.000,148.107 113.000 C 147.532 113.000,147.494 110.991,148.059 110.426 C 148.275 110.210,148.500 109.906,148.560 109.751 C 148.620 109.595,148.818 109.429,149.001 109.381 C 149.192 109.332,149.333 109.154,149.333 108.965 C 149.333 108.776,149.475 108.598,149.667 108.548 C 149.850 108.500,150.000 108.368,150.000 108.255 C 150.000 108.142,150.206 107.823,150.458 107.546 C 151.349 106.567,151.833 105.926,151.833 105.725 C 151.833 105.614,151.975 105.477,152.149 105.422 C 152.322 105.367,152.504 105.169,152.553 104.982 C 152.602 104.795,152.797 104.601,152.988 104.552 C 153.178 104.502,153.333 104.359,153.333 104.234 C 153.333 104.110,153.521 103.885,153.750 103.735 C 153.979 103.585,154.167 103.358,154.167 103.231 C 154.167 103.104,154.236 103.000,154.321 103.000 C 154.407 103.000,154.755 102.737,155.095 102.417 L 155.713 101.833 153.293 101.833 L 150.873 101.833 150.684 102.583 C 150.580 102.996,150.423 103.333,150.335 103.333 C 150.247 103.333,150.059 103.558,149.917 103.833 C 149.774 104.108,149.548 104.333,149.412 104.333 C 149.276 104.333,149.167 104.485,149.167 104.674 C 149.167 104.862,148.985 105.197,148.763 105.419 C 148.541 105.641,148.312 105.971,148.254 106.153 C 148.197 106.334,148.011 106.527,147.841 106.581 C 147.672 106.635,147.487 106.863,147.430 107.089 C 147.373 107.315,147.221 107.500,147.091 107.500 C 146.962 107.500,146.808 107.650,146.750 107.834 C 146.692 108.017,146.499 108.245,146.322 108.339 C 146.145 108.434,146.000 108.611,146.000 108.732 C 146.000 108.852,145.831 109.134,145.625 109.357 C 145.419 109.580,145.117 109.966,144.954 110.214 C 144.605 110.750,143.698 110.841,143.244 110.387 C 142.838 109.981,142.944 105.781,143.378 105.119 C 143.595 104.788,143.667 104.325,143.667 103.256 L 143.667 101.833 141.583 101.833 L 139.500 101.833 139.500 102.689 M160.333 101.945 C 160.333 102.026,160.477 102.216,160.653 102.366 C 161.151 102.793,161.190 103.708,161.135 113.778 L 161.083 123.139 160.708 123.646 C 160.091 124.481,160.140 124.500,162.833 124.500 C 165.484 124.500,165.544 124.479,164.958 123.735 C 164.182 122.749,164.345 115.000,165.142 115.000 C 165.459 115.000,166.833 116.599,166.833 116.968 C 166.833 117.071,166.983 117.235,167.167 117.333 C 167.350 117.431,167.500 117.613,167.500 117.737 C 167.500 117.860,167.688 118.085,167.917 118.235 C 168.146 118.385,168.333 118.578,168.333 118.663 C 168.333 118.748,168.502 119.006,168.708 119.235 C 169.443 120.051,170.000 120.798,170.000 120.970 C 170.000 121.066,170.146 121.191,170.325 121.247 C 170.503 121.304,170.693 121.488,170.747 121.657 C 170.801 121.826,170.992 122.003,171.172 122.050 C 171.359 122.099,171.500 122.277,171.500 122.466 C 171.500 122.680,171.647 122.834,171.917 122.902 C 172.186 122.969,172.333 123.123,172.333 123.337 C 172.333 123.557,172.446 123.667,172.671 123.667 C 172.878 123.667,173.070 123.829,173.168 124.086 L 173.327 124.505 177.789 124.461 L 182.250 124.417 182.268 123.799 C 182.277 123.460,182.397 123.010,182.534 122.799 C 182.671 122.589,182.825 121.895,182.875 121.256 C 182.945 120.383,183.047 120.031,183.291 119.834 C 183.500 119.665,183.648 119.279,183.708 118.751 C 183.868 117.331,183.859 117.333,188.784 117.333 C 192.822 117.333,193.035 117.349,193.114 117.651 C 193.160 117.826,193.335 118.005,193.502 118.049 C 193.721 118.106,193.841 118.358,193.928 118.939 C 193.999 119.413,194.171 119.836,194.341 119.956 C 194.538 120.095,194.673 120.503,194.754 121.203 C 194.822 121.786,194.979 122.320,195.112 122.417 C 195.244 122.514,195.393 123.014,195.448 123.545 L 195.547 124.500 198.065 124.489 C 200.001 124.480,200.497 124.436,200.208 124.297 C 200.002 124.197,199.833 124.019,199.833 123.900 C 199.833 123.781,199.644 123.480,199.413 123.230 C 199.181 122.980,198.944 122.583,198.886 122.346 C 198.827 122.110,198.650 121.825,198.492 121.712 C 198.334 121.600,198.156 121.245,198.095 120.923 C 198.034 120.595,197.842 120.261,197.659 120.163 C 197.420 120.035,197.333 119.813,197.333 119.327 C 197.333 118.858,197.263 118.667,197.089 118.667 C 196.770 118.667,196.500 118.147,196.500 117.530 C 196.500 117.188,196.404 117.014,196.185 116.956 C 195.964 116.899,195.833 116.656,195.746 116.146 C 195.678 115.741,195.488 115.323,195.318 115.204 C 195.151 115.087,194.963 114.720,194.900 114.389 C 194.838 114.058,194.648 113.648,194.477 113.477 C 194.306 113.306,194.167 112.985,194.167 112.763 C 194.167 112.541,193.979 112.136,193.750 111.864 C 193.521 111.591,193.333 111.179,193.333 110.947 C 193.333 110.715,193.146 110.303,192.917 110.030 C 192.688 109.758,192.500 109.330,192.500 109.078 C 192.500 108.805,192.333 108.466,192.083 108.235 C 191.790 107.963,191.667 107.675,191.667 107.258 C 191.667 106.839,191.593 106.667,191.413 106.667 C 191.128 106.667,190.833 106.024,190.833 105.406 C 190.833 105.159,190.737 105.000,190.587 105.000 C 190.451 105.000,190.294 104.794,190.238 104.542 C 190.028 103.600,189.945 103.411,189.643 103.199 C 189.441 103.057,189.333 102.777,189.333 102.396 C 189.333 101.514,188.444 101.609,188.364 102.500 C 188.332 102.852,188.151 103.235,187.906 103.465 C 187.656 103.700,187.500 104.034,187.500 104.334 C 187.500 104.601,187.359 104.955,187.186 105.119 C 187.013 105.282,186.818 105.679,186.751 106.000 C 186.685 106.321,186.502 106.733,186.344 106.917 C 186.186 107.100,185.965 107.573,185.852 107.967 C 185.740 108.362,185.540 108.726,185.407 108.777 C 185.275 108.827,185.167 109.045,185.167 109.260 C 185.167 109.804,184.824 110.500,184.557 110.500 C 184.412 110.500,184.333 110.708,184.333 111.091 C 184.333 111.508,184.210 111.797,183.917 112.069 C 183.646 112.320,183.500 112.635,183.500 112.968 C 183.500 113.284,183.378 113.567,183.181 113.705 C 183.006 113.827,182.809 114.209,182.745 114.551 C 182.681 114.894,182.496 115.267,182.336 115.380 C 182.175 115.492,181.990 115.900,181.925 116.285 C 181.844 116.764,181.705 117.018,181.487 117.088 C 181.252 117.162,181.167 117.344,181.167 117.769 C 181.167 118.174,181.041 118.466,180.750 118.735 C 180.521 118.948,180.333 119.308,180.333 119.536 C 180.333 119.765,180.146 120.154,179.917 120.401 C 179.688 120.648,179.500 121.032,179.500 121.253 C 179.500 121.476,179.360 121.730,179.186 121.823 C 179.013 121.916,178.821 122.194,178.758 122.443 C 178.504 123.456,177.188 124.407,176.801 123.857 C 176.681 123.687,176.415 123.495,176.208 123.429 C 176.002 123.364,175.833 123.220,175.833 123.109 C 175.833 122.998,175.627 122.717,175.375 122.485 C 175.123 122.252,174.729 121.810,174.500 121.503 C 174.271 121.195,173.915 120.765,173.708 120.548 C 173.502 120.330,173.333 120.041,173.333 119.905 C 173.333 119.769,173.146 119.587,172.917 119.500 C 172.662 119.403,172.500 119.211,172.500 119.004 C 172.500 118.813,172.390 118.667,172.246 118.667 C 172.106 118.667,171.924 118.489,171.842 118.272 C 171.759 118.055,171.499 117.669,171.263 117.414 C 171.026 117.160,170.833 116.830,170.833 116.682 C 170.833 116.535,170.683 116.320,170.500 116.205 C 170.317 116.091,170.167 115.909,170.167 115.801 C 170.167 115.693,170.023 115.450,169.848 115.261 C 169.561 114.950,169.431 114.458,169.482 113.869 C 169.492 113.751,169.827 113.515,170.226 113.344 C 170.625 113.173,170.998 112.913,171.054 112.766 C 171.110 112.620,171.239 112.500,171.341 112.500 C 171.582 112.500,172.403 111.670,172.552 111.276 C 172.616 111.107,172.818 110.929,173.001 110.881 C 173.578 110.731,173.504 105.885,172.917 105.333 C 172.688 105.118,172.500 104.810,172.500 104.649 C 172.500 104.488,172.354 104.309,172.175 104.253 C 171.997 104.196,171.804 104.003,171.747 103.825 C 171.691 103.646,171.550 103.500,171.435 103.500 C 171.321 103.500,171.064 103.313,170.864 103.083 C 170.646 102.832,170.324 102.667,170.054 102.667 C 169.807 102.667,169.426 102.498,169.207 102.293 C 168.785 101.897,160.333 101.565,160.333 101.945 M203.500 103.244 C 203.500 104.173,203.600 104.928,203.792 105.453 C 204.052 106.163,204.083 106.986,204.083 113.000 C 204.083 119.014,204.052 119.837,203.792 120.547 C 203.591 121.097,203.500 121.835,203.500 122.922 L 203.500 124.500 205.583 124.500 L 207.667 124.500 207.667 123.555 C 207.667 122.888,207.581 122.515,207.375 122.288 C 206.885 121.746,206.839 113.764,207.325 113.504 C 207.677 113.316,208.333 113.521,208.333 113.820 C 208.333 113.898,208.482 114.000,208.665 114.048 C 208.847 114.095,209.070 114.329,209.161 114.567 C 209.251 114.805,209.439 115.000,209.579 115.000 C 209.719 115.000,209.833 115.120,209.833 115.266 C 209.833 115.413,210.040 115.739,210.292 115.990 C 210.947 116.643,211.495 117.384,211.498 117.619 C 211.499 117.730,211.654 117.904,211.841 118.004 C 212.029 118.105,212.252 118.370,212.337 118.593 C 212.422 118.817,212.605 119.000,212.743 119.000 C 212.881 119.000,213.041 119.188,213.098 119.417 C 213.156 119.646,213.265 119.833,213.340 119.833 C 213.522 119.833,214.445 121.125,214.681 121.708 C 214.783 121.960,214.963 122.167,215.082 122.167 C 215.344 122.167,215.500 122.536,215.500 123.158 C 215.500 123.413,215.655 123.819,215.845 124.061 L 216.191 124.500 218.786 124.500 L 221.382 124.500 220.983 124.104 C 220.763 123.886,220.396 123.479,220.167 123.198 C 219.938 122.917,219.544 122.459,219.292 122.179 C 219.040 121.899,218.833 121.565,218.833 121.438 C 218.833 121.310,218.683 121.166,218.500 121.118 C 218.317 121.070,218.167 120.920,218.167 120.785 C 218.167 120.649,217.979 120.415,217.750 120.265 C 217.521 120.115,217.333 119.922,217.333 119.837 C 217.333 119.752,217.165 119.502,216.958 119.281 C 216.141 118.409,215.667 117.748,215.667 117.484 C 215.667 117.331,215.517 117.166,215.334 117.119 C 215.151 117.071,214.950 116.893,214.887 116.724 C 214.824 116.555,214.636 116.319,214.469 116.199 C 214.303 116.079,214.167 115.881,214.167 115.760 C 214.167 115.638,213.979 115.415,213.750 115.265 C 213.521 115.115,213.332 114.900,213.330 114.788 C 213.329 114.675,213.141 114.407,212.914 114.191 C 212.686 113.975,212.500 113.674,212.500 113.522 C 212.500 113.370,212.332 113.172,212.126 113.081 C 211.920 112.991,211.725 112.767,211.692 112.583 C 211.659 112.400,211.512 112.114,211.365 111.949 C 211.149 111.705,211.137 111.593,211.301 111.365 C 211.413 111.210,211.586 110.877,211.685 110.625 C 211.785 110.373,211.973 110.167,212.104 110.167 C 212.235 110.167,212.410 109.986,212.495 109.764 C 212.579 109.543,212.802 109.313,212.990 109.253 C 213.179 109.193,213.333 109.045,213.333 108.923 C 213.333 108.801,213.558 108.461,213.833 108.167 C 214.108 107.872,214.333 107.535,214.333 107.417 C 214.333 107.299,214.447 107.159,214.586 107.105 C 214.725 107.052,214.910 106.819,214.998 106.588 C 215.086 106.356,215.261 106.167,215.386 106.167 C 215.511 106.167,215.699 105.979,215.803 105.750 C 215.907 105.521,216.102 105.333,216.235 105.333 C 216.368 105.333,216.501 105.165,216.530 104.958 C 216.564 104.717,216.717 104.564,216.958 104.530 C 217.206 104.495,217.333 104.362,217.333 104.139 C 217.333 103.948,217.471 103.766,217.651 103.719 C 217.826 103.673,218.008 103.487,218.056 103.306 C 218.103 103.124,218.297 102.935,218.488 102.885 C 218.678 102.835,218.833 102.693,218.833 102.569 C 218.833 102.445,219.040 102.231,219.292 102.093 C 219.715 101.861,219.558 101.844,217.252 101.879 C 214.902 101.914,214.750 101.936,214.690 102.250 C 214.655 102.433,214.448 102.795,214.230 103.054 C 214.012 103.314,213.833 103.632,213.833 103.761 C 213.833 103.891,213.683 104.091,213.500 104.205 C 213.317 104.320,213.167 104.503,213.167 104.611 C 213.167 104.720,212.979 104.957,212.750 105.137 C 212.521 105.317,212.333 105.568,212.333 105.695 C 212.333 105.822,212.108 106.172,211.833 106.473 C 211.558 106.774,211.333 107.086,211.333 107.166 C 211.333 107.246,211.183 107.358,211.000 107.417 C 210.817 107.475,210.667 107.662,210.667 107.833 C 210.667 108.004,210.517 108.192,210.333 108.250 C 210.150 108.308,210.000 108.426,210.000 108.511 C 210.000 108.597,209.831 108.835,209.625 109.041 C 209.419 109.246,209.131 109.636,208.985 109.907 C 208.686 110.463,208.022 110.750,207.400 110.594 L 206.980 110.489 207.032 107.261 C 207.076 104.468,207.123 103.991,207.375 103.712 C 207.565 103.502,207.667 103.120,207.667 102.612 L 207.667 101.833 205.583 101.833 L 203.500 101.833 203.500 103.244 M249.119 102.458 C 249.173 102.802,249.315 103.142,249.435 103.213 C 249.676 103.356,249.998 104.361,249.999 104.974 C 250.000 105.188,250.141 105.544,250.314 105.763 C 250.506 106.008,250.673 106.587,250.745 107.262 C 250.825 108.005,250.967 108.467,251.182 108.682 C 251.419 108.919,251.500 109.237,251.500 109.928 C 251.500 110.831,251.701 111.465,252.061 111.699 C 252.158 111.762,252.268 112.362,252.305 113.032 C 252.348 113.817,252.452 114.296,252.596 114.380 C 252.896 114.553,253.165 115.569,253.166 116.533 C 253.166 117.079,253.248 117.362,253.434 117.467 C 253.719 117.626,253.981 118.676,253.993 119.708 C 253.997 120.086,254.122 120.455,254.308 120.641 C 254.514 120.848,254.654 121.321,254.732 122.082 C 254.806 122.814,254.963 123.363,255.174 123.630 C 255.353 123.858,255.500 124.147,255.500 124.272 C 255.500 124.444,255.804 124.500,256.742 124.500 L 257.983 124.500 258.098 123.485 C 258.168 122.868,258.326 122.361,258.500 122.193 C 258.667 122.032,258.829 121.535,258.889 121.000 C 258.956 120.397,259.098 119.995,259.305 119.826 C 259.526 119.645,259.644 119.275,259.701 118.590 C 259.762 117.852,259.870 117.540,260.141 117.321 C 260.420 117.095,260.500 116.848,260.500 116.214 C 260.500 115.605,260.606 115.255,260.917 114.833 C 261.202 114.447,261.333 114.052,261.333 113.584 C 261.333 111.803,263.291 112.201,263.462 114.017 C 263.520 114.628,263.673 115.068,263.940 115.388 C 264.236 115.743,264.333 116.061,264.333 116.679 C 264.333 117.142,264.410 117.500,264.509 117.500 C 264.759 117.500,265.167 118.558,265.167 119.208 C 265.167 119.543,265.291 119.865,265.482 120.029 C 265.676 120.195,265.844 120.640,265.919 121.184 C 265.986 121.670,266.175 122.259,266.339 122.493 C 266.503 122.726,266.686 123.273,266.745 123.708 L 266.854 124.500 268.094 124.500 C 269.192 124.500,269.333 124.465,269.333 124.189 C 269.333 124.018,269.478 123.694,269.655 123.469 C 269.856 123.214,270.018 122.657,270.087 121.989 C 270.152 121.359,270.329 120.730,270.516 120.465 C 270.690 120.217,270.835 119.729,270.837 119.382 C 270.843 118.483,271.096 117.508,271.382 117.279 C 271.540 117.153,271.662 116.637,271.723 115.833 C 271.797 114.881,271.896 114.521,272.139 114.323 C 272.386 114.123,272.474 113.790,272.526 112.873 C 272.579 111.932,272.671 111.600,272.963 111.289 C 273.261 110.972,273.333 110.699,273.333 109.887 C 273.333 109.135,273.417 108.772,273.663 108.459 C 273.862 108.206,274.033 107.653,274.096 107.062 C 274.153 106.522,274.342 105.881,274.517 105.632 C 274.691 105.383,274.834 105.008,274.834 104.798 C 274.836 104.182,275.161 103.187,275.407 103.046 C 275.532 102.975,275.660 102.692,275.692 102.417 L 275.750 101.917 273.621 101.917 L 271.491 101.917 271.454 103.941 C 271.424 105.545,271.360 106.030,271.143 106.274 C 270.984 106.454,270.822 107.038,270.758 107.667 C 270.638 108.831,270.383 109.667,270.146 109.667 C 270.066 109.667,269.997 109.985,269.993 110.375 C 269.982 111.464,269.728 112.543,269.433 112.758 C 269.244 112.897,269.167 113.223,269.167 113.883 C 269.167 115.215,268.289 116.833,267.566 116.833 C 267.292 116.833,266.833 115.800,266.833 115.183 C 266.833 114.899,266.695 114.529,266.526 114.360 C 266.347 114.181,266.177 113.692,266.117 113.187 C 266.059 112.701,265.865 112.130,265.674 111.888 C 265.444 111.596,265.333 111.208,265.333 110.697 C 265.333 110.151,265.233 109.832,264.976 109.558 C 264.737 109.303,264.593 108.887,264.539 108.297 C 264.491 107.754,264.338 107.283,264.142 107.067 C 263.953 106.860,263.782 106.352,263.721 105.817 C 263.665 105.322,263.479 104.717,263.308 104.473 C 263.137 104.228,262.952 103.666,262.895 103.223 C 262.805 102.511,262.496 102.000,262.156 102.000 C 262.094 102.000,261.992 102.448,261.930 102.996 C 261.854 103.675,261.722 104.060,261.516 104.204 C 261.302 104.355,261.190 104.706,261.132 105.407 C 261.068 106.181,260.972 106.450,260.692 106.636 C 260.399 106.830,260.333 107.038,260.333 107.770 C 260.333 108.462,260.252 108.748,259.979 109.021 C 259.738 109.262,259.588 109.691,259.508 110.373 C 259.431 111.021,259.296 111.424,259.123 111.521 C 258.953 111.616,258.816 112.015,258.742 112.627 C 258.679 113.157,258.497 113.732,258.335 113.917 C 258.174 114.100,257.990 114.662,257.927 115.166 C 257.625 117.559,255.853 117.195,255.708 114.709 C 255.657 113.839,255.551 113.353,255.385 113.221 C 255.078 112.978,254.843 112.004,254.837 110.958 C 254.835 110.415,254.737 110.070,254.525 109.859 C 254.306 109.639,254.183 109.177,254.099 108.248 C 254.018 107.347,253.881 106.818,253.657 106.533 C 253.375 106.174,253.333 105.849,253.333 103.978 L 253.333 101.833 251.177 101.833 L 249.021 101.833 249.119 102.458 M167.383 104.062 C 167.585 104.279,167.994 104.510,168.292 104.575 C 168.590 104.640,168.833 104.766,168.833 104.854 C 168.833 104.943,169.026 105.208,169.261 105.443 C 170.201 106.383,170.366 110.392,169.475 110.625 C 169.305 110.669,169.167 110.854,169.167 111.035 C 169.167 111.223,169.025 111.401,168.839 111.450 C 168.659 111.497,168.465 111.681,168.409 111.858 C 168.350 112.042,168.097 112.222,167.820 112.278 C 167.552 112.331,167.333 112.470,167.333 112.586 C 167.333 113.000,165.442 113.326,164.857 113.013 C 164.430 112.784,164.284 104.283,164.700 103.867 C 165.088 103.478,166.968 103.615,167.383 104.062 M237.099 104.083 C 237.356 104.321,237.749 104.500,238.015 104.500 C 238.278 104.500,238.576 104.634,238.699 104.807 C 238.819 104.976,239.104 105.211,239.333 105.329 C 239.773 105.557,240.333 106.079,240.333 106.261 C 240.333 106.320,240.521 106.516,240.750 106.696 C 240.979 106.877,241.167 107.164,241.167 107.334 C 241.167 107.505,241.311 107.690,241.487 107.746 C 241.704 107.815,241.844 108.068,241.923 108.538 C 241.987 108.918,242.189 109.349,242.371 109.497 C 243.032 110.032,242.998 117.011,242.332 117.632 C 242.164 117.789,241.977 118.116,241.916 118.359 C 241.855 118.603,241.624 118.972,241.403 119.180 C 241.181 119.388,241.000 119.659,241.000 119.783 C 241.000 119.907,240.813 120.080,240.583 120.167 C 240.354 120.254,240.167 120.427,240.167 120.552 C 240.167 120.778,239.502 121.167,239.116 121.167 C 239.004 121.167,238.823 121.311,238.713 121.487 C 238.571 121.714,238.232 121.842,237.548 121.926 C 237.018 121.992,236.435 122.147,236.255 122.273 C 235.830 122.566,234.503 122.566,234.079 122.273 C 233.898 122.147,233.326 121.993,232.809 121.929 C 232.212 121.856,231.763 121.698,231.583 121.500 C 231.427 121.327,231.085 121.139,230.824 121.081 C 230.562 121.024,230.306 120.843,230.254 120.680 C 230.203 120.517,229.974 120.299,229.747 120.196 C 229.519 120.092,229.333 119.898,229.333 119.765 C 229.333 119.632,229.187 119.476,229.009 119.419 C 228.830 119.363,228.632 119.151,228.569 118.950 C 228.506 118.748,228.277 118.371,228.061 118.112 C 227.844 117.853,227.667 117.456,227.667 117.230 C 227.667 117.004,227.525 116.667,227.352 116.481 C 226.574 115.646,226.579 108.745,227.359 108.542 C 227.536 108.495,227.668 108.310,227.669 108.106 C 227.673 107.484,227.865 107.000,228.107 107.000 C 228.236 107.000,228.416 106.805,228.506 106.567 C 228.597 106.329,228.820 106.095,229.002 106.048 C 229.184 106.000,229.333 105.850,229.333 105.715 C 229.333 105.580,229.480 105.430,229.659 105.384 C 229.838 105.337,230.102 105.119,230.246 104.899 C 230.424 104.628,230.665 104.500,230.996 104.500 C 231.295 104.500,231.647 104.338,231.902 104.083 C 232.303 103.682,232.396 103.667,234.484 103.667 C 236.563 103.667,236.667 103.683,237.099 104.083 M122.630 107.824 C 122.477 108.002,122.088 108.198,121.765 108.258 C 121.415 108.324,121.140 108.488,121.083 108.666 C 121.032 108.830,120.853 109.000,120.686 109.043 C 120.510 109.089,120.341 109.339,120.280 109.642 C 120.223 109.928,120.024 110.292,119.838 110.451 C 119.358 110.862,119.350 112.408,119.826 112.663 C 120.007 112.760,120.200 113.094,120.260 113.413 C 120.326 113.762,120.489 114.027,120.676 114.086 C 120.845 114.140,121.027 114.324,121.082 114.495 C 121.147 114.701,121.407 114.845,121.849 114.919 C 122.232 114.984,122.602 115.167,122.715 115.349 C 122.981 115.775,123.834 115.762,124.392 115.323 C 124.632 115.134,125.085 114.938,125.400 114.887 C 125.779 114.826,126.000 114.685,126.057 114.468 C 126.104 114.289,126.279 114.106,126.446 114.062 C 126.712 113.992,127.339 112.251,127.339 111.583 C 127.339 110.915,126.712 109.175,126.446 109.105 C 126.279 109.061,126.103 108.878,126.056 108.698 C 125.997 108.471,125.774 108.340,125.324 108.268 C 124.923 108.204,124.610 108.038,124.499 107.832 C 124.252 107.370,123.023 107.365,122.630 107.824 M287.930 107.818 C 287.772 107.993,287.441 108.187,287.196 108.249 C 286.951 108.310,286.394 108.736,285.958 109.195 L 285.167 110.029 285.167 111.670 C 285.167 113.164,285.196 113.320,285.500 113.417 C 285.683 113.475,285.833 113.611,285.833 113.720 C 285.833 114.045,286.707 114.767,287.362 114.982 C 287.698 115.093,288.064 115.292,288.174 115.425 C 288.284 115.558,288.581 115.667,288.833 115.667 C 289.086 115.667,289.383 115.558,289.493 115.425 C 289.603 115.292,289.969 115.093,290.305 114.982 C 290.960 114.767,291.833 114.045,291.833 113.720 C 291.833 113.611,291.983 113.475,292.167 113.417 C 292.470 113.320,292.500 113.164,292.500 111.670 L 292.500 110.029 291.708 109.195 C 291.273 108.736,290.716 108.310,290.471 108.249 C 290.225 108.187,289.895 107.993,289.736 107.818 C 289.552 107.615,289.227 107.500,288.833 107.500 C 288.440 107.500,288.115 107.615,287.930 107.818 M189.612 108.698 C 189.719 108.783,189.859 109.156,189.921 109.527 C 189.984 109.898,190.167 110.334,190.329 110.495 C 190.490 110.657,190.674 111.136,190.738 111.561 C 190.815 112.073,190.962 112.391,191.177 112.505 C 191.554 112.707,191.643 114.124,191.300 114.467 C 190.914 114.853,186.382 114.736,186.167 114.334 C 185.922 113.877,186.143 112.357,186.507 111.993 C 186.667 111.833,186.850 111.393,186.914 111.015 C 186.981 110.619,187.155 110.262,187.326 110.171 C 187.506 110.074,187.658 109.741,187.715 109.316 C 187.842 108.368,188.800 108.056,189.612 108.698 " stroke="none" fill="#2b2f30" fill-rule="evenodd"></path><path id="path1" d="" stroke="none" fill="#080404" fill-rule="evenodd"></path><path id="path2" d="" stroke="none" fill="#080404" fill-rule="evenodd"></path><path id="path3" d="" stroke="none" fill="#080404" fill-rule="evenodd"></path><path id="path4" d="" stroke="none" fill="#080404" fill-rule="evenodd"></path><path id="path5" d="" stroke="none" fill="#080404" fill-rule="evenodd"></path><path id="path6" d="" stroke="none" fill="#080404" fill-rule="evenodd"></path></g></svg>