<?xml version="1.0" standalone="no"?>
<!DOCTYPE svg PUBLIC "-//W3C//DTD SVG 20010904//EN"
 "http://www.w3.org/TR/2001/REC-SVG-20010904/DTD/svg10.dtd">
<svg version="1.0" xmlns="http://www.w3.org/2000/svg"
 width="200.000000pt" height="200.000000pt" viewBox="0 0 200.000000 200.000000"
 preserveAspectRatio="xMidYMid meet">

<g transform="translate(0.000000,200.000000) scale(0.100000,-0.100000)"
fill="#000000" stroke="none">
<path d="M712 1635 c-77 -24 -152 -84 -152 -121 0 -22 0 -22 57 -7 66 17 118
10 133 -17 18 -34 10 -153 -21 -300 -78 -370 -82 -429 -29 -482 23 -23 37 -28
77 -28 67 0 119 16 154 48 37 35 43 76 11 80 -46 7 -48 35 -16 275 37 283 38
412 5 481 -38 77 -117 103 -219 71z"/>
<path d="M1314 1640 c-106 -22 -254 -130 -254 -185 0 -32 9 -32 67 5 91 58
206 76 281 45 46 -20 105 -76 138 -133 14 -23 29 -40 34 -37 12 7 46 117 55
176 6 38 3 47 -17 66 -58 55 -203 85 -304 63z"/>
<path d="M1260 1451 c-53 -17 -91 -43 -118 -83 -23 -36 -27 -51 -27 -117 0
-91 18 -132 108 -254 90 -121 104 -172 57 -197 -39 -21 -96 20 -178 125 -22
27 -25 28 -36 13 -7 -10 -21 -52 -31 -93 -17 -72 -17 -77 0 -95 43 -48 231
-83 322 -61 106 27 159 90 170 205 10 107 -11 153 -161 371 -46 66 -48 72 -43
121 7 69 -5 82 -63 65z"/>
<path d="M661 1405 c-131 -142 -265 -432 -278 -602 -7 -89 2 -103 64 -103 79
0 86 9 79 103 -4 50 -1 107 6 147 l13 64 52 16 c61 17 96 44 91 68 -3 14 -14
17 -56 15 -51 -2 -53 -1 -47 20 11 37 103 226 125 256 11 16 20 36 20 45 0 28
-26 17 -69 -29z"/>
<path d="M144 1224 c-71 -74 -132 -141 -136 -147 -4 -7 -8 -28 -8 -47 1 -30
16 -53 101 -155 56 -66 107 -128 114 -139 8 -10 19 -15 25 -11 14 9 40 67 40
90 0 8 -40 59 -90 112 -49 54 -90 101 -90 104 0 3 47 52 105 108 93 90 105
105 105 135 0 40 -15 86 -28 86 -5 0 -67 -61 -138 -136z"/>
<path d="M1736 1310 c-9 -22 -16 -47 -16 -54 0 -8 41 -57 90 -109 50 -52 90
-99 90 -104 0 -4 -47 -52 -105 -106 -92 -86 -105 -102 -105 -131 0 -37 19 -98
29 -94 3 2 66 65 140 140 122 126 134 141 138 180 5 42 3 45 -106 178 -61 74
-117 136 -125 138 -8 2 -20 -14 -30 -38z"/>
</g>
</svg>
