<svg id="svg" version="1.1" xmlns="http://www.w3.org/2000/svg" xmlns:xlink="http://www.w3.org/1999/xlink" width="400" height="20.775805391190005" viewBox="0, 0, 400,20.775805391190005"><g id="svgg"><path id="path0" d="M230.506 1.968 C 227.388 5.789,223.497 8.419,219.250 9.576 C 216.791 10.245,212.945 10.388,210.083 9.916 C 209.167 9.765,208.042 9.607,207.583 9.566 L 206.750 9.492 205.754 10.954 C 199.966 19.454,190.808 21.403,180.184 16.395 C 177.949 15.342,178.277 15.384,176.970 15.980 C 171.975 18.255,167.356 18.274,162.896 16.038 C 159.886 14.530,158.736 13.701,156.621 11.514 C 155.727 10.590,154.925 9.833,154.837 9.833 C 154.750 9.833,154.357 9.942,153.964 10.074 C 153.215 10.327,152.514 10.508,150.583 10.948 C 148.339 11.459,142.605 11.257,141.925 10.643 C 141.838 10.564,141.635 10.500,141.473 10.500 C 140.406 10.500,137.049 8.262,135.627 6.602 C 134.333 5.091,134.604 5.075,132.626 6.785 C 124.166 14.101,115.961 13.760,106.705 5.708 C 105.962 5.062,105.600 4.846,105.455 4.961 C 103.962 6.149,99.806 7.769,97.417 8.095 C 91.684 8.877,87.339 7.850,81.171 4.252 C 79.503 3.279,79.379 3.249,79.095 3.754 C 77.101 7.303,74.471 9.411,71.062 10.192 C 69.683 10.509,63.537 10.467,61.750 10.130 C 60.219 9.841,60.198 9.845,59.744 10.494 C 57.020 14.383,50.753 18.982,47.218 19.684 C 44.782 20.168,39.884 19.801,38.083 18.999 C 37.900 18.917,37.202 18.623,36.532 18.345 C 35.106 17.754,32.088 15.793,30.392 14.355 L 29.200 13.346 28.225 13.810 C 27.689 14.066,26.800 14.446,26.250 14.654 C 25.700 14.862,25.100 15.092,24.917 15.164 C 24.603 15.287,23.724 15.543,22.583 15.843 C 16.766 17.371,11.328 16.593,6.750 13.576 C 5.090 12.483,2.738 10.092,1.165 7.902 C -0.023 6.247,0.000 6.131,-0.000 13.712 L -0.000 20.448 2.276 20.557 C 7.187 20.793,281.286 20.661,280.750 20.424 C 280.475 20.302,279.537 20.031,278.667 19.822 C 277.796 19.613,276.971 19.385,276.833 19.317 C 276.696 19.248,276.246 19.068,275.833 18.917 C 274.058 18.268,269.805 15.569,268.175 14.058 C 267.637 13.559,267.792 13.530,265.813 14.494 C 263.737 15.505,261.901 16.109,259.500 16.570 C 256.099 17.223,252.918 17.052,249.083 16.009 C 248.337 15.806,247.465 15.442,245.167 14.378 C 241.286 12.580,235.918 7.464,232.662 2.458 C 231.413 0.539,231.632 0.589,230.506 1.968 M318.033 3.700 C 317.923 3.810,317.833 3.963,317.833 4.040 C 317.833 4.528,315.721 6.971,314.455 7.949 C 312.033 9.819,307.325 11.147,304.473 10.764 C 303.984 10.698,303.021 10.581,302.333 10.503 C 301.646 10.426,300.558 10.240,299.917 10.090 L 298.750 9.817 298.167 10.459 C 297.846 10.813,297.133 11.688,296.583 12.405 C 295.417 13.925,291.914 17.245,290.635 18.044 C 289.191 18.944,287.838 19.515,286.083 19.966 C 283.330 20.673,280.901 20.634,328.750 20.645 C 367.838 20.654,373.695 20.624,373.333 20.417 C 373.104 20.286,372.679 20.176,372.388 20.173 C 369.908 20.145,364.752 17.272,361.235 13.959 L 360.554 13.317 359.207 13.909 C 357.638 14.599,355.397 15.350,353.746 15.740 C 353.107 15.891,352.246 16.102,351.833 16.210 C 349.184 16.900,343.427 16.309,340.703 15.068 C 340.219 14.847,339.777 14.667,339.719 14.667 C 338.795 14.667,334.234 10.648,332.898 8.656 C 331.901 7.170,332.217 7.283,329.161 7.321 C 326.635 7.352,324.983 7.191,323.917 6.807 C 322.001 6.119,320.611 5.371,319.420 4.389 C 318.204 3.386,318.300 3.433,318.033 3.700 M389.766 11.903 C 386.788 16.076,381.138 20.143,378.278 20.172 C 377.988 20.175,377.604 20.287,377.426 20.422 C 377.067 20.694,389.946 20.784,396.723 20.557 L 400.000 20.447 400.000 16.129 L 400.000 11.811 399.625 11.947 C 399.071 12.148,395.891 12.109,394.833 11.888 C 394.329 11.783,393.317 11.535,392.583 11.339 C 391.850 11.142,391.093 10.942,390.900 10.893 C 390.617 10.821,390.400 11.014,389.766 11.903 " stroke="none" fill="#0d9dbc" fill-rule="evenodd"></path><path id="path1" d="M0.000 3.312 L 0.000 6.625 0.477 6.720 C 0.821 6.789,1.111 7.061,1.519 7.698 C 2.507 9.241,4.656 11.583,6.010 12.592 C 12.045 17.085,20.065 17.347,28.397 13.322 C 29.280 12.895,29.067 12.805,31.189 14.496 C 33.944 16.691,37.412 18.591,39.276 18.928 C 39.628 18.992,40.041 19.108,40.194 19.187 C 41.185 19.697,45.842 19.661,47.750 19.127 C 49.250 18.707,53.147 16.651,53.667 16.005 C 53.712 15.948,54.237 15.530,54.833 15.077 C 55.429 14.624,56.254 13.881,56.667 13.425 C 57.079 12.970,57.867 12.103,58.417 11.498 C 58.967 10.894,59.593 10.188,59.808 9.930 C 60.159 9.509,60.270 9.472,60.891 9.570 C 64.861 10.198,70.339 10.173,72.042 9.518 C 75.184 8.309,77.997 5.749,78.886 3.288 C 79.130 2.612,79.367 2.704,83.208 4.960 C 84.457 5.694,86.761 6.672,88.167 7.066 C 90.732 7.784,91.257 7.854,94.094 7.857 C 98.627 7.861,99.930 7.495,105.083 4.767 C 105.749 4.414,105.834 4.426,106.421 4.959 C 107.654 6.077,111.315 8.833,111.567 8.833 C 111.596 8.833,112.151 9.125,112.799 9.481 C 117.028 11.806,122.015 12.233,126.000 10.613 C 128.520 9.589,129.699 8.825,132.541 6.376 C 134.687 4.527,134.415 4.552,135.672 6.090 C 138.736 9.839,143.676 11.548,149.173 10.762 C 150.771 10.533,151.336 10.406,153.338 9.819 C 155.011 9.329,154.999 9.324,156.708 11.100 C 162.472 17.086,169.659 18.768,176.546 15.740 C 178.167 15.027,178.167 15.027,179.858 15.815 C 185.019 18.217,188.923 19.038,192.962 18.569 C 195.710 18.250,196.147 18.134,198.167 17.187 C 201.218 15.758,203.986 13.168,206.242 9.631 C 206.616 9.044,206.892 8.971,208.000 9.169 C 218.113 10.974,225.506 8.300,231.017 0.846 C 231.442 0.271,231.790 0.189,231.953 0.625 C 232.013 0.785,232.547 1.629,233.140 2.500 C 241.913 15.394,253.853 19.716,265.500 14.214 C 266.462 13.759,267.362 13.348,267.500 13.300 C 267.642 13.250,268.109 13.510,268.583 13.903 C 270.197 15.240,271.929 16.464,273.083 17.083 C 273.725 17.427,274.328 17.770,274.422 17.845 C 274.754 18.107,277.936 19.282,279.171 19.598 C 280.862 20.031,284.628 20.039,286.083 19.613 C 288.792 18.821,290.667 17.757,292.852 15.774 C 294.870 13.942,294.989 13.812,296.972 11.292 C 298.476 9.379,298.463 9.384,300.595 9.808 C 308.201 11.322,313.945 9.414,317.238 4.281 C 318.211 2.765,318.113 2.787,319.305 3.817 C 322.061 6.199,325.374 7.169,330.001 6.948 L 332.109 6.847 333.140 8.334 C 338.667 16.309,349.172 18.358,359.323 13.439 C 360.432 12.901,360.553 12.899,361.126 13.396 C 361.378 13.614,362.183 14.312,362.917 14.947 C 364.423 16.253,366.252 17.500,367.346 17.970 C 367.751 18.144,368.421 18.440,368.833 18.627 C 372.216 20.161,378.862 20.467,380.583 19.167 C 380.675 19.097,380.937 18.983,381.164 18.913 C 382.970 18.358,387.399 14.523,389.430 11.757 C 390.350 10.504,390.661 10.367,391.784 10.717 C 393.343 11.203,396.575 11.865,397.417 11.871 C 397.866 11.874,399.631 11.542,399.836 11.415 C 399.938 11.352,400.000 9.193,400.000 5.657 L 400.000 0.000 200.000 0.000 L 0.000 0.000 0.000 3.312 " stroke="none" fill="#fbfcfc" fill-rule="evenodd"></path><path id="path2" d="M317.918 3.331 C 317.859 3.427,317.928 3.453,318.085 3.393 C 318.252 3.329,318.555 3.472,318.885 3.770 L 319.417 4.250 318.927 3.708 C 318.429 3.157,318.101 3.035,317.918 3.331 M227.583 4.772 L 226.583 5.702 227.625 4.834 C 228.531 4.080,228.790 3.821,228.625 3.837 C 228.602 3.840,228.133 4.260,227.583 4.772 M317.000 4.833 C 316.804 5.108,316.681 5.333,316.727 5.333 C 316.773 5.333,316.971 5.108,317.167 4.833 C 317.362 4.558,317.485 4.333,317.439 4.333 C 317.394 4.333,317.196 4.558,317.000 4.833 M320.251 4.834 C 320.362 5.015,321.333 5.556,321.333 5.437 C 321.333 5.398,321.066 5.209,320.740 5.016 C 320.414 4.824,320.193 4.742,320.251 4.834 M225.917 6.098 L 225.417 6.528 225.958 6.169 C 226.256 5.972,226.500 5.778,226.500 5.739 C 226.500 5.614,226.429 5.657,225.917 6.098 M76.410 7.042 L 75.583 7.917 76.458 7.090 C 76.940 6.635,77.333 6.241,77.333 6.215 C 77.333 6.090,77.179 6.229,76.410 7.042 M236.250 7.000 C 236.608 7.367,236.938 7.667,236.984 7.667 C 237.030 7.667,236.775 7.367,236.417 7.000 C 236.059 6.633,235.728 6.333,235.682 6.333 C 235.637 6.333,235.892 6.633,236.250 7.000 M0.667 7.023 C 0.804 7.148,1.025 7.362,1.156 7.500 C 1.342 7.694,1.339 7.658,1.142 7.342 C 1.002 7.118,0.782 6.903,0.652 6.865 C 0.463 6.809,0.465 6.839,0.667 7.023 M87.083 7.000 C 87.267 7.079,87.529 7.143,87.667 7.143 C 87.824 7.143,87.793 7.090,87.583 7.000 C 87.400 6.921,87.138 6.857,87.000 6.857 C 86.842 6.857,86.873 6.910,87.083 7.000 M131.573 7.375 L 131.083 7.917 131.625 7.427 C 131.923 7.158,132.167 6.914,132.167 6.885 C 132.167 6.757,132.029 6.870,131.573 7.375 M330.125 7.118 C 330.331 7.157,330.669 7.157,330.875 7.118 C 331.081 7.078,330.912 7.045,330.500 7.045 C 330.087 7.045,329.919 7.078,330.125 7.118 M314.167 7.854 C 313.586 8.363,313.586 8.364,314.120 8.008 C 314.415 7.812,314.701 7.580,314.755 7.492 C 314.916 7.232,314.782 7.314,314.167 7.854 M96.708 7.948 C 96.869 7.990,97.131 7.990,97.292 7.948 C 97.452 7.906,97.321 7.872,97.000 7.872 C 96.679 7.872,96.548 7.906,96.708 7.948 M92.711 8.120 C 92.964 8.158,93.339 8.157,93.544 8.117 C 93.749 8.078,93.542 8.046,93.083 8.048 C 92.625 8.049,92.457 8.081,92.711 8.120 M94.708 8.119 C 94.960 8.158,95.373 8.158,95.625 8.119 C 95.877 8.081,95.671 8.050,95.167 8.050 C 94.662 8.050,94.456 8.081,94.708 8.119 M238.583 9.333 C 239.128 9.883,239.610 10.333,239.656 10.333 C 239.702 10.333,239.294 9.883,238.750 9.333 C 238.206 8.783,237.723 8.333,237.677 8.333 C 237.631 8.333,238.039 8.783,238.583 9.333 M73.333 9.083 C 73.104 9.214,72.992 9.322,73.083 9.322 C 73.175 9.322,73.438 9.214,73.667 9.083 C 73.896 8.952,74.008 8.845,73.917 8.845 C 73.825 8.845,73.563 8.952,73.333 9.083 M2.167 9.052 C 2.167 9.081,2.410 9.325,2.708 9.594 L 3.250 10.083 2.760 9.542 C 2.304 9.037,2.167 8.923,2.167 9.052 M139.167 9.241 C 139.167 9.287,139.392 9.441,139.667 9.583 C 139.942 9.726,140.167 9.804,140.167 9.759 C 140.167 9.713,139.942 9.559,139.667 9.417 C 139.392 9.274,139.167 9.196,139.167 9.241 M206.607 9.295 C 206.564 9.365,206.822 9.395,207.181 9.361 C 207.540 9.326,207.833 9.269,207.833 9.232 C 207.833 9.108,206.686 9.167,206.607 9.295 M334.167 10.083 C 334.478 10.404,334.770 10.667,334.815 10.667 C 334.861 10.667,334.644 10.404,334.333 10.083 C 334.022 9.762,333.730 9.500,333.685 9.500 C 333.639 9.500,333.856 9.762,334.167 10.083 M127.333 10.167 C 126.829 10.433,126.475 10.654,126.547 10.659 C 126.724 10.669,128.333 9.848,128.333 9.747 C 128.333 9.636,128.356 9.626,127.333 10.167 M211.375 9.948 C 211.535 9.990,211.798 9.990,211.958 9.948 C 212.119 9.906,211.987 9.872,211.667 9.872 C 211.346 9.872,211.215 9.906,211.375 9.948 M215.627 9.951 C 215.834 9.991,216.134 9.990,216.294 9.948 C 216.453 9.906,216.283 9.874,215.917 9.875 C 215.550 9.877,215.420 9.911,215.627 9.951 M65.798 10.290 C 66.375 10.323,67.275 10.323,67.798 10.290 C 68.322 10.257,67.850 10.230,66.750 10.230 C 65.650 10.231,65.222 10.258,65.798 10.290 M301.708 10.282 C 301.869 10.323,302.131 10.323,302.292 10.282 C 302.452 10.240,302.321 10.205,302.000 10.205 C 301.679 10.205,301.548 10.240,301.708 10.282 M4.333 11.417 C 4.924 12.012,5.445 12.500,5.490 12.500 C 5.536 12.500,5.091 12.012,4.500 11.417 C 3.909 10.821,3.389 10.333,3.343 10.333 C 3.297 10.333,3.743 10.821,4.333 11.417 M303.375 10.448 C 303.535 10.490,303.798 10.490,303.958 10.448 C 304.119 10.406,303.987 10.372,303.667 10.372 C 303.346 10.372,303.215 10.406,303.375 10.448 M306.625 10.451 C 306.831 10.491,307.169 10.491,307.375 10.451 C 307.581 10.411,307.412 10.379,307.000 10.379 C 306.587 10.379,306.419 10.411,306.625 10.451 M157.083 11.833 C 157.628 12.383,158.110 12.833,158.156 12.833 C 158.202 12.833,157.794 12.383,157.250 11.833 C 156.706 11.283,156.223 10.833,156.177 10.833 C 156.131 10.833,156.539 11.283,157.083 11.833 M145.548 11.123 C 146.078 11.157,146.903 11.156,147.381 11.123 C 147.859 11.089,147.425 11.062,146.417 11.062 C 145.408 11.063,145.017 11.090,145.548 11.123 M335.833 11.750 C 336.144 12.071,336.436 12.333,336.482 12.333 C 336.528 12.333,336.311 12.071,336.000 11.750 C 335.689 11.429,335.397 11.167,335.351 11.167 C 335.305 11.167,335.522 11.429,335.833 11.750 M58.240 11.875 L 57.750 12.417 58.292 11.927 C 58.797 11.471,58.910 11.333,58.781 11.333 C 58.752 11.333,58.509 11.577,58.240 11.875 M120.132 11.790 C 120.708 11.823,121.608 11.823,122.132 11.790 C 122.655 11.757,122.183 11.730,121.083 11.730 C 119.983 11.731,119.555 11.758,120.132 11.790 M295.740 13.042 L 295.250 13.583 295.792 13.094 C 296.297 12.638,296.410 12.500,296.281 12.500 C 296.252 12.500,296.009 12.744,295.740 13.042 M56.575 13.708 L 55.917 14.417 56.625 13.758 C 57.015 13.395,57.333 13.077,57.333 13.050 C 57.333 12.923,57.188 13.050,56.575 13.708 M387.573 14.208 L 387.083 14.750 387.625 14.260 C 388.130 13.804,388.243 13.667,388.115 13.667 C 388.086 13.667,387.842 13.910,387.573 14.208 M265.667 14.250 C 265.254 14.471,264.992 14.652,265.083 14.652 C 265.175 14.652,265.587 14.471,266.000 14.250 C 266.412 14.029,266.675 13.848,266.583 13.848 C 266.492 13.848,266.079 14.029,265.667 14.250 M161.167 14.908 C 161.167 14.954,161.392 15.108,161.667 15.250 C 161.942 15.392,162.167 15.471,162.167 15.425 C 162.167 15.379,161.942 15.226,161.667 15.083 C 161.392 14.941,161.167 14.862,161.167 14.908 M386.158 15.625 L 385.583 16.250 386.208 15.676 C 386.790 15.141,386.910 15.000,386.783 15.000 C 386.755 15.000,386.474 15.281,386.158 15.625 M177.776 15.292 C 177.733 15.360,177.909 15.417,178.167 15.417 C 178.424 15.417,178.600 15.360,178.558 15.292 C 178.515 15.223,178.339 15.167,178.167 15.167 C 177.994 15.167,177.818 15.223,177.776 15.292 M363.167 15.385 C 363.167 15.414,363.410 15.658,363.708 15.927 L 364.250 16.417 363.760 15.875 C 363.304 15.370,363.167 15.257,363.167 15.385 M292.500 16.250 C 292.095 16.662,291.801 17.000,291.847 17.000 C 291.893 17.000,292.262 16.662,292.667 16.250 C 293.072 15.838,293.365 15.500,293.319 15.500 C 293.274 15.500,292.905 15.838,292.500 16.250 M18.711 16.286 C 18.964 16.325,19.339 16.324,19.544 16.284 C 19.749 16.244,19.542 16.213,19.083 16.214 C 18.625 16.216,18.457 16.248,18.711 16.286 M346.208 16.288 C 346.552 16.324,347.115 16.324,347.458 16.288 C 347.802 16.252,347.521 16.223,346.833 16.223 C 346.146 16.223,345.865 16.252,346.208 16.288 M348.877 16.286 C 349.131 16.325,349.506 16.324,349.711 16.284 C 349.916 16.244,349.708 16.213,349.250 16.214 C 348.792 16.216,348.624 16.248,348.877 16.286 M16.292 16.451 C 16.498 16.491,16.835 16.491,17.042 16.451 C 17.248 16.411,17.079 16.379,16.667 16.379 C 16.254 16.379,16.085 16.411,16.292 16.451 M252.708 16.615 C 252.869 16.657,253.131 16.657,253.292 16.615 C 253.452 16.573,253.321 16.539,253.000 16.539 C 252.679 16.539,252.548 16.573,252.708 16.615 M257.458 16.618 C 257.665 16.657,258.002 16.657,258.208 16.618 C 258.415 16.578,258.246 16.545,257.833 16.545 C 257.421 16.545,257.252 16.578,257.458 16.618 M254.955 16.787 C 255.250 16.824,255.775 16.824,256.121 16.788 C 256.467 16.752,256.225 16.722,255.583 16.721 C 254.942 16.721,254.659 16.750,254.955 16.787 M291.000 17.520 C 290.419 18.030,290.419 18.030,290.953 17.675 C 291.248 17.478,291.534 17.246,291.588 17.159 C 291.749 16.899,291.616 16.981,291.000 17.520 M168.964 17.456 C 169.448 17.490,170.198 17.490,170.631 17.456 C 171.063 17.421,170.667 17.394,169.750 17.394 C 168.833 17.395,168.480 17.423,168.964 17.456 M185.250 18.167 C 185.433 18.245,185.696 18.310,185.833 18.310 C 185.991 18.310,185.960 18.257,185.750 18.167 C 185.567 18.088,185.304 18.023,185.167 18.023 C 185.009 18.023,185.040 18.076,185.250 18.167 M49.333 18.667 C 49.012 18.842,48.825 18.986,48.917 18.986 C 49.008 18.986,49.346 18.842,49.667 18.667 C 49.987 18.491,50.175 18.347,50.083 18.347 C 49.992 18.347,49.654 18.491,49.333 18.667 M188.208 18.782 C 188.369 18.823,188.631 18.823,188.792 18.782 C 188.952 18.740,188.821 18.705,188.500 18.705 C 188.179 18.705,188.048 18.740,188.208 18.782 M193.208 18.782 C 193.369 18.823,193.631 18.823,193.792 18.782 C 193.952 18.740,193.821 18.705,193.500 18.705 C 193.179 18.705,193.048 18.740,193.208 18.782 M190.292 18.955 C 190.681 18.990,191.319 18.990,191.708 18.955 C 192.098 18.920,191.779 18.892,191.000 18.892 C 190.221 18.892,189.902 18.920,190.292 18.955 M381.083 19.089 C 380.665 19.291,380.651 19.314,381.000 19.230 C 381.229 19.174,381.488 19.063,381.575 18.981 C 381.791 18.779,381.672 18.805,381.083 19.089 M43.131 19.790 C 43.615 19.824,44.365 19.823,44.797 19.789 C 45.230 19.755,44.833 19.727,43.917 19.728 C 43.000 19.728,42.646 19.756,43.131 19.790 M284.294 20.118 C 284.501 20.158,284.801 20.156,284.960 20.115 C 285.120 20.073,284.950 20.040,284.583 20.042 C 284.217 20.044,284.086 20.078,284.294 20.118 M282.377 20.286 C 282.631 20.325,283.006 20.324,283.211 20.284 C 283.416 20.244,283.208 20.213,282.750 20.214 C 282.292 20.216,282.124 20.248,282.377 20.286 M374.708 20.289 C 375.144 20.324,375.856 20.324,376.292 20.289 C 376.727 20.255,376.371 20.227,375.500 20.227 C 374.629 20.227,374.273 20.255,374.708 20.289 " stroke="none" fill="#99d6e3" fill-rule="evenodd"></path><path id="path3" d="M229.828 2.514 C 227.472 5.213,225.281 6.911,222.542 8.158 C 222.061 8.377,221.700 8.589,221.739 8.628 C 221.871 8.759,224.491 7.359,225.777 6.470 C 227.207 5.482,229.142 3.639,230.506 1.968 C 231.632 0.589,231.413 0.539,232.662 2.458 C 235.918 7.464,241.286 12.580,245.167 14.378 C 247.691 15.547,248.816 16.003,249.145 15.988 C 249.295 15.981,249.042 15.841,248.583 15.677 C 242.680 13.562,237.345 9.105,233.001 2.659 L 231.564 0.526 229.828 2.514 M78.816 3.875 C 77.996 5.502,76.729 7.002,75.075 8.303 L 74.583 8.689 75.167 8.353 C 76.332 7.681,77.957 5.779,79.095 3.754 C 79.379 3.249,79.503 3.279,81.171 4.252 C 84.294 6.073,87.954 7.699,88.833 7.654 C 88.971 7.647,88.408 7.418,87.583 7.144 C 85.797 6.553,83.712 5.557,81.368 4.177 C 79.326 2.974,79.274 2.968,78.816 3.875 M317.494 4.292 C 315.858 7.204,311.975 9.814,308.522 10.321 C 307.646 10.450,307.629 10.461,308.270 10.480 C 310.222 10.537,314.218 8.535,315.923 6.645 C 316.629 5.863,317.833 4.212,317.833 4.028 C 317.833 3.394,318.354 3.509,319.405 4.377 C 320.610 5.371,321.994 6.116,323.917 6.807 C 324.983 7.191,326.635 7.352,329.161 7.321 C 332.217 7.283,331.901 7.170,332.898 8.656 C 334.547 11.114,339.991 15.565,340.601 14.954 C 340.643 14.912,340.431 14.778,340.130 14.657 C 337.859 13.736,334.703 10.996,332.849 8.333 L 331.978 7.083 329.527 7.142 C 324.934 7.252,322.196 6.452,319.374 4.175 C 318.086 3.135,318.145 3.131,317.494 4.292 M103.750 5.700 C 102.742 6.254,101.581 6.824,101.170 6.966 C 100.759 7.108,100.518 7.256,100.633 7.294 C 100.843 7.364,103.355 6.183,104.888 5.294 L 105.692 4.827 106.721 5.722 C 110.742 9.220,115.911 11.855,118.667 11.812 C 119.021 11.807,118.730 11.710,117.926 11.564 C 114.583 10.961,110.984 9.062,107.250 5.933 C 106.425 5.242,105.712 4.680,105.667 4.684 C 105.621 4.688,104.758 5.146,103.750 5.700 M134.167 5.133 C 134.167 5.319,131.505 7.585,130.000 8.681 C 128.026 10.118,126.373 10.906,124.083 11.501 C 123.416 11.675,123.107 11.811,123.362 11.819 C 125.253 11.880,129.241 9.713,132.626 6.785 C 134.604 5.075,134.333 5.091,135.627 6.602 C 137.047 8.259,140.422 10.511,141.465 10.496 C 141.622 10.494,141.329 10.319,140.815 10.108 C 138.792 9.275,136.953 7.944,135.581 6.319 C 134.562 5.111,134.167 4.780,134.167 5.133 M0.291 7.005 C 0.497 7.088,0.910 7.510,1.208 7.942 C 3.025 10.579,6.800 14.051,8.456 14.608 C 8.618 14.662,7.951 14.175,6.974 13.524 C 5.083 12.265,2.945 10.142,1.547 8.133 C 0.784 7.036,0.566 6.834,0.167 6.846 C 0.027 6.851,0.082 6.921,0.291 7.005 M89.363 7.743 C 89.999 8.426,98.675 8.424,99.305 7.741 C 99.366 7.675,99.079 7.672,98.667 7.736 C 95.054 8.294,92.877 8.296,89.917 7.746 C 89.550 7.678,89.301 7.677,89.363 7.743 M73.037 9.310 C 72.278 9.642,71.724 9.936,71.806 9.963 C 71.980 10.021,74.500 8.896,74.500 8.759 C 74.500 8.708,74.481 8.676,74.458 8.686 C 74.435 8.697,73.796 8.978,73.037 9.310 M220.102 9.111 C 217.600 10.010,213.378 10.275,210.083 9.741 C 206.927 9.229,206.772 9.230,206.423 9.774 C 203.485 14.360,199.418 17.517,195.167 18.511 C 194.479 18.672,194.104 18.809,194.333 18.816 C 197.356 18.912,202.790 15.223,205.583 11.180 L 206.750 9.491 207.583 9.566 C 208.042 9.607,209.167 9.765,210.083 9.916 C 213.868 10.541,220.327 9.895,221.441 8.781 C 221.624 8.599,221.327 8.672,220.102 9.111 M59.186 10.919 C 54.982 15.918,50.367 19.072,46.411 19.648 C 45.794 19.738,45.619 19.800,45.950 19.813 C 49.405 19.945,55.233 15.980,59.954 10.287 C 60.257 9.922,60.426 9.855,60.871 9.923 C 61.301 9.989,61.346 9.973,61.083 9.848 C 60.452 9.549,60.237 9.670,59.186 10.919 M154.167 9.846 C 153.980 9.976,154.051 9.994,154.446 9.916 C 154.945 9.818,155.070 9.910,156.611 11.503 C 158.182 13.127,159.509 14.206,160.922 15.006 C 163.206 16.299,165.693 17.349,166.401 17.318 C 166.593 17.310,166.412 17.209,166.000 17.094 C 162.658 16.158,159.442 14.178,156.740 11.394 C 155.091 9.695,154.711 9.466,154.167 9.846 M297.469 11.041 C 295.036 14.236,291.795 17.303,289.684 18.406 C 288.895 18.818,288.348 19.158,288.467 19.161 C 289.611 19.190,294.410 15.200,296.543 12.447 C 297.115 11.709,297.846 10.817,298.167 10.465 L 298.750 9.824 300.250 10.159 C 301.075 10.342,302.087 10.484,302.500 10.474 C 303.208 10.455,303.193 10.447,302.250 10.331 C 301.700 10.263,300.688 10.086,300.000 9.937 C 299.313 9.788,298.697 9.667,298.632 9.667 C 298.568 9.667,298.044 10.285,297.469 11.041 M62.250 10.200 C 63.385 10.437,70.070 10.452,70.917 10.219 C 71.480 10.064,71.364 10.052,70.167 10.143 C 68.332 10.282,65.190 10.280,63.083 10.138 C 61.703 10.045,61.560 10.056,62.250 10.200 M152.750 10.268 L 152.083 10.501 152.750 10.402 C 153.444 10.299,154.172 9.997,153.667 10.023 C 153.529 10.029,153.117 10.140,152.750 10.268 M141.917 10.619 C 142.480 11.185,148.904 11.487,150.250 11.010 C 150.726 10.842,150.718 10.837,150.083 10.919 C 147.166 11.292,143.692 11.134,142.041 10.553 C 141.846 10.485,141.805 10.506,141.917 10.619 M151.167 10.667 L 150.750 10.800 151.167 10.814 C 151.396 10.822,151.696 10.756,151.833 10.667 C 152.152 10.461,151.809 10.461,151.167 10.667 M303.750 10.667 C 304.429 10.839,306.103 10.845,306.917 10.676 C 307.399 10.576,306.985 10.538,305.417 10.539 C 304.093 10.539,303.445 10.589,303.750 10.667 M389.563 11.939 C 387.730 14.378,384.826 17.058,382.536 18.422 C 381.961 18.765,381.525 19.080,381.568 19.123 C 381.656 19.212,383.991 17.672,385.250 16.696 C 386.382 15.817,388.810 13.242,389.755 11.918 C 390.598 10.736,390.610 10.731,391.583 11.070 C 391.950 11.198,392.550 11.346,392.917 11.399 C 393.493 11.483,392.120 11.023,390.896 10.723 C 390.607 10.652,390.361 10.877,389.563 11.939 M393.833 11.667 C 393.971 11.756,394.271 11.822,394.500 11.814 L 394.917 11.800 394.500 11.667 C 393.858 11.461,393.515 11.461,393.833 11.667 M399.636 11.753 C 399.589 11.800,399.107 11.904,398.567 11.983 C 397.610 12.122,397.603 12.126,398.333 12.139 C 398.966 12.150,400.436 11.720,399.903 11.680 C 399.803 11.673,399.683 11.705,399.636 11.753 M120.461 11.954 C 120.761 11.991,121.211 11.990,121.461 11.952 C 121.712 11.914,121.467 11.884,120.917 11.885 C 120.367 11.886,120.162 11.917,120.461 11.954 M395.500 11.991 C 395.911 12.132,397.288 12.225,397.153 12.104 C 397.115 12.070,396.633 11.998,396.083 11.946 C 395.436 11.883,395.230 11.899,395.500 11.991 M28.305 13.588 C 27.590 13.960,25.513 14.770,23.667 15.396 C 23.254 15.536,23.024 15.654,23.155 15.659 C 23.381 15.666,24.192 15.437,24.917 15.160 C 25.100 15.090,25.700 14.862,26.250 14.654 C 26.800 14.446,27.689 14.066,28.225 13.810 L 29.200 13.346 30.392 14.355 C 32.088 15.793,35.106 17.754,36.532 18.345 C 37.202 18.623,37.900 18.918,38.083 19.000 C 38.761 19.304,41.466 19.858,41.933 19.788 C 42.403 19.719,42.401 19.716,41.861 19.692 C 38.698 19.549,33.744 17.102,30.107 13.883 C 29.165 13.049,29.297 13.071,28.305 13.588 M359.404 13.651 C 358.177 14.219,354.620 15.399,353.264 15.688 C 352.722 15.804,352.366 15.928,352.473 15.963 C 352.935 16.117,357.015 14.873,359.207 13.909 L 360.554 13.317 361.235 13.959 C 363.527 16.118,365.634 17.623,367.687 18.567 C 369.411 19.360,371.777 20.170,372.305 20.148 C 372.642 20.135,372.588 20.097,372.083 19.995 C 369.085 19.389,365.329 17.369,362.383 14.778 C 360.311 12.956,360.639 13.080,359.404 13.651 M266.333 14.083 C 265.737 14.395,265.308 14.654,265.380 14.659 C 265.451 14.663,265.955 14.442,266.500 14.167 C 267.689 13.566,267.648 13.569,268.175 14.058 C 270.116 15.857,275.620 19.208,276.546 19.155 C 276.658 19.148,276.422 18.998,276.022 18.820 C 273.593 17.742,272.122 16.883,270.167 15.402 C 269.296 14.743,268.418 14.045,268.215 13.852 C 267.737 13.395,267.620 13.410,266.333 14.083 M8.925 14.812 C 9.167 15.035,11.783 16.001,12.120 15.992 C 12.283 15.987,11.817 15.777,11.083 15.524 C 10.350 15.271,9.586 14.975,9.386 14.865 C 8.960 14.633,8.697 14.603,8.925 14.812 M264.793 14.762 C 264.741 14.815,264.259 15.045,263.724 15.273 C 263.188 15.502,262.972 15.640,263.244 15.582 C 263.799 15.463,265.167 14.868,265.167 14.746 C 265.167 14.635,264.909 14.647,264.793 14.762 M340.925 15.146 C 341.177 15.378,343.130 16.002,343.542 15.982 C 343.748 15.971,343.542 15.867,343.083 15.750 C 342.625 15.633,341.971 15.416,341.630 15.269 C 340.941 14.970,340.686 14.925,340.925 15.146 M177.356 15.605 C 177.047 15.740,176.831 15.887,176.877 15.932 C 176.922 15.977,177.227 15.886,177.556 15.730 L 178.153 15.445 180.035 16.332 C 182.843 17.655,187.192 19.019,187.875 18.792 C 187.975 18.758,187.501 18.629,186.820 18.504 C 185.166 18.201,182.280 17.203,180.081 16.173 C 178.105 15.248,178.152 15.258,177.356 15.605 M22.083 15.833 L 21.750 15.977 22.083 15.986 C 22.267 15.991,22.529 15.922,22.667 15.833 C 22.998 15.619,22.582 15.619,22.083 15.833 M261.917 15.833 L 261.583 15.977 261.917 15.986 C 262.100 15.991,262.362 15.922,262.500 15.833 C 262.831 15.619,262.415 15.619,261.917 15.833 M12.750 16.162 C 13.068 16.303,14.131 16.399,13.986 16.273 C 13.948 16.240,13.579 16.168,13.167 16.114 C 12.666 16.048,12.527 16.064,12.750 16.162 M20.250 16.167 L 19.750 16.294 20.250 16.302 C 20.525 16.306,20.900 16.245,21.083 16.167 L 21.417 16.023 21.083 16.031 C 20.900 16.036,20.525 16.097,20.250 16.167 M175.833 16.291 C 175.512 16.437,174.688 16.727,174.000 16.936 C 173.313 17.145,172.891 17.319,173.064 17.324 C 173.441 17.335,176.351 16.362,176.575 16.150 C 176.809 15.928,176.509 15.986,175.833 16.291 M249.667 16.167 C 249.804 16.256,250.067 16.324,250.250 16.319 L 250.583 16.310 250.250 16.167 C 249.752 15.953,249.335 15.953,249.667 16.167 M260.667 16.167 L 260.250 16.300 260.667 16.314 C 260.896 16.322,261.196 16.256,261.333 16.167 C 261.652 15.961,261.309 15.961,260.667 16.167 M344.250 16.158 C 344.567 16.302,345.799 16.402,345.653 16.271 C 345.615 16.237,345.208 16.164,344.750 16.108 C 344.189 16.040,344.026 16.056,344.250 16.158 M350.750 16.167 L 349.917 16.281 350.750 16.295 C 351.208 16.303,351.733 16.245,351.917 16.167 L 352.250 16.023 351.917 16.038 C 351.733 16.046,351.208 16.104,350.750 16.167 M15.313 16.543 C 15.991 16.621,17.223 16.620,18.063 16.541 C 19.499 16.405,19.430 16.397,16.833 16.399 C 14.466 16.401,14.254 16.421,15.313 16.543 M251.068 16.492 C 252.777 17.055,258.044 17.060,259.750 16.501 L 260.250 16.337 259.667 16.411 C 256.058 16.868,254.183 16.870,251.152 16.418 C 250.596 16.335,250.594 16.337,251.068 16.492 M347.125 16.456 C 347.606 16.490,348.394 16.490,348.875 16.456 C 349.356 16.423,348.962 16.395,348.000 16.395 C 347.037 16.395,346.644 16.423,347.125 16.456 M167.434 17.532 C 167.791 17.596,168.833 17.647,169.750 17.647 C 170.667 17.647,171.709 17.596,172.066 17.532 C 172.423 17.469,171.381 17.417,169.750 17.417 C 168.119 17.417,167.077 17.469,167.434 17.532 M188.833 19.028 C 189.246 19.091,190.221 19.142,191.000 19.142 C 191.779 19.142,192.754 19.091,193.167 19.028 C 193.596 18.963,192.669 18.914,191.000 18.914 C 189.331 18.914,188.404 18.963,188.833 19.028 M276.917 19.292 C 277.100 19.471,278.668 19.887,278.771 19.784 C 278.827 19.728,278.333 19.563,277.083 19.221 C 276.865 19.161,276.807 19.185,276.917 19.292 M287.083 19.508 C 286.625 19.679,286.362 19.821,286.500 19.824 C 286.800 19.829,287.947 19.442,288.108 19.281 C 288.286 19.103,287.989 19.169,287.083 19.508 M380.667 19.358 C 380.438 19.452,379.725 19.668,379.083 19.838 C 378.442 20.009,378.110 20.152,378.346 20.157 C 378.744 20.166,381.116 19.439,381.305 19.251 C 381.437 19.119,381.123 19.171,380.667 19.358 M43.625 19.954 C 43.923 19.991,44.410 19.991,44.708 19.954 C 45.006 19.917,44.762 19.887,44.167 19.887 C 43.571 19.887,43.327 19.917,43.625 19.954 M279.250 20.000 C 279.433 20.079,279.771 20.141,280.000 20.138 L 280.417 20.133 280.000 20.000 C 279.771 19.927,279.433 19.864,279.250 19.862 L 278.917 19.857 279.250 20.000 M285.417 20.000 L 285.083 20.143 285.417 20.152 C 285.600 20.157,285.862 20.089,286.000 20.000 C 286.331 19.786,285.915 19.786,285.417 20.000 M280.856 20.436 C 281.354 20.713,283.554 20.712,284.318 20.436 C 284.821 20.254,284.629 20.230,282.674 20.224 C 280.763 20.219,280.516 20.248,280.856 20.436 M373.386 20.452 C 373.884 20.730,377.011 20.734,377.387 20.458 C 377.620 20.288,377.248 20.250,375.347 20.250 C 373.434 20.250,373.086 20.286,373.386 20.452 M0.708 20.623 C 1.144 20.657,1.856 20.657,2.292 20.623 C 2.727 20.588,2.371 20.560,1.500 20.560 C 0.629 20.560,0.273 20.588,0.708 20.623 M396.708 20.624 C 397.327 20.656,398.340 20.656,398.958 20.624 C 399.577 20.592,399.071 20.565,397.833 20.565 C 396.596 20.565,396.090 20.592,396.708 20.624 " stroke="none" fill="#5ebfd3" fill-rule="evenodd"></path><path id="path4" d="M231.023 0.870 L 230.642 1.417 231.063 0.958 C 231.508 0.474,231.751 0.390,231.890 0.671 C 231.937 0.765,231.956 0.746,231.932 0.629 C 231.848 0.212,231.398 0.331,231.023 0.870 M232.744 2.125 C 233.001 2.515,233.243 2.833,233.282 2.833 C 233.402 2.833,232.764 1.819,232.513 1.612 C 232.383 1.505,232.487 1.735,232.744 2.125 M229.406 2.708 L 228.917 3.250 229.458 2.760 C 229.963 2.304,230.077 2.167,229.948 2.167 C 229.919 2.167,229.675 2.410,229.406 2.708 M79.033 3.033 C 78.923 3.143,78.833 3.308,78.833 3.399 C 78.833 3.489,78.938 3.421,79.065 3.247 C 79.268 2.970,79.357 2.956,79.773 3.134 C 80.213 3.323,80.225 3.319,79.926 3.086 C 79.536 2.781,79.299 2.767,79.033 3.033 M233.833 3.750 C 234.117 4.162,234.387 4.500,234.433 4.500 C 234.479 4.500,234.284 4.162,234.000 3.750 C 233.716 3.337,233.446 3.000,233.401 3.000 C 233.355 3.000,233.550 3.337,233.833 3.750 M317.918 3.165 C 317.859 3.261,317.929 3.286,318.086 3.226 C 318.255 3.161,318.554 3.304,318.886 3.608 C 319.178 3.875,319.568 4.204,319.754 4.338 C 319.939 4.473,319.714 4.230,319.254 3.799 C 318.409 3.008,318.104 2.863,317.918 3.165 M80.333 3.410 C 80.333 3.456,80.633 3.646,81.000 3.833 C 81.367 4.020,81.667 4.136,81.667 4.090 C 81.667 4.044,81.367 3.854,81.000 3.667 C 80.633 3.480,80.333 3.364,80.333 3.410 M228.174 4.056 L 227.599 4.750 228.299 4.091 C 228.685 3.729,229.000 3.410,229.000 3.383 C 229.000 3.191,228.664 3.465,228.174 4.056 M78.073 4.708 C 77.214 6.103,76.144 7.226,74.835 8.106 C 74.240 8.506,73.813 8.833,73.886 8.833 C 74.750 8.833,77.677 5.888,78.648 4.042 C 79.040 3.295,78.700 3.690,78.073 4.708 M317.229 4.292 C 316.736 4.969,316.584 5.313,316.990 4.833 C 317.366 4.389,317.716 3.833,317.621 3.833 C 317.589 3.833,317.413 4.040,317.229 4.292 M105.667 4.617 C 105.804 4.667,106.123 4.900,106.375 5.135 C 106.627 5.370,106.833 5.507,106.833 5.440 C 106.833 5.226,105.927 4.510,105.667 4.518 C 105.444 4.525,105.444 4.536,105.667 4.617 M226.667 5.362 C 226.230 5.758,226.125 5.902,226.417 5.706 C 226.877 5.396,227.641 4.657,227.484 4.674 C 227.447 4.678,227.079 4.987,226.667 5.362 M234.906 5.221 C 235.163 5.558,235.407 5.833,235.448 5.833 C 235.564 5.833,234.842 4.858,234.629 4.727 C 234.525 4.662,234.650 4.885,234.906 5.221 M133.658 5.458 L 133.083 6.083 133.675 5.542 C 134.432 4.847,134.448 4.850,135.309 5.790 L 136.034 6.583 135.335 5.708 C 134.502 4.665,134.400 4.650,133.658 5.458 M103.625 5.511 C 103.281 5.693,103.000 5.879,103.000 5.924 C 103.000 5.970,103.300 5.854,103.667 5.667 C 104.033 5.480,104.333 5.291,104.333 5.247 C 104.333 5.138,104.332 5.138,103.625 5.511 M107.000 5.549 C 107.000 5.592,107.353 5.916,107.784 6.269 C 108.215 6.622,108.514 6.824,108.448 6.718 C 108.308 6.491,107.000 5.436,107.000 5.549 M85.500 6.250 C 85.729 6.381,85.992 6.488,86.083 6.488 C 86.175 6.488,86.063 6.381,85.833 6.250 C 85.604 6.119,85.342 6.012,85.250 6.012 C 85.158 6.012,85.271 6.119,85.500 6.250 M102.240 6.245 C 102.062 6.379,101.992 6.489,102.083 6.489 C 102.175 6.489,102.396 6.379,102.574 6.245 C 102.751 6.110,102.822 6.000,102.730 6.000 C 102.639 6.000,102.418 6.110,102.240 6.245 M225.314 6.304 C 225.096 6.472,224.485 6.852,223.958 7.150 C 223.431 7.448,223.000 7.726,223.000 7.769 C 223.000 7.892,224.953 6.789,225.459 6.381 C 226.008 5.938,225.881 5.871,225.314 6.304 M315.000 6.968 C 314.135 7.846,314.125 7.866,314.820 7.314 C 315.424 6.834,316.216 5.949,315.979 6.018 C 315.945 6.028,315.504 6.455,315.000 6.968 M323.167 6.250 C 323.396 6.381,323.696 6.488,323.833 6.488 C 323.971 6.487,323.831 6.377,323.523 6.243 C 322.813 5.935,322.622 5.939,323.167 6.250 M236.250 6.833 C 236.608 7.200,236.938 7.500,236.984 7.500 C 237.030 7.500,236.775 7.200,236.417 6.833 C 236.059 6.467,235.728 6.167,235.682 6.167 C 235.637 6.167,235.892 6.467,236.250 6.833 M324.333 6.669 C 324.471 6.757,324.802 6.829,325.069 6.831 C 325.714 6.834,325.574 6.738,324.750 6.612 C 324.296 6.542,324.163 6.560,324.333 6.669 M136.500 7.250 C 136.811 7.571,137.103 7.833,137.149 7.833 C 137.195 7.833,136.978 7.571,136.667 7.250 C 136.356 6.929,136.064 6.667,136.018 6.667 C 135.972 6.667,136.189 6.929,136.500 7.250 M108.754 7.007 C 108.875 7.202,111.333 8.879,111.333 8.766 C 111.333 8.723,110.730 8.273,109.993 7.765 C 109.255 7.257,108.698 6.916,108.754 7.007 M332.086 7.000 C 332.466 7.705,334.028 9.803,334.442 10.165 C 334.895 10.562,334.893 10.554,334.400 9.998 C 334.116 9.678,333.521 8.892,333.079 8.250 C 332.272 7.079,331.824 6.514,332.086 7.000 M99.667 7.250 C 99.346 7.374,99.196 7.477,99.333 7.480 C 99.471 7.483,99.808 7.382,100.083 7.256 C 100.727 6.961,100.428 6.957,99.667 7.250 M131.000 7.695 C 130.563 8.092,130.459 8.236,130.750 8.039 C 131.210 7.729,131.974 6.991,131.817 7.007 C 131.780 7.011,131.412 7.321,131.000 7.695 M327.792 7.122 C 328.181 7.157,328.819 7.157,329.208 7.122 C 329.598 7.087,329.279 7.058,328.500 7.058 C 327.721 7.058,327.402 7.087,327.792 7.122 M1.271 7.500 C 1.521 8.024,2.357 9.119,3.181 10.000 L 4.037 10.917 3.310 10.036 C 2.592 9.165,2.034 8.451,1.451 7.657 C 1.286 7.433,1.205 7.362,1.271 7.500 M90.000 7.667 C 90.570 7.849,91.008 7.849,90.583 7.667 C 90.400 7.588,90.100 7.526,89.917 7.528 C 89.649 7.532,89.665 7.559,90.000 7.667 M238.278 8.875 C 238.996 9.560,239.883 10.370,240.250 10.675 C 240.617 10.979,240.099 10.446,239.101 9.489 C 238.102 8.533,237.215 7.723,237.129 7.690 C 237.043 7.657,237.560 8.190,238.278 8.875 M92.125 7.954 C 92.423 7.991,92.910 7.991,93.208 7.954 C 93.506 7.917,93.263 7.887,92.667 7.887 C 92.071 7.887,91.827 7.917,92.125 7.954 M94.958 7.954 C 95.256 7.991,95.744 7.991,96.042 7.954 C 96.340 7.917,96.096 7.887,95.500 7.887 C 94.904 7.887,94.660 7.917,94.958 7.954 M222.167 8.083 C 221.938 8.214,221.825 8.322,221.917 8.322 C 222.008 8.322,222.271 8.214,222.500 8.083 C 222.729 7.952,222.842 7.845,222.750 7.845 C 222.658 7.845,222.396 7.952,222.167 8.083 M313.338 8.258 C 313.020 8.483,312.832 8.666,312.921 8.666 C 313.010 8.665,313.308 8.481,313.583 8.255 C 314.225 7.729,314.085 7.731,313.338 8.258 M311.378 9.216 C 310.715 9.498,310.200 9.755,310.233 9.788 C 310.323 9.878,312.489 8.986,312.595 8.815 C 312.645 8.733,312.663 8.675,312.635 8.685 C 312.607 8.696,312.041 8.934,311.378 9.216 M111.667 8.994 C 112.056 9.284,113.833 10.181,113.833 10.088 C 113.833 10.042,113.365 9.761,112.792 9.462 C 111.629 8.856,111.294 8.717,111.667 8.994 M72.250 9.423 C 71.975 9.549,71.862 9.652,72.000 9.653 C 72.137 9.654,72.438 9.548,72.667 9.417 C 73.194 9.115,72.912 9.120,72.250 9.423 M128.458 9.429 C 127.835 9.767,127.873 9.907,128.500 9.583 C 128.775 9.441,129.000 9.289,129.000 9.246 C 129.000 9.138,128.982 9.145,128.458 9.429 M206.246 9.625 C 205.441 10.886,203.578 13.189,202.679 14.035 C 202.122 14.558,201.667 15.044,201.667 15.113 C 201.667 15.391,203.921 12.994,204.987 11.583 C 206.224 9.946,206.751 9.167,206.622 9.167 C 206.576 9.167,206.407 9.373,206.246 9.625 M207.847 9.228 C 207.885 9.262,208.217 9.335,208.583 9.391 C 209.048 9.461,209.149 9.446,208.917 9.341 C 208.597 9.196,207.704 9.102,207.847 9.228 M218.583 9.333 C 218.159 9.516,218.597 9.516,219.167 9.333 C 219.502 9.226,219.518 9.199,219.250 9.195 C 219.067 9.192,218.767 9.255,218.583 9.333 M60.181 9.562 C 60.219 9.596,60.625 9.667,61.083 9.720 C 61.645 9.785,61.781 9.770,61.500 9.675 C 61.084 9.533,60.049 9.445,60.181 9.562 M140.000 9.605 C 140.000 9.718,141.190 10.199,141.270 10.119 C 141.307 10.082,141.036 9.934,140.668 9.789 C 140.301 9.645,140.000 9.562,140.000 9.605 M154.375 9.615 C 154.535 9.657,154.798 9.657,154.958 9.615 C 155.119 9.573,154.987 9.539,154.667 9.539 C 154.346 9.539,154.215 9.573,154.375 9.615 M209.625 9.618 C 209.831 9.657,210.169 9.657,210.375 9.618 C 210.581 9.578,210.412 9.545,210.000 9.545 C 209.588 9.545,209.419 9.578,209.625 9.618 M217.125 9.618 C 217.331 9.657,217.669 9.657,217.875 9.618 C 218.081 9.578,217.912 9.545,217.500 9.545 C 217.088 9.545,216.919 9.578,217.125 9.618 M298.708 9.615 C 298.869 9.657,299.131 9.657,299.292 9.615 C 299.452 9.573,299.321 9.539,299.000 9.539 C 298.679 9.539,298.548 9.573,298.708 9.615 M153.190 9.858 C 152.882 9.946,152.661 10.050,152.699 10.088 C 152.784 10.172,154.000 9.849,154.000 9.742 C 154.000 9.644,153.868 9.663,153.190 9.858 M211.042 9.782 C 211.202 9.823,211.465 9.823,211.625 9.782 C 211.785 9.740,211.654 9.705,211.333 9.705 C 211.012 9.705,210.881 9.740,211.042 9.782 M215.875 9.782 C 216.035 9.823,216.298 9.823,216.458 9.782 C 216.619 9.740,216.487 9.705,216.167 9.705 C 215.846 9.705,215.715 9.740,215.875 9.782 M62.458 9.951 C 62.665 9.991,63.002 9.991,63.208 9.951 C 63.415 9.911,63.246 9.879,62.833 9.879 C 62.421 9.879,62.252 9.911,62.458 9.951 M70.375 9.948 C 70.535 9.990,70.798 9.990,70.958 9.948 C 71.119 9.906,70.987 9.872,70.667 9.872 C 70.346 9.872,70.215 9.906,70.375 9.948 M212.964 9.956 C 213.448 9.990,214.198 9.990,214.631 9.956 C 215.063 9.921,214.667 9.894,213.750 9.894 C 212.833 9.895,212.480 9.923,212.964 9.956 M309.000 10.002 C 308.824 10.118,308.923 10.134,309.333 10.059 C 310.052 9.927,310.188 9.832,309.653 9.836 C 309.431 9.837,309.137 9.912,309.000 10.002 M64.375 10.123 C 64.810 10.157,65.523 10.157,65.958 10.123 C 66.394 10.088,66.037 10.060,65.167 10.060 C 64.296 10.060,63.940 10.088,64.375 10.123 M67.708 10.123 C 68.144 10.157,68.856 10.157,69.292 10.123 C 69.727 10.088,69.371 10.060,68.500 10.060 C 67.629 10.060,67.273 10.088,67.708 10.123 M297.064 11.208 C 296.542 11.873,295.957 12.598,295.765 12.819 C 295.574 13.040,295.506 13.169,295.615 13.106 C 295.841 12.977,298.217 10.000,298.094 10.000 C 298.050 10.000,297.587 10.544,297.064 11.208 M126.500 10.417 C 126.271 10.548,126.158 10.655,126.250 10.655 C 126.342 10.655,126.604 10.548,126.833 10.417 C 127.063 10.286,127.175 10.178,127.083 10.178 C 126.992 10.178,126.729 10.286,126.500 10.417 M141.977 10.408 C 142.286 10.550,142.698 10.659,142.894 10.650 C 143.163 10.637,143.127 10.599,142.750 10.496 C 141.543 10.165,141.423 10.151,141.977 10.408 M151.083 10.421 C 150.717 10.542,150.529 10.646,150.667 10.651 C 150.804 10.657,151.254 10.555,151.667 10.425 C 152.079 10.295,152.267 10.192,152.083 10.195 C 151.900 10.199,151.450 10.300,151.083 10.421 M302.877 10.286 C 303.131 10.325,303.506 10.324,303.711 10.284 C 303.916 10.244,303.708 10.213,303.250 10.214 C 302.792 10.216,302.624 10.248,302.877 10.286 M307.128 10.287 C 307.428 10.325,307.878 10.324,308.128 10.286 C 308.378 10.248,308.133 10.217,307.583 10.218 C 307.033 10.219,306.828 10.250,307.128 10.287 M304.621 10.454 C 304.917 10.490,305.442 10.491,305.788 10.455 C 306.134 10.419,305.892 10.389,305.250 10.388 C 304.608 10.387,304.325 10.417,304.621 10.454 M156.000 10.546 C 156.000 10.571,156.581 11.152,157.292 11.838 L 158.583 13.083 157.338 11.792 C 156.180 10.592,156.000 10.424,156.000 10.546 M58.325 11.625 C 56.902 13.136,56.435 13.667,56.530 13.667 C 56.583 13.667,57.204 13.029,57.912 12.250 C 59.281 10.742,59.573 10.300,58.325 11.625 M148.208 10.948 C 148.369 10.990,148.631 10.990,148.792 10.948 C 148.952 10.906,148.821 10.872,148.500 10.872 C 148.179 10.872,148.048 10.906,148.208 10.948 M116.847 11.227 C 116.885 11.260,117.254 11.332,117.667 11.386 C 118.167 11.452,118.306 11.436,118.083 11.338 C 117.765 11.197,116.702 11.101,116.847 11.227 M123.667 11.333 C 123.337 11.439,123.319 11.467,123.583 11.467 C 123.767 11.467,124.104 11.407,124.333 11.333 C 124.663 11.228,124.681 11.200,124.417 11.200 C 124.233 11.200,123.896 11.260,123.667 11.333 M241.065 11.304 C 241.188 11.502,242.668 12.634,243.167 12.910 C 243.577 13.138,243.174 12.789,242.011 11.911 C 241.422 11.465,240.996 11.192,241.065 11.304 M336.000 11.750 C 336.311 12.071,336.603 12.333,336.649 12.333 C 336.695 12.333,336.478 12.071,336.167 11.750 C 335.856 11.429,335.564 11.167,335.518 11.167 C 335.472 11.167,335.689 11.429,336.000 11.750 M389.406 11.779 C 389.150 12.115,389.025 12.338,389.129 12.273 C 389.342 12.142,390.064 11.167,389.948 11.167 C 389.907 11.167,389.663 11.442,389.406 11.779 M393.667 11.333 C 394.237 11.516,394.675 11.516,394.250 11.333 C 394.067 11.255,393.767 11.192,393.583 11.195 C 393.315 11.199,393.332 11.226,393.667 11.333 M399.417 11.509 C 399.142 11.588,398.628 11.697,398.275 11.753 C 397.922 11.809,397.670 11.893,397.717 11.939 C 397.843 12.066,399.710 11.690,399.901 11.499 C 399.992 11.408,400.033 11.341,399.992 11.350 C 399.950 11.360,399.692 11.431,399.417 11.509 M118.961 11.621 C 119.261 11.658,119.711 11.657,119.961 11.619 C 120.212 11.581,119.967 11.551,119.417 11.552 C 118.867 11.553,118.662 11.584,118.961 11.621 M121.795 11.621 C 122.094 11.658,122.544 11.657,122.795 11.619 C 123.045 11.581,122.800 11.551,122.250 11.552 C 121.700 11.553,121.495 11.584,121.795 11.621 M396.083 11.833 C 396.358 11.903,396.733 11.964,396.917 11.969 L 397.250 11.977 396.917 11.833 C 396.733 11.755,396.358 11.694,396.083 11.698 L 395.583 11.706 396.083 11.833 M5.207 12.097 C 5.261 12.185,5.663 12.513,6.099 12.827 C 6.535 13.140,6.847 13.324,6.793 13.236 C 6.739 13.148,6.337 12.820,5.901 12.507 C 5.465 12.194,5.153 12.009,5.207 12.097 M336.968 12.545 C 337.180 12.800,338.833 13.867,338.833 13.748 C 338.833 13.709,338.369 13.369,337.802 12.993 C 337.235 12.616,336.860 12.415,336.968 12.545 M28.760 13.151 C 28.708 13.234,28.820 13.262,29.008 13.213 C 29.226 13.156,29.512 13.267,29.800 13.520 L 30.250 13.917 29.846 13.458 C 29.445 13.004,28.939 12.861,28.760 13.151 M158.898 13.306 C 159.193 13.639,160.333 14.397,160.333 14.260 C 160.333 14.226,159.940 13.917,159.458 13.574 C 158.977 13.231,158.725 13.110,158.898 13.306 M27.833 13.583 C 27.604 13.714,27.492 13.822,27.583 13.822 C 27.675 13.822,27.938 13.714,28.167 13.583 C 28.396 13.452,28.508 13.345,28.417 13.345 C 28.325 13.345,28.063 13.452,27.833 13.583 M266.833 13.583 C 266.604 13.714,266.492 13.822,266.583 13.822 C 266.675 13.822,266.938 13.714,267.167 13.583 C 267.396 13.452,267.508 13.345,267.417 13.345 C 267.325 13.345,267.063 13.452,266.833 13.583 M294.256 14.495 L 293.263 15.583 294.332 14.548 C 294.920 13.978,295.367 13.488,295.326 13.459 C 295.284 13.430,294.803 13.896,294.256 14.495 M359.000 13.583 C 358.771 13.714,358.658 13.822,358.750 13.822 C 358.842 13.822,359.104 13.714,359.333 13.583 C 359.563 13.452,359.675 13.345,359.583 13.345 C 359.492 13.345,359.229 13.452,359.000 13.583 M361.000 13.370 C 361.000 13.555,364.284 16.306,365.219 16.904 C 365.740 17.237,366.167 17.470,366.167 17.420 C 366.167 17.370,365.735 17.056,365.208 16.723 C 364.393 16.206,363.509 15.488,361.375 13.606 C 361.169 13.424,361.000 13.318,361.000 13.370 M386.746 14.875 L 385.417 16.250 386.792 14.921 C 388.069 13.686,388.243 13.500,388.121 13.500 C 388.096 13.500,387.477 14.119,386.746 14.875 M26.251 14.189 C 25.342 14.557,25.003 14.784,25.666 14.580 C 26.279 14.391,27.443 13.857,27.250 13.854 C 27.158 13.853,26.709 14.003,26.251 14.189 M30.333 13.908 C 30.333 13.951,30.877 14.414,31.542 14.937 C 33.190 16.234,33.167 16.218,33.167 16.129 C 33.167 16.086,32.529 15.551,31.750 14.941 C 30.971 14.330,30.333 13.866,30.333 13.908 M9.000 14.583 C 9.229 14.714,9.492 14.822,9.583 14.822 C 9.675 14.822,9.563 14.714,9.333 14.583 C 9.104 14.452,8.842 14.345,8.750 14.345 C 8.658 14.345,8.771 14.452,9.000 14.583 M160.500 14.410 C 160.500 14.456,160.800 14.646,161.167 14.833 C 161.533 15.020,161.833 15.136,161.833 15.090 C 161.833 15.044,161.533 14.854,161.167 14.667 C 160.800 14.480,160.500 14.364,160.500 14.410 M264.333 14.750 C 263.921 14.971,263.658 15.152,263.750 15.152 C 263.842 15.152,264.254 14.971,264.667 14.750 C 265.079 14.529,265.342 14.348,265.250 14.348 C 265.158 14.348,264.746 14.529,264.333 14.750 M24.417 14.923 C 24.000 15.123,23.986 15.146,24.333 15.062 C 24.806 14.946,25.336 14.676,25.083 14.679 C 24.992 14.681,24.692 14.790,24.417 14.923 M247.000 14.917 C 247.229 15.048,247.492 15.155,247.583 15.155 C 247.675 15.155,247.563 15.048,247.333 14.917 C 247.104 14.786,246.842 14.678,246.750 14.678 C 246.658 14.678,246.771 14.786,247.000 14.917 M269.500 14.719 C 269.500 14.760,269.775 15.004,270.112 15.260 C 270.448 15.517,270.671 15.642,270.607 15.538 C 270.475 15.325,269.500 14.603,269.500 14.719 M341.000 14.917 C 341.229 15.048,341.492 15.155,341.583 15.155 C 341.675 15.155,341.563 15.048,341.333 14.917 C 341.104 14.786,340.842 14.678,340.750 14.678 C 340.658 14.678,340.771 14.786,341.000 14.917 M54.667 15.191 C 54.438 15.382,54.105 15.641,53.927 15.765 C 53.749 15.890,53.636 16.025,53.677 16.066 C 53.717 16.106,54.088 15.848,54.500 15.491 C 55.271 14.825,55.413 14.570,54.667 15.191 M11.083 15.423 C 11.358 15.549,11.696 15.649,11.833 15.646 C 11.971 15.644,11.821 15.540,11.500 15.417 C 10.739 15.124,10.440 15.128,11.083 15.423 M162.000 15.243 C 162.000 15.385,163.693 16.195,163.790 16.099 C 163.839 16.050,163.681 15.934,163.439 15.842 C 163.196 15.749,162.773 15.558,162.499 15.416 C 162.224 15.274,162.000 15.196,162.000 15.243 M178.500 15.243 C 178.500 15.385,180.193 16.195,180.290 16.099 C 180.339 16.050,180.181 15.934,179.939 15.842 C 179.696 15.749,179.273 15.558,178.999 15.416 C 178.724 15.274,178.500 15.196,178.500 15.243 M262.750 15.333 C 262.540 15.424,262.509 15.477,262.667 15.477 C 262.804 15.477,263.067 15.412,263.250 15.333 C 263.460 15.243,263.491 15.190,263.333 15.190 C 263.196 15.190,262.933 15.255,262.750 15.333 M176.333 15.833 C 176.012 16.009,175.825 16.153,175.917 16.153 C 176.008 16.153,176.346 16.009,176.667 15.833 C 176.987 15.658,177.175 15.514,177.083 15.514 C 176.992 15.514,176.654 15.658,176.333 15.833 M248.917 15.667 C 249.100 15.745,249.362 15.810,249.500 15.810 C 249.658 15.810,249.627 15.757,249.417 15.667 C 249.233 15.588,248.971 15.523,248.833 15.523 C 248.676 15.523,248.707 15.576,248.917 15.667 M292.333 16.250 C 291.928 16.662,291.635 17.000,291.681 17.000 C 291.726 17.000,292.095 16.662,292.500 16.250 C 292.905 15.838,293.199 15.500,293.153 15.500 C 293.107 15.500,292.738 15.838,292.333 16.250 M352.333 15.667 C 351.998 15.774,351.982 15.801,352.250 15.805 C 352.433 15.808,352.733 15.745,352.917 15.667 C 353.341 15.484,352.903 15.484,352.333 15.667 M260.750 15.923 C 260.093 16.150,260.092 16.152,260.667 16.055 C 261.347 15.940,262.042 15.687,261.667 15.690 C 261.529 15.691,261.117 15.796,260.750 15.923 M344.417 15.915 C 344.875 16.050,345.475 16.152,345.750 16.143 C 346.276 16.124,346.030 16.064,344.250 15.778 C 343.666 15.684,343.687 15.701,344.417 15.915 M13.167 16.000 C 13.396 16.073,13.733 16.133,13.917 16.133 C 14.181 16.133,14.163 16.106,13.833 16.000 C 13.604 15.927,13.267 15.867,13.083 15.867 C 12.819 15.867,12.837 15.894,13.167 16.000 M19.917 16.008 C 19.684 16.113,19.785 16.128,20.250 16.057 C 20.617 16.001,20.948 15.928,20.986 15.895 C 21.129 15.768,20.237 15.863,19.917 16.008 M350.333 16.000 C 349.891 16.093,349.851 16.126,350.167 16.135 C 350.396 16.142,350.883 16.085,351.250 16.010 C 351.806 15.895,351.833 15.872,351.417 15.874 C 351.142 15.876,350.654 15.932,350.333 16.000 M15.714 16.290 C 16.245 16.323,17.070 16.323,17.548 16.289 C 18.026 16.256,17.592 16.229,16.583 16.229 C 15.575 16.229,15.184 16.257,15.714 16.290 M52.620 16.737 C 51.636 17.418,51.402 17.656,52.128 17.238 C 52.687 16.916,53.648 16.176,53.500 16.182 C 53.454 16.184,53.058 16.433,52.620 16.737 M164.333 16.417 C 164.563 16.548,164.862 16.655,165.000 16.654 C 165.137 16.654,164.998 16.544,164.689 16.410 C 163.979 16.102,163.789 16.106,164.333 16.417 M180.833 16.417 C 181.063 16.548,181.325 16.655,181.417 16.655 C 181.508 16.655,181.396 16.548,181.167 16.417 C 180.938 16.286,180.675 16.178,180.583 16.178 C 180.492 16.178,180.604 16.286,180.833 16.417 M199.167 16.674 C 198.754 16.942,198.327 17.162,198.218 17.164 C 198.109 17.165,197.973 17.241,197.917 17.333 C 197.761 17.586,198.512 17.264,199.443 16.680 C 199.887 16.401,200.175 16.176,200.083 16.181 C 199.992 16.185,199.579 16.407,199.167 16.674 M251.583 16.343 C 252.428 16.518,253.110 16.510,252.417 16.333 C 252.142 16.263,251.692 16.206,251.417 16.206 C 250.996 16.205,251.023 16.227,251.583 16.343 M384.250 16.937 C 383.178 17.752,382.740 18.146,383.167 17.912 C 383.495 17.732,385.333 16.301,385.333 16.225 C 385.333 16.121,385.266 16.166,384.250 16.937 M33.917 16.586 C 34.100 16.736,34.400 16.931,34.583 17.021 L 34.917 17.185 34.583 16.914 C 34.400 16.764,34.100 16.569,33.917 16.479 L 33.583 16.315 33.917 16.586 M173.667 16.760 C 172.979 16.973,172.540 17.151,172.691 17.156 C 173.017 17.169,175.167 16.520,175.167 16.410 C 175.167 16.304,175.080 16.324,173.667 16.760 M254.375 16.623 C 254.902 16.656,255.765 16.656,256.292 16.623 C 256.819 16.590,256.387 16.563,255.333 16.563 C 254.279 16.563,253.848 16.590,254.375 16.623 M272.000 16.575 C 272.000 16.621,272.225 16.774,272.500 16.917 C 272.775 17.059,273.000 17.138,273.000 17.092 C 273.000 17.046,272.775 16.892,272.500 16.750 C 272.225 16.608,272.000 16.529,272.000 16.575 M165.500 16.816 C 165.637 16.900,166.050 17.013,166.417 17.067 C 166.889 17.136,166.962 17.124,166.667 17.026 C 165.902 16.772,165.232 16.651,165.500 16.816 M182.000 16.917 C 182.229 17.048,182.492 17.155,182.583 17.155 C 182.675 17.155,182.563 17.048,182.333 16.917 C 182.104 16.786,181.842 16.678,181.750 16.678 C 181.658 16.678,181.771 16.786,182.000 16.917 M35.000 17.249 C 35.000 17.362,36.354 18.035,36.429 17.960 C 36.464 17.925,36.157 17.733,35.746 17.534 C 35.336 17.334,35.000 17.206,35.000 17.249 M168.534 17.290 C 169.149 17.322,170.199 17.322,170.868 17.291 C 171.536 17.259,171.033 17.233,169.750 17.232 C 168.467 17.232,167.920 17.258,168.534 17.290 M273.167 17.247 C 273.167 17.291,273.467 17.480,273.833 17.667 C 274.660 18.088,274.708 17.989,273.907 17.516 C 273.296 17.156,273.167 17.109,273.167 17.247 M184.311 17.757 C 184.619 17.890,184.957 17.997,185.061 17.993 C 185.165 17.990,184.998 17.877,184.689 17.743 C 184.381 17.610,184.043 17.503,183.939 17.507 C 183.835 17.510,184.002 17.623,184.311 17.757 M289.417 18.266 C 288.683 18.663,288.141 18.991,288.212 18.994 C 288.430 19.004,290.635 17.853,290.747 17.671 C 290.805 17.577,290.830 17.510,290.802 17.521 C 290.773 17.533,290.150 17.868,289.417 18.266 M185.750 18.159 C 186.070 18.304,186.963 18.398,186.819 18.272 C 186.781 18.238,186.450 18.165,186.083 18.109 C 185.619 18.039,185.518 18.054,185.750 18.159 M195.583 18.167 C 195.122 18.284,195.116 18.295,195.500 18.311 C 195.729 18.321,196.029 18.256,196.167 18.167 C 196.450 17.983,196.304 17.983,195.583 18.167 M274.750 18.134 C 274.975 18.347,277.685 19.371,277.778 19.278 C 277.818 19.237,277.529 19.092,277.134 18.955 C 276.739 18.817,276.004 18.541,275.500 18.341 C 274.996 18.140,274.658 18.047,274.750 18.134 M367.543 18.181 C 368.007 18.451,369.000 18.846,369.000 18.760 C 369.000 18.675,367.522 17.997,367.354 18.005 C 367.297 18.008,367.382 18.087,367.543 18.181 M48.833 18.750 C 48.604 18.881,48.492 18.988,48.583 18.988 C 48.675 18.988,48.938 18.881,49.167 18.750 C 49.396 18.619,49.508 18.512,49.417 18.512 C 49.325 18.512,49.063 18.619,48.833 18.750 M188.417 18.665 C 189.285 18.810,190.773 18.880,190.653 18.770 C 190.615 18.735,189.908 18.666,189.083 18.617 C 187.978 18.550,187.803 18.563,188.417 18.665 M192.167 18.667 C 191.255 18.778,191.254 18.779,192.000 18.792 C 192.412 18.798,193.125 18.746,193.583 18.674 C 194.697 18.501,193.569 18.495,192.167 18.667 M45.417 19.500 C 44.850 19.602,44.825 19.621,45.250 19.633 C 45.525 19.641,46.050 19.585,46.417 19.510 C 47.289 19.329,46.417 19.321,45.417 19.500 M41.958 19.621 C 42.256 19.658,42.744 19.658,43.042 19.621 C 43.340 19.584,43.096 19.553,42.500 19.553 C 41.904 19.553,41.660 19.584,41.958 19.621 M284.542 19.948 C 284.702 19.990,284.965 19.990,285.125 19.948 C 285.285 19.906,285.154 19.872,284.833 19.872 C 284.512 19.872,284.381 19.906,284.542 19.948 M373.000 20.029 C 373.983 20.177,376.908 20.179,377.731 20.032 C 378.088 19.969,377.000 19.917,375.315 19.917 C 373.623 19.917,372.586 19.967,373.000 20.029 M281.708 20.123 C 282.144 20.157,282.856 20.157,283.292 20.123 C 283.727 20.088,283.371 20.060,282.500 20.060 C 281.629 20.060,281.273 20.088,281.708 20.123 " stroke="none" fill="#bfe4ec" fill-rule="evenodd"></path></g></svg>