<svg id="svg" version="1.1" xmlns="http://www.w3.org/2000/svg" xmlns:xlink="http://www.w3.org/1999/xlink" width="400" height="20.913302448709462" viewBox="0, 0, 400,20.913302448709462"><g id="svgg"><path id="path0" d="M230.583 2.440 C 225.179 8.893,217.899 11.422,209.333 9.821 C 207.053 9.395,207.391 9.257,205.966 11.194 C 200.405 18.752,193.165 21.024,184.083 18.061 C 182.624 17.585,182.505 17.536,180.101 16.427 C 178.149 15.527,178.298 15.540,176.970 16.151 C 169.907 19.397,162.648 17.809,156.715 11.719 L 154.846 9.801 154.131 10.062 C 146.572 12.828,139.341 11.376,135.154 6.252 C 134.232 5.124,134.433 5.089,132.620 6.690 C 124.137 14.181,115.863 13.949,106.639 5.962 C 105.333 4.831,105.421 4.844,104.110 5.565 C 103.546 5.875,102.742 6.315,102.325 6.543 C 99.783 7.929,95.289 8.698,91.812 8.341 C 88.429 7.994,84.682 6.747,82.115 5.114 C 80.579 4.136,78.786 3.244,78.722 3.425 C 77.672 6.418,73.644 9.692,70.239 10.321 C 68.202 10.698,60.656 10.425,59.882 9.947 C 59.775 9.881,59.466 10.122,59.157 10.512 C 55.696 14.882,51.232 18.337,47.447 19.575 C 45.546 20.196,41.522 20.248,39.250 19.681 C 38.883 19.590,38.358 19.468,38.083 19.412 C 37.808 19.355,37.433 19.241,37.250 19.159 C 37.067 19.077,36.354 18.757,35.667 18.449 C 33.536 17.495,30.093 15.145,28.933 13.853 C 28.512 13.385,28.439 13.395,26.815 14.147 C 16.239 19.045,6.683 16.938,0.299 8.301 C 0.029 7.936,0.014 8.242,0.007 14.267 L 0.000 20.616 1.625 20.724 C 4.562 20.919,281.919 20.852,281.724 20.657 C 281.627 20.560,281.037 20.374,280.412 20.243 C 276.781 19.483,272.101 17.048,269.151 14.382 C 268.386 13.691,268.556 13.670,266.279 14.740 C 264.003 15.809,263.215 16.070,260.750 16.568 C 250.289 18.684,240.412 13.616,233.083 2.373 C 231.883 0.531,232.189 0.523,230.583 2.440 M318.500 4.667 C 315.356 9.870,308.096 12.070,300.540 10.109 L 299.662 9.881 299.123 10.498 C 298.826 10.837,298.133 11.700,297.583 12.416 C 294.524 16.397,290.440 19.326,286.750 20.186 C 284.006 20.825,282.736 20.806,329.825 20.820 C 373.343 20.833,377.249 20.794,373.979 20.382 C 373.062 20.266,371.070 19.617,369.697 18.985 C 369.117 18.718,368.599 18.500,368.544 18.500 C 368.049 18.500,364.846 16.163,362.833 14.334 C 361.745 13.344,361.973 13.371,360.471 14.058 C 359.288 14.598,356.242 15.600,354.625 15.980 C 354.190 16.083,353.479 16.256,353.046 16.365 C 351.957 16.640,346.680 16.622,345.500 16.338 C 342.822 15.695,341.213 15.024,339.187 13.705 C 337.441 12.568,334.869 10.033,333.768 8.364 C 333.183 7.476,332.893 7.172,332.702 7.246 C 331.591 7.672,326.578 7.432,325.083 6.881 C 324.717 6.746,324.267 6.581,324.083 6.514 C 322.979 6.113,321.408 5.204,320.449 4.413 C 319.107 3.306,319.341 3.275,318.500 4.667 M391.725 11.447 C 390.068 13.666,388.294 15.611,387.067 16.557 C 385.316 17.907,384.506 18.500,384.413 18.500 C 384.357 18.500,384.069 18.685,383.773 18.910 C 383.177 19.365,380.394 20.333,379.683 20.333 C 379.434 20.333,379.085 20.443,378.907 20.578 C 378.552 20.846,392.857 20.958,397.724 20.724 L 400.000 20.615 400.000 16.474 L 400.000 12.333 399.208 12.333 C 398.490 12.333,397.021 12.104,395.000 11.676 C 394.258 11.519,393.006 11.147,392.475 10.925 C 392.279 10.843,392.066 10.991,391.725 11.447 " stroke="none" fill="#ffffff" fill-rule="evenodd"></path><path id="path1" d="M231.740 0.684 C 231.656 0.819,231.686 0.841,231.830 0.752 C 231.968 0.667,232.165 0.763,232.377 1.018 L 232.708 1.417 232.465 1.009 C 232.176 0.525,231.911 0.406,231.740 0.684 M230.991 1.625 L 230.417 2.250 231.042 1.676 C 231.623 1.141,231.743 1.000,231.616 1.000 C 231.588 1.000,231.307 1.281,230.991 1.625 M318.979 3.458 C 318.771 3.724,318.777 3.729,319.047 3.517 C 319.307 3.313,319.398 3.333,319.797 3.684 L 320.250 4.083 319.846 3.625 C 319.372 3.087,319.283 3.070,318.979 3.458 M79.833 3.575 C 79.833 3.621,80.058 3.774,80.333 3.917 C 80.608 4.059,80.833 4.138,80.833 4.092 C 80.833 4.046,80.608 3.892,80.333 3.750 C 80.058 3.608,79.833 3.529,79.833 3.575 M228.658 4.292 L 228.083 4.917 228.708 4.342 C 229.290 3.808,229.410 3.667,229.283 3.667 C 229.255 3.667,228.974 3.948,228.658 4.292 M104.740 4.912 C 104.447 5.133,104.468 5.138,104.955 4.960 C 105.461 4.775,105.533 4.798,106.122 5.340 L 106.750 5.917 106.176 5.292 C 105.553 4.615,105.242 4.532,104.740 4.912 M227.406 5.375 L 226.917 5.917 227.458 5.427 C 227.963 4.971,228.077 4.833,227.948 4.833 C 227.919 4.833,227.675 5.077,227.406 5.375 M133.491 5.625 L 132.917 6.250 133.531 5.686 C 133.924 5.325,134.242 5.160,134.414 5.226 C 134.571 5.286,134.641 5.261,134.582 5.165 C 134.394 4.860,134.068 4.997,133.491 5.625 M103.125 5.761 C 102.690 5.988,102.333 6.210,102.333 6.256 C 102.333 6.302,102.708 6.149,103.167 5.917 C 103.625 5.684,104.000 5.458,104.000 5.414 C 104.000 5.304,104.015 5.298,103.125 5.761 M134.667 5.552 C 134.667 5.581,134.910 5.825,135.208 6.094 L 135.750 6.583 135.260 6.042 C 134.804 5.537,134.667 5.423,134.667 5.552 M316.578 6.708 L 315.583 7.750 316.625 6.755 C 317.198 6.208,317.667 5.739,317.667 5.714 C 317.667 5.590,317.502 5.741,316.578 6.708 M236.417 6.667 C 236.868 7.125,237.275 7.500,237.321 7.500 C 237.367 7.500,237.035 7.125,236.583 6.667 C 236.132 6.208,235.725 5.833,235.679 5.833 C 235.633 5.833,235.965 6.208,236.417 6.667 M107.000 6.055 C 107.000 6.101,107.300 6.376,107.667 6.667 C 108.033 6.957,108.333 7.157,108.333 7.111 C 108.333 7.066,108.033 6.790,107.667 6.500 C 107.300 6.210,107.000 6.009,107.000 6.055 M75.910 7.042 L 75.083 7.917 75.958 7.090 C 76.440 6.635,76.833 6.241,76.833 6.215 C 76.833 6.090,76.679 6.229,75.910 7.042 M136.250 7.333 C 136.608 7.700,136.938 8.000,136.984 8.000 C 137.030 8.000,136.775 7.700,136.417 7.333 C 136.059 6.967,135.728 6.667,135.682 6.667 C 135.637 6.667,135.892 6.967,136.250 7.333 M333.333 7.458 C 333.551 7.756,333.755 8.000,333.787 8.000 C 333.914 8.000,333.501 7.375,333.227 7.153 C 333.047 7.007,333.087 7.123,333.333 7.458 M328.964 7.290 C 329.448 7.324,330.198 7.323,330.631 7.289 C 331.063 7.255,330.667 7.227,329.750 7.228 C 328.833 7.228,328.480 7.256,328.964 7.290 M223.667 7.750 C 223.254 7.971,222.976 8.155,223.048 8.159 C 223.225 8.169,224.500 7.514,224.500 7.413 C 224.500 7.303,224.507 7.300,223.667 7.750 M238.000 8.417 C 238.311 8.737,238.603 9.000,238.649 9.000 C 238.695 9.000,238.478 8.737,238.167 8.417 C 237.856 8.096,237.564 7.833,237.518 7.833 C 237.472 7.833,237.689 8.096,238.000 8.417 M91.377 8.120 C 91.631 8.158,92.006 8.157,92.211 8.117 C 92.416 8.078,92.208 8.046,91.750 8.048 C 91.292 8.049,91.124 8.081,91.377 8.120 M95.208 8.119 C 95.460 8.158,95.873 8.158,96.125 8.119 C 96.377 8.081,96.171 8.050,95.667 8.050 C 95.162 8.050,94.956 8.081,95.208 8.119 M93.375 8.282 C 93.535 8.323,93.798 8.323,93.958 8.282 C 94.119 8.240,93.987 8.205,93.667 8.205 C 93.346 8.205,93.215 8.240,93.375 8.282 M314.290 8.486 C 313.605 8.925,313.511 9.079,314.114 8.772 C 314.407 8.624,314.692 8.427,314.749 8.335 C 314.883 8.118,314.843 8.131,314.290 8.486 M111.167 9.075 C 111.167 9.121,111.392 9.274,111.667 9.417 C 111.942 9.559,112.167 9.638,112.167 9.592 C 112.167 9.546,111.942 9.392,111.667 9.250 C 111.392 9.108,111.167 9.029,111.167 9.075 M71.833 9.583 C 71.604 9.714,71.492 9.822,71.583 9.822 C 71.675 9.822,71.938 9.714,72.167 9.583 C 72.396 9.452,72.508 9.345,72.417 9.345 C 72.325 9.345,72.063 9.452,71.833 9.583 M239.833 10.083 C 240.144 10.404,240.436 10.667,240.482 10.667 C 240.528 10.667,240.311 10.404,240.000 10.083 C 239.689 9.762,239.397 9.500,239.351 9.500 C 239.305 9.500,239.522 9.762,239.833 10.083 M59.234 10.042 C 58.919 10.414,58.919 10.414,59.250 10.142 C 59.433 9.991,59.733 9.831,59.917 9.787 C 60.237 9.708,60.237 9.705,59.901 9.686 C 59.709 9.675,59.409 9.835,59.234 10.042 M154.000 9.831 C 153.829 9.940,153.951 9.958,154.386 9.888 C 154.969 9.795,155.088 9.847,155.803 10.518 L 156.583 11.250 155.840 10.458 C 155.088 9.657,154.557 9.476,154.000 9.831 M209.875 9.782 C 210.035 9.823,210.298 9.823,210.458 9.782 C 210.619 9.740,210.487 9.705,210.167 9.705 C 209.846 9.705,209.715 9.740,209.875 9.782 M217.875 9.782 C 218.035 9.823,218.298 9.823,218.458 9.782 C 218.619 9.740,218.487 9.705,218.167 9.705 C 217.846 9.705,217.715 9.740,217.875 9.782 M61.542 10.115 C 61.702 10.157,61.965 10.157,62.125 10.115 C 62.285 10.073,62.154 10.039,61.833 10.039 C 61.512 10.039,61.381 10.073,61.542 10.115 M152.917 10.167 C 152.707 10.257,152.676 10.310,152.833 10.310 C 152.971 10.310,153.233 10.245,153.417 10.167 C 153.627 10.076,153.658 10.023,153.500 10.023 C 153.362 10.023,153.100 10.088,152.917 10.167 M213.292 10.123 C 213.773 10.157,214.560 10.157,215.042 10.123 C 215.523 10.089,215.129 10.062,214.167 10.062 C 213.204 10.062,212.810 10.089,213.292 10.123 M63.208 10.288 C 63.552 10.324,64.115 10.324,64.458 10.288 C 64.802 10.252,64.521 10.223,63.833 10.223 C 63.146 10.223,62.865 10.252,63.208 10.288 M67.796 10.289 C 68.188 10.324,68.788 10.324,69.129 10.288 C 69.471 10.252,69.150 10.223,68.417 10.224 C 67.683 10.224,67.404 10.254,67.796 10.289 M303.542 10.448 C 303.702 10.490,303.965 10.490,304.125 10.448 C 304.285 10.406,304.154 10.372,303.833 10.372 C 303.512 10.372,303.381 10.406,303.542 10.448 M308.708 10.448 C 308.869 10.490,309.131 10.490,309.292 10.448 C 309.452 10.406,309.321 10.372,309.000 10.372 C 308.679 10.372,308.548 10.406,308.708 10.448 M305.542 10.623 C 305.977 10.657,306.690 10.657,307.125 10.623 C 307.560 10.588,307.204 10.560,306.333 10.560 C 305.462 10.560,305.106 10.588,305.542 10.623 M336.417 11.333 C 336.868 11.792,337.275 12.167,337.321 12.167 C 337.367 12.167,337.035 11.792,336.583 11.333 C 336.132 10.875,335.725 10.500,335.679 10.500 C 335.633 10.500,335.965 10.875,336.417 11.333 M3.333 11.583 C 3.831 12.088,4.276 12.500,4.322 12.500 C 4.368 12.500,3.998 12.088,3.500 11.583 C 3.002 11.079,2.557 10.667,2.511 10.667 C 2.466 10.667,2.835 11.079,3.333 11.583 M58.240 11.208 L 57.750 11.750 58.292 11.260 C 58.797 10.804,58.910 10.667,58.781 10.667 C 58.752 10.667,58.509 10.910,58.240 11.208 M391.734 11.042 C 391.419 11.414,391.419 11.414,391.750 11.142 C 391.933 10.991,392.233 10.831,392.417 10.787 C 392.737 10.708,392.737 10.705,392.401 10.686 C 392.209 10.675,391.909 10.835,391.734 11.042 M148.375 11.115 C 148.535 11.157,148.798 11.157,148.958 11.115 C 149.119 11.073,148.987 11.039,148.667 11.039 C 148.346 11.039,148.215 11.073,148.375 11.115 M123.083 11.667 C 122.659 11.849,123.097 11.849,123.667 11.667 C 124.002 11.559,124.018 11.532,123.750 11.528 C 123.567 11.526,123.267 11.588,123.083 11.667 M157.250 12.167 C 157.608 12.533,157.938 12.833,157.984 12.833 C 158.030 12.833,157.775 12.533,157.417 12.167 C 157.059 11.800,156.728 11.500,156.682 11.500 C 156.637 11.500,156.892 11.800,157.250 12.167 M241.833 11.719 C 241.833 11.760,242.109 12.004,242.445 12.260 C 242.782 12.517,243.004 12.642,242.940 12.538 C 242.808 12.325,241.833 11.603,241.833 11.719 M297.064 12.617 C 296.711 13.048,296.509 13.347,296.616 13.282 C 296.842 13.141,297.898 11.833,297.784 11.833 C 297.742 11.833,297.418 12.186,297.064 12.617 M57.073 12.542 L 56.583 13.083 57.125 12.594 C 57.630 12.138,57.743 12.000,57.615 12.000 C 57.586 12.000,57.342 12.244,57.073 12.542 M203.163 14.125 L 201.750 15.583 203.208 14.170 C 204.010 13.393,204.667 12.737,204.667 12.712 C 204.667 12.591,204.475 12.771,203.163 14.125 M244.500 13.652 C 244.729 13.839,244.992 13.993,245.083 13.994 C 245.262 13.995,244.960 13.764,244.417 13.483 C 244.195 13.369,244.223 13.425,244.500 13.652 M267.667 13.767 C 267.387 13.939,267.360 13.986,267.583 13.909 C 268.425 13.622,268.534 13.636,269.051 14.103 L 269.583 14.583 269.094 14.042 C 268.551 13.441,268.283 13.390,267.667 13.767 M29.000 13.719 C 29.000 13.748,29.244 13.991,29.542 14.260 L 30.083 14.750 29.594 14.208 C 29.138 13.703,29.000 13.590,29.000 13.719 M55.406 14.375 L 54.917 14.917 55.458 14.427 C 55.756 14.158,56.000 13.914,56.000 13.885 C 56.000 13.757,55.862 13.870,55.406 14.375 M362.833 14.052 C 362.833 14.081,363.077 14.325,363.375 14.594 L 363.917 15.083 363.427 14.542 C 362.971 14.037,362.833 13.923,362.833 14.052 M340.333 14.248 C 340.333 14.362,341.354 14.868,341.430 14.792 C 341.466 14.756,341.234 14.602,340.915 14.449 C 340.595 14.297,340.333 14.206,340.333 14.248 M178.343 15.491 C 178.578 15.563,178.934 15.709,179.135 15.816 C 179.336 15.924,179.500 15.974,179.500 15.927 C 179.500 15.774,178.523 15.333,178.217 15.348 C 178.017 15.357,178.060 15.405,178.343 15.491 M355.417 15.500 C 355.207 15.590,355.176 15.643,355.333 15.643 C 355.471 15.643,355.733 15.579,355.917 15.500 C 356.127 15.410,356.158 15.357,356.000 15.357 C 355.863 15.357,355.600 15.421,355.417 15.500 M162.167 15.582 C 162.167 15.696,163.187 16.202,163.263 16.125 C 163.300 16.089,163.068 15.935,162.748 15.783 C 162.428 15.630,162.167 15.540,162.167 15.582 M201.083 15.937 C 200.784 16.192,200.722 16.294,200.930 16.191 C 201.236 16.039,201.809 15.490,201.645 15.506 C 201.611 15.509,201.358 15.703,201.083 15.937 M176.833 15.917 C 176.604 16.048,176.492 16.155,176.583 16.155 C 176.675 16.155,176.938 16.048,177.167 15.917 C 177.396 15.786,177.508 15.678,177.417 15.678 C 177.325 15.678,177.063 15.786,176.833 15.917 M293.333 16.417 C 292.928 16.829,292.635 17.167,292.681 17.167 C 292.726 17.167,293.095 16.829,293.500 16.417 C 293.905 16.004,294.199 15.667,294.153 15.667 C 294.107 15.667,293.738 16.004,293.333 16.417 M386.403 16.762 L 385.750 17.357 386.458 16.817 C 387.106 16.324,387.263 16.167,387.111 16.167 C 387.081 16.167,386.762 16.435,386.403 16.762 M13.792 16.451 C 13.998 16.491,14.335 16.491,14.542 16.451 C 14.748 16.411,14.579 16.379,14.167 16.379 C 13.754 16.379,13.585 16.411,13.792 16.451 M16.961 16.454 C 17.261 16.491,17.711 16.490,17.961 16.452 C 18.212 16.414,17.967 16.384,17.417 16.385 C 16.867 16.386,16.662 16.417,16.961 16.454 M164.167 16.583 C 164.396 16.714,164.658 16.822,164.750 16.822 C 164.842 16.822,164.729 16.714,164.500 16.583 C 164.271 16.452,164.008 16.345,163.917 16.345 C 163.825 16.345,163.938 16.452,164.167 16.583 M348.708 16.455 C 349.052 16.491,349.615 16.491,349.958 16.455 C 350.302 16.419,350.021 16.389,349.333 16.389 C 348.646 16.389,348.365 16.419,348.708 16.455 M32.917 16.753 C 33.100 16.902,33.400 17.098,33.583 17.188 L 33.917 17.352 33.583 17.080 C 33.400 16.931,33.100 16.735,32.917 16.645 L 32.583 16.482 32.917 16.753 M181.500 16.917 C 181.729 17.048,181.992 17.155,182.083 17.155 C 182.175 17.155,182.063 17.048,181.833 16.917 C 181.604 16.786,181.342 16.678,181.250 16.678 C 181.158 16.678,181.271 16.786,181.500 16.917 M253.542 16.782 C 253.702 16.823,253.965 16.823,254.125 16.782 C 254.285 16.740,254.154 16.705,253.833 16.705 C 253.512 16.705,253.381 16.740,253.542 16.782 M257.960 16.785 C 258.168 16.824,258.468 16.823,258.627 16.781 C 258.786 16.739,258.617 16.707,258.250 16.709 C 257.883 16.711,257.753 16.745,257.960 16.785 M256.125 16.951 C 256.331 16.991,256.669 16.991,256.875 16.951 C 257.081 16.911,256.912 16.879,256.500 16.879 C 256.087 16.879,255.919 16.911,256.125 16.951 M272.833 16.908 C 272.833 16.954,273.058 17.108,273.333 17.250 C 273.608 17.392,273.833 17.471,273.833 17.425 C 273.833 17.379,273.608 17.226,273.333 17.083 C 273.058 16.941,272.833 16.862,272.833 16.908 M169.042 17.623 C 169.477 17.657,170.190 17.657,170.625 17.623 C 171.060 17.588,170.704 17.560,169.833 17.560 C 168.962 17.560,168.606 17.588,169.042 17.623 M188.542 18.948 C 188.702 18.990,188.965 18.990,189.125 18.948 C 189.285 18.906,189.154 18.872,188.833 18.872 C 188.512 18.872,188.381 18.906,188.542 18.948 M193.294 18.951 C 193.501 18.991,193.801 18.990,193.960 18.948 C 194.120 18.906,193.950 18.874,193.583 18.875 C 193.217 18.877,193.086 18.911,193.294 18.951 M190.542 19.121 C 190.885 19.157,191.448 19.157,191.792 19.121 C 192.135 19.085,191.854 19.056,191.167 19.056 C 190.479 19.056,190.198 19.085,190.542 19.121 M42.375 19.956 C 42.810 19.990,43.523 19.990,43.958 19.956 C 44.394 19.922,44.038 19.893,43.167 19.893 C 42.296 19.893,41.940 19.922,42.375 19.956 M285.208 20.282 C 285.369 20.323,285.631 20.323,285.792 20.282 C 285.952 20.240,285.821 20.205,285.500 20.205 C 285.179 20.205,285.048 20.240,285.208 20.282 M374.208 20.282 C 374.369 20.323,374.631 20.323,374.792 20.282 C 374.952 20.240,374.821 20.205,374.500 20.205 C 374.179 20.205,374.048 20.240,374.208 20.282 M283.042 20.453 C 283.294 20.491,283.706 20.491,283.958 20.453 C 284.210 20.415,284.004 20.383,283.500 20.383 C 282.996 20.383,282.790 20.415,283.042 20.453 M376.131 20.456 C 376.615 20.490,377.365 20.490,377.797 20.456 C 378.230 20.421,377.833 20.394,376.917 20.394 C 376.000 20.395,375.646 20.423,376.131 20.456 " stroke="none" fill="#ffffff" fill-rule="evenodd"></path><path id="path2" d="M230.341 2.501 C 228.526 4.607,227.582 5.460,225.740 6.663 C 224.238 7.643,224.006 7.833,224.812 7.423 C 226.498 6.565,228.776 4.598,230.583 2.440 C 232.189 0.523,231.883 0.531,233.083 2.373 C 236.075 6.962,240.472 11.421,244.208 13.654 C 245.240 14.270,244.914 13.936,243.690 13.122 C 239.810 10.542,236.247 6.872,233.245 2.362 C 232.624 1.430,232.071 0.668,232.016 0.670 C 231.961 0.672,231.208 1.496,230.341 2.501 M77.932 4.491 C 76.591 6.763,74.878 8.349,72.709 9.328 C 72.228 9.545,71.860 9.749,71.892 9.781 C 72.016 9.905,73.968 8.902,74.849 8.262 C 76.246 7.245,78.268 4.720,78.722 3.425 C 78.757 3.326,79.302 3.527,79.975 3.887 C 81.456 4.678,81.555 4.579,80.098 3.764 C 78.721 2.994,78.840 2.954,77.932 4.491 M318.408 4.542 C 316.588 7.382,313.827 9.373,310.583 10.184 C 309.942 10.344,309.552 10.481,309.718 10.488 C 312.144 10.587,316.780 7.514,318.500 4.667 C 319.340 3.276,319.109 3.308,320.433 4.400 C 321.527 5.302,323.266 6.334,323.690 6.333 C 323.815 6.332,323.392 6.063,322.750 5.734 C 322.108 5.405,321.081 4.730,320.467 4.234 C 319.106 3.135,319.331 3.102,318.408 4.542 M81.667 4.815 C 82.189 5.241,84.938 6.670,85.213 6.658 C 85.325 6.653,84.817 6.349,84.083 5.981 C 83.350 5.614,82.412 5.124,82.000 4.894 C 81.428 4.575,81.349 4.556,81.667 4.815 M103.250 5.838 C 102.242 6.380,100.949 6.990,100.377 7.192 C 99.806 7.395,99.368 7.590,99.405 7.627 C 99.507 7.729,101.480 6.991,102.333 6.532 C 102.746 6.310,103.546 5.875,104.110 5.565 C 105.421 4.844,105.333 4.831,106.639 5.962 C 109.034 8.036,113.438 10.854,114.244 10.828 C 114.339 10.825,113.666 10.431,112.749 9.953 C 110.765 8.919,108.517 7.398,106.776 5.913 C 105.259 4.618,105.507 4.623,103.250 5.838 M132.667 6.438 C 129.365 9.351,126.762 10.869,123.711 11.662 C 122.924 11.866,118.891 11.919,117.893 11.739 C 117.539 11.675,117.299 11.675,117.359 11.739 C 117.574 11.971,120.479 12.133,122.097 12.002 C 125.599 11.720,128.692 10.159,132.620 6.690 C 134.416 5.105,134.206 5.173,134.880 5.958 C 136.346 7.667,137.264 8.494,138.529 9.247 C 139.839 10.026,141.961 10.928,142.117 10.772 C 142.156 10.733,141.790 10.570,141.302 10.410 C 139.122 9.696,136.777 8.061,135.250 6.190 C 134.230 4.940,134.382 4.925,132.667 6.438 M85.667 6.818 C 85.950 7.026,87.935 7.674,88.226 7.653 C 88.331 7.646,87.892 7.468,87.250 7.258 C 86.608 7.048,85.933 6.822,85.750 6.756 C 85.480 6.658,85.464 6.670,85.667 6.818 M325.250 6.895 C 326.383 7.424,331.598 7.669,332.702 7.246 C 332.893 7.172,333.183 7.476,333.768 8.364 C 335.237 10.590,339.303 14.213,340.974 14.783 C 341.126 14.835,340.688 14.516,340.000 14.074 C 337.308 12.344,335.763 10.873,333.902 8.270 C 333.300 7.428,332.961 7.095,332.735 7.124 C 330.384 7.420,326.643 7.245,325.083 6.764 C 324.900 6.708,324.975 6.767,325.250 6.895 M0.007 7.715 C -0.032 8.421,4.055 12.613,6.018 13.879 C 7.439 14.796,10.574 16.170,11.226 16.162 C 11.422 16.160,11.036 15.972,10.367 15.744 C 6.167 14.313,3.431 12.200,0.299 7.967 C 0.143 7.756,0.012 7.643,0.007 7.715 M88.517 7.729 C 89.199 8.479,95.381 8.581,98.720 7.898 C 99.865 7.664,98.899 7.683,97.565 7.921 C 96.717 8.072,95.120 8.189,93.833 8.193 C 91.809 8.199,90.849 8.108,89.000 7.736 C 88.679 7.672,88.462 7.669,88.517 7.729 M222.917 8.231 C 222.275 8.529,221.358 8.913,220.879 9.085 C 220.400 9.256,220.039 9.428,220.077 9.466 C 220.222 9.611,224.167 7.963,224.167 7.757 C 224.167 7.641,224.265 7.604,222.917 8.231 M206.926 9.625 C 206.796 9.785,206.134 10.667,205.457 11.583 C 202.669 15.354,199.242 17.755,195.333 18.675 C 194.646 18.837,194.260 18.977,194.476 18.985 C 197.529 19.102,202.745 15.571,205.949 11.218 C 207.009 9.777,207.279 9.509,207.724 9.453 L 208.250 9.387 207.707 9.360 C 207.365 9.343,207.075 9.442,206.926 9.625 M208.500 9.658 C 208.637 9.752,208.969 9.829,209.236 9.831 C 209.877 9.834,209.743 9.738,208.917 9.599 C 208.439 9.519,208.321 9.536,208.500 9.658 M219.000 9.667 L 218.583 9.800 219.000 9.814 C 219.229 9.822,219.529 9.756,219.667 9.667 C 219.985 9.461,219.642 9.461,219.000 9.667 M57.909 11.689 C 56.996 12.710,56.113 13.722,55.945 13.938 C 55.289 14.784,51.527 17.484,49.744 18.389 C 48.739 18.899,47.995 19.320,48.091 19.325 C 49.816 19.410,56.028 14.462,59.156 10.513 C 60.099 9.323,59.618 9.777,57.909 11.689 M60.000 9.995 C 60.137 10.087,60.506 10.163,60.819 10.164 C 61.567 10.167,61.434 10.073,60.500 9.937 C 59.976 9.861,59.825 9.879,60.000 9.995 M70.417 10.109 C 69.673 10.282,68.391 10.329,65.417 10.294 C 63.217 10.268,61.754 10.298,62.167 10.361 C 64.385 10.699,70.716 10.447,71.500 9.989 C 71.818 9.804,71.650 9.822,70.417 10.109 M153.667 10.083 C 153.346 10.207,153.196 10.310,153.333 10.313 C 153.471 10.316,153.808 10.215,154.083 10.089 C 154.727 9.795,154.428 9.790,153.667 10.083 M155.929 10.899 C 157.681 12.937,161.890 16.165,162.283 15.772 C 162.329 15.727,162.040 15.524,161.641 15.321 C 159.999 14.484,158.483 13.324,156.762 11.587 C 155.442 10.256,155.212 10.066,155.929 10.899 M210.333 9.993 C 210.739 10.130,212.625 10.228,212.486 10.105 C 212.448 10.071,211.854 10.000,211.167 9.948 C 210.397 9.889,210.077 9.906,210.333 9.993 M216.583 10.000 L 215.750 10.114 216.667 10.124 C 217.171 10.129,217.771 10.073,218.000 10.000 C 218.545 9.825,217.856 9.825,216.583 10.000 M298.310 11.208 C 295.951 14.334,292.634 17.467,290.511 18.576 C 289.726 18.987,289.175 19.325,289.288 19.328 C 290.467 19.360,295.416 15.236,297.583 12.416 C 298.133 11.700,298.836 10.826,299.144 10.474 C 299.453 10.122,299.625 9.833,299.527 9.833 C 299.429 9.833,298.881 10.452,298.310 11.208 M299.859 9.914 C 300.031 10.086,302.517 10.519,302.955 10.453 C 303.363 10.391,303.349 10.380,302.833 10.352 C 302.512 10.335,301.762 10.214,301.167 10.083 C 299.985 9.823,299.736 9.791,299.859 9.914 M213.375 10.289 C 213.810 10.324,214.523 10.324,214.958 10.289 C 215.394 10.255,215.037 10.227,214.167 10.227 C 213.296 10.227,212.940 10.255,213.375 10.289 M151.750 10.579 C 151.383 10.700,151.196 10.805,151.333 10.813 C 151.471 10.822,151.921 10.722,152.333 10.592 C 152.746 10.462,152.933 10.356,152.750 10.357 C 152.567 10.358,152.117 10.458,151.750 10.579 M304.101 10.699 C 304.929 10.846,307.688 10.843,308.667 10.695 C 309.091 10.630,308.120 10.581,306.434 10.582 C 304.794 10.583,303.744 10.635,304.101 10.699 M114.514 10.902 C 114.706 11.092,116.470 11.665,116.833 11.656 C 117.084 11.649,116.898 11.550,116.366 11.407 C 115.880 11.276,115.341 11.093,115.169 11.001 C 114.864 10.838,114.374 10.764,114.514 10.902 M142.667 11.000 C 142.896 11.073,143.271 11.133,143.500 11.133 L 143.917 11.133 143.500 11.000 C 143.271 10.927,142.896 10.867,142.667 10.867 L 142.250 10.867 142.667 11.000 M149.583 11.010 C 149.217 11.085,147.792 11.162,146.417 11.180 C 144.054 11.211,143.976 11.223,144.996 11.385 C 146.105 11.562,149.988 11.298,150.737 10.995 C 151.210 10.803,150.539 10.812,149.583 11.010 M390.942 12.224 C 389.560 13.993,387.281 16.241,385.635 17.460 C 384.930 17.981,384.380 18.436,384.413 18.469 C 384.469 18.524,385.186 18.007,387.067 16.557 C 388.292 15.613,390.070 13.662,391.717 11.458 C 392.615 10.256,392.018 10.846,390.942 12.224 M392.500 10.898 C 392.500 11.025,394.727 11.669,395.101 11.652 C 395.275 11.643,394.929 11.505,394.333 11.345 C 393.738 11.185,393.081 10.999,392.875 10.932 C 392.669 10.865,392.500 10.850,392.500 10.898 M395.517 11.730 C 395.691 11.920,398.378 12.334,399.250 12.305 C 399.998 12.280,400.015 12.272,399.417 12.224 C 398.628 12.160,396.426 11.847,395.833 11.713 C 395.604 11.662,395.462 11.669,395.517 11.730 M27.305 13.754 C 26.480 14.184,23.912 15.166,22.684 15.522 C 22.281 15.638,22.036 15.762,22.139 15.796 C 22.406 15.885,25.160 14.914,26.815 14.147 C 28.439 13.395,28.512 13.385,28.933 13.853 C 30.097 15.149,33.547 17.502,35.667 18.446 C 36.354 18.752,37.047 19.077,37.206 19.168 C 37.365 19.259,37.665 19.331,37.873 19.327 C 38.109 19.324,37.939 19.207,37.417 19.014 C 34.528 17.947,30.660 15.532,29.013 13.766 C 28.519 13.238,28.300 13.236,27.305 13.754 M361.022 13.605 C 360.714 13.740,360.500 13.889,360.548 13.937 C 360.596 13.985,360.864 13.907,361.143 13.762 C 361.833 13.405,361.799 13.394,362.833 14.334 C 364.846 16.163,368.049 18.500,368.544 18.500 C 368.599 18.500,369.117 18.718,369.697 18.985 C 371.084 19.623,373.245 20.338,373.712 20.314 C 374.048 20.297,374.051 20.287,373.750 20.220 C 370.338 19.456,366.732 17.537,363.678 14.858 C 361.807 13.218,361.857 13.241,361.022 13.605 M266.363 14.502 C 264.328 15.477,262.505 16.080,260.333 16.497 C 259.462 16.664,258.961 16.808,259.218 16.817 C 259.656 16.832,260.147 16.741,262.000 16.301 C 263.430 15.962,264.592 15.535,266.398 14.686 C 268.465 13.715,268.502 13.708,268.933 14.187 C 270.035 15.416,274.684 18.322,277.000 19.231 C 278.366 19.767,280.615 20.379,280.881 20.287 C 280.992 20.249,280.708 20.135,280.250 20.035 C 276.753 19.271,269.795 15.525,268.759 13.848 C 268.566 13.536,268.136 13.653,266.363 14.502 M245.071 14.146 C 245.438 14.741,251.649 16.856,252.916 16.818 C 253.191 16.810,252.892 16.706,252.250 16.588 C 250.196 16.210,248.337 15.562,245.844 14.357 C 245.017 13.958,244.942 13.937,245.071 14.146 M358.083 14.758 C 356.983 15.151,355.488 15.604,354.760 15.767 C 354.032 15.929,353.525 16.092,353.635 16.128 C 354.036 16.262,359.878 14.519,360.242 14.158 C 360.481 13.920,360.273 13.977,358.083 14.758 M342.250 15.333 C 342.800 15.594,343.363 15.811,343.500 15.815 C 343.637 15.818,343.236 15.599,342.609 15.327 C 341.164 14.702,340.928 14.706,342.250 15.333 M177.333 15.851 C 176.771 16.175,176.926 16.155,177.860 15.782 C 178.243 15.629,178.537 15.713,180.004 16.394 C 180.940 16.828,181.734 17.155,181.770 17.119 C 181.866 17.023,178.456 15.495,178.167 15.505 C 178.029 15.510,177.654 15.665,177.333 15.851 M21.000 16.000 L 20.583 16.133 21.000 16.148 C 21.229 16.155,21.529 16.089,21.667 16.000 C 21.985 15.794,21.642 15.794,21.000 16.000 M344.083 16.000 C 344.267 16.079,344.604 16.141,344.833 16.138 L 345.250 16.133 344.833 16.000 C 344.604 15.927,344.267 15.864,344.083 15.862 L 343.750 15.857 344.083 16.000 M11.703 16.258 C 12.215 16.774,18.400 16.825,19.946 16.326 C 20.349 16.195,20.322 16.186,19.750 16.259 C 16.818 16.634,14.377 16.628,12.167 16.239 C 11.846 16.183,11.637 16.191,11.703 16.258 M163.250 16.282 C 163.467 16.495,165.081 17.168,165.364 17.163 C 165.485 17.161,165.133 16.969,164.583 16.736 C 163.102 16.110,163.062 16.097,163.250 16.282 M175.250 16.677 C 174.608 16.939,174.170 17.156,174.277 17.160 C 174.531 17.169,176.371 16.484,176.575 16.305 C 176.840 16.074,176.488 16.172,175.250 16.677 M345.667 16.356 C 345.925 16.470,347.316 16.540,349.333 16.540 C 351.351 16.540,352.741 16.470,353.000 16.356 C 353.344 16.203,353.272 16.190,352.583 16.284 C 352.125 16.346,350.662 16.397,349.333 16.397 C 348.004 16.397,346.542 16.346,346.083 16.284 C 345.395 16.190,345.323 16.203,345.667 16.356 M254.946 17.045 C 255.832 17.134,256.918 17.139,257.529 17.055 C 258.419 16.934,258.181 16.910,256.000 16.901 C 253.455 16.891,253.439 16.893,254.946 17.045 M165.833 17.333 C 165.971 17.422,166.271 17.489,166.500 17.481 L 166.917 17.467 166.500 17.333 C 165.858 17.128,165.515 17.128,165.833 17.333 M173.167 17.333 L 172.750 17.467 173.167 17.481 C 173.396 17.489,173.696 17.422,173.833 17.333 C 174.152 17.128,173.809 17.128,173.167 17.333 M182.083 17.288 C 183.109 18.337,190.929 19.672,193.333 19.208 C 193.892 19.101,193.423 19.064,191.500 19.065 C 188.201 19.066,185.863 18.605,182.250 17.243 C 182.024 17.158,181.970 17.172,182.083 17.288 M167.601 17.699 C 168.425 17.845,171.018 17.844,172.000 17.696 C 172.423 17.632,171.485 17.583,169.851 17.583 C 168.256 17.583,167.244 17.635,167.601 17.699 M383.535 18.857 C 383.233 19.050,383.022 19.245,383.067 19.289 C 383.148 19.370,384.167 18.706,384.167 18.572 C 384.167 18.461,384.122 18.481,383.535 18.857 M38.583 19.495 C 39.233 19.766,40.757 20.031,41.250 19.957 C 41.738 19.885,41.737 19.883,41.167 19.852 C 40.846 19.835,40.133 19.713,39.583 19.580 C 38.484 19.315,38.066 19.279,38.583 19.495 M46.750 19.587 C 46.292 19.705,45.617 19.817,45.250 19.837 C 44.861 19.857,44.721 19.907,44.914 19.956 C 45.305 20.055,47.316 19.718,47.670 19.494 C 47.979 19.299,47.801 19.317,46.750 19.587 M288.250 19.564 C 287.975 19.683,287.337 19.880,286.833 20.001 C 286.329 20.122,286.011 20.253,286.126 20.291 C 286.337 20.362,288.371 19.760,288.833 19.490 C 289.213 19.267,288.815 19.318,288.250 19.564 M381.667 19.681 C 381.155 19.906,381.070 19.979,381.398 19.913 C 382.024 19.786,382.991 19.362,382.667 19.356 C 382.529 19.354,382.079 19.500,381.667 19.681 M42.792 20.121 C 43.090 20.158,43.577 20.158,43.875 20.121 C 44.173 20.084,43.929 20.053,43.333 20.053 C 42.737 20.053,42.494 20.084,42.792 20.121 M379.917 20.167 C 379.463 20.282,379.455 20.295,379.833 20.302 C 380.063 20.306,380.400 20.245,380.583 20.167 C 380.994 19.990,380.611 19.990,379.917 20.167 M281.636 20.610 C 281.998 20.885,284.385 20.880,285.152 20.602 C 285.655 20.421,285.466 20.397,283.539 20.397 C 281.732 20.397,281.404 20.433,281.636 20.610 M374.803 20.625 C 375.336 20.901,378.486 20.897,378.849 20.620 C 379.063 20.457,378.646 20.417,376.759 20.417 C 374.770 20.417,374.464 20.449,374.803 20.625 M0.455 20.787 C 0.750 20.824,1.275 20.824,1.621 20.788 C 1.967 20.752,1.725 20.722,1.083 20.721 C 0.442 20.721,0.159 20.750,0.455 20.787 M397.708 20.789 C 398.144 20.824,398.856 20.824,399.292 20.789 C 399.727 20.755,399.371 20.727,398.500 20.727 C 397.629 20.727,397.273 20.755,397.708 20.789 " stroke="none" fill="#ffffff" fill-rule="evenodd"></path><path id="path3" d="M0.000 3.599 C 0.000 7.711,-0.249 6.958,2.025 9.724 C 6.444 15.101,13.018 17.376,20.000 15.946 C 22.479 15.438,24.595 14.740,26.966 13.650 C 28.218 13.073,28.490 13.056,29.016 13.520 C 30.852 15.141,33.931 17.266,35.333 17.880 C 35.746 18.060,36.421 18.359,36.833 18.545 C 39.471 19.731,44.540 20.055,47.250 19.212 C 50.678 18.146,54.250 15.540,57.825 11.500 C 59.715 9.364,59.545 9.461,60.846 9.773 C 61.652 9.966,62.925 10.031,66.000 10.038 C 70.381 10.048,70.623 10.013,72.630 9.077 C 73.113 8.851,73.548 8.667,73.595 8.667 C 74.428 8.667,77.697 5.022,78.346 3.371 C 78.571 2.799,78.899 2.765,79.648 3.238 C 80.021 3.474,80.367 3.667,80.417 3.667 C 80.466 3.667,80.824 3.871,81.212 4.121 C 81.599 4.370,82.067 4.657,82.250 4.757 C 82.433 4.858,82.955 5.148,83.410 5.403 C 83.865 5.657,84.615 6.011,85.077 6.187 C 85.539 6.364,86.067 6.579,86.250 6.663 C 86.601 6.826,88.287 7.300,89.833 7.673 C 93.508 8.557,99.318 7.703,102.942 5.745 C 103.753 5.307,104.604 4.848,104.833 4.725 C 105.425 4.409,105.544 4.436,106.094 5.019 C 110.812 10.016,119.876 13.029,124.583 11.165 C 124.767 11.092,125.367 10.861,125.917 10.651 C 127.323 10.115,128.456 9.477,130.107 8.292 C 130.843 7.764,133.353 5.617,133.734 5.189 C 134.209 4.657,134.314 4.716,135.626 6.246 C 137.708 8.673,140.022 9.982,143.711 10.820 C 144.735 11.052,148.106 11.052,149.407 10.819 C 150.924 10.547,153.170 10.004,153.878 9.737 C 154.871 9.363,154.935 9.397,156.893 11.393 C 162.825 17.438,169.944 18.955,177.046 15.686 C 178.420 15.054,178.181 15.049,179.583 15.741 C 191.073 21.407,200.307 19.363,206.505 9.780 L 206.917 9.144 207.917 9.225 C 208.467 9.270,209.854 9.460,211.000 9.648 C 215.288 10.352,219.985 9.644,223.333 7.790 C 223.654 7.612,224.217 7.306,224.583 7.110 C 225.603 6.564,227.591 5.077,228.472 4.201 C 229.414 3.265,231.528 0.897,231.717 0.567 C 231.860 0.316,232.333 0.243,232.333 0.471 C 232.333 0.547,232.909 1.466,233.612 2.513 C 242.393 15.587,254.507 19.879,266.544 14.182 C 268.611 13.204,268.517 13.224,268.933 13.688 C 269.990 14.870,274.397 17.707,276.583 18.612 C 285.044 22.115,291.452 19.824,298.333 10.833 C 298.932 10.051,299.481 9.497,299.651 9.504 C 299.705 9.506,300.050 9.583,300.417 9.674 C 308.215 11.616,315.133 9.562,318.253 4.377 C 319.184 2.830,319.176 2.832,320.289 3.790 C 321.577 4.899,322.414 5.405,323.957 6.006 C 324.668 6.283,325.429 6.601,325.648 6.712 C 325.923 6.852,327.163 6.915,329.671 6.915 L 333.295 6.917 333.939 7.917 C 335.764 10.750,339.170 13.692,341.833 14.734 C 342.246 14.895,342.808 15.125,343.083 15.243 C 344.932 16.041,349.077 16.518,351.281 16.186 C 354.234 15.742,358.289 14.609,360.546 13.598 C 361.893 12.995,361.888 12.993,363.823 14.689 C 366.506 17.042,368.202 18.047,371.667 19.340 L 373.583 20.055 376.500 20.069 C 382.329 20.097,386.076 18.000,390.766 12.081 C 392.065 10.442,392.075 10.437,393.207 10.769 C 394.082 11.026,394.585 11.155,396.000 11.489 C 397.389 11.817,399.050 12.016,399.526 11.911 L 400.000 11.807 400.000 5.903 L 400.000 0.000 200.000 0.000 L 0.000 0.000 0.000 3.599 " stroke="none" fill="transparent" fill-rule="evenodd"></path><path id="path4" d="M231.734 0.526 C 231.659 0.647,231.689 0.673,231.815 0.595 C 231.925 0.527,232.126 0.563,232.261 0.676 C 232.464 0.845,232.489 0.832,232.403 0.607 C 232.281 0.291,231.907 0.245,231.734 0.526 M229.583 3.022 C 228.713 4.051,228.002 4.687,225.736 6.465 C 225.469 6.674,225.736 6.529,226.330 6.141 C 227.392 5.447,230.152 2.816,230.501 2.165 C 230.783 1.637,230.647 1.765,229.583 3.022 M233.861 3.125 C 236.228 6.633,239.246 9.755,242.790 12.362 C 243.974 13.233,245.667 14.261,245.667 14.109 C 245.667 14.066,245.310 13.828,244.875 13.579 C 241.331 11.551,236.671 7.061,234.025 3.125 C 233.547 2.415,233.119 1.833,233.073 1.833 C 233.027 1.833,233.382 2.415,233.861 3.125 M78.533 3.033 C 78.423 3.143,78.333 3.308,78.333 3.399 C 78.333 3.489,78.439 3.419,78.568 3.243 C 78.799 2.928,78.816 2.929,79.485 3.305 C 80.321 3.775,80.398 3.669,79.574 3.183 C 78.885 2.777,78.802 2.765,78.533 3.033 M318.974 3.292 C 318.839 3.452,318.599 3.808,318.441 4.083 C 318.130 4.621,318.238 4.505,319.019 3.462 L 319.288 3.102 320.269 3.906 L 321.250 4.709 320.333 3.860 C 319.290 2.893,319.303 2.899,318.974 3.292 M77.850 4.260 C 77.657 4.586,77.575 4.807,77.668 4.749 C 77.848 4.638,78.389 3.667,78.271 3.667 C 78.232 3.667,78.042 3.934,77.850 4.260 M80.347 3.728 C 80.578 3.930,81.833 4.656,81.833 4.588 C 81.833 4.486,80.552 3.667,80.392 3.667 C 80.329 3.667,80.309 3.694,80.347 3.728 M105.333 4.616 C 105.471 4.666,105.921 5.016,106.333 5.395 L 107.083 6.083 106.340 5.292 C 105.932 4.856,105.482 4.506,105.340 4.513 C 105.117 4.525,105.116 4.538,105.333 4.616 M82.167 4.842 C 82.601 5.138,83.333 5.511,83.333 5.437 C 83.333 5.345,82.183 4.666,82.032 4.669 C 81.969 4.671,82.029 4.748,82.167 4.842 M104.290 4.986 C 103.624 5.413,103.501 5.586,104.083 5.277 C 104.782 4.907,105.113 4.670,104.917 4.681 C 104.825 4.687,104.543 4.824,104.290 4.986 M133.240 5.629 C 132.775 6.062,131.950 6.817,131.406 7.306 L 130.417 8.195 131.500 7.317 C 132.096 6.834,132.932 6.107,133.359 5.700 C 134.291 4.812,134.183 4.780,135.554 6.359 C 136.843 7.844,137.538 8.421,138.917 9.153 C 140.012 9.735,139.890 9.636,138.081 8.475 C 137.272 7.955,136.467 7.226,135.645 6.267 C 134.208 4.592,134.318 4.621,133.240 5.629 M77.154 5.357 C 77.049 5.554,76.655 6.060,76.279 6.482 L 75.596 7.250 76.260 6.628 C 76.875 6.052,77.632 5.000,77.432 5.000 C 77.384 5.000,77.259 5.161,77.154 5.357 M316.083 6.900 C 315.350 7.636,315.050 8.003,315.417 7.716 C 316.224 7.083,317.801 5.488,317.577 5.531 C 317.489 5.547,316.817 6.164,316.083 6.900 M322.667 5.596 C 322.667 5.709,323.532 6.023,323.615 5.941 C 323.653 5.903,323.455 5.792,323.175 5.695 C 322.895 5.597,322.667 5.553,322.667 5.596 M101.667 6.417 C 101.254 6.638,100.976 6.822,101.048 6.826 C 101.225 6.836,102.500 6.181,102.500 6.080 C 102.500 5.970,102.507 5.967,101.667 6.417 M324.167 6.250 C 324.396 6.381,324.696 6.488,324.833 6.488 C 324.971 6.487,324.831 6.377,324.523 6.243 C 323.813 5.935,323.622 5.939,324.167 6.250 M85.667 6.570 C 86.131 6.850,86.496 6.923,86.242 6.685 C 86.155 6.604,85.896 6.488,85.667 6.428 L 85.250 6.319 85.667 6.570 M107.971 6.702 C 108.261 7.069,111.500 9.286,111.500 9.118 C 111.500 9.080,110.956 8.689,110.292 8.250 C 109.627 7.811,108.783 7.220,108.417 6.937 C 108.050 6.654,107.849 6.548,107.971 6.702 M86.750 7.000 C 86.933 7.079,87.196 7.143,87.333 7.143 C 87.491 7.143,87.460 7.090,87.250 7.000 C 87.067 6.921,86.804 6.857,86.667 6.857 C 86.509 6.857,86.540 6.910,86.750 7.000 M99.667 7.175 C 99.254 7.344,99.029 7.482,99.167 7.482 C 99.304 7.481,99.754 7.340,100.167 7.167 C 100.579 6.994,100.804 6.856,100.667 6.860 C 100.529 6.864,100.079 7.006,99.667 7.175 M224.296 7.234 C 223.423 7.752,223.285 7.943,224.083 7.527 C 224.919 7.092,225.299 6.835,225.083 6.852 C 224.992 6.859,224.637 7.031,224.296 7.234 M327.349 7.055 C 327.845 7.131,329.352 7.161,330.699 7.122 C 332.777 7.063,333.189 7.092,333.426 7.318 C 333.683 7.563,333.689 7.558,333.505 7.250 C 333.316 6.934,333.128 6.917,329.877 6.917 C 327.451 6.917,326.712 6.957,327.349 7.055 M87.917 7.333 C 88.100 7.412,88.362 7.477,88.500 7.477 C 88.658 7.477,88.627 7.424,88.417 7.333 C 88.233 7.255,87.971 7.190,87.833 7.190 C 87.676 7.190,87.707 7.243,87.917 7.333 M0.364 7.832 C 1.576 9.659,3.914 12.135,5.375 13.139 C 6.537 13.937,6.340 13.654,5.125 12.780 C 3.972 11.950,3.010 10.985,1.652 9.294 C 1.156 8.676,0.576 7.964,0.364 7.711 L -0.022 7.250 0.364 7.832 M88.847 7.561 C 88.885 7.595,89.217 7.668,89.583 7.724 C 90.048 7.795,90.149 7.780,89.917 7.674 C 89.597 7.529,88.704 7.435,88.847 7.561 M333.949 8.179 C 334.115 8.462,334.357 8.780,334.487 8.888 C 334.617 8.995,334.513 8.765,334.256 8.375 C 333.717 7.557,333.504 7.422,333.949 8.179 M74.250 8.265 L 73.750 8.694 74.292 8.336 C 74.590 8.139,74.833 7.945,74.833 7.905 C 74.833 7.781,74.763 7.824,74.250 8.265 M92.024 8.045 C 92.908 8.119,94.408 8.118,95.357 8.043 C 96.916 7.920,96.761 7.907,93.750 7.909 C 90.839 7.911,90.620 7.928,92.024 8.045 M129.718 8.599 L 129.250 9.031 129.792 8.671 C 130.288 8.341,130.449 8.167,130.259 8.167 C 130.219 8.167,129.975 8.361,129.718 8.599 M222.000 8.417 C 221.771 8.548,221.658 8.655,221.750 8.655 C 221.842 8.655,222.104 8.548,222.333 8.417 C 222.563 8.286,222.675 8.178,222.583 8.178 C 222.492 8.178,222.229 8.286,222.000 8.417 M72.792 8.985 C 72.448 9.146,72.111 9.335,72.042 9.406 C 71.904 9.548,72.990 9.119,73.457 8.848 C 73.928 8.573,73.473 8.667,72.792 8.985 M220.750 8.923 C 220.333 9.123,220.319 9.146,220.667 9.062 C 221.139 8.946,221.670 8.676,221.417 8.679 C 221.325 8.681,221.025 8.790,220.750 8.923 M128.457 9.396 C 127.558 9.948,127.467 10.100,128.280 9.690 C 128.664 9.496,129.024 9.262,129.082 9.169 C 129.226 8.936,129.173 8.956,128.457 9.396 M312.417 9.324 C 312.050 9.498,311.797 9.646,311.855 9.653 C 312.016 9.674,313.167 9.173,313.167 9.081 C 313.167 8.969,313.166 8.970,312.417 9.324 M111.833 9.343 C 112.249 9.627,113.981 10.500,114.120 10.496 C 114.192 10.493,113.688 10.193,113.002 9.829 C 111.795 9.188,111.317 8.989,111.833 9.343 M206.665 9.540 C 206.278 10.122,206.104 10.437,206.272 10.250 C 207.006 9.433,207.202 9.167,207.069 9.167 C 206.984 9.167,206.802 9.335,206.665 9.540 M208.667 9.424 C 209.171 9.550,209.771 9.649,210.000 9.646 C 210.229 9.642,209.967 9.537,209.417 9.413 C 208.109 9.119,207.479 9.127,208.667 9.424 M219.467 9.255 C 219.419 9.303,219.050 9.407,218.648 9.487 C 218.213 9.572,218.085 9.637,218.333 9.646 C 218.563 9.655,219.088 9.555,219.500 9.425 C 219.912 9.295,220.094 9.184,219.903 9.178 C 219.712 9.172,219.516 9.206,219.467 9.255 M334.914 9.500 C 335.491 10.245,337.735 12.418,338.333 12.812 C 338.849 13.151,338.839 13.132,338.250 12.656 C 337.883 12.359,336.910 11.434,336.088 10.600 C 335.265 9.766,334.737 9.271,334.914 9.500 M71.000 9.703 C 70.679 9.798,70.502 9.908,70.607 9.946 C 70.712 9.984,71.049 9.906,71.357 9.771 C 72.008 9.487,71.837 9.455,71.000 9.703 M60.500 9.833 C 60.729 9.907,61.067 9.967,61.250 9.967 C 61.514 9.967,61.497 9.939,61.167 9.833 C 60.938 9.760,60.600 9.700,60.417 9.700 C 60.153 9.700,60.170 9.728,60.500 9.833 M155.750 10.333 C 156.108 10.700,156.438 11.000,156.484 11.000 C 156.530 11.000,156.275 10.700,155.917 10.333 C 155.559 9.967,155.228 9.667,155.182 9.667 C 155.137 9.667,155.392 9.967,155.750 10.333 M211.083 9.833 C 211.358 9.903,211.846 9.961,212.167 9.961 L 212.750 9.962 212.083 9.824 C 211.186 9.638,210.347 9.646,211.083 9.833 M216.167 9.833 C 215.724 9.926,215.684 9.959,216.000 9.968 C 216.229 9.975,216.717 9.919,217.083 9.843 C 217.639 9.728,217.667 9.705,217.250 9.708 C 216.975 9.709,216.487 9.766,216.167 9.833 M300.500 9.833 C 301.070 10.016,301.508 10.016,301.083 9.833 C 300.900 9.755,300.600 9.692,300.417 9.695 C 300.149 9.699,300.165 9.726,300.500 9.833 M62.347 10.063 C 62.385 10.098,63.504 10.165,64.833 10.212 C 66.429 10.268,66.825 10.254,66.000 10.170 C 64.639 10.032,62.236 9.962,62.347 10.063 M67.958 10.122 C 68.348 10.157,68.985 10.157,69.375 10.122 C 69.765 10.087,69.446 10.058,68.667 10.058 C 67.887 10.058,67.569 10.087,67.958 10.122 M152.417 10.167 C 152.207 10.257,152.176 10.310,152.333 10.310 C 152.471 10.310,152.733 10.245,152.917 10.167 C 153.127 10.076,153.158 10.023,153.000 10.023 C 152.862 10.023,152.600 10.088,152.417 10.167 M298.597 10.464 L 298.277 10.917 298.722 10.513 C 299.189 10.088,299.247 9.997,299.042 10.005 C 298.973 10.008,298.773 10.214,298.597 10.464 M302.250 10.167 C 302.525 10.237,302.975 10.294,303.250 10.294 C 303.670 10.295,303.644 10.273,303.083 10.157 C 302.239 9.982,301.557 9.990,302.250 10.167 M309.583 10.167 C 309.159 10.349,309.597 10.349,310.167 10.167 C 310.502 10.059,310.518 10.032,310.250 10.028 C 310.067 10.026,309.767 10.088,309.583 10.167 M57.588 11.750 C 56.881 12.529,56.365 13.161,56.443 13.153 C 56.588 13.139,59.083 10.333,58.949 10.333 C 58.908 10.333,58.296 10.971,57.588 11.750 M125.917 10.679 C 125.550 10.855,125.438 10.953,125.667 10.896 C 126.139 10.778,127.005 10.344,126.750 10.352 C 126.658 10.355,126.283 10.502,125.917 10.679 M305.382 10.457 C 306.004 10.489,306.979 10.489,307.549 10.457 C 308.118 10.424,307.608 10.398,306.417 10.398 C 305.225 10.398,304.759 10.425,305.382 10.457 M114.500 10.639 C 114.638 10.724,114.938 10.843,115.167 10.904 C 115.456 10.982,115.507 10.969,115.333 10.861 C 115.196 10.776,114.896 10.657,114.667 10.596 C 114.377 10.518,114.326 10.531,114.500 10.639 M142.681 10.727 C 142.719 10.760,143.087 10.832,143.500 10.886 C 144.001 10.952,144.139 10.936,143.917 10.838 C 143.598 10.697,142.536 10.601,142.681 10.727 M149.167 10.839 C 148.898 10.929,149.075 10.944,149.667 10.883 C 150.171 10.831,150.615 10.761,150.653 10.727 C 150.786 10.611,149.580 10.701,149.167 10.839 M145.548 11.123 C 146.078 11.157,146.903 11.156,147.381 11.123 C 147.859 11.089,147.425 11.062,146.417 11.062 C 145.408 11.063,145.017 11.090,145.548 11.123 M296.990 12.521 C 294.289 15.833,291.857 17.742,288.333 19.316 L 287.917 19.502 288.333 19.408 C 290.867 18.840,294.945 15.456,298.214 11.208 C 298.302 11.094,298.342 11.000,298.302 11.000 C 298.262 11.000,297.671 11.684,296.990 12.521 M393.847 11.060 C 393.885 11.093,394.142 11.170,394.417 11.232 C 394.782 11.313,394.849 11.298,394.667 11.174 C 394.442 11.022,393.680 10.916,393.847 11.060 M157.250 12.000 C 157.701 12.458,158.108 12.833,158.154 12.833 C 158.200 12.833,157.868 12.458,157.417 12.000 C 156.965 11.542,156.558 11.167,156.513 11.167 C 156.467 11.167,156.799 11.542,157.250 12.000 M117.833 11.576 C 118.940 11.818,122.519 11.901,123.037 11.697 C 123.194 11.634,122.257 11.583,120.953 11.583 C 119.650 11.583,118.171 11.528,117.667 11.461 C 116.782 11.343,116.788 11.347,117.833 11.576 M390.398 12.542 C 389.863 13.206,389.169 13.994,388.856 14.292 C 388.543 14.590,388.365 14.833,388.460 14.833 C 388.627 14.833,389.550 13.810,390.904 12.125 C 391.254 11.690,391.502 11.333,391.456 11.333 C 391.409 11.333,390.933 11.877,390.398 12.542 M395.833 11.577 C 396.246 11.715,396.771 11.821,397.000 11.812 C 397.434 11.794,397.022 11.677,395.667 11.432 C 395.190 11.346,395.220 11.372,395.833 11.577 M203.343 13.718 C 201.884 15.283,201.812 15.382,202.898 14.333 C 204.012 13.256,205.312 11.813,205.139 11.843 C 205.108 11.849,204.300 12.692,203.343 13.718 M158.339 12.958 C 158.341 13.027,158.548 13.227,158.797 13.403 L 159.250 13.723 158.846 13.278 C 158.421 12.811,158.330 12.753,158.339 12.958 M27.118 13.576 C 26.678 13.787,26.266 14.013,26.201 14.080 C 26.057 14.229,27.091 13.807,27.762 13.444 C 28.502 13.043,28.025 13.141,27.118 13.576 M339.333 13.472 C 339.810 13.866,341.000 14.560,341.000 14.444 C 341.000 14.401,340.750 14.219,340.444 14.038 C 340.138 13.858,339.669 13.579,339.402 13.419 L 338.917 13.127 339.333 13.472 M362.250 13.447 C 362.896 14.129,365.803 16.587,366.315 16.884 C 367.066 17.320,366.951 17.122,366.144 16.588 C 365.765 16.337,364.808 15.564,364.019 14.871 C 363.229 14.177,362.433 13.494,362.250 13.353 L 361.917 13.096 362.250 13.447 M55.083 14.392 C 54.346 15.130,54.259 15.258,54.750 14.879 C 55.522 14.283,56.468 13.320,56.240 13.362 C 56.154 13.378,55.633 13.842,55.083 14.392 M268.333 13.450 C 268.471 13.500,268.846 13.775,269.167 14.062 L 269.750 14.583 269.176 13.958 C 268.860 13.615,268.485 13.339,268.342 13.346 C 268.118 13.358,268.117 13.372,268.333 13.450 M360.000 13.833 C 359.679 14.009,359.492 14.153,359.583 14.153 C 359.675 14.153,360.012 14.009,360.333 13.833 C 360.654 13.658,360.842 13.514,360.750 13.514 C 360.658 13.514,360.321 13.658,360.000 13.833 M6.333 13.745 C 6.333 13.850,7.397 14.469,7.915 14.666 C 8.187 14.769,8.373 14.817,8.328 14.772 C 8.193 14.637,6.333 13.680,6.333 13.745 M29.451 14.016 C 30.260 14.897,34.778 18.003,35.243 17.998 C 35.339 17.997,35.117 17.823,34.750 17.611 C 33.286 16.765,31.520 15.568,30.333 14.617 C 29.646 14.066,29.249 13.796,29.451 14.016 M159.500 13.874 C 159.811 14.174,161.000 14.890,161.000 14.778 C 161.000 14.732,160.606 14.456,160.125 14.164 C 159.644 13.872,159.362 13.742,159.500 13.874 M24.917 14.512 C 24.550 14.688,24.433 14.786,24.656 14.729 C 25.266 14.572,26.119 14.179,25.833 14.186 C 25.696 14.189,25.283 14.336,24.917 14.512 M246.333 14.500 C 246.654 14.676,246.992 14.819,247.083 14.819 C 247.175 14.819,246.987 14.676,246.667 14.500 C 246.346 14.324,246.008 14.181,245.917 14.181 C 245.825 14.181,246.012 14.324,246.333 14.500 M265.667 14.583 C 265.254 14.804,264.992 14.985,265.083 14.985 C 265.175 14.985,265.587 14.804,266.000 14.583 C 266.412 14.362,266.675 14.182,266.583 14.182 C 266.492 14.182,266.079 14.362,265.667 14.583 M269.833 14.552 C 269.833 14.593,270.109 14.837,270.445 15.094 C 270.782 15.350,271.004 15.475,270.940 15.371 C 270.808 15.158,269.833 14.436,269.833 14.552 M341.340 14.643 C 341.722 14.893,343.443 15.548,343.250 15.370 C 343.100 15.232,341.972 14.751,341.333 14.552 C 341.122 14.487,341.123 14.500,341.340 14.643 M161.167 14.908 C 161.167 14.954,161.392 15.108,161.667 15.250 C 161.942 15.392,162.167 15.471,162.167 15.425 C 162.167 15.379,161.942 15.226,161.667 15.083 C 161.392 14.941,161.167 14.862,161.167 14.908 M247.333 14.905 C 247.333 15.008,249.949 16.001,250.203 15.994 C 250.320 15.991,249.742 15.730,248.917 15.415 C 247.267 14.783,247.333 14.804,247.333 14.905 M22.857 15.191 C 22.549 15.280,22.328 15.384,22.366 15.422 C 22.450 15.506,23.667 15.182,23.667 15.075 C 23.667 14.977,23.534 14.996,22.857 15.191 M387.333 15.807 C 386.802 16.329,386.729 16.446,387.083 16.207 C 387.627 15.840,388.261 15.193,388.152 15.117 C 388.114 15.091,387.746 15.402,387.333 15.807 M177.542 15.431 C 176.766 15.770,176.871 15.882,177.666 15.564 C 178.033 15.417,178.449 15.342,178.592 15.397 C 178.740 15.454,178.807 15.426,178.749 15.331 C 178.612 15.110,178.197 15.144,177.542 15.431 M10.417 15.667 C 10.600 15.745,10.862 15.810,11.000 15.810 C 11.158 15.810,11.127 15.757,10.917 15.667 C 10.733 15.588,10.471 15.523,10.333 15.523 C 10.176 15.523,10.207 15.576,10.417 15.667 M21.333 15.674 C 21.151 15.798,21.218 15.813,21.583 15.732 C 22.196 15.595,22.329 15.499,21.903 15.503 C 21.727 15.504,21.471 15.581,21.333 15.674 M200.917 15.931 L 200.417 16.361 200.958 16.002 C 201.256 15.805,201.500 15.612,201.500 15.572 C 201.500 15.447,201.429 15.491,200.917 15.931 M262.500 15.750 C 262.179 15.874,262.029 15.975,262.167 15.975 C 262.304 15.975,262.679 15.874,263.000 15.750 C 263.321 15.626,263.471 15.525,263.333 15.525 C 263.196 15.525,262.821 15.626,262.500 15.750 M271.667 15.971 C 272.764 16.922,277.373 19.349,277.617 19.105 C 277.651 19.071,277.245 18.870,276.714 18.659 C 275.569 18.202,273.086 16.846,271.917 16.040 C 271.149 15.510,271.129 15.505,271.667 15.971 M343.514 15.561 C 343.552 15.595,343.883 15.668,344.250 15.724 C 344.715 15.795,344.816 15.780,344.583 15.674 C 344.263 15.529,343.371 15.435,343.514 15.561 M353.667 15.758 C 353.254 15.877,353.067 15.976,353.250 15.979 C 353.433 15.983,353.958 15.881,354.417 15.754 C 354.875 15.627,355.063 15.527,354.833 15.533 C 354.604 15.539,354.079 15.640,353.667 15.758 M20.208 15.948 C 20.369 15.990,20.631 15.990,20.792 15.948 C 20.952 15.906,20.821 15.872,20.500 15.872 C 20.179 15.872,20.048 15.906,20.208 15.948 M52.500 16.437 C 51.431 17.273,51.277 17.484,52.216 16.826 C 52.917 16.335,53.494 15.817,53.312 15.842 C 53.278 15.847,52.913 16.114,52.500 16.437 M163.333 16.083 C 163.563 16.214,163.825 16.322,163.917 16.322 C 164.008 16.322,163.896 16.214,163.667 16.083 C 163.438 15.952,163.175 15.845,163.083 15.845 C 162.992 15.845,163.104 15.952,163.333 16.083 M176.167 16.083 C 175.938 16.214,175.825 16.322,175.917 16.322 C 176.008 16.322,176.271 16.214,176.500 16.083 C 176.729 15.952,176.842 15.845,176.750 15.845 C 176.658 15.845,176.396 15.952,176.167 16.083 M12.333 16.167 C 12.563 16.240,12.900 16.300,13.083 16.300 C 13.347 16.300,13.330 16.272,13.000 16.167 C 12.771 16.093,12.433 16.033,12.250 16.033 C 11.986 16.033,12.003 16.061,12.333 16.167 M18.750 16.167 L 18.417 16.310 18.750 16.305 C 18.933 16.302,19.271 16.240,19.500 16.167 L 19.917 16.033 19.500 16.028 C 19.271 16.026,18.933 16.088,18.750 16.167 M260.917 16.167 C 260.492 16.349,260.930 16.349,261.500 16.167 C 261.835 16.059,261.851 16.032,261.583 16.028 C 261.400 16.026,261.100 16.088,260.917 16.167 M346.083 16.168 C 346.403 16.304,347.796 16.397,347.653 16.273 C 347.615 16.240,347.171 16.171,346.667 16.120 C 346.096 16.062,345.876 16.080,346.083 16.168 M351.333 16.167 C 350.891 16.260,350.851 16.292,351.167 16.302 C 351.396 16.309,351.883 16.252,352.250 16.176 C 352.806 16.061,352.833 16.039,352.417 16.041 C 352.142 16.043,351.654 16.099,351.333 16.167 M15.208 16.453 C 15.460 16.491,15.873 16.491,16.125 16.453 C 16.377 16.415,16.171 16.383,15.667 16.383 C 15.162 16.383,14.956 16.415,15.208 16.453 M174.583 16.681 C 174.125 16.858,173.967 16.960,174.232 16.909 C 174.756 16.807,175.854 16.361,175.583 16.360 C 175.492 16.359,175.042 16.504,174.583 16.681 M180.667 16.389 C 180.667 16.432,180.909 16.552,181.205 16.655 C 181.500 16.758,181.669 16.774,181.580 16.690 C 181.390 16.512,180.667 16.274,180.667 16.389 M252.417 16.501 C 253.090 16.649,254.281 16.720,254.153 16.604 C 254.115 16.569,253.558 16.499,252.917 16.448 C 252.020 16.376,251.904 16.388,252.417 16.501 M164.500 16.577 C 164.500 16.686,166.648 17.335,166.976 17.324 C 167.127 17.319,166.650 17.135,165.917 16.914 C 164.368 16.448,164.500 16.480,164.500 16.577 M198.917 17.086 C 198.367 17.403,197.983 17.663,198.063 17.665 C 198.239 17.667,200.000 16.673,200.000 16.571 C 200.000 16.463,199.988 16.469,198.917 17.086 M258.211 16.620 C 258.464 16.658,258.839 16.657,259.044 16.617 C 259.249 16.578,259.042 16.546,258.583 16.548 C 258.125 16.549,257.957 16.581,258.211 16.620 M255.125 16.790 C 255.606 16.823,256.394 16.823,256.875 16.790 C 257.356 16.756,256.962 16.728,256.000 16.728 C 255.037 16.728,254.644 16.756,255.125 16.790 M182.167 17.083 C 182.396 17.214,182.658 17.322,182.750 17.322 C 182.842 17.322,182.729 17.214,182.500 17.083 C 182.271 16.952,182.008 16.845,181.917 16.845 C 181.825 16.845,181.938 16.952,182.167 17.083 M172.750 17.167 C 172.325 17.349,172.763 17.349,173.333 17.167 C 173.668 17.059,173.685 17.032,173.417 17.028 C 173.233 17.026,172.933 17.088,172.750 17.167 M367.250 17.428 C 367.656 17.751,369.179 18.543,369.252 18.470 C 369.281 18.440,368.767 18.135,368.111 17.790 C 367.454 17.445,367.067 17.283,367.250 17.428 M49.917 18.038 C 49.183 18.417,48.133 18.903,47.583 19.119 C 47.033 19.335,46.808 19.469,47.083 19.417 C 47.618 19.317,51.333 17.573,51.333 17.423 C 51.333 17.301,51.408 17.268,49.917 18.038 M168.708 17.457 C 169.327 17.489,170.340 17.489,170.958 17.457 C 171.577 17.425,171.071 17.399,169.833 17.399 C 168.596 17.399,168.090 17.425,168.708 17.457 M384.675 17.846 C 383.594 18.556,383.436 18.792,384.457 18.171 C 384.937 17.879,385.373 17.571,385.425 17.487 C 385.556 17.275,385.516 17.294,384.675 17.846 M184.500 17.917 C 184.821 18.040,185.196 18.141,185.333 18.141 C 185.471 18.141,185.321 18.040,185.000 17.917 C 184.679 17.793,184.304 17.692,184.167 17.692 C 184.029 17.692,184.179 17.793,184.500 17.917 M196.917 18.012 C 196.550 18.188,196.438 18.286,196.667 18.229 C 197.139 18.111,198.005 17.677,197.750 17.686 C 197.658 17.689,197.283 17.836,196.917 18.012 M35.522 18.078 C 35.663 18.218,36.833 18.673,36.833 18.588 C 36.833 18.542,36.562 18.391,36.230 18.252 C 35.615 17.995,35.383 17.938,35.522 18.078 M186.347 18.395 C 186.385 18.428,186.717 18.501,187.083 18.557 C 187.548 18.628,187.649 18.613,187.417 18.508 C 187.097 18.363,186.204 18.268,186.347 18.395 M188.750 18.860 C 189.809 19.001,192.474 19.000,193.667 18.859 C 194.178 18.798,193.109 18.750,191.250 18.750 C 189.417 18.750,188.292 18.800,188.750 18.860 M369.833 18.720 C 369.833 18.841,371.692 19.530,371.781 19.441 C 371.820 19.403,371.529 19.258,371.134 19.120 C 370.739 18.982,370.285 18.815,370.125 18.750 C 369.965 18.684,369.833 18.671,369.833 18.720 M382.926 18.922 C 382.749 19.057,382.678 19.167,382.770 19.167 C 382.861 19.167,383.082 19.057,383.260 18.922 C 383.438 18.787,383.508 18.677,383.417 18.677 C 383.325 18.677,383.104 18.787,382.926 18.922 M372.417 19.756 C 372.692 19.882,373.029 19.983,373.167 19.980 C 373.304 19.977,373.154 19.874,372.833 19.750 C 372.072 19.457,371.773 19.461,372.417 19.756 M41.458 19.789 C 41.848 19.824,42.485 19.824,42.875 19.789 C 43.265 19.754,42.946 19.725,42.167 19.725 C 41.387 19.725,41.069 19.754,41.458 19.789 M44.044 19.786 C 44.297 19.825,44.672 19.824,44.877 19.784 C 45.082 19.744,44.875 19.713,44.417 19.714 C 43.958 19.716,43.791 19.748,44.044 19.786 M281.250 20.177 C 281.741 20.292,285.243 20.362,284.917 20.250 C 284.825 20.219,283.850 20.163,282.750 20.126 C 281.650 20.090,280.975 20.113,281.250 20.177 M285.375 20.115 C 285.535 20.157,285.798 20.157,285.958 20.115 C 286.119 20.073,285.987 20.039,285.667 20.039 C 285.346 20.039,285.215 20.073,285.375 20.115 M373.960 20.118 C 374.168 20.158,374.468 20.156,374.627 20.115 C 374.786 20.073,374.617 20.040,374.250 20.042 C 373.883 20.044,373.753 20.078,373.960 20.118 M376.917 20.167 L 374.917 20.266 376.833 20.280 C 377.887 20.288,378.975 20.237,379.250 20.167 C 379.836 20.017,379.912 20.017,376.917 20.167 " stroke="none" fill="#ffffff" fill-rule="evenodd"></path></g></svg>